<svg width="28" height="27" viewBox="0 0 28 27" fill="none" xmlns="http://www.w3.org/2000/svg">
<path d="M23.8 0H4.2C3.08609 0 2.0178 0.442499 1.23015 1.23015C0.442499 2.0178 0 3.08609 0 4.2V25.2C0.0004275 25.4481 0.0667643 25.6916 0.192221 25.9056C0.317677 26.1196 0.497747 26.2965 0.714 26.418C0.923238 26.5366 1.1595 26.5993 1.4 26.6C1.65128 26.5999 1.8979 26.5322 2.114 26.404L8.4 22.596C8.63235 22.4577 8.89979 22.3896 9.17 22.4H23.8C24.9139 22.4 25.9822 21.9575 26.7698 21.1699C27.5575 20.3822 28 19.3139 28 18.2V4.2C28 3.08609 27.5575 2.0178 26.7698 1.23015C25.9822 0.442499 24.9139 0 23.8 0ZM8.4 12.6C8.12311 12.6 7.85243 12.5179 7.6222 12.3641C7.39197 12.2102 7.21253 11.9916 7.10657 11.7358C7.00061 11.4799 6.97288 11.1985 7.0269 10.9269C7.08092 10.6553 7.21426 10.4058 7.41005 10.2101C7.60584 10.0143 7.8553 9.88092 8.12687 9.8269C8.39845 9.77288 8.67994 9.80061 8.93576 9.90657C9.19157 10.0125 9.41022 10.192 9.56406 10.4222C9.71789 10.6524 9.8 10.9231 9.8 11.2C9.8 11.5713 9.6525 11.9274 9.38995 12.19C9.1274 12.4525 8.7713 12.6 8.4 12.6ZM14 12.6C13.7231 12.6 13.4524 12.5179 13.2222 12.3641C12.992 12.2102 12.8125 11.9916 12.7066 11.7358C12.6006 11.4799 12.5729 11.1985 12.6269 10.9269C12.6809 10.6553 12.8143 10.4058 13.0101 10.2101C13.2058 10.0143 13.4553 9.88092 13.7269 9.8269C13.9984 9.77288 14.2799 9.80061 14.5358 9.90657C14.7916 10.0125 15.0102 10.192 15.1641 10.4222C15.3179 10.6524 15.4 10.9231 15.4 11.2C15.4 11.5713 15.2525 11.9274 14.9899 12.19C14.7274 12.4525 14.3713 12.6 14 12.6ZM19.6 12.6C19.3231 12.6 19.0524 12.5179 18.8222 12.3641C18.592 12.2102 18.4125 11.9916 18.3066 11.7358C18.2006 11.4799 18.1729 11.1985 18.2269 10.9269C18.2809 10.6553 18.4143 10.4058 18.6101 10.2101C18.8058 10.0143 19.0553 9.88092 19.3269 9.8269C19.5984 9.77288 19.8799 9.80061 20.1358 9.90657C20.3916 10.0125 20.6102 10.192 20.7641 10.4222C20.9179 10.6524 21 10.9231 21 11.2C21 11.5713 20.8525 11.9274 20.59 12.19C20.3274 12.4525 19.9713 12.6 19.6 12.6Z" fill="white"/>
</svg>
