<svg width="187" height="140" viewBox="0 0 187 140" fill="none" xmlns="http://www.w3.org/2000/svg">
<g clip-path="url(#clip0)">
<path d="M28.8618 89.4497C29.0767 89.3771 29.2683 89.2483 29.4166 89.0767C29.5915 88.8663 29.6875 88.6013 29.6879 88.3277C29.6831 88.1537 29.653 87.9813 29.5985 87.816C29.5522 87.6342 29.5029 87.4369 29.4536 87.2304C29.0375 85.5628 28.4457 83.1648 27.7121 80.2119L27.1418 77.8847C27.0432 77.4738 26.9405 77.0628 26.8336 76.6518C26.7939 76.4414 26.7351 76.2351 26.6579 76.0353C26.568 75.8496 26.4268 75.6935 26.2511 75.5853C26.0731 75.4779 25.8667 75.4273 25.6592 75.4404C25.4375 75.4759 25.2182 75.5253 25.0027 75.5884L23.6372 75.946L20.7799 76.6857L8.06528 79.9715C7.81099 80.0437 7.59233 80.2073 7.45125 80.4309C7.31017 80.6544 7.25662 80.9222 7.30086 81.1828C7.43649 81.7407 7.56902 82.2925 7.69848 82.8442C7.96665 83.9446 8.22864 85.0327 8.48756 86.0992C9.00231 88.2352 9.50165 90.2942 9.97325 92.2638C10.0318 92.5104 10.0935 92.7539 10.1489 92.9944C10.1889 93.2194 10.2964 93.4268 10.4572 93.5892C10.6182 93.7458 10.8261 93.8454 11.049 93.8728C11.2776 93.8817 11.5059 93.8462 11.7209 93.768L14.418 93.0807L19.2572 91.8477L26.285 90.0661L28.1929 89.5976L28.6923 89.4805L28.8618 89.4466C28.8078 89.4694 28.7522 89.4879 28.6953 89.5021L28.2053 89.6408L26.3065 90.1524L19.3127 92.0018L14.4796 93.2625L11.7857 93.9622C11.5463 94.0462 11.2932 94.0839 11.0397 94.0732C10.7735 94.0422 10.5246 93.9253 10.3308 93.7403C10.1404 93.5508 10.0097 93.3097 9.95475 93.0468C9.89619 92.8033 9.83762 92.5597 9.77598 92.3162C9.29822 90.3528 8.79888 88.3092 8.27796 86.1516L7.4858 82.8966C7.35223 82.3418 7.21867 81.7829 7.0851 81.2198C7.03052 80.9046 7.09488 80.5803 7.26572 80.3098C7.43655 80.0393 7.7017 79.8419 8.0098 79.7557L20.7306 76.4854L23.5879 75.7549L24.9565 75.4035C25.1831 75.3375 25.4137 75.286 25.6469 75.2493C25.8938 75.2371 26.1387 75.2994 26.3497 75.4281C26.5543 75.5557 26.7189 75.7384 26.8244 75.9552C26.9038 76.1655 26.9657 76.382 27.0093 76.6025C27.1121 77.0258 27.2148 77.4368 27.3175 77.8354C27.5117 78.6461 27.6998 79.4259 27.8754 80.1688C28.5782 83.1309 29.1485 85.532 29.5461 87.2026L29.6848 87.7914C29.7361 87.9645 29.7631 88.144 29.7649 88.3246C29.7557 88.6115 29.6467 88.8862 29.4567 89.1014C29.3412 89.2348 29.1967 89.3403 29.0344 89.4096C28.9792 89.4315 28.921 89.445 28.8618 89.4497Z" fill="#E0E0E0"/>
<path d="M18.8812 83.2758L21.606 84.0988L19.5624 86.1331L17.5188 88.1674L16.8376 85.3101L16.1533 82.4528L18.8812 83.2758Z" fill="#E0E0E0"/>
<path d="M177.699 86.9809L150.432 91.7546L154.248 113.554L181.516 108.78L177.699 86.9809Z" fill="#EBEBEB"/>
<path d="M176.965 88.5238L151.614 92.9621L154.949 112.017L180.301 107.579L176.965 88.5238Z" fill="#F5F5F5"/>
<path d="M154.948 112.025L161.729 98.6289L168.51 105.08L171.537 100.466L180.3 107.586L154.948 112.025Z" fill="#E0E0E0"/>
<path d="M169.287 95.8116C169.355 96.2061 169.305 96.6119 169.143 96.9779C168.981 97.3438 168.714 97.6535 168.376 97.8678C168.037 98.082 167.643 98.1913 167.243 98.1816C166.843 98.172 166.455 98.044 166.127 97.8138C165.8 97.5836 165.548 97.2614 165.403 96.8881C165.259 96.5148 165.228 96.107 165.315 95.7163C165.402 95.3256 165.603 94.9694 165.893 94.6929C166.182 94.4164 166.547 94.2318 166.941 94.1626C167.204 94.1165 167.473 94.1226 167.733 94.1806C167.993 94.2386 168.239 94.3473 168.456 94.5005C168.674 94.6536 168.86 94.8483 169.002 95.0733C169.145 95.2983 169.242 95.5492 169.287 95.8116Z" fill="#E0E0E0"/>
<path d="M81.6316 96.8398L76.8545 110.937L94.4869 116.912L99.264 102.815L81.6316 96.8398Z" fill="#EBEBEB"/>
<path d="M81.9364 97.9353L77.7607 110.258L94.1525 115.812L98.3281 103.49L81.9364 97.9353Z" fill="#F5F5F5"/>
<path d="M77.7661 110.265L86.0853 104.547L88.0087 110.539L91.2822 108.794L94.158 115.822L77.7661 110.265Z" fill="#E0E0E0"/>
<path d="M91.458 105.321C91.3713 105.576 91.2109 105.799 90.9972 105.963C90.7835 106.127 90.526 106.224 90.2572 106.242C89.9884 106.259 89.7205 106.197 89.4872 106.062C89.2539 105.928 89.0657 105.727 88.9465 105.485C88.8272 105.244 88.7822 104.972 88.8172 104.705C88.8522 104.438 88.9655 104.188 89.1429 103.985C89.3203 103.782 89.5538 103.637 89.8139 103.567C90.074 103.497 90.349 103.505 90.6042 103.591C90.9464 103.708 91.2285 103.955 91.3885 104.28C91.5486 104.604 91.5735 104.978 91.458 105.321Z" fill="#E0E0E0"/>
<path d="M155.613 26.3114C160.457 21.4676 160.457 13.6143 155.613 8.77047C150.769 3.92668 142.916 3.92668 138.072 8.77047C133.228 13.6143 133.228 21.4676 138.072 26.3114C142.916 31.1552 150.769 31.1552 155.613 26.3114Z" fill="#E0E0E0"/>
<path d="M152.476 17.9395C152.331 17.9646 152.185 17.9749 152.038 17.9703L150.833 17.995C149.81 17.995 148.386 18.0166 146.777 18.0196H146.684V17.1196C146.684 15.3226 146.684 13.6982 146.706 12.5207C146.706 11.9536 146.724 11.482 146.73 11.1244C146.728 10.9543 146.739 10.7842 146.764 10.6159C146.787 10.7844 146.798 10.9544 146.795 11.1244C146.795 11.482 146.81 11.9536 146.82 12.5207C146.82 13.6982 146.844 15.3226 146.844 17.1196C146.844 17.397 146.844 17.6682 146.844 17.9241L146.767 17.8439C148.376 17.8439 149.8 17.8439 150.824 17.8717L152.029 17.8963C152.179 17.8985 152.328 17.9129 152.476 17.9395Z" fill="#FAFAFA"/>
<path d="M146.814 7.17598C146.892 7.51731 146.919 7.86848 146.894 8.21781C146.92 8.56714 146.893 8.91835 146.814 9.25964C146.735 8.91835 146.708 8.56714 146.734 8.21781C146.708 7.86848 146.735 7.51731 146.814 7.17598Z" fill="#FAFAFA"/>
<path d="M152.467 8.84969C152.283 9.14298 152.057 9.40693 151.795 9.6326C151.567 9.89636 151.298 10.1221 151 10.3015C151.182 10.0073 151.408 9.7432 151.671 9.51855C151.9 9.25505 152.168 9.0293 152.467 8.84969Z" fill="#FAFAFA"/>
<path d="M155.771 12.4591C155.509 12.6824 155.221 12.8738 154.914 13.0293C154.635 13.2308 154.333 13.3975 154.014 13.5256C154.246 13.272 154.523 13.0631 154.831 12.9091C155.113 12.7011 155.432 12.5484 155.771 12.4591Z" fill="#FAFAFA"/>
<path d="M157.706 17.8162C156.762 17.9231 155.809 17.9231 154.865 17.8162C155.809 17.7093 156.762 17.7093 157.706 17.8162Z" fill="#FAFAFA"/>
<path d="M138.004 17.6313C137.113 17.7381 136.211 17.7381 135.32 17.6313C136.211 17.5244 137.113 17.5244 138.004 17.6313Z" fill="#FAFAFA"/>
<path d="M139.397 21.6167C139.096 21.9629 138.756 22.2732 138.383 22.5414C138.045 22.8502 137.67 23.1172 137.268 23.3367C137.57 22.9913 137.91 22.6811 138.282 22.412C138.621 22.1044 138.996 21.8375 139.397 21.6167Z" fill="#FAFAFA"/>
<path d="M142.834 24.7021C142.634 25.1173 142.403 25.517 142.144 25.8981C141.929 26.3057 141.685 26.6972 141.413 27.0694C141.544 26.6223 141.745 26.1989 142.008 25.8149C142.224 25.403 142.502 25.0275 142.834 24.7021Z" fill="#FAFAFA"/>
<path d="M146.814 28.6784C146.735 28.2091 146.708 27.7326 146.734 27.2574C146.708 26.7822 146.735 26.3057 146.814 25.8364C146.893 26.3057 146.919 26.7822 146.894 27.2574C146.92 27.7326 146.893 28.2091 146.814 28.6784Z" fill="#FAFAFA"/>
<path d="M152.938 26.7858C152.505 26.5883 152.108 26.3172 151.767 25.9844C151.392 25.6897 151.069 25.3345 150.812 24.9333C151.181 25.2221 151.535 25.5308 151.872 25.858C152.243 26.1482 152.599 26.4579 152.938 26.7858Z" fill="#FAFAFA"/>
<path d="M155.811 23.6911C155.465 23.4579 155.149 23.1825 154.871 22.8712C154.558 22.5987 154.281 22.2881 154.045 21.9465C154.386 22.1821 154.697 22.4597 154.97 22.7726C155.288 23.0417 155.571 23.3504 155.811 23.6911Z" fill="#FAFAFA"/>
<path d="M139.268 13.8061C138.957 13.6104 138.676 13.3694 138.436 13.091C138.158 12.8497 137.917 12.5694 137.721 12.2587C138.03 12.4575 138.309 12.6993 138.55 12.9769C138.827 13.2177 139.069 13.4969 139.268 13.8061Z" fill="#FAFAFA"/>
<path d="M142.813 10.0703C142.508 9.87843 142.234 9.64265 141.999 9.37059C141.725 9.13642 141.488 8.86206 141.296 8.55685C141.6 8.74988 141.874 8.98552 142.11 9.25655C142.384 9.4902 142.621 9.76465 142.813 10.0703Z" fill="#FAFAFA"/>
<path d="M186.098 32.5159H164.426V63.9279H186.098V32.5159Z" fill="#E0E0E0"/>
<path d="M185.013 32.5159H163.341V63.9279H185.013V32.5159Z" fill="#F5F5F5"/>
<path d="M182.319 35.9157H166.032V60.5251H182.319V35.9157Z" fill="white"/>
<path d="M182.319 60.525C182.319 60.525 182.319 60.485 182.319 60.4048C182.319 60.3247 182.319 60.2076 182.319 60.0565C182.319 59.7483 182.319 59.2952 182.319 58.7065C182.319 57.5259 182.319 55.8091 182.304 53.636C182.304 49.2961 182.304 43.1561 182.279 35.9157L182.331 35.9712H166.032L166.09 35.9126C166.09 45.1966 166.09 53.7562 166.09 60.522L166.044 60.4757L177.899 60.5004H181.175H182.035H182.344H182.057H181.206H177.942L166.056 60.525H166.01V60.4788C166.01 53.7131 166.01 45.1534 166.01 35.8694V35.8109H166.072H182.356H182.411V35.8633C182.411 43.116 182.39 49.2714 182.384 53.6206C182.384 55.7782 182.384 57.5013 182.368 58.6756C182.368 59.2613 182.368 59.7082 182.368 60.0165C182.368 60.1644 182.368 60.2785 182.368 60.3586C182.368 60.4387 182.319 60.525 182.319 60.525Z" fill="#E0E0E0"/>
<path d="M185.071 32.5159C184.961 32.7148 184.832 32.9027 184.686 33.0768C184.433 33.4128 184.07 33.869 183.669 34.3653C183.268 34.8615 182.88 35.29 182.599 35.5982C182.454 35.7739 182.295 35.9369 182.122 36.0852C182.244 35.8931 182.382 35.7116 182.535 35.5427C182.824 35.1913 183.182 34.7567 183.58 34.2789L184.621 33.0121C184.757 32.8341 184.907 32.668 185.071 32.5159Z" fill="#E0E0E0"/>
<path d="M182.402 60.4449C183.211 61.7339 184.165 62.9263 185.244 63.9988L182.402 60.4449Z" fill="white"/>
<path d="M185.244 63.9988C185.063 63.8667 184.897 63.7159 184.748 63.5488C184.369 63.1654 184.011 62.7621 183.675 62.3405C183.338 61.9196 183.023 61.4813 182.732 61.0275C182.602 60.8453 182.492 60.65 182.402 60.4449C182.549 60.6134 182.683 60.7927 182.803 60.9812C183.04 61.3172 183.376 61.7765 183.768 62.2666C184.159 62.7567 184.535 63.1913 184.81 63.4995C184.966 63.6552 185.112 63.8221 185.244 63.9988Z" fill="#E0E0E0"/>
<path d="M163.329 63.9033L166.167 60.4017L163.329 63.9033Z" fill="white"/>
<path d="M166.174 60.4017C165.748 61.0213 165.29 61.618 164.802 62.1895C164.343 62.786 163.854 63.3581 163.335 63.9033C163.762 63.2838 164.221 62.6871 164.71 62.1155C165.167 61.5187 165.656 60.9467 166.174 60.4017Z" fill="#E0E0E0"/>
<path d="M163.329 32.5159C163.82 33.0373 164.281 33.5869 164.709 34.1618C165.168 34.712 165.597 35.2861 165.995 35.8818C165.504 35.3599 165.044 34.8103 164.617 34.2358C164.158 33.6854 163.728 33.1113 163.329 32.5159Z" fill="#E0E0E0"/>
<path d="M177.246 40.9121H171.793V56.3978H177.246V40.9121Z" fill="#E0E0E0"/>
<path d="M3.56853 16.0719L0.614746 38.0051L28.0495 41.6998L31.0033 19.7666L3.56853 16.0719Z" fill="#EBEBEB"/>
<path d="M31.0039 19.7673L30.8683 19.7519L30.4799 19.7057L28.988 19.5115L23.3689 18.7748L3.55569 16.1425L3.63583 16.0808C2.76045 22.6092 1.75253 30.0962 0.68912 38.0147L0.621308 37.9223L28.0541 41.6211L27.9801 41.6796L30.1562 25.7748C30.4213 23.8607 30.6309 22.3596 30.7727 21.3331C30.8426 20.8215 30.8981 20.43 30.9392 20.1588C30.9762 19.8937 31.0008 19.755 31.0008 19.755C31.0008 19.755 31.0008 19.8875 30.9546 20.1495L30.8097 21.3301C30.6741 22.3565 30.4799 23.8545 30.2302 25.7655C29.7216 29.6031 28.9973 35.0958 28.1157 41.7197V41.7844H28.051L0.618227 38.1041H0.538086V38.024L3.50021 16.0932V16.0223H3.5711L23.4213 18.7317L29.0281 19.4807L30.5015 19.6872L30.8775 19.7427L31.0039 19.7673Z" fill="#263238"/>
<path d="M4.32994 17.5821L1.74805 36.7538L27.2553 40.1889L29.8372 21.0172L4.32994 17.5821Z" fill="#5B63F6"/>
<path d="M1.74634 36.751L12.2602 26.0337L16.7758 34.2358L21.0541 30.7528L27.2527 40.1878L1.74634 36.751Z" fill="#5B63F6"/>
<path d="M20.3081 25.6453C20.2546 26.0422 20.0847 26.4142 19.8197 26.7145C19.5548 27.0148 19.2068 27.2298 18.8197 27.3323C18.4326 27.4348 18.0238 27.4203 17.645 27.2905C17.2662 27.1608 16.9343 26.9216 16.6914 26.6033C16.4485 26.285 16.3053 25.9018 16.2801 25.5022C16.2549 25.1025 16.3488 24.7044 16.5498 24.3581C16.7508 24.0117 17.05 23.7328 17.4096 23.5565C17.7691 23.3802 18.1728 23.3144 18.5697 23.3675C18.8336 23.4024 19.0881 23.4891 19.3184 23.6225C19.5488 23.756 19.7505 23.9337 19.9121 24.1453C20.0736 24.357 20.1917 24.5984 20.2597 24.8558C20.3277 25.1132 20.3441 25.3815 20.3081 25.6453Z" fill="#5B63F6"/>
<g opacity="0.2">
<path opacity="0.2" d="M1.74634 36.751L12.2602 26.0337L16.7758 34.2358L21.0541 30.7528L27.2527 40.1878L1.74634 36.751Z" fill="black"/>
</g>
<g opacity="0.2">
<path opacity="0.2" d="M20.3081 25.6453C20.2546 26.0422 20.0847 26.4142 19.8197 26.7145C19.5548 27.0148 19.2068 27.2298 18.8197 27.3323C18.4326 27.4348 18.0238 27.4203 17.645 27.2905C17.2662 27.1608 16.9343 26.9216 16.6914 26.6033C16.4485 26.285 16.3053 25.9018 16.2801 25.5022C16.2549 25.1025 16.3488 24.7044 16.5498 24.3581C16.7508 24.0117 17.05 23.7328 17.4096 23.5565C17.7691 23.3802 18.1728 23.3144 18.5697 23.3675C18.8336 23.4024 19.0881 23.4891 19.3184 23.6225C19.5488 23.756 19.7505 23.9337 19.9121 24.1453C20.0736 24.357 20.1917 24.5984 20.2597 24.8558C20.3277 25.1132 20.3441 25.3815 20.3081 25.6453Z" fill="black"/>
</g>
<path d="M140.455 15.9298H27.2065V90.0785H140.455V15.9298Z" fill="#FAFAFA"/>
<path d="M140.806 21.1451C140.806 21.1883 115.451 21.2253 84.1805 21.2253C52.9102 21.2253 27.5549 21.1883 27.5549 21.1451C27.5549 21.102 52.9041 21.065 84.1805 21.065C115.457 21.065 140.806 21.102 140.806 21.1451Z" fill="#263238"/>
<path d="M31.2197 18.7255C31.2197 18.8541 31.1815 18.9799 31.1101 19.0868C31.0386 19.1938 30.937 19.2771 30.8182 19.3263C30.6994 19.3756 30.5686 19.3884 30.4424 19.3634C30.3163 19.3383 30.2004 19.2763 30.1094 19.1854C30.0185 19.0944 29.9565 18.9785 29.9314 18.8524C29.9063 18.7262 29.9192 18.5954 29.9684 18.4766C30.0177 18.3578 30.101 18.2562 30.208 18.1847C30.3149 18.1133 30.4407 18.0751 30.5693 18.0751C30.6548 18.0747 30.7396 18.0912 30.8187 18.1238C30.8978 18.1563 30.9696 18.2042 31.0301 18.2647C31.0906 18.3252 31.1385 18.397 31.171 18.4761C31.2035 18.5552 31.2201 18.64 31.2197 18.7255Z" fill="#263238"/>
<path d="M33.5622 18.7255C33.5622 18.8541 33.5241 18.9799 33.4526 19.0868C33.3811 19.1938 33.2796 19.2771 33.1607 19.3263C33.0419 19.3756 32.9111 19.3884 32.785 19.3634C32.6588 19.3383 32.5429 19.2763 32.452 19.1854C32.361 19.0944 32.2991 18.9785 32.274 18.8524C32.2489 18.7262 32.2618 18.5954 32.311 18.4766C32.3602 18.3578 32.4436 18.2562 32.5505 18.1847C32.6575 18.1133 32.7832 18.0751 32.9118 18.0751C32.9974 18.0747 33.0821 18.0912 33.1612 18.1238C33.2403 18.1563 33.3122 18.2042 33.3726 18.2647C33.4331 18.3252 33.481 18.397 33.5135 18.4761C33.5461 18.5552 33.5626 18.64 33.5622 18.7255Z" fill="#263238"/>
<path d="M35.9109 18.7255C35.9109 18.8542 35.8726 18.9801 35.801 19.0871C35.7294 19.1941 35.6277 19.2775 35.5087 19.3266C35.3896 19.3758 35.2587 19.3885 35.1325 19.3631C35.0062 19.3378 34.8903 19.2755 34.7995 19.1843C34.7087 19.093 34.647 18.9768 34.6222 18.8505C34.5975 18.7241 34.6108 18.5932 34.6605 18.4745C34.7102 18.3557 34.794 18.2543 34.9014 18.1832C35.0088 18.1121 35.1348 18.0745 35.2636 18.0751C35.3488 18.0751 35.4333 18.092 35.512 18.1247C35.5907 18.1574 35.6622 18.2054 35.7224 18.2658C35.7825 18.3262 35.8301 18.3979 35.8625 18.4768C35.8948 18.5557 35.9113 18.6402 35.9109 18.7255Z" fill="#263238"/>
<path d="M103.664 25.0751H65.0144V27.2081H103.664V25.0751Z" fill="#EBEBEB"/>
<path d="M134.463 84.7707C134.463 84.2868 134.441 64.0821 134.404 30.9716L134.463 31.0302L32.9243 31.0517L33.0075 30.9716C33.0075 49.968 33.0075 68.1662 33.0075 84.7707L32.9304 84.6936L134.478 84.7707L32.9304 84.8447H32.8564V84.7707C32.8564 68.1662 32.8564 49.968 32.8564 30.9716V30.8853H32.9458L134.484 30.9038H134.546V30.9654C134.487 64.0821 134.466 84.2868 134.463 84.7707Z" fill="#263238"/>
<path d="M45.4168 84.6597C45.3705 84.6597 45.3705 72.6171 45.4168 57.7633C45.463 42.9095 45.5308 30.8637 45.5739 30.8637C45.6171 30.8637 45.6202 42.9064 45.5739 57.7633C45.5277 72.6201 45.4599 84.6597 45.4168 84.6597Z" fill="#263238"/>
<path d="M60.4804 84.7029C60.4372 84.7029 60.4372 72.6602 60.4804 57.8064C60.5235 42.9527 60.5944 30.9069 60.6376 30.9069C60.6807 30.9069 60.6838 42.9496 60.6376 57.8064C60.5913 72.6633 60.5266 84.7029 60.4804 84.7029Z" fill="#263238"/>
<path d="M75.5466 84.7491C75.5004 84.7491 75.5004 72.7034 75.5466 57.8496C75.5929 42.9958 75.6607 30.95 75.7039 30.95C75.747 30.95 75.7501 42.9927 75.7039 57.8496C75.6576 72.7065 75.5898 84.7491 75.5466 84.7491Z" fill="#263238"/>
<path d="M90.61 84.7923C90.5669 84.7923 90.5669 72.7465 90.61 57.8927C90.6531 43.039 90.724 30.9932 90.7672 30.9932C90.8103 30.9932 90.8134 43.0359 90.7672 57.8958C90.7209 72.7558 90.6562 84.7923 90.61 84.7923Z" fill="#263238"/>
<path d="M105.689 84.8262C105.643 84.8262 105.643 72.7835 105.689 57.9297C105.735 43.0759 105.803 31.0302 105.846 31.0302C105.889 31.0302 105.892 43.0698 105.846 57.9297C105.8 72.7897 105.72 84.8262 105.689 84.8262Z" fill="#263238"/>
<path d="M120.74 84.8786C120.697 84.8786 120.697 72.8359 120.74 57.9821C120.783 43.1283 120.854 31.0826 120.897 31.0826C120.94 31.0826 120.943 43.1222 120.897 57.9821C120.851 72.8421 120.792 84.8786 120.74 84.8786Z" fill="#263238"/>
<path d="M134.463 43.9791C134.463 44.0222 111.758 44.0592 83.7519 44.0592C55.7458 44.0592 33.0352 44.0222 33.0352 43.9791C33.0352 43.9359 55.7396 43.8989 83.7519 43.8989C111.764 43.8989 134.463 43.9328 134.463 43.9791Z" fill="#263238"/>
<path d="M134.463 57.7633C134.463 57.8064 111.758 57.8434 83.7519 57.8434C55.7458 57.8434 33.0352 57.8064 33.0352 57.7633C33.0352 57.7201 55.7396 57.6831 83.7519 57.6831C111.764 57.6831 134.463 57.717 134.463 57.7633Z" fill="#263238"/>
<path d="M134.463 71.5444C134.463 71.5906 111.758 71.6245 83.7519 71.6245C55.7458 71.6245 33.0352 71.5906 33.0352 71.5444C33.0352 71.4982 55.7396 71.4642 83.7519 71.4642C111.764 71.4642 134.463 71.5012 134.463 71.5444Z" fill="#263238"/>
<path d="M33.9352 72.7712C33.9352 72.7712 32.7331 80.5756 33.9846 85.4396L46.0057 85.0019C46.0057 85.0019 43.5398 77.2375 45.1025 73.3568L33.9352 72.7712Z" fill="#EBEBEB"/>
<path d="M33.9844 72.4968C33.9844 72.4968 34.0645 82.086 34.5515 85.0111L46.5726 84.4409C46.5726 84.4409 45.5154 75.0151 45.9223 72.4968H33.9844Z" fill="#5B63F6"/>
<path d="M44.1162 76.5039C44.1162 76.5501 42.313 76.695 40.0845 76.8275C37.856 76.9601 36.0497 77.034 36.0466 76.9909C36.0436 76.9477 37.8467 76.8029 40.0752 76.6673C42.3038 76.5316 44.1131 76.47 44.1162 76.5039Z" fill="white"/>
<path d="M44.1194 78.5444C44.1194 78.5906 42.3162 78.7355 40.0877 78.868C37.8591 79.0006 36.0529 79.0746 36.0498 79.0314C36.0467 78.9883 37.8499 78.8434 40.0784 78.7078C42.3069 78.5721 44.1163 78.5012 44.1194 78.5444Z" fill="white"/>
<path d="M42.0756 80.5387C41.8563 80.5978 41.6308 80.6309 41.4037 80.6373C40.9906 80.6774 40.4143 80.7205 39.7793 80.7575C39.1443 80.7945 38.571 80.8222 38.1549 80.8315C37.9291 80.8541 37.7014 80.8489 37.4768 80.8161C37.6951 80.7571 37.9196 80.724 38.1457 80.7174C38.5618 80.6805 39.1351 80.6373 39.77 80.5972C40.405 80.5572 40.9814 80.5325 41.3975 80.5232C41.6234 80.503 41.8509 80.5082 42.0756 80.5387Z" fill="white"/>
<path d="M61.451 32.3217C61.451 32.3217 60.4647 40.4436 61.7161 45.3076L73.5307 44.6911C73.5307 44.6911 71.0648 36.7726 72.606 32.8919L61.451 32.3217Z" fill="#EBEBEB"/>
<path d="M61.5005 32.035C61.5005 32.035 61.5806 41.6242 62.0676 44.5493L74.0887 43.9791C74.0887 43.9791 73.0315 34.5533 73.4384 32.035H61.5005Z" fill="#5B63F6"/>
<path d="M71.6321 36.0636C71.6321 36.1068 69.8289 36.2517 67.6035 36.3719C65.378 36.4921 63.5656 36.5784 63.5625 36.5322C63.5594 36.4859 65.3626 36.3441 67.5911 36.2239C69.8197 36.1037 71.629 36.0174 71.6321 36.0636Z" fill="white"/>
<path d="M71.6352 38.0949C71.6352 38.138 69.8352 38.2829 67.6066 38.4031C65.3781 38.5233 63.5688 38.6127 63.5657 38.5665C63.5626 38.5203 65.3658 38.3785 67.5974 38.2428C69.829 38.1072 71.6322 38.0487 71.6352 38.0949Z" fill="white"/>
<path d="M69.5915 40.0892C69.3728 40.146 69.1485 40.178 68.9226 40.1847C68.5065 40.2248 67.9332 40.2679 67.2983 40.3049C66.6633 40.3419 66.0869 40.3696 65.6708 40.382C65.4449 40.4043 65.217 40.3981 64.9927 40.3635C65.2124 40.3065 65.4378 40.2745 65.6646 40.2679C66.0777 40.2279 66.6541 40.1847 67.289 40.1477C67.924 40.1107 68.4973 40.083 68.9134 40.0707C69.1393 40.0482 69.3672 40.0544 69.5915 40.0892Z" fill="white"/>
<path d="M77.2819 72.2348C77.2819 72.2348 76.3109 81.115 77.5593 85.979L89.4263 85.4581C89.4263 85.4581 86.8833 76.6981 88.4461 72.8205L77.2819 72.2348Z" fill="#EBEBEB"/>
<path d="M77.3315 71.9482C77.3315 71.9482 77.4117 81.5373 77.8987 84.4625L89.9198 83.8923C89.9198 83.8923 88.8626 74.4665 89.2695 71.9482H77.3315Z" fill="#5B63F6"/>
<path d="M87.4629 75.9768C87.4629 76.02 85.6597 76.1648 83.4343 76.285C81.2088 76.4052 79.3964 76.4946 79.3933 76.4484C79.3902 76.4022 81.1934 76.2604 83.4219 76.1247C85.6505 75.9891 87.4598 75.9306 87.4629 75.9768Z" fill="white"/>
<path d="M87.4661 78.0081C87.4661 78.0512 85.6629 78.1961 83.4374 78.3163C81.212 78.4365 79.3996 78.5228 79.3965 78.4796C79.3934 78.4365 81.1966 78.2916 83.4251 78.156C85.6537 78.0204 87.463 77.9618 87.4661 78.0081Z" fill="white"/>
<path d="M85.4226 80.0024C85.2029 80.0593 84.9775 80.0914 84.7507 80.0979C84.3376 80.138 83.7643 80.1811 83.1293 80.2181C82.4944 80.2551 81.918 80.2828 81.5019 80.2952C81.2759 80.3157 81.0483 80.3095 80.8237 80.2767C81.0424 80.2199 81.2668 80.1878 81.4926 80.1811C81.9087 80.141 82.482 80.0979 83.117 80.0578C83.752 80.0178 84.3284 79.9962 84.7445 79.9839C84.9704 79.9614 85.1983 79.9676 85.4226 80.0024Z" fill="white"/>
<path d="M122.605 45.212C122.605 45.212 121.372 52.8377 122.62 57.6985L134.669 57.4396C134.669 57.4396 132.203 49.6752 133.766 45.7946L122.605 45.212Z" fill="#EBEBEB"/>
<path d="M122.642 44.9284C122.642 44.9284 122.722 54.5145 123.209 57.4396L135.23 56.8725C135.23 56.8725 134.173 47.4467 134.58 44.9284H122.642Z" fill="#5B63F6"/>
<path d="M132.782 48.954C132.782 49.0002 130.982 49.142 128.754 49.2622C126.525 49.3824 124.716 49.4687 124.713 49.4256C124.71 49.3824 126.513 49.2344 128.745 49.1173C130.976 49.0002 132.779 48.9108 132.782 48.954Z" fill="white"/>
<path d="M132.786 50.9852C132.786 51.0284 130.986 51.1732 128.757 51.2935C126.529 51.4137 124.719 51.5 124.716 51.4568C124.713 51.4137 126.519 51.2657 128.748 51.1486C130.977 51.0315 132.783 50.9421 132.786 50.9852Z" fill="white"/>
<path d="M130.742 52.9795C130.524 53.0388 130.299 53.0719 130.073 53.0781C129.657 53.1151 129.084 53.1583 128.449 53.1983C127.814 53.2384 127.238 53.2631 126.821 53.2723C126.596 53.2977 126.369 53.2977 126.143 53.2723C126.363 53.2132 126.588 53.1801 126.815 53.1737C127.228 53.1336 127.805 53.0904 128.44 53.0535C129.075 53.0165 129.648 52.9887 130.067 52.9795C130.291 52.952 130.518 52.952 130.742 52.9795Z" fill="white"/>
<path d="M92.0774 59.1842C92.0774 59.1842 90.8444 66.8099 92.0928 71.6739L104.142 71.4149C104.142 71.4149 101.676 63.6505 103.238 59.7668L92.0774 59.1842Z" fill="#EBEBEB"/>
<path d="M92.1267 58.9006C92.1267 58.9006 92.2068 68.4898 92.6939 71.4149L104.715 70.8447C104.715 70.8447 103.658 61.4189 104.065 58.9006H92.1267Z" fill="#5B63F6"/>
<path d="M102.255 62.9416C102.255 62.9878 100.455 63.1327 98.2265 63.2652C95.998 63.3978 94.1886 63.4718 94.1856 63.4286C94.1825 63.3854 95.9856 63.2406 98.2172 63.105C100.449 62.9693 102.252 62.883 102.255 62.9416Z" fill="white"/>
<path d="M102.258 64.9574C102.258 65.0037 100.458 65.1486 98.2297 65.2811C96.0011 65.4137 94.1918 65.4876 94.1887 65.4445C94.1856 65.4013 95.9919 65.2565 98.2204 65.1208C100.449 64.9852 102.255 64.9143 102.258 64.9574Z" fill="white"/>
<path d="M100.215 66.9486C99.9963 67.0076 99.7718 67.0407 99.5457 67.0473C99.1296 67.0873 98.5563 67.1305 97.9213 67.1675C97.2864 67.2045 96.71 67.2322 96.2938 67.2415C96.068 67.2636 95.8403 67.2584 95.6157 67.226C95.8351 67.1669 96.0606 67.1338 96.2877 67.1274C96.7007 67.0904 97.2771 67.0442 97.9121 67.0072C98.547 66.9702 99.1204 66.9425 99.5365 66.9332C99.7624 66.9127 99.9899 66.9179 100.215 66.9486Z" fill="white"/>
<path d="M119.868 48.0693L113.484 51.3551L110.396 50.9174L112.048 47.9892L118.783 45.6158L119.868 48.0693Z" fill="#EBEBEB"/>
<path d="M110.13 50.3133L111.696 47.795L118.613 45.2829L120.003 48.0169L113.296 50.6955L110.13 50.3133Z" fill="#455A64"/>
<path d="M117.836 46.9135C117.623 47.0373 117.398 47.1405 117.165 47.2217C116.745 47.3943 116.163 47.6224 115.516 47.869L113.854 48.4854C113.432 48.6396 113.151 48.732 113.17 48.7228C113.117 48.658 114.169 48.208 115.457 47.7149C116.745 47.2217 117.818 46.858 117.836 46.9135Z" fill="white"/>
<path d="M116.754 48.1464C115.801 48.7031 114.758 49.091 113.672 49.293C114.174 49.0653 114.688 48.8676 115.213 48.7012C115.716 48.4864 116.23 48.3011 116.754 48.1464Z" fill="white"/>
<path d="M33.9753 44.7743C33.9753 44.7743 32.8657 55.5132 34.3421 57.7633L45.494 57.0852L44.9022 45.1565L33.9753 44.7743Z" fill="#E0E0E0"/>
<path d="M33.9753 44.7743C33.9753 44.7743 34.0524 54.1169 34.5302 56.965L46.243 56.4101C46.243 56.4101 45.2135 47.2278 45.6112 44.7743H33.9753Z" fill="#455A64"/>
<path d="M39.7453 46.0966H39.7885H39.9149C40.0776 46.0901 40.2406 46.0984 40.4019 46.1213C40.6599 46.1573 40.9112 46.231 41.1478 46.3401C41.4597 46.495 41.7359 46.7134 41.9585 46.9813C42.2272 47.3108 42.4188 47.6963 42.5194 48.1094C42.6094 48.5946 42.5668 49.0951 42.3961 49.5581C42.3086 49.8091 42.1982 50.0516 42.0663 50.2824C41.9276 50.5188 41.802 50.7627 41.6903 51.013C41.4581 51.5427 41.2994 52.1016 41.2187 52.6743V52.7144H41.1817L40.0258 52.7329L38.8114 52.7514H38.7682V52.7082C38.7172 52.1366 38.5244 51.5868 38.2073 51.1085C38.0655 50.8681 37.899 50.6431 37.7696 50.415C37.6181 50.1998 37.4801 49.9754 37.3565 49.743C37.1409 49.3002 37.077 48.7987 37.1747 48.3159C37.2427 47.9006 37.3959 47.5039 37.6247 47.1508C37.8226 46.8654 38.0844 46.63 38.3891 46.4634C38.6147 46.3386 38.8563 46.2452 39.1073 46.186C39.2643 46.1474 39.424 46.1206 39.5851 46.1059H39.7546H39.7114H39.5881C39.4287 46.124 39.271 46.155 39.1165 46.1983C38.8695 46.2619 38.6321 46.3583 38.4107 46.485C38.1169 46.6522 37.865 46.8841 37.674 47.1631C37.4526 47.5115 37.3057 47.9019 37.2425 48.3097C37.1521 48.7779 37.217 49.2628 37.4274 49.6906C37.5506 49.9196 37.6875 50.1409 37.8374 50.3533C37.9792 50.5783 38.1456 50.8034 38.2781 51.0469C38.6065 51.537 38.8058 52.1021 38.8576 52.6898L38.8145 52.6466L40.0258 52.625L41.1817 52.6096L41.1416 52.6466C41.2213 52.0647 41.3832 51.497 41.6225 50.9606C41.7368 50.7084 41.8644 50.4625 42.0047 50.2239C42.1349 49.998 42.2442 49.7607 42.3314 49.5149C42.5005 49.0656 42.5452 48.579 42.4609 48.1063C42.3648 47.7022 42.1806 47.3243 41.9215 46.9998C41.7061 46.7361 41.4385 46.5199 41.1355 46.3648C40.9042 46.2533 40.6582 46.1755 40.405 46.1336C40.246 46.1071 40.0852 46.0937 39.9241 46.0935H39.7546L39.7453 46.0966Z" fill="white"/>
<path d="M40.3435 52.6034V52.5665V52.4586L40.2787 52.0394C40.2263 51.6757 40.1493 51.1486 40.0969 50.4982C40.0969 50.3318 40.0722 50.1622 40.0661 49.9835C40.0599 49.8047 40.0506 49.6167 40.0661 49.4225C40.0699 49.2206 40.114 49.0215 40.1955 48.8368C40.2848 48.6382 40.4438 48.4792 40.6424 48.3899C40.7491 48.3463 40.866 48.3345 40.9792 48.3559C41.0924 48.3772 41.197 48.4307 41.2805 48.5101C41.365 48.5909 41.4148 48.7015 41.4192 48.8183C41.4155 48.9402 41.3734 49.0577 41.299 49.1543C41.2235 49.2514 41.1264 49.3295 41.0154 49.3824C40.905 49.436 40.7878 49.4744 40.6671 49.4964C40.4249 49.5487 40.1782 49.5776 39.9304 49.5828C39.6813 49.5932 39.4317 49.5819 39.1845 49.5488C39.0633 49.5295 38.9451 49.4942 38.8331 49.444C38.7172 49.3958 38.6123 49.3245 38.5249 49.2344C38.4409 49.1494 38.3822 49.0427 38.3554 48.9262C38.3296 48.8089 38.3437 48.6863 38.3954 48.5779C38.4462 48.4716 38.5338 48.3872 38.642 48.3406C38.6943 48.3169 38.7511 48.3047 38.8085 48.3047C38.8659 48.3047 38.9226 48.3169 38.9749 48.3406C39.0749 48.3876 39.1609 48.4599 39.2246 48.5502C39.285 48.6441 39.3269 48.7487 39.3479 48.8584C39.385 49.0556 39.4046 49.2557 39.4064 49.4564C39.428 49.8417 39.4465 50.2023 39.465 50.529C39.4958 51.1856 39.5236 51.7157 39.5421 52.0702C39.5421 52.2521 39.5421 52.3938 39.5606 52.4925V52.6034V52.6404C39.5599 52.6281 39.5599 52.6158 39.5606 52.6034V52.4925C39.5606 52.3938 39.5451 52.2521 39.5328 52.0702C39.5112 51.7034 39.4804 51.1732 39.4434 50.529C39.4249 50.1992 39.4064 49.8417 39.3849 49.4564C39.3794 49.2578 39.3588 49.06 39.3232 48.8646C39.3006 48.7645 39.2598 48.6695 39.203 48.5841C39.1449 48.4969 39.0638 48.4276 38.9687 48.3837C38.9212 48.36 38.8693 48.3465 38.8162 48.3438C38.7632 48.3412 38.7102 48.3495 38.6605 48.3683C38.5605 48.4117 38.4802 48.4908 38.4355 48.5902C38.3856 48.6904 38.3714 48.8046 38.3954 48.9139C38.4191 49.0302 38.4758 49.1372 38.5588 49.2221C38.7231 49.3922 38.9406 49.501 39.1753 49.5304C39.4193 49.5634 39.6659 49.5747 39.9119 49.5643C40.1585 49.5586 40.404 49.5307 40.6455 49.481C40.7625 49.4561 40.8763 49.4178 40.9846 49.367C41.0907 49.3174 41.1836 49.2434 41.2558 49.1512C41.3237 49.0624 41.3625 48.9547 41.3668 48.843C41.3691 48.7856 41.359 48.7283 41.3372 48.6751C41.3153 48.6219 41.2824 48.5741 41.2404 48.5348C41.1622 48.4593 41.0637 48.4083 40.9569 48.388C40.8501 48.3677 40.7398 48.3791 40.6394 48.4207C40.449 48.5063 40.2966 48.6588 40.2109 48.8492C40.1303 49.03 40.0853 49.2246 40.0784 49.4225C40.0784 49.6167 40.0784 49.8016 40.0784 49.9804C40.0784 50.1591 40.0784 50.3318 40.1061 50.4951C40.1554 51.1486 40.2294 51.6757 40.2756 52.0363C40.3003 52.2181 40.3219 52.3445 40.3342 52.4555L40.3496 52.5665C40.3483 52.5789 40.3462 52.5912 40.3435 52.6034Z" fill="white"/>
<path d="M38.8022 52.6651C38.8022 52.6651 38.8177 52.81 38.8331 53.0535C38.8485 53.297 38.867 53.6699 38.8855 54.0676V54.0429L39.6746 54.9676L39.6345 54.9522L40.5592 54.8998L40.5191 54.9183L40.9722 54.3635L41.2003 54.0891V54.123C41.2003 53.5898 41.1787 53.0843 41.1664 52.6219L41.2157 52.6682L39.5143 52.6867H39.0211C38.9595 52.6909 38.8977 52.6909 38.8362 52.6867C38.8905 52.6815 38.9452 52.6815 38.9995 52.6867L39.4804 52.662L41.2127 52.5942H41.262V52.6435C41.262 53.1059 41.2897 53.6114 41.3051 54.1446V54.1662H41.2897C41.2157 54.2556 41.1387 54.348 41.0647 54.4436C40.9075 54.6316 40.7565 54.8166 40.6085 54.9953L40.5931 55.0138H40.5684L39.6437 55.057H39.6191V55.0385L38.8454 54.1138V54.0984C38.8454 53.6946 38.8454 53.3494 38.8454 53.0596C38.8022 52.7884 38.8022 52.6589 38.8022 52.6651Z" fill="white"/>
<path d="M41.1571 53.9843C41.1272 53.9749 41.0983 53.9625 41.0708 53.9473C41.0153 53.9227 40.9352 53.8888 40.8334 53.8549C40.5688 53.7642 40.2901 53.7214 40.0105 53.7285C39.7308 53.7374 39.4551 53.7969 39.1967 53.9042C39.1176 53.9356 39.0405 53.9717 38.9655 54.0121L38.8823 54.0521C38.9057 54.0315 38.9316 54.0139 38.9594 53.9997C39.0313 53.9542 39.1065 53.914 39.1844 53.8795C39.4449 53.7638 39.7255 53.6999 40.0105 53.6915C40.2942 53.6843 40.5766 53.7314 40.8427 53.8302C40.9231 53.8597 41.0014 53.8947 41.077 53.935C41.1057 53.9479 41.1326 53.9645 41.1571 53.9843Z" fill="white"/>
<path d="M41.1571 53.6206L41.0708 53.5836C41.0153 53.559 40.9352 53.5251 40.8334 53.4881C40.5686 53.3986 40.2899 53.3568 40.0105 53.3648C39.7308 53.3737 39.4551 53.4332 39.1967 53.5405C39.1171 53.5706 39.0398 53.6067 38.9655 53.6483C38.9393 53.6647 38.9114 53.6781 38.8823 53.6884C38.8823 53.6884 38.907 53.6668 38.9594 53.636C39.0306 53.5892 39.1059 53.549 39.1844 53.5158C39.7092 53.282 40.3049 53.2643 40.8427 53.4665C40.9234 53.4952 41.0017 53.5303 41.077 53.5713C41.1057 53.5842 41.1326 53.6008 41.1571 53.6206Z" fill="white"/>
<path d="M41.1354 53.2723C41.1054 53.2629 41.0765 53.2505 41.0491 53.2353C40.9936 53.2107 40.9134 53.1768 40.8117 53.1429C40.5471 53.0522 40.2684 53.0094 39.9887 53.0165C39.7091 53.0254 39.4334 53.0849 39.175 53.1922C39.0959 53.2236 39.0187 53.2596 38.9438 53.3L38.8606 53.3432C38.8606 53.3432 38.8853 53.3185 38.9377 53.2877C39.0103 53.2433 39.0854 53.2032 39.1627 53.1675C39.6875 52.9337 40.2832 52.916 40.821 53.1182C40.9012 53.1482 40.9794 53.1832 41.0552 53.223C41.084 53.2359 41.1109 53.2525 41.1354 53.2723Z" fill="white"/>
<path d="M63.4363 70.4132C63.4517 70.4132 63.4363 70.5581 63.2853 70.7214C63.0967 70.9237 62.8664 71.0826 62.6103 71.1869C62.2643 71.3633 61.8744 71.4351 61.4883 71.3934C61.4883 71.3441 61.9845 71.2824 62.5455 71.0389C62.7847 70.9434 63.0066 70.809 63.2021 70.6413C63.35 70.5118 63.4117 70.4039 63.4363 70.4132Z" fill="#5B63F6"/>
<path d="M140.806 90.0662C140.806 89.5453 140.781 61.16 140.741 15.9175L140.806 15.9822H27.5671L27.6472 15.9021C27.6472 42.2684 27.6472 67.3586 27.6472 90.0508L27.5732 89.9768L140.821 90.0508L27.5732 90.1247H27.4993V90.0662C27.4993 67.374 27.4993 42.29 27.4993 15.9175V15.8373H27.5887H140.828H140.889V15.9021C140.828 61.1631 140.806 89.5483 140.806 90.0662Z" fill="#263238"/>
<path d="M130.976 78.9451L128.751 75.1477L126.639 78.9451H96.676V94.6095H143.333V78.9451H130.976Z" fill="#5B63F6"/>
<path d="M105.072 86.9129C105.485 86.7353 105.837 86.4401 106.084 86.0642C106.33 85.6882 106.461 85.2481 106.459 84.7985C106.467 84.2262 106.247 83.6745 105.847 83.2647C105.448 82.8548 104.902 82.6204 104.33 82.6131C103.757 82.6057 103.206 82.826 102.796 83.2254C102.386 83.6248 102.152 84.1707 102.144 84.743C102.132 85.196 102.253 85.6426 102.494 86.0266C102.735 86.4105 103.084 86.7146 103.497 86.9006C100.178 87.3722 100.298 90.9909 100.298 90.9909L108.139 91.0926C108.139 91.0926 108.349 87.44 105.072 86.9129Z" fill="#FAFAFA"/>
<path d="M138.01 83.5933C138.01 83.6395 132.055 83.6734 124.71 83.6734C117.365 83.6734 111.41 83.6395 111.41 83.5933C111.41 83.547 117.365 83.5131 124.71 83.5131C132.055 83.5131 138.01 83.5439 138.01 83.5933Z" fill="#FAFAFA"/>
<path d="M138.01 85.9759C138.01 86.0191 132.055 86.056 124.71 86.056C117.365 86.056 111.41 86.0191 111.41 85.9759C111.41 85.9328 117.365 85.8958 124.71 85.8958C132.055 85.8958 138.01 85.9328 138.01 85.9759Z" fill="#FAFAFA"/>
<path d="M138.01 88.3647C138.01 88.4079 132.055 88.4449 124.71 88.4449C117.365 88.4449 111.41 88.4079 111.41 88.3647C111.41 88.3216 117.365 88.2846 124.71 88.2846C132.055 88.2846 138.01 88.3216 138.01 88.3647Z" fill="#FAFAFA"/>
<path d="M124.71 90.7289C124.71 90.772 121.732 90.809 118.061 90.809C114.39 90.809 111.41 90.772 111.41 90.7289C111.41 90.6857 114.387 90.6487 118.061 90.6487C121.736 90.6487 124.71 90.6826 124.71 90.7289Z" fill="#FAFAFA"/>
<path d="M139.142 49.592C138.861 49.2622 138.645 48.6673 138.815 48.2759C138.482 48.1002 138.454 47.8073 138.454 47.4344C138.472 47.0585 138.583 46.6931 138.778 46.371C139.04 45.8244 139.457 45.3667 139.977 45.0548C140.24 44.9048 140.539 44.8321 140.842 44.8452C141.144 44.8583 141.436 44.9566 141.685 45.1288C141.863 44.917 142.083 44.7432 142.33 44.6178C142.577 44.4923 142.847 44.4178 143.124 44.3985C143.4 44.3792 143.678 44.4157 143.94 44.5056C144.202 44.5956 144.443 44.7373 144.65 44.9223C144.783 45.0779 144.935 45.2157 145.103 45.3322C145.411 45.4956 145.763 45.4339 146.099 45.4648C146.373 45.4901 146.638 45.58 146.871 45.7271C147.104 45.8742 147.299 46.0744 147.44 46.3112C147.581 46.548 147.664 46.8149 147.682 47.0899C147.7 47.3649 147.653 47.6403 147.544 47.8936C147.78 48.0578 147.975 48.2737 148.114 48.5248C148.254 48.7759 148.334 49.0555 148.349 49.3423C148.372 49.9151 148.306 50.4879 148.154 51.0407C148 51.7281 147.828 52.4524 147.341 52.961C147.004 53.3155 146.549 53.5348 146.062 53.5775C145.716 53.6012 145.37 53.5364 145.057 53.3891C144.744 53.2419 144.473 53.0171 144.271 52.736" fill="#263238"/>
<path d="M146.419 61.3234L140.895 61.0706C140.865 60.485 141.164 56.8571 141.164 56.8571C141.164 56.8571 139.074 56.5488 139.049 54.4436C139.024 52.3384 139.385 47.5608 139.385 47.5608C140.573 47.0514 141.875 46.8686 143.157 47.0312C144.439 47.1937 145.655 47.6958 146.678 48.4855L146.986 48.7228L146.419 61.3234Z" fill="#B78876"/>
<path d="M141.16 56.8262C142.124 56.8447 143.072 56.5753 143.882 56.0526C143.882 56.0526 143.238 57.5567 141.154 57.3687L141.16 56.8262Z" fill="#AA6550"/>
<path d="M146.727 50.8804C146.764 50.865 148.164 50.4551 148.117 51.8822C148.071 53.3093 146.647 52.9702 146.647 52.9271C146.647 52.8839 146.727 50.8804 146.727 50.8804Z" fill="#B78876"/>
<path d="M147.1 52.4031C147.1 52.4031 147.125 52.4185 147.165 52.4401C147.195 52.4529 147.227 52.4595 147.259 52.4595C147.291 52.4595 147.323 52.4529 147.353 52.4401C147.448 52.3853 147.527 52.3061 147.581 52.2107C147.635 52.1154 147.663 52.0073 147.661 51.8976C147.67 51.775 147.652 51.6519 147.609 51.537C147.597 51.4917 147.574 51.4501 147.542 51.4157C147.511 51.3814 147.471 51.3552 147.427 51.3397C147.399 51.3315 147.368 51.3335 147.341 51.3453C147.314 51.3572 147.292 51.3781 147.279 51.4044C147.257 51.4414 147.279 51.4722 147.257 51.4722C147.236 51.4722 147.23 51.4476 147.242 51.389C147.251 51.3542 147.271 51.3236 147.301 51.3027C147.341 51.2739 147.39 51.2618 147.439 51.2688C147.498 51.2826 147.552 51.311 147.596 51.3515C147.64 51.392 147.673 51.4431 147.692 51.5C147.749 51.6255 147.774 51.7631 147.766 51.9007C147.772 52.0299 147.738 52.1579 147.67 52.2678C147.602 52.3778 147.502 52.4647 147.384 52.5172C147.346 52.5277 147.305 52.5293 147.266 52.5218C147.227 52.5143 147.19 52.498 147.159 52.474C147.103 52.437 147.097 52.4031 147.1 52.4031Z" fill="#AA6550"/>
<path d="M139.844 50.8342C139.844 50.9123 139.874 50.9876 139.927 51.0449C139.98 51.1021 140.053 51.137 140.131 51.1424C140.169 51.1449 140.207 51.1399 140.243 51.1276C140.279 51.1153 140.313 51.096 140.341 51.0708C140.37 51.0456 140.393 51.015 140.41 50.9807C140.427 50.9465 140.437 50.9093 140.439 50.8712C140.439 50.793 140.41 50.7177 140.357 50.6605C140.303 50.6033 140.23 50.5684 140.152 50.5629C140.114 50.56 140.076 50.5648 140.04 50.5769C140.003 50.589 139.97 50.6083 139.941 50.6336C139.912 50.6588 139.889 50.6896 139.872 50.7241C139.856 50.7585 139.846 50.796 139.844 50.8342Z" fill="#263238"/>
<path d="M139.78 50.4982C139.817 50.5383 140.042 50.3718 140.362 50.3718C140.683 50.3718 140.92 50.5321 140.954 50.492C140.988 50.452 140.933 50.4057 140.831 50.3318C140.693 50.2353 140.528 50.1836 140.359 50.1838C140.192 50.1848 140.03 50.2376 139.894 50.3348C139.795 50.4119 139.761 50.4797 139.78 50.4982Z" fill="#263238"/>
<path d="M142.985 50.9205C142.985 50.9986 143.014 51.0739 143.068 51.1312C143.121 51.1884 143.194 51.2233 143.272 51.2287C143.31 51.2317 143.348 51.227 143.384 51.2151C143.42 51.2031 143.453 51.1841 143.482 51.1592C143.511 51.1342 143.534 51.1038 143.551 51.0697C143.568 51.0356 143.578 50.9985 143.58 50.9606C143.58 50.8819 143.55 50.8062 143.496 50.7489C143.442 50.6916 143.369 50.657 143.29 50.6523C143.252 50.649 143.214 50.6533 143.178 50.6651C143.142 50.6769 143.109 50.6959 143.08 50.721C143.052 50.7461 143.029 50.7767 143.012 50.811C142.996 50.8453 142.987 50.8825 142.985 50.9205Z" fill="#263238"/>
<path d="M142.933 50.5599C142.97 50.5968 143.198 50.4304 143.518 50.4304C143.839 50.4304 144.073 50.5938 144.107 50.5537C144.141 50.5136 144.089 50.4643 143.984 50.3903C143.845 50.2946 143.681 50.244 143.512 50.2455C143.345 50.2441 143.182 50.2971 143.047 50.3965C142.948 50.4705 142.914 50.5414 142.933 50.5599Z" fill="#263238"/>
<path d="M141.768 52.9394C141.599 52.886 141.424 52.8539 141.247 52.8439C141.167 52.8439 141.09 52.8192 141.074 52.7637C141.068 52.6788 141.087 52.594 141.13 52.5202C141.207 52.323 141.287 52.1134 141.373 51.9038C141.599 51.3752 141.78 50.8287 141.916 50.2701C141.649 50.7797 141.424 51.3095 141.241 51.8544L141.009 52.4709C140.961 52.566 140.946 52.6745 140.966 52.7792C140.978 52.8084 140.996 52.8346 141.02 52.8555C141.043 52.8764 141.071 52.8914 141.102 52.8994C141.147 52.9123 141.194 52.9185 141.241 52.9179C141.415 52.9474 141.592 52.9547 141.768 52.9394Z" fill="#263238"/>
<path d="M142.714 53.1614C142.661 53.1614 142.661 53.5066 142.362 53.7532C142.063 53.9997 141.694 53.9628 141.691 54.009C141.687 54.0552 141.774 54.0768 141.931 54.083C142.135 54.0837 142.333 54.014 142.492 53.8857C142.644 53.7621 142.741 53.584 142.763 53.3894C142.776 53.2446 142.739 53.1583 142.714 53.1614Z" fill="#263238"/>
<path d="M142.85 49.3023C142.883 49.3886 143.204 49.3454 143.58 49.3917C143.956 49.4379 144.261 49.5396 144.311 49.4625C144.36 49.3855 144.28 49.3423 144.156 49.2591C143.99 49.1507 143.799 49.086 143.602 49.0711C143.409 49.0485 143.213 49.0717 143.031 49.1389C142.908 49.1913 142.837 49.2591 142.85 49.3023Z" fill="#263238"/>
<path d="M139.903 49.5704C139.962 49.6413 140.18 49.5704 140.449 49.5704C140.717 49.5704 140.939 49.6197 140.991 49.5427C141.043 49.4656 140.991 49.4317 140.88 49.3639C140.748 49.279 140.593 49.2371 140.436 49.2437C140.28 49.2459 140.129 49.2977 140.005 49.3916C139.903 49.4595 139.872 49.5334 139.903 49.5704Z" fill="#263238"/>
<path d="M147.097 48.6211C147.069 49.2375 147.205 49.9064 147.097 50.5044C147.079 50.5938 146.844 50.8373 146.826 50.9266C146.702 51.4537 146.484 51.6818 146.169 51.1362C146.048 50.8036 145.965 50.4582 145.923 50.1067L145.543 48.1772C145.053 48.4317 144.508 48.5609 143.956 48.5533C143.681 48.546 143.411 48.4686 143.174 48.3283C142.937 48.1881 142.739 47.9897 142.6 47.7518C142.469 47.9684 142.291 48.1528 142.079 48.2913C141.867 48.4298 141.627 48.5189 141.376 48.552C141.125 48.5852 140.87 48.5615 140.629 48.4828C140.389 48.404 140.169 48.2722 139.986 48.0971C139.884 48.2385 139.732 48.337 139.562 48.3734C139.391 48.4098 139.213 48.3817 139.061 48.2943C138.914 48.196 138.802 48.0535 138.741 47.8873C138.68 47.7211 138.673 47.5398 138.722 47.3696C138.867 46.8611 139.413 46.5836 139.921 46.4449C141.906 45.8593 144.101 46.3186 145.886 47.3696C146.153 47.5117 146.396 47.6947 146.607 47.9121C146.81 48.1341 147.094 48.3961 147.103 48.6981" fill="#263238"/>
<path d="M150.719 68.6593L152.849 62.8553C152.405 61.3634 150.811 59.7483 148.595 59.326C147.889 59.1904 147.205 58.9346 146.379 58.9007C145.624 59.4973 144.692 59.8273 143.73 59.839C142.767 59.8507 141.828 59.5435 141.059 58.9654L140.982 58.9099C140.769 58.9346 140.485 58.9623 140.131 59.0054H140.06C139.176 59.1161 138.334 59.4515 137.616 59.9795L126.498 66.6157L119.969 61.6532L116.662 64.2454C116.662 64.2454 125.216 72.7989 126.045 73.0023C126.621 73.1441 132.327 70.0279 135.785 68.0983C135.643 70.1697 134.86 81.6822 134.906 83.2542H150.793V75.9953V74.0195L150.719 68.6593Z" fill="#455A64"/>
<path d="M144.526 75.459C144.526 75.459 152.263 78.8711 153.003 79.0314C155.469 79.5708 157.716 77.5118 157.355 75.573C157.17 74.5651 152.815 62.5933 152.815 62.5933L149.683 67.2569L151.243 73.3476L146.533 72.7465L144.526 75.459Z" fill="#455A64"/>
<path d="M151.307 78.4334C151.269 78.4056 151.228 78.3828 151.184 78.3656L150.814 78.1838L149.424 77.5365L144.69 75.3788L144.72 75.4744L145.627 73.8531C145.821 73.5079 146.012 73.1657 146.191 72.8421L146.123 72.8791L151.785 73.4339L153.468 73.5849L153.924 73.6188C153.976 73.6255 154.029 73.6255 154.081 73.6188C154.031 73.6034 153.98 73.5941 153.927 73.5911L153.474 73.5325L151.794 73.3383L146.135 72.7219H146.092L146.067 72.7619C145.889 73.0856 145.698 73.4246 145.503 73.7729C145.195 74.3278 144.887 74.8702 144.6 75.3942L144.563 75.4621L144.631 75.4929L149.387 77.6104L150.793 78.2269L151.172 78.3841C151.215 78.4063 151.26 78.4229 151.307 78.4334Z" fill="#263238"/>
<path d="M146.206 72.5338L146.869 69.3066C146.869 69.3066 138.71 69.2018 138.8 69.3467C138.889 69.4916 139.663 76.7443 139.663 76.7443C139.663 76.7443 145.402 76.5285 145.189 76.547L146.206 72.5338Z" fill="#263238"/>
<path d="M146.844 71.0636C146.691 71.0627 146.541 71.1086 146.414 71.195C146.288 71.2814 146.19 71.4044 146.135 71.5475C146.049 71.8454 145.882 72.1134 145.651 72.3212C145.297 72.5153 144.684 72.6695 144.36 72.5123C144.036 72.3551 142.748 71.193 142.511 71.3225C142.273 71.4519 142.091 71.7417 142.316 71.9975C142.541 72.2533 143.734 73.0301 143.509 73.289C143.284 73.5479 140.766 72.4105 140.381 72.5123C139.995 72.614 139.764 72.8482 139.992 73.0054C140.22 73.1626 141.928 73.8038 142.027 74.0319C142.027 74.0319 139.444 73.3537 139.348 73.514C139.253 73.6743 139.089 73.9332 139.348 74.0319C139.607 74.1305 141.832 74.7069 142.027 74.8055C142.346 74.9381 142.679 75.0352 143.019 75.0953C143.372 75.1876 143.72 75.2976 144.061 75.4251C144.583 75.6068 145.153 75.5915 145.664 75.3819L145.926 75.274C146.124 75.1941 146.292 75.0537 146.406 74.8727C146.52 74.6918 146.574 74.4795 146.561 74.2661L146.508 73.3846L146.792 72.6602L146.844 71.0636Z" fill="#B78876"/>
<path d="M150.756 73.3075C150.71 73.3075 150.676 71.4581 150.676 69.1679C150.676 66.8777 150.71 65.0284 150.756 65.0284C150.802 65.0284 150.836 66.8777 150.836 69.1679C150.836 71.4581 150.799 73.3075 150.756 73.3075Z" fill="#263238"/>
<path d="M136.001 63.182C136.013 63.3091 136.013 63.4371 136.001 63.5642C136.001 63.8416 135.982 64.1807 135.973 64.5999C135.939 65.4722 135.884 66.6805 135.813 68.012C135.742 69.3436 135.665 70.5519 135.606 71.4242C135.572 71.8341 135.544 72.1793 135.523 72.4567C135.521 72.5848 135.503 72.7121 135.471 72.8359C135.459 72.7087 135.459 72.5808 135.471 72.4537C135.471 72.1763 135.489 71.8372 135.501 71.418C135.532 70.5457 135.588 69.3374 135.662 68.0028C135.736 66.6681 135.806 65.4629 135.868 64.5906C135.899 64.1807 135.927 63.8355 135.948 63.5581C135.95 63.431 135.968 63.3047 136.001 63.182Z" fill="#263238"/>
<path d="M150.602 65.0283C150.602 65.0746 147.368 65.1085 143.377 65.1085C139.385 65.1085 136.148 65.0746 136.148 65.0283C136.148 64.9821 139.385 64.9482 143.377 64.9482C147.368 64.9482 150.602 64.9852 150.602 65.0283Z" fill="white"/>
<path d="M150.63 65.8359C150.63 65.8791 147.344 65.9161 143.294 65.9161C139.243 65.9161 135.955 65.8791 135.955 65.8359C135.955 65.7928 139.24 65.7558 143.294 65.7558C147.347 65.7558 150.63 65.7897 150.63 65.8359Z" fill="white"/>
<path d="M150.753 66.8685C150.753 66.9147 147.516 66.9486 143.524 66.9486C139.533 66.9486 136.296 66.9147 136.296 66.8685C136.296 66.8223 139.533 66.7884 143.524 66.7884C147.516 66.7884 150.753 66.8253 150.753 66.8685Z" fill="white"/>
<path d="M149.705 73.3137C149.442 73.9146 149.144 74.4993 148.811 75.0644C148.527 75.6546 148.209 76.2278 147.858 76.7813C148.065 76.1566 148.337 75.5553 148.669 74.9874C148.956 74.3954 149.303 73.8346 149.705 73.3137Z" fill="#263238"/>
<path d="M150.598 73.5356C150.095 74.7634 149.43 75.9182 148.62 76.9693C148.909 76.3754 149.231 75.7981 149.584 75.2401C149.89 74.653 150.228 74.0839 150.598 73.5356Z" fill="#263238"/>
<path d="M121.717 63.068C121.754 63.105 121.036 63.7862 120.121 64.5876C119.583 65.0899 119.01 65.5534 118.407 65.9746C118.904 65.4327 119.441 64.9279 120.013 64.4643C120.472 64.0636 120.891 63.7091 121.199 63.4564C121.358 63.3094 121.532 63.1792 121.717 63.068Z" fill="#263238"/>
<path d="M122.475 63.632C121.975 64.1849 121.434 64.7 120.857 65.1732C120.398 65.5801 119.976 65.9438 119.664 66.1996C119.506 66.3516 119.329 66.4822 119.137 66.588C119.268 66.4123 119.419 66.2529 119.587 66.1133C119.895 65.8359 120.29 65.4599 120.752 65.053C121.215 64.6461 121.637 64.2855 121.948 64.0297C122.108 63.8773 122.285 63.7439 122.475 63.632Z" fill="#263238"/>
<path d="M138.362 135.262V132.488L143.583 132.424L143.651 136.502L143.343 136.526C141.903 136.625 136.016 136.921 135.048 136.64C133.942 136.317 138.362 135.262 138.362 135.262Z" fill="#5B63F6"/>
<g opacity="0.4">
<path opacity="0.4" d="M141.752 136.471C141.826 136.03 142.058 135.632 142.406 135.352C142.747 135.071 143.182 134.93 143.623 134.957L143.642 136.415L141.752 136.471Z" fill="black"/>
</g>
<g opacity="0.4">
<path opacity="0.4" d="M136.204 135.854C136.204 135.854 134.663 136.323 134.854 136.576C135.045 136.828 141.019 136.754 143.639 136.489V136.372L136.685 136.52C136.685 136.52 136.512 135.863 136.204 135.854Z" fill="black"/>
</g>
<path d="M143.71 136.369H143.62L143.361 136.388L142.415 136.44C141.614 136.48 140.507 136.517 139.283 136.535C138.06 136.554 136.95 136.535 136.149 136.535L135.199 136.508H134.94H134.851H134.94H135.199H136.149C136.95 136.508 138.057 136.508 139.28 136.508C140.504 136.508 141.611 136.458 142.412 136.431L143.361 136.4H143.62C143.649 136.386 143.679 136.376 143.71 136.369Z" fill="#263238"/>
<path d="M136.679 136.609C136.634 136.452 136.572 136.3 136.494 136.156C136.399 136.026 136.289 135.906 136.167 135.799C136.324 135.866 136.457 135.98 136.549 136.125C136.64 136.27 136.685 136.438 136.679 136.609Z" fill="#263238"/>
<path d="M138.208 135.802C138.208 135.802 138.118 135.722 138.041 135.602C137.964 135.481 137.912 135.38 137.927 135.37C137.942 135.361 138.016 135.45 138.093 135.568C138.171 135.685 138.223 135.793 138.208 135.802Z" fill="#263238"/>
<path d="M138.63 135.574C138.63 135.574 138.534 135.531 138.442 135.45C138.349 135.37 138.288 135.296 138.3 135.284C138.312 135.272 138.392 135.324 138.485 135.404C138.577 135.484 138.639 135.558 138.63 135.574Z" fill="#263238"/>
<path d="M138.889 135.068C138.802 135.1 138.71 135.112 138.618 135.105C138.525 135.116 138.432 135.108 138.343 135.081C138.43 135.048 138.522 135.034 138.615 135.041C138.707 135.028 138.801 135.037 138.889 135.068Z" fill="#263238"/>
<path d="M138.978 134.726C138.887 134.788 138.78 134.82 138.67 134.819C138.566 134.838 138.458 134.825 138.362 134.782C138.464 134.764 138.567 134.756 138.67 134.757C138.772 134.738 138.875 134.728 138.978 134.726Z" fill="#263238"/>
<path d="M138.026 135.349C137.915 135.368 137.801 135.368 137.69 135.349C137.568 135.336 137.449 135.311 137.332 135.275C137.26 135.256 137.191 135.23 137.126 135.195C137.106 135.184 137.088 135.169 137.074 135.151C137.059 135.133 137.049 135.112 137.042 135.09C137.037 135.065 137.039 135.04 137.047 135.016C137.056 134.993 137.072 134.972 137.092 134.957C137.174 134.916 137.264 134.893 137.356 134.89C137.448 134.888 137.539 134.906 137.623 134.944C137.707 134.982 137.781 135.037 137.841 135.107C137.9 135.177 137.944 135.26 137.967 135.349C137.973 135.378 137.973 135.409 137.967 135.438C137.93 135.336 137.877 135.24 137.81 135.155C137.733 135.068 137.632 135.005 137.52 134.973C137.455 134.951 137.386 134.943 137.318 134.949C137.25 134.955 137.183 134.975 137.123 135.007C137.07 135.047 137.092 135.108 137.15 135.142C137.211 135.175 137.275 135.201 137.341 135.219C137.454 135.258 137.569 135.287 137.687 135.306C137.896 135.339 138.026 135.336 138.026 135.349Z" fill="#263238"/>
<path d="M137.94 135.377C137.897 135.306 137.881 135.223 137.896 135.142C137.907 135.054 137.937 134.97 137.986 134.896C138.013 134.845 138.053 134.803 138.102 134.773C138.151 134.743 138.206 134.726 138.263 134.723C138.28 134.726 138.296 134.732 138.311 134.742C138.325 134.751 138.337 134.763 138.347 134.777C138.357 134.791 138.364 134.807 138.367 134.823C138.371 134.84 138.371 134.857 138.368 134.874C138.361 134.928 138.342 134.98 138.313 135.025C138.27 135.1 138.218 135.169 138.159 135.232C138.107 135.293 138.041 135.34 137.967 135.37C137.967 135.37 138.032 135.309 138.125 135.201C138.178 135.138 138.225 135.07 138.263 134.997C138.306 134.926 138.337 134.797 138.263 134.785C138.189 134.772 138.094 134.862 138.044 134.93C137.998 134.995 137.966 135.07 137.952 135.148C137.939 135.224 137.935 135.3 137.94 135.377Z" fill="#263238"/>
<path d="M143.602 134.942C143.602 134.942 143.451 134.942 143.216 134.96C142.909 135 142.619 135.124 142.378 135.318C142.141 135.516 141.962 135.775 141.86 136.067C141.786 136.292 141.78 136.443 141.768 136.443C141.763 136.408 141.763 136.373 141.768 136.338C141.777 136.242 141.796 136.147 141.823 136.055C141.913 135.747 142.093 135.473 142.341 135.269C142.591 135.068 142.894 134.946 143.213 134.917C143.309 134.906 143.405 134.906 143.5 134.917C143.535 134.921 143.569 134.929 143.602 134.942Z" fill="#263238"/>
<path d="M143.016 132.775C143.057 133.131 143.077 133.489 143.075 133.848C143.094 134.205 143.094 134.563 143.075 134.92C143.034 134.565 143.014 134.208 143.016 133.851C142.995 133.492 142.995 133.133 143.016 132.775Z" fill="#263238"/>
<path d="M141.08 135.971C140.831 136.033 140.575 136.062 140.319 136.058C140.063 136.072 139.806 136.055 139.554 136.005C139.554 135.987 139.897 136.005 140.319 136.005C140.741 136.005 141.077 135.953 141.08 135.971Z" fill="#263238"/>
<path d="M142.104 135.956C142.104 135.956 142.076 136.03 142.042 136.107C142.008 136.184 141.99 136.255 141.974 136.255C141.959 136.255 141.947 136.175 141.974 136.082C142.002 135.99 142.091 135.944 142.104 135.956Z" fill="#263238"/>
<path d="M142.483 135.472C142.483 135.472 142.464 135.54 142.409 135.595C142.353 135.651 142.304 135.685 142.292 135.672C142.279 135.66 142.31 135.605 142.366 135.549C142.421 135.494 142.471 135.46 142.483 135.472Z" fill="#263238"/>
<path d="M143.032 135.247C143.032 135.262 142.961 135.262 142.884 135.293C142.807 135.324 142.751 135.361 142.739 135.349C142.726 135.336 142.766 135.266 142.862 135.232C142.958 135.198 143.038 135.229 143.032 135.247Z" fill="#263238"/>
<path d="M143.423 135.136C143.423 135.155 143.401 135.179 143.358 135.198C143.315 135.216 143.275 135.216 143.269 135.198C143.263 135.179 143.29 135.155 143.333 135.136C143.377 135.118 143.417 135.121 143.423 135.136Z" fill="#263238"/>
<path d="M154.227 133.49L154.726 135.58C154.726 135.58 158.144 140.022 159.198 139.803C159.889 139.661 159.038 138.502 157.74 135.13L157.466 133.737L154.227 133.49Z" fill="#5B63F6"/>
<path d="M159.337 139.149C159.293 139.222 159.23 139.282 159.155 139.322C159.048 139.369 158.93 139.385 158.814 139.37C158.698 139.354 158.589 139.306 158.499 139.232C157.899 138.73 157.331 138.192 156.797 137.62C156.181 136.955 155.635 136.317 155.256 135.845L154.821 135.284L154.701 135.13L154.658 135.078C154.658 135.078 154.658 135.099 154.692 135.136L154.8 135.296C154.898 135.435 155.04 135.632 155.222 135.873C155.705 136.496 156.219 137.094 156.763 137.664C157.299 138.239 157.875 138.775 158.486 139.269C158.601 139.348 158.733 139.397 158.871 139.411C158.979 139.419 159.086 139.396 159.18 139.343C159.239 139.313 159.289 139.267 159.325 139.211C159.332 139.191 159.336 139.17 159.337 139.149Z" fill="#263238"/>
<path d="M158.853 137.722C158.764 137.686 158.667 137.675 158.572 137.688C158.343 137.712 158.122 137.789 157.928 137.913C157.726 138.028 157.563 138.201 157.46 138.41C157.414 138.493 157.388 138.586 157.386 138.681C157.386 138.681 157.417 138.579 157.497 138.428C157.608 138.236 157.767 138.077 157.959 137.966C158.147 137.848 158.357 137.769 158.576 137.735C158.668 137.725 158.76 137.721 158.853 137.722Z" fill="#263238"/>
<path d="M155.623 136.68C155.64 136.648 155.653 136.614 155.663 136.579C155.693 136.485 155.716 136.389 155.731 136.292C155.78 135.967 155.724 135.634 155.57 135.343C155.423 135.047 155.179 134.81 154.88 134.671C154.791 134.629 154.696 134.599 154.599 134.584C154.564 134.578 154.527 134.578 154.491 134.584C154.618 134.62 154.742 134.665 154.861 134.72C155.144 134.865 155.373 135.096 155.515 135.38C155.664 135.664 155.724 135.986 155.687 136.304C155.653 136.529 155.604 136.677 155.623 136.68Z" fill="#263238"/>
<path d="M154.446 133.835C154.446 133.835 154.507 134.144 154.572 134.504C154.598 134.73 154.657 134.952 154.748 135.161C154.763 135.161 154.695 134.853 154.63 134.492C154.603 134.265 154.541 134.043 154.446 133.835Z" fill="#263238"/>
<path d="M157.799 135.426C157.656 135.383 157.504 135.383 157.361 135.426C157.214 135.447 157.077 135.512 156.967 135.611C156.967 135.629 157.146 135.537 157.377 135.484C157.608 135.432 157.799 135.444 157.799 135.426Z" fill="#263238"/>
<path d="M157.87 135.783C157.75 135.74 157.619 135.74 157.5 135.783C157.374 135.801 157.258 135.864 157.176 135.962C157.176 135.962 157.324 135.885 157.515 135.842C157.706 135.799 157.867 135.802 157.87 135.783Z" fill="#263238"/>
<path d="M158.145 136.233C158.026 136.172 157.89 136.155 157.761 136.184C157.631 136.213 157.516 136.288 157.436 136.394C157.542 136.33 157.656 136.279 157.775 136.243C157.897 136.226 158.021 136.223 158.145 136.233Z" fill="#263238"/>
<path d="M157.565 135.275C157.565 135.275 157.407 135.232 157.164 135.139C157.022 135.083 156.883 135.016 156.751 134.939C156.672 134.895 156.596 134.847 156.523 134.794C156.455 134.745 156.378 134.668 156.381 134.587C156.384 134.507 156.483 134.461 156.563 134.483C156.644 134.51 156.716 134.558 156.772 134.621C156.899 134.742 157.007 134.856 157.081 134.951C157.256 135.148 157.352 135.278 157.361 135.259C157.346 135.224 157.326 135.191 157.303 135.161C157.244 135.074 157.182 134.991 157.115 134.911C157.018 134.791 156.915 134.677 156.806 134.569C156.743 134.496 156.661 134.441 156.569 134.412C156.542 134.402 156.513 134.399 156.484 134.402C156.455 134.406 156.427 134.415 156.403 134.431C156.378 134.446 156.358 134.467 156.342 134.491C156.327 134.516 156.317 134.543 156.313 134.572C156.318 134.626 156.337 134.677 156.366 134.722C156.396 134.767 156.436 134.805 156.483 134.831C156.557 134.885 156.636 134.933 156.717 134.976C156.853 135.052 156.995 135.116 157.142 135.167C157.243 135.202 157.346 135.229 157.451 135.25C157.487 135.263 157.526 135.272 157.565 135.275Z" fill="#263238"/>
<path d="M157.386 135.232C157.386 135.232 157.408 135.084 157.448 134.849C157.47 134.714 157.51 134.581 157.565 134.455C157.597 134.382 157.639 134.315 157.691 134.255C157.744 134.196 157.824 134.144 157.885 134.181C157.947 134.218 157.959 134.313 157.95 134.39C157.938 134.469 157.915 134.546 157.882 134.618C157.827 134.744 157.752 134.861 157.66 134.963C157.503 135.139 157.377 135.222 157.386 135.232C157.418 135.219 157.449 135.202 157.475 135.179C157.553 135.124 157.625 135.062 157.691 134.994C157.791 134.891 157.873 134.772 157.935 134.643C157.972 134.565 157.997 134.482 158.009 134.396C158.021 134.347 158.019 134.296 158.003 134.248C157.986 134.201 157.956 134.159 157.916 134.128C157.868 134.109 157.815 134.108 157.767 134.123C157.718 134.139 157.676 134.171 157.648 134.214C157.592 134.28 157.546 134.354 157.512 134.433C157.457 134.564 157.421 134.702 157.404 134.843C157.404 134.963 157.386 135.062 157.383 135.127C157.38 135.192 157.38 135.232 157.386 135.232Z" fill="#263238"/>
<g opacity="0.4">
<path opacity="0.4" d="M154.726 135.58L154.485 134.575C154.485 134.575 155.321 134.732 155.54 135.358C155.667 135.701 155.723 136.066 155.703 136.431L157.521 138.391C157.521 138.391 157.981 137.5 158.807 137.713C158.807 137.713 159.457 139.146 159.423 139.504C159.389 139.861 158.986 139.812 158.838 139.753C158.236 139.404 157.687 138.97 157.207 138.465C156.332 137.546 155.504 136.583 154.726 135.58Z" fill="black"/>
</g>
<path d="M134.845 81.8795L137.332 134.507L144.166 134.671L143.626 89.0398L153.847 134.757L159.337 134.507L150.543 81.9874L134.845 81.8795Z" fill="#263238"/>
<path d="M141.953 82.5915C141.946 82.8815 141.967 83.1714 142.014 83.4576C142.07 83.9878 142.156 84.7214 142.264 85.5321C142.3 85.9172 142.363 86.2993 142.452 86.6756C142.533 86.9925 142.708 87.2774 142.954 87.4924C143.119 87.637 143.319 87.7358 143.534 87.7791C143.612 87.7997 143.693 87.7997 143.771 87.7791C143.481 87.7316 143.212 87.5972 142.999 87.3936C142.787 87.19 142.641 86.9267 142.581 86.6386C142.501 86.2663 142.442 85.8896 142.406 85.5105C142.298 84.6998 142.196 83.9693 142.097 83.4391C142.072 83.1531 142.024 82.8696 141.953 82.5915Z" fill="#455A64"/>
<path d="M143.633 82.9028C143.614 82.9028 143.679 83.0014 143.633 83.1402C143.621 83.1768 143.603 83.2108 143.578 83.2399C143.553 83.2691 143.522 83.2928 143.488 83.3097C143.446 83.3245 143.401 83.3268 143.359 83.3164C143.316 83.306 143.277 83.2833 143.247 83.2511C143.214 83.2232 143.19 83.186 143.178 83.1443C143.166 83.1026 143.166 83.0582 143.179 83.0169C143.194 82.9813 143.215 82.9492 143.243 82.9226C143.271 82.8961 143.304 82.8757 143.34 82.8627C143.475 82.8134 143.565 82.8627 143.574 82.8627C143.583 82.8627 143.503 82.7394 143.312 82.7764C143.257 82.7874 143.205 82.8109 143.161 82.8451C143.117 82.8793 143.081 82.9233 143.056 82.9737C143.032 83.041 143.027 83.1141 143.044 83.1839C143.06 83.2536 143.097 83.317 143.149 83.3662C143.201 83.4153 143.267 83.4482 143.337 83.4606C143.408 83.473 143.48 83.4645 143.546 83.4361C143.596 83.4095 143.638 83.3717 143.67 83.3256C143.702 83.2796 143.723 83.2266 143.731 83.171C143.759 82.9768 143.639 82.8874 143.633 82.9028Z" fill="#455A64"/>
<path d="M147.969 83.8121C148.074 83.5797 148.12 83.3248 148.102 83.0703C148.085 82.8159 148.004 82.5698 147.868 82.3542C147.828 82.3542 147.936 82.6809 147.96 83.0785C147.985 83.4761 147.917 83.7998 147.969 83.8121Z" fill="#455A64"/>
<path d="M146.992 83.7135C147.117 83.4793 147.168 83.2126 147.137 82.949C147.151 82.683 147.082 82.4191 146.94 82.1939C146.943 82.4474 146.96 82.7006 146.992 82.9521C146.976 83.2056 146.976 83.4599 146.992 83.7135Z" fill="#455A64"/>
<path d="M138.59 83.6148C138.605 83.3528 138.599 83.0899 138.571 82.8288C138.593 82.5673 138.593 82.3044 138.571 82.0428C138.454 82.2881 138.407 82.5614 138.436 82.8319C138.412 83.1022 138.466 83.3736 138.59 83.6148Z" fill="#455A64"/>
<path d="M137.529 83.5193C137.57 83.5039 137.456 83.1556 137.443 82.7179C137.431 82.2802 137.517 81.9226 137.477 81.9103C137.33 82.1533 137.268 82.4387 137.301 82.721C137.287 83.0049 137.368 83.2855 137.529 83.5193Z" fill="#455A64"/>
<path d="M119.559 62.0169C119.559 62.0169 118.299 59.8839 118.003 59.662C117.707 59.4401 115.056 58.5184 114.831 58.5924C114.606 58.6664 111.44 59.2644 111.801 59.6373C112.162 60.0103 114.39 59.5603 114.39 59.5603L114.698 59.7051C114.698 59.7051 112.781 60.0442 112.381 60.2846C111.98 60.525 112.146 60.9597 112.498 60.9011C112.849 60.8425 114.514 60.5096 114.615 60.5744C114.717 60.6391 112.806 61.0552 112.602 61.1908C112.328 61.3573 112.294 61.8535 112.658 61.8227C112.864 61.8042 114.661 61.308 114.661 61.308C114.135 61.5141 113.621 61.7487 113.12 62.0107C112.908 62.2203 113.083 62.5286 113.395 62.4546C113.607 62.4053 114.609 61.9059 114.893 61.8381C114.893 61.8381 115.161 61.9059 115.414 62.4546C115.666 63.0032 116.995 64.0481 116.995 64.0481L119.559 62.0169Z" fill="#B78876"/>
<path d="M111.801 59.6373C111.982 59.7286 112.181 59.7801 112.384 59.7884C112.603 59.8155 112.823 59.8217 113.043 59.8069C113.287 59.776 113.552 59.7329 113.833 59.6897L114.424 59.5911H114.387C114.837 59.7642 115.3 59.9003 115.771 59.998C115.342 59.7792 114.894 59.5977 114.434 59.4555H114.418H114.4L113.811 59.5449L113.031 59.6713C112.819 59.6927 112.606 59.6979 112.393 59.6867C112.029 59.6651 111.807 59.6158 111.801 59.6373Z" fill="#AA6550"/>
<path d="M109.486 58.1208C109.486 58.1208 107.187 65.0962 106.404 66.5048L114.233 68.8967L115.657 67.9874C115.657 67.9874 117.559 62.3714 117.799 60.485L109.486 58.1208Z" fill="#455A64"/>
<path d="M114.659 67.7285L114.246 68.8967L115.67 67.9874L114.659 67.7285Z" fill="#263238"/>
<path d="M115.685 62.92C115.386 62.8531 115.093 62.7614 114.81 62.6457L112.717 61.9244L110.621 61.2371C110.325 61.1578 110.037 61.0547 109.758 60.9288C110.062 60.97 110.362 61.037 110.655 61.1292C111.203 61.2771 111.956 61.5022 112.775 61.7765C113.595 62.0508 114.332 62.3282 114.859 62.5409C115.146 62.6398 115.423 62.7668 115.685 62.92Z" fill="white"/>
<path d="M115.019 64.4828C114.727 64.4443 114.439 64.3793 114.159 64.2886C113.635 64.1468 112.926 63.9341 112.125 63.6721C111.324 63.4101 110.63 63.1574 110.124 62.9601C109.845 62.8681 109.574 62.7494 109.317 62.6056C109.605 62.6627 109.888 62.7452 110.161 62.8522L112.174 63.5211L114.19 64.1776C114.475 64.255 114.752 64.3571 115.019 64.4828Z" fill="white"/>
<path d="M114.227 65.9099C113.334 65.6906 112.455 65.4221 111.592 65.1054C110.714 64.8376 109.852 64.5185 109.012 64.1499C110.783 64.6357 112.524 65.2233 114.227 65.9099Z" fill="white"/>
<path d="M118.749 62.245C118.641 62.3227 118.512 62.3646 118.379 62.3646C118.246 62.3646 118.117 62.3227 118.009 62.245C117.778 62.1124 117.602 61.9059 117.393 61.7549C116.739 61.311 115.805 61.4467 115.17 60.9566C115.084 60.8918 114.995 60.7809 115.041 60.6792C115.087 60.5775 115.207 60.5744 115.312 60.5744L117.938 60.5959" fill="#B78876"/>
<path d="M117.926 60.6083C117.833 60.5832 117.738 60.5718 117.642 60.5744L116.868 60.5466L115.719 60.522H115.386C115.252 60.4996 115.115 60.5306 115.004 60.6083C114.973 60.6404 114.952 60.6812 114.945 60.7253C114.938 60.7694 114.944 60.8146 114.964 60.8549C114.993 60.9216 115.04 60.9791 115.099 61.0213C115.201 61.1016 115.313 61.1679 115.432 61.2186C115.878 61.3732 116.334 61.4958 116.798 61.5854C116.99 61.6375 117.174 61.7174 117.343 61.8227C117.497 61.9244 117.627 62.0477 117.756 62.1494C117.854 62.2429 117.971 62.3137 118.1 62.3569C118.228 62.4 118.364 62.4144 118.499 62.3991C118.693 62.359 118.755 62.2512 118.749 62.2512C118.67 62.2962 118.583 62.3265 118.493 62.3406C118.369 62.3447 118.245 62.3227 118.13 62.276C118.014 62.2293 117.91 62.1588 117.824 62.0693C117.69 61.9416 117.549 61.8212 117.402 61.7087C117.227 61.5887 117.033 61.499 116.828 61.4436C116.374 61.3452 115.925 61.2207 115.484 61.0706C115.375 61.0243 115.272 60.9653 115.176 60.8949C115.09 60.8271 115.047 60.7347 115.093 60.6977C115.139 60.6607 115.256 60.6514 115.37 60.6545H115.703H116.853C117.18 60.6545 117.445 60.6545 117.627 60.636C117.727 60.6403 117.828 60.631 117.926 60.6083Z" fill="#AA6550"/>
<path d="M58.4305 49.6013C58.5143 49.1496 58.4665 48.6834 58.2927 48.2583C58.1189 47.8331 57.8265 47.4668 57.4504 47.2032C57.0669 46.951 56.6232 46.8054 56.1649 46.7816C55.7066 46.7578 55.2502 46.8565 54.8427 47.0676C54.4409 47.2893 54.0997 47.6062 53.8487 47.9904C53.5978 48.3746 53.4448 48.8144 53.4032 49.2714C53.3169 50.304 53.7824 51.2873 54.18 52.2428C54.5776 53.1983 54.9228 54.2679 54.593 55.2481C54.3218 56.0587 53.6406 56.6475 53.0519 57.2701C52.4863 57.8084 52.0863 58.4971 51.8991 59.2551C51.7573 60.0165 52.0408 60.9011 52.7313 61.2617C52.8971 61.3195 53.0463 61.4168 53.1659 61.5453C53.357 61.8165 53.1659 62.1772 53.0272 62.47C52.8363 62.929 52.8113 63.4401 52.9563 63.9156C53.2645 64.9513 54.4081 65.614 55.49 65.5523C56.0308 65.4993 56.5521 65.3227 57.0139 65.0363C57.4756 64.7498 57.8654 64.3611 58.1531 63.9002C58.7199 62.9705 59.0285 61.9065 59.047 60.8179C59.0618 59.7351 59.0011 58.6526 58.8652 57.5783C58.6124 54.872 59.8762 52.0702 60.0118 49.3547" fill="#263238"/>
<path d="M60.8592 65.7373C61.2227 65.7649 61.5881 65.719 61.9335 65.6022C62.2788 65.4854 62.5971 65.3002 62.8693 65.0577C63.1415 64.8152 63.362 64.5202 63.5176 64.1905C63.6733 63.8608 63.7608 63.5032 63.7751 63.1389C63.8306 61.6624 63.8799 60.1737 63.8799 60.1737C63.8799 60.1737 66.1146 59.9641 66.278 57.751C66.4413 55.5378 66.3643 50.4335 66.3643 50.4335C65.1402 49.8139 63.7728 49.5324 62.4035 49.618C61.0342 49.7036 59.7126 50.1533 58.5752 50.9205L58.7139 58.7065V62.8954C58.7293 64.3102 59.4537 65.6294 60.8592 65.7373Z" fill="#FFBE9D"/>
<path d="M64.0771 55.0508C63.9141 54.8136 63.6669 54.6475 63.3857 54.5862C63.1045 54.525 62.8106 54.5732 62.5637 54.721C62.3137 54.8946 62.1334 55.1513 62.055 55.4454C61.9765 55.7395 62.005 56.0518 62.1352 56.3269C62.25 56.5312 62.4055 56.7096 62.5921 56.8512C62.7788 56.9928 62.9926 57.0945 63.2202 57.1499C63.4266 57.1931 63.6093 57.3119 63.7325 57.483C63.8557 57.6541 63.9105 57.8652 63.886 58.0746C63.7927 58.6563 63.5213 59.1947 63.1092 59.6157C62.4284 60.3125 61.5212 60.7432 60.5509 60.8302C59.6077 60.9411 58.5289 60.7439 57.9802 59.9702C57.5795 59.4061 57.5518 58.6695 57.5395 57.979L57.4347 53.0781C57.3973 52.4901 57.4346 51.8998 57.5456 51.3212C57.6611 50.7385 57.9911 50.2204 58.4703 49.8694C59.0097 49.5149 59.7033 49.4872 60.3043 49.2868C61.0687 49.0403 61.7191 48.5317 62.4373 48.1649C63.1555 47.7981 64.034 47.5792 64.7521 47.9399C65.27 48.1988 65.6152 48.7166 66.1176 49.0002C66.8327 49.4071 67.8067 49.3084 68.152 50.3657C68.2722 50.7311 68.2722 51.1253 68.152 51.4907C67.6649 52.924 65.8926 53.5004 64.6165 52.8808C64.5919 53.1244 64.8292 53.6638 64.5764 54.422C64.4932 54.6686 64.4655 55.0385 64.0833 55.0385" fill="#263238"/>
<path d="M57.9373 59.7298C56.6869 58.5377 55.9501 56.9052 55.8834 55.1788C55.8166 53.4524 56.4251 51.7679 57.5798 50.4828" fill="#263238"/>
<path d="M59.6203 60.4418C59.6203 60.4418 59.5833 60.4603 59.5062 60.4757C59.3947 60.4903 59.2818 60.4903 59.1703 60.4757C58.7566 60.4141 58.3757 60.2155 58.0884 59.9117C57.6803 59.455 57.3502 58.9343 57.1113 58.3705C56.7906 57.7015 56.5466 56.9983 56.3838 56.2745C56.2179 55.5492 56.1546 54.8043 56.1958 54.0614C56.2298 53.4554 56.3427 52.8565 56.5318 52.2798C56.6593 51.8916 56.8267 51.5177 57.0311 51.164C57.1051 51.0376 57.1667 50.9451 57.2099 50.8835C57.2531 50.8219 57.2808 50.791 57.2839 50.7941C57.028 51.2818 56.8135 51.7901 56.6428 52.3137C56.4695 52.8837 56.366 53.4726 56.3345 54.0676C56.3038 54.7923 56.3702 55.518 56.5318 56.2252C56.6912 56.9382 56.9279 57.6317 57.2376 58.2934C57.4644 58.8434 57.7764 59.3541 58.1623 59.8069C58.4292 60.1032 58.7832 60.3072 59.1733 60.3894C59.3206 60.4191 59.4701 60.4366 59.6203 60.4418Z" fill="#455A64"/>
<path d="M57.3269 50.7047C57.3516 50.7047 57.5242 51.013 57.8571 51.5246C58.2894 52.1774 58.7917 52.781 59.3551 53.3247C59.9187 53.8644 60.5387 54.3418 61.2045 54.7488C61.7192 55.057 62.0583 55.2203 62.0459 55.245C61.9582 55.2291 61.8732 55.2011 61.7932 55.1618C61.5724 55.0699 61.3564 54.967 61.1459 54.8535C60.4495 54.469 59.806 53.9955 59.2318 53.4449C58.6577 52.897 58.1591 52.2751 57.7492 51.5955C57.6234 51.3904 57.5092 51.1784 57.407 50.9606C57.368 50.8796 57.341 50.7934 57.3269 50.7047Z" fill="#455A64"/>
<path d="M61.6114 54.1569C61.3568 54.0749 61.1158 53.9554 60.8963 53.8025C59.7926 53.1222 58.8653 52.1907 58.19 51.0839C58.0391 50.8636 57.9207 50.6228 57.8386 50.3688C58.0012 50.5769 58.1505 50.7952 58.2856 51.0222C58.9995 52.0773 59.9062 52.9881 60.9579 53.7069C61.1841 53.8445 61.4022 53.9948 61.6114 54.1569Z" fill="#455A64"/>
<path d="M64.4813 54.1569C64.3779 54.1628 64.2742 54.1545 64.1731 54.1323C63.8963 54.0957 63.6223 54.0401 63.3532 53.9658C61.5597 53.4713 59.9751 52.4081 58.8375 50.9359C58.6661 50.716 58.5106 50.4843 58.3721 50.2424C58.3131 50.158 58.2664 50.0656 58.2334 49.968C58.2581 49.968 58.4831 50.3287 58.9269 50.865C59.5094 51.5645 60.1881 52.1778 60.9428 52.6867C61.6986 53.1909 62.5228 53.5843 63.3901 53.8549C64.0559 54.0614 64.4875 54.1292 64.4813 54.1569Z" fill="#455A64"/>
<path d="M55.5022 63.3731C55.5022 63.3731 55.5454 63.3084 55.5978 63.1789C55.6698 62.9875 55.6795 62.7782 55.6255 62.581C55.5409 62.2682 55.3543 61.9927 55.0954 61.798C54.8025 61.5545 54.4111 61.3634 54.0011 61.0922C53.7838 60.9498 53.5903 60.774 53.4278 60.5713C53.2515 60.341 53.1494 60.0626 53.135 59.773C53.1425 59.1448 53.3705 58.5393 53.7792 58.0623C54.1645 57.5444 54.6608 57.0759 54.9505 56.4564C55.2282 55.8055 55.3086 55.0874 55.1817 54.3912C55.0618 53.6869 54.8633 52.9984 54.5899 52.3384C54.3348 51.716 54.1207 51.0776 53.9487 50.4273C53.807 49.8108 53.7083 49.1605 53.9272 48.5779C54.0322 48.3069 54.2226 48.0776 54.4697 47.9245C54.5861 47.8558 54.7152 47.8114 54.8492 47.7939C54.9832 47.7764 55.1194 47.7862 55.2495 47.8227C55.6691 47.9796 56.0364 48.2508 56.3098 48.6057L56.9571 49.3485L57.364 49.8232C57.4121 49.8776 57.4564 49.9353 57.4965 49.9958C57.4965 49.9958 57.4379 49.9496 57.3393 49.8448L56.9109 49.3916L56.2451 48.6642C55.9757 48.3326 55.6223 48.0792 55.2217 47.9306C55.1064 47.9004 54.9861 47.8935 54.8681 47.9105C54.75 47.9274 54.6366 47.9678 54.5344 48.0293C54.3134 48.1719 54.1439 48.3814 54.0505 48.6272C53.8532 49.1451 53.9487 49.7677 54.0936 50.378C54.2677 51.0209 54.4829 51.6521 54.7378 52.2675C55.0219 52.9363 55.2287 53.6354 55.3543 54.3511C55.4833 55.0793 55.3965 55.8293 55.1046 56.5088C54.7964 57.1622 54.2878 57.6338 53.9087 58.1362C53.5229 58.5873 53.3051 59.158 53.2922 59.7514C53.3029 60.0154 53.3931 60.2701 53.5511 60.4819C53.7037 60.6764 53.8857 60.8459 54.0905 60.9843C54.4652 61.2079 54.8274 61.4518 55.1755 61.7148C55.4436 61.9253 55.6318 62.2211 55.7088 62.5532C55.7578 62.7593 55.7383 62.9757 55.6533 63.1697C55.6191 63.2481 55.5674 63.3177 55.5022 63.3731Z" fill="#455A64"/>
<path d="M50.293 134.671L51.7941 132.843L48.4036 130.004L46.175 132.658L46.3754 132.846C47.2724 133.681 50.9989 137.032 51.7818 137.365C52.6448 137.734 50.293 134.671 50.293 134.671Z" fill="#5B63F6"/>
<g opacity="0.5">
<path opacity="0.5" d="M47.4329 133.66C47.6225 133.331 47.684 132.943 47.6055 132.572C47.5309 132.2 47.3197 131.87 47.0137 131.647L46.2 132.602L47.4329 133.66Z" fill="white"/>
</g>
<g opacity="0.4">
<path opacity="0.4" d="M51.3996 136.218C51.3996 136.218 52.1702 137.355 51.9051 137.417C51.6401 137.479 47.7409 134.236 46.1597 132.658L46.2306 132.587L50.7308 136.406C50.7308 136.406 51.1931 136.061 51.3996 136.218Z" fill="white"/>
</g>
<path d="M46.1782 132.538C46.1782 132.538 46.1936 132.559 46.2306 132.593L46.3909 132.744L46.9889 133.287C47.4944 133.743 48.2033 134.359 49.0016 135.028C49.8 135.697 50.5428 136.28 51.073 136.699L51.7141 137.189L51.8898 137.318L51.9514 137.362L51.896 137.312L51.7264 137.173L51.0946 136.668C50.5644 136.243 49.8339 135.651 49.0356 134.985C48.2372 134.319 47.5252 133.706 47.0135 133.259L46.3971 132.729L46.2306 132.587L46.1782 132.538Z" fill="#263238"/>
<path d="M50.6877 136.458C50.8009 136.38 50.9217 136.312 51.0484 136.258C51.1822 136.222 51.3198 136.203 51.4583 136.199C51.3188 136.159 51.1703 136.163 51.0327 136.209C50.895 136.255 50.7747 136.342 50.6877 136.458Z" fill="#263238"/>
<path d="M50.1082 135.111C50.1824 135.113 50.256 135.098 50.3239 135.068C50.438 135.031 50.5274 134.991 50.5243 134.976C50.4501 134.974 50.3764 134.989 50.3085 135.019C50.2068 135.068 50.102 135.096 50.1082 135.111Z" fill="#263238"/>
<path d="M49.9539 134.735C49.9539 134.751 50.0371 134.76 50.1388 134.754C50.2405 134.748 50.3268 134.735 50.3238 134.72C50.2645 134.699 50.201 134.692 50.1388 134.701C50.034 134.705 49.9539 134.72 49.9539 134.735Z" fill="#263238"/>
<path d="M50.0464 134.267C50.0464 134.267 50.108 134.356 50.2067 134.439C50.3053 134.523 50.3885 134.581 50.4008 134.569C50.4132 134.557 50.3392 134.483 50.2406 134.399C50.1849 134.343 50.119 134.298 50.0464 134.267Z" fill="#263238"/>
<path d="M50.1758 133.993C50.2107 134.076 50.2623 134.152 50.3275 134.215C50.3927 134.278 50.4701 134.327 50.5549 134.359C50.5549 134.344 50.4655 134.276 50.3638 134.177C50.2621 134.079 50.1881 133.983 50.1758 133.993Z" fill="#263238"/>
<path d="M50.4719 134.911C50.5337 134.983 50.6078 135.044 50.6907 135.09C50.7784 135.147 50.8712 135.195 50.9681 135.235C51.0254 135.26 51.0854 135.279 51.1469 135.29C51.1853 135.296 51.2246 135.289 51.2579 135.269C51.2743 135.254 51.2866 135.236 51.2937 135.215C51.3007 135.195 51.3022 135.173 51.2979 135.151C51.2653 135.081 51.2174 135.018 51.1577 134.968C51.098 134.918 51.028 134.881 50.9527 134.861C50.8773 134.841 50.7985 134.838 50.7217 134.852C50.645 134.866 50.5723 134.897 50.5089 134.942C50.4867 134.956 50.4678 134.975 50.4534 134.997C50.5321 134.948 50.6186 134.913 50.7092 134.893C50.8071 134.877 50.9073 134.889 50.9989 134.926C51.1082 134.97 51.1957 135.056 51.2424 135.164C51.2578 135.216 51.2085 135.247 51.1531 135.238C51.095 135.227 51.0382 135.211 50.9835 135.188C50.8891 135.152 50.7974 135.109 50.7092 135.059C50.5613 134.973 50.4749 134.902 50.4719 134.911Z" fill="#263238"/>
<path d="M50.5149 134.967C50.5149 134.967 50.5951 134.945 50.666 134.837C50.7093 134.775 50.7349 134.703 50.7399 134.628C50.7493 134.58 50.746 134.531 50.7303 134.485C50.7146 134.439 50.6871 134.398 50.6506 134.366C50.6378 134.358 50.6238 134.354 50.6093 134.352C50.5948 134.351 50.5801 134.352 50.5661 134.356C50.5521 134.36 50.539 134.366 50.5275 134.376C50.5161 134.385 50.5066 134.396 50.4995 134.409C50.4756 134.448 50.4609 134.492 50.4564 134.538C50.4475 134.611 50.4475 134.684 50.4564 134.757C50.4584 134.824 50.4764 134.889 50.5088 134.948C50.5088 134.948 50.5088 134.874 50.5088 134.754C50.5065 134.685 50.5127 134.615 50.5273 134.547C50.5273 134.473 50.5827 134.375 50.6475 134.412C50.7122 134.449 50.7153 134.554 50.7122 134.624C50.7082 134.692 50.6893 134.759 50.6567 134.819C50.6148 134.873 50.5673 134.922 50.5149 134.967Z" fill="#263238"/>
<path d="M47.0227 131.678C47.1088 131.746 47.1912 131.819 47.2693 131.897C47.4535 132.085 47.5803 132.322 47.6349 132.579C47.6894 132.837 47.6695 133.105 47.5775 133.351C47.5066 133.539 47.4296 133.641 47.4388 133.66C47.4481 133.678 47.4635 133.638 47.4974 133.592C47.542 133.524 47.5802 133.451 47.6114 133.376C47.7186 133.125 47.7465 132.848 47.6914 132.58C47.6364 132.313 47.5009 132.069 47.3032 131.881C47.2447 131.824 47.1807 131.774 47.1121 131.73C47.0535 131.678 47.0258 131.678 47.0227 131.678Z" fill="#263238"/>
<path d="M48.5577 130.543C48.3402 130.757 48.1344 130.982 47.9412 131.218C47.7355 131.443 47.544 131.679 47.3679 131.927C47.7899 131.49 48.1851 131.028 48.5515 130.543H48.5577Z" fill="#263238"/>
<path d="M48.123 133.684C48.398 134.022 48.7323 134.306 49.1094 134.523C49.1094 134.523 48.8844 134.338 48.6131 134.107C48.3419 133.875 48.1354 133.675 48.123 133.684Z" fill="#263238"/>
<path d="M47.4574 133.126C47.442 133.126 47.4358 133.188 47.4173 133.259C47.3988 133.33 47.3711 133.385 47.3834 133.395C47.3958 133.404 47.4451 133.354 47.4667 133.274C47.4882 133.194 47.4728 133.126 47.4574 133.126Z" fill="#263238"/>
<path d="M47.4665 132.602C47.4511 132.602 47.445 132.655 47.448 132.723C47.4511 132.79 47.4727 132.837 47.485 132.837C47.4974 132.837 47.5097 132.781 47.5035 132.716C47.4974 132.652 47.482 132.602 47.4665 132.602Z" fill="#263238"/>
<path d="M47.2261 132.162C47.2261 132.162 47.2631 132.211 47.3001 132.273C47.337 132.334 47.3494 132.387 47.3648 132.387C47.3802 132.387 47.3894 132.316 47.3463 132.245C47.3031 132.174 47.2322 132.146 47.2261 132.162Z" fill="#263238"/>
<path d="M47.0259 131.881C47.0259 131.881 47.0259 131.921 47.0259 131.955C47.0259 131.989 47.069 132.014 47.0844 132.004C47.0999 131.995 47.0844 131.964 47.0844 131.93C47.0844 131.897 47.0382 131.872 47.0259 131.881Z" fill="#263238"/>
<path d="M65.9267 135.429L65.8743 133.062L61.4419 133.133L61.482 136.597H61.7563C62.9892 136.646 67.9857 136.757 68.7994 136.495C69.718 136.218 65.9267 135.429 65.9267 135.429Z" fill="#5B63F6"/>
<g opacity="0.5">
<path opacity="0.5" d="M63.0971 136.535C63.0232 136.167 62.8171 135.838 62.5177 135.611C62.2213 135.381 61.8495 135.271 61.4758 135.303L61.4943 136.535H63.0971Z" fill="white"/>
</g>
<g opacity="0.4">
<path opacity="0.4" d="M67.776 135.879C67.776 135.879 69.1014 136.24 68.9412 136.458C68.7809 136.677 63.7166 136.767 61.4819 136.597V136.495L67.3877 136.455C67.3877 136.455 67.5264 135.894 67.776 135.879Z" fill="white"/>
</g>
<path d="M61.4265 136.495H61.5036H61.7224L62.53 136.52C63.2112 136.52 64.1513 136.539 65.19 136.52C66.2288 136.502 67.1689 136.468 67.8501 136.434L68.6546 136.388L68.8734 136.372C68.899 136.376 68.925 136.376 68.9505 136.372H68.8734H68.6546L67.8501 136.4C67.1689 136.424 66.2288 136.452 65.19 136.468C64.1513 136.483 63.2112 136.468 62.53 136.468H61.4265V136.495Z" fill="#263238"/>
<path d="M67.4032 136.526C67.435 136.391 67.4836 136.261 67.548 136.138C67.625 136.025 67.715 135.921 67.8162 135.83C67.6845 135.891 67.5744 135.99 67.5007 136.115C67.4269 136.24 67.3929 136.385 67.4032 136.529V136.526Z" fill="#263238"/>
<path d="M66.0837 135.882C66.0837 135.882 66.1576 135.811 66.2193 135.709C66.2809 135.608 66.324 135.518 66.3117 135.509C66.2994 135.5 66.2377 135.577 66.1761 135.682C66.1145 135.786 66.0713 135.873 66.0837 135.882Z" fill="#263238"/>
<path d="M65.7234 135.685C65.7234 135.685 65.8005 135.648 65.8775 135.577C65.9546 135.506 66.0039 135.444 65.9946 135.432C65.9854 135.42 65.9145 135.469 65.8405 135.54C65.7666 135.611 65.7111 135.685 65.7234 135.685Z" fill="#263238"/>
<path d="M65.489 135.281C65.5628 135.308 65.642 135.318 65.7202 135.309C65.727 135.337 65.7437 135.361 65.7673 135.377C65.7908 135.394 65.8195 135.401 65.848 135.397C65.8764 135.394 65.9026 135.38 65.9216 135.359C65.9406 135.337 65.9511 135.31 65.9511 135.281C65.9511 135.252 65.9406 135.225 65.9216 135.203C65.9026 135.182 65.8764 135.168 65.848 135.165C65.8195 135.161 65.7908 135.168 65.7673 135.185C65.7437 135.201 65.727 135.225 65.7202 135.253C65.6421 135.248 65.5636 135.257 65.489 135.281Z" fill="#263238"/>
<path d="M65.4058 134.988C65.483 135.037 65.5732 135.062 65.6647 135.059C65.755 135.074 65.8479 135.06 65.9298 135.019C65.8426 135.011 65.7549 135.011 65.6678 135.019C65.5817 135 65.4939 134.99 65.4058 134.988Z" fill="#263238"/>
<path d="M66.2351 135.494C66.329 135.509 66.4248 135.509 66.5187 135.494C66.6238 135.48 66.7271 135.455 66.8269 135.42C66.8878 135.404 66.946 135.379 66.9995 135.346C67.0331 135.325 67.0583 135.294 67.0704 135.256C67.0746 135.235 67.0724 135.214 67.0642 135.194C67.056 135.174 67.042 135.157 67.0242 135.145C66.9149 135.093 66.7908 135.08 66.6732 135.11C66.5557 135.139 66.452 135.208 66.38 135.306C66.3384 135.364 66.3081 135.43 66.2906 135.5C66.2853 135.525 66.2853 135.551 66.2906 135.577C66.318 135.488 66.3607 135.404 66.417 135.33C66.4793 135.254 66.563 135.198 66.6574 135.17C66.712 135.149 66.7702 135.14 66.8285 135.143C66.8868 135.146 66.9439 135.16 66.9965 135.185C67.0427 135.219 67.0273 135.272 66.978 135.303C66.9275 135.332 66.8737 135.356 66.8177 135.373C66.7222 135.408 66.6244 135.436 66.5249 135.457C66.3368 135.481 66.2351 135.484 66.2351 135.494Z" fill="#263238"/>
<path d="M66.3028 135.506C66.3336 135.445 66.3433 135.376 66.3305 135.309C66.322 135.233 66.2945 135.161 66.2504 135.099C66.226 135.057 66.1914 135.022 66.1499 134.998C66.1084 134.973 66.0613 134.959 66.013 134.957C65.9836 134.964 65.9581 134.982 65.9419 135.007C65.9257 135.033 65.9203 135.064 65.9267 135.093C65.9336 135.138 65.9504 135.181 65.976 135.219C66.0143 135.282 66.061 135.339 66.1147 135.389C66.2041 135.475 66.275 135.506 66.2781 135.5C66.2812 135.494 66.2195 135.45 66.1394 135.361C66.0919 135.31 66.0514 135.253 66.0192 135.192C65.9791 135.133 65.9514 135.025 66.0192 135.013C66.087 135 66.1641 135.074 66.2072 135.13C66.2482 135.185 66.2766 135.248 66.2904 135.315C66.3007 135.378 66.3049 135.442 66.3028 135.506Z" fill="#263238"/>
<path d="M61.5005 135.281C61.5005 135.281 61.6268 135.266 61.8272 135.281C62.0908 135.307 62.3415 135.408 62.5496 135.572C62.7577 135.735 62.9145 135.955 63.0016 136.206C63.0725 136.394 63.0817 136.514 63.0909 136.514C63.0968 136.484 63.0968 136.454 63.0909 136.425C63.0813 136.343 63.0637 136.262 63.0386 136.184C62.9527 135.926 62.793 135.699 62.5793 135.531C62.3626 135.366 62.1019 135.27 61.8303 135.253C61.7493 135.244 61.6677 135.244 61.5868 135.253C61.5282 135.269 61.4974 135.278 61.5005 135.281Z" fill="#263238"/>
<path d="M61.9196 133.428C61.8954 133.736 61.8882 134.045 61.898 134.353C61.8887 134.657 61.898 134.96 61.9258 135.262C61.9515 134.96 61.9597 134.656 61.9504 134.353C61.9603 134.045 61.95 133.736 61.9196 133.428Z" fill="#263238"/>
<path d="M63.6489 136.095C63.8628 136.139 64.0811 136.157 64.2993 136.15C64.517 136.157 64.7346 136.136 64.9466 136.085C64.9466 136.07 64.6538 136.085 64.2962 136.085C63.9387 136.085 63.652 136.079 63.6489 136.095Z" fill="#263238"/>
<path d="M62.7798 136.107C62.7798 136.107 62.8044 136.169 62.8353 136.233C62.8661 136.298 62.8846 136.357 62.9 136.357C62.9154 136.357 62.9216 136.286 62.8846 136.212C62.8476 136.138 62.789 136.095 62.7798 136.107Z" fill="#263238"/>
<path d="M62.4465 135.703C62.4465 135.703 62.465 135.762 62.5113 135.805C62.5575 135.848 62.6037 135.882 62.6161 135.87C62.6284 135.857 62.5976 135.814 62.5513 135.768C62.5051 135.722 62.4558 135.685 62.4465 135.703Z" fill="#263238"/>
<path d="M61.9752 135.524C61.9752 135.524 62.0369 135.524 62.1047 135.561C62.1725 135.598 62.2156 135.617 62.228 135.608C62.2403 135.598 62.2002 135.537 62.1201 135.509C62.0399 135.481 61.9721 135.512 61.9752 135.524Z" fill="#263238"/>
<path d="M61.6392 135.441C61.6392 135.457 61.6607 135.478 61.6977 135.494C61.7347 135.509 61.7686 135.494 61.7748 135.494C61.7809 135.494 61.7532 135.46 61.7162 135.444C61.6792 135.429 61.6453 135.429 61.6392 135.441Z" fill="#263238"/>
<path d="M59.5186 85.1344C59.5186 85.1344 58.0422 91.3792 58.4614 92.6152C58.8806 93.8513 61.5807 94.5664 61.5807 94.5664L61.4913 111.67L46.5327 130.164L52.0563 134.686C52.0563 134.686 68.2478 116.161 69.6749 112.801C71.102 109.442 68.7502 84.8601 68.7502 84.8601L59.5186 85.1344Z" fill="#263238"/>
<path d="M67.1596 82.5977L67.8932 134.544L60.2829 134.581L55.3512 93.1115C54.5991 90.6456 53.7422 88.0719 53.8963 85.1313L54.9166 82.1445L67.1596 82.5977Z" fill="#263238"/>
<path d="M58.335 90.5316C58.3984 90.5783 58.4582 90.6298 58.5137 90.6857C58.6216 90.7936 58.785 90.9539 58.9823 91.1696C59.383 91.6012 59.9439 92.2454 60.6128 93.0776V93.0961C60.7515 95.4233 61.0258 98.8169 61.3557 102.587C61.6177 105.669 61.8889 108.462 62.0553 110.647V110.668L62.0399 110.687L59.9224 113.523L59.3367 114.293L59.1795 114.494L59.121 114.558C59.121 114.558 59.121 114.531 59.1641 114.481L59.3059 114.272L59.8669 113.48L61.9413 110.613V110.65C61.7409 108.468 61.4851 105.66 61.2046 102.599C60.8748 98.8292 60.6221 95.4325 60.5142 93.1023V93.1331C59.8576 92.2947 59.309 91.6382 58.9237 91.1974C58.7326 90.9755 58.5785 90.809 58.4767 90.695C58.4243 90.6452 58.3768 90.5905 58.335 90.5316Z" fill="#455A64"/>
<path d="M66.6817 110.847C66.0253 110.572 65.3331 110.391 64.6258 110.311C63.916 110.282 63.2057 110.351 62.5144 110.514C62.6955 110.401 62.8963 110.323 63.1062 110.283C64.1138 110.024 65.1791 110.109 66.1331 110.524C66.3353 110.595 66.5217 110.705 66.6817 110.847Z" fill="#455A64"/>
<path d="M69.3666 113.251C69.4005 113.279 67.2614 116.152 64.5859 119.669C61.9105 123.186 59.7128 126.015 59.6789 125.988C59.645 125.96 61.781 123.087 64.4596 119.57C67.1381 116.053 69.3173 113.227 69.3666 113.251Z" fill="#455A64"/>
<path d="M69.009 86.4567C68.9207 86.6805 68.7725 86.8757 68.5806 87.0208C68.3605 87.2147 68.1025 87.3608 67.823 87.4499C67.5436 87.539 67.2487 87.5691 66.957 87.5384C66.6652 87.5077 66.3831 87.4168 66.1283 87.2715C65.8735 87.1261 65.6516 86.9295 65.4767 86.6941C65.3144 86.5145 65.2074 86.2919 65.1685 86.053C65.288 86.2496 65.4176 86.4399 65.5568 86.6232C65.9095 87.0486 66.4147 87.3191 66.9643 87.3767C67.5139 87.4343 68.0641 87.2745 68.4974 86.9314C68.8303 86.6756 68.969 86.4382 69.009 86.4567Z" fill="#455A64"/>
<path d="M52.5987 71.4427C52.5987 71.4427 51.4428 79.8944 52.5987 80.964C53.7546 82.0336 54.8611 81.6822 54.8611 81.6822L57.0588 79.8328L57.4904 71.4304L52.5987 71.4427Z" fill="#FFBE9D"/>
<path d="M53.6652 64.5752C53.6652 64.5752 52.013 66.4431 51.6709 73.5849C51.6709 73.5849 56.3776 74.4788 56.4639 74.2199C56.5502 73.961 53.6652 64.5752 53.6652 64.5752Z" fill="#5B63F6"/>
<path d="M53.884 85.1344L68.8795 85.3779L68.6483 83.1217C68.6483 83.1217 66.9962 74.5312 67.0085 74.4202L67.2675 73.8716C67.6141 73.2044 67.8055 72.4676 67.8274 71.7161C67.8493 70.9646 67.7011 70.2178 67.3938 69.5316H74.6743L74.3661 63.6259L66.725 62.5008L63.8831 62.2758C63.8831 62.2758 58.8743 62.5378 58.7664 62.5501C56.6704 62.8029 54.2323 62.9632 53.3415 65.2071C52.8637 66.4062 53.3168 68.2062 54.0936 70.0649L55.943 75.7641C56.6827 78.8989 55.5022 78.7509 54.8549 81.9041C54.7624 82.3788 53.8747 84.6936 53.884 85.1344Z" fill="#5B63F6"/>
<path d="M73.5031 63.891C73.5031 63.9341 69.2279 63.9711 63.9478 63.9711C58.6678 63.9711 54.3926 63.9341 54.3926 63.891C54.3926 63.8478 58.6647 63.8077 63.9478 63.8077C69.2309 63.8077 73.5031 63.8447 73.5031 63.891Z" fill="#FAFAFA"/>
<path d="M73.9407 66.7267C73.9407 66.7729 69.1877 66.8068 63.322 66.8068C57.4563 66.8068 52.7034 66.7729 52.7034 66.7267C52.7034 66.6805 57.4563 66.6466 63.322 66.6466C69.1877 66.6466 73.9407 66.6836 73.9407 66.7267Z" fill="#FAFAFA"/>
<path d="M53.884 69.957C53.2991 70.0636 52.6997 70.0636 52.1147 69.957C52.6997 69.8503 53.2991 69.8503 53.884 69.957Z" fill="#FAFAFA"/>
<path d="M67.7761 70.0556C67.7761 70.0988 64.666 70.1358 60.8316 70.1358C56.9972 70.1358 53.884 70.0988 53.884 70.0556C53.884 70.0125 56.9941 69.9755 60.8316 69.9755C64.6691 69.9755 67.7761 70.0125 67.7761 70.0556Z" fill="#FAFAFA"/>
<path d="M67.4681 73.3846C67.4681 73.4277 64.6755 73.4647 61.2325 73.4647C57.7895 73.4647 55 73.4277 55 73.3846C55 73.3414 57.7895 73.3044 61.2325 73.3044C64.6755 73.3044 67.4681 73.3383 67.4681 73.3846Z" fill="#FAFAFA"/>
<path d="M67.3785 76.4669C67.3785 76.51 64.8479 76.547 61.7285 76.547C58.6092 76.547 56.0786 76.51 56.0786 76.4669C56.0786 76.4237 58.6092 76.3867 61.7285 76.3867C64.8479 76.3867 67.3785 76.4237 67.3785 76.4669Z" fill="#FAFAFA"/>
<path d="M67.8748 78.9697C67.8748 79.0129 65.1685 79.0499 61.8303 79.0499C58.4922 79.0499 55.7859 79.0129 55.7859 78.9697C55.7859 78.9266 58.4922 78.8896 61.8303 78.8896C65.1685 78.8896 67.8748 78.9173 67.8748 78.9697Z" fill="#FAFAFA"/>
<path d="M68.6574 82.1445C68.6574 82.1877 65.5751 82.2247 61.7807 82.2247C57.9864 82.2247 54.9041 82.1877 54.9041 82.1445C54.9041 82.1014 57.9864 82.0644 61.7807 82.0644C65.5751 82.0644 68.6574 82.0983 68.6574 82.1445Z" fill="#FAFAFA"/>
<path d="M55.8629 75.496C55.809 75.4071 55.7665 75.3119 55.7365 75.2124C55.6502 74.9905 55.5516 74.7285 55.4283 74.4233C55.1755 73.7544 54.8118 72.8359 54.445 71.8126C54.0782 70.7892 53.7638 69.8491 53.5696 69.1587C53.471 68.8165 53.4001 68.5422 53.3569 68.3388C53.3288 68.2382 53.3122 68.1348 53.3076 68.0305C53.4499 68.3896 53.5733 68.7559 53.6775 69.1279C53.8994 69.8029 54.2231 70.7338 54.6022 71.7571C54.9813 72.7804 55.3142 73.7051 55.5423 74.3832C55.6564 74.7223 55.7427 74.9997 55.7982 75.1908C55.8353 75.2886 55.8571 75.3915 55.8629 75.496Z" fill="#263238"/>
<g opacity="0.2">
<path opacity="0.2" d="M56.9539 81.1274C58.3576 80.5954 59.6723 79.8534 60.8531 78.9266C62.0385 77.9902 62.8938 76.6997 63.2943 75.2432C63.359 74.9689 63.3683 74.6082 63.1186 74.4757C63.0238 74.4376 62.9193 74.4305 62.8202 74.4554C62.7211 74.4803 62.6324 74.536 62.5669 74.6144C62.4368 74.7737 62.3327 74.9527 62.2586 75.1446C61.9666 75.7785 61.5073 76.3209 60.9301 76.7135C60.2705 77.1604 59.4907 77.3854 58.7509 77.6782C58.0112 77.9711 57.2652 78.3625 56.8214 79.0221C56.3775 79.6818 56.3375 80.6743 56.9231 81.2106" fill="black"/>
</g>
<path d="M63.769 72.6016C63.769 72.6016 63.769 72.6448 63.769 72.7218C63.769 72.7989 63.769 72.9191 63.769 73.0702C63.74 73.4945 63.6782 73.916 63.5841 74.3308C63.2746 75.7098 62.644 76.9963 61.7437 78.0857C60.8434 79.1751 59.6987 80.0366 58.4027 80.6003C58.0135 80.7711 57.6116 80.9113 57.2006 81.0195C57.0557 81.0596 56.9417 81.0812 56.8646 81.0966C56.8254 81.1071 56.785 81.1123 56.7444 81.112C56.8856 81.0491 57.0321 80.9985 57.1821 80.9609C57.5829 80.8304 57.9751 80.675 58.3564 80.4955C59.6201 79.9146 60.7364 79.0561 61.6223 77.9839C62.5082 76.9118 63.1408 75.6536 63.4731 74.3031C63.5758 73.8972 63.654 73.4854 63.7074 73.0702C63.717 72.9127 63.7376 72.7562 63.769 72.6016Z" fill="#263238"/>
<path d="M75.374 49.2006C75.374 49.2006 75.3401 49.0094 75.3093 48.6334C75.2748 48.0742 75.3184 47.513 75.4388 46.9659C75.6735 45.9101 76.1528 44.9242 76.8381 44.0874C77.5233 43.2507 78.3954 42.5864 79.3842 42.1482C80.0636 41.8486 80.7832 41.6502 81.5202 41.5594C82.332 41.4558 83.1548 41.4735 83.9614 41.6118C85.8009 41.9405 87.4911 42.8374 88.7945 44.1763C89.5271 44.9044 90.1501 45.7351 90.6439 46.6422C91.163 47.6141 91.5141 48.6666 91.6827 49.7554C91.8682 50.9083 91.8337 52.086 91.581 53.2261C91.4489 53.8186 91.2483 54.3938 90.983 54.9399C90.7045 55.4983 90.352 56.0167 89.935 56.481C89.0491 57.4289 87.92 58.1155 86.6708 58.466C85.3725 58.8249 84.0233 58.9634 82.6792 58.876C81.2811 58.8144 79.8974 58.5677 78.5643 58.1424C77.1583 57.7059 75.9221 56.8444 75.0257 55.6765C74.1433 54.438 73.6673 52.956 73.6633 51.4352C73.6572 50.6621 73.761 49.8921 73.9716 49.1482C74.2015 48.3982 74.5235 47.6797 74.9302 47.009C75.3584 46.3373 75.862 45.7168 76.4313 45.1596C77.021 44.6088 77.6739 44.1298 78.3762 43.7325C79.0985 43.3462 79.87 43.06 80.6695 42.8818C81.4804 42.7159 82.3115 42.6722 83.1354 42.7523C84.839 42.9424 86.4628 43.577 87.8439 44.5924C89.225 45.6079 90.315 46.9684 91.0046 48.5379C91.6994 50.1746 91.8601 51.9889 91.4638 53.7223C91.2604 54.6 90.8831 55.428 90.3542 56.1574C89.8093 56.887 89.1051 57.4827 88.2952 57.8989C87.4797 58.3134 86.5946 58.5736 85.6845 58.6664C84.7684 58.7641 83.8429 58.7257 82.9381 58.5524C81.0991 58.2021 79.4041 57.3176 78.0649 56.0094C77.3896 55.3499 76.8402 54.5728 76.4436 53.7162C76.0465 52.8474 75.8626 51.8963 75.9073 50.9421C76.0121 49.0218 77.0323 47.2433 78.4502 45.9456C79.876 44.6456 81.6814 43.8374 83.6008 43.64C84.5483 43.5483 85.5045 43.633 86.4211 43.8897C87.3281 44.1428 88.1807 44.5608 88.9363 45.1226C89.686 45.6839 90.315 46.3905 90.7857 47.2001C91.0223 47.6023 91.2116 48.0305 91.3498 48.4762C91.4299 48.6951 91.4731 48.9231 91.5316 49.1482C91.5902 49.3732 91.6179 49.6043 91.6334 49.8355C91.8185 51.6814 91.3085 53.5301 90.2032 55.02C89.0969 56.4614 87.536 57.4868 85.7738 57.9297C84.0542 58.379 82.2381 58.2897 80.5709 57.6739C77.2913 56.4841 74.7545 53.559 74.2089 50.2485C73.9215 48.608 74.2147 46.9187 75.0381 45.4709C75.8361 44.0692 77.0235 42.9289 78.4564 42.1882C79.8464 41.4793 81.3809 41.0996 82.9412 41.0786C84.4492 41.0476 85.949 41.3083 87.3582 41.8461C90.1323 42.8941 92.3978 44.9932 93.3934 47.57C93.8654 48.805 94.0522 50.1307 93.9395 51.4481C93.8269 52.7654 93.4179 54.0403 92.743 55.1772C92.1001 56.2331 91.1942 57.104 90.1138 57.7047C89.0902 58.2689 87.9631 58.6202 86.8003 58.7373C84.668 58.9126 82.5298 58.4775 80.6356 57.4828C78.9662 56.6678 77.4801 55.5215 76.2679 54.1138C75.2436 52.9431 74.5471 51.5224 74.249 49.9958C74.047 48.7604 74.1899 47.4933 74.662 46.334C75.0017 45.4829 75.5284 44.7192 76.2032 44.0993C76.6187 43.7228 77.0936 43.4177 77.6087 43.1962C77.9632 43.0698 78.1481 43.0143 78.1481 43.0143L78.0125 43.0636C77.9231 43.0975 77.7875 43.1438 77.6149 43.2116C77.1048 43.4431 76.6354 43.7553 76.2248 44.1363C75.562 44.7576 75.046 45.5189 74.7144 46.3648C74.2502 47.5154 74.1105 48.7713 74.3106 49.9958C74.6079 51.5215 75.3058 52.9407 76.3326 54.1076C77.5418 55.5029 79.0214 56.6385 80.6818 57.4458C82.5659 58.4302 84.6913 58.8579 86.8095 58.6787C87.9572 58.5603 89.0694 58.2123 90.0799 57.6554C91.1432 57.0618 92.0335 56.2013 92.6629 55.1587C93.3269 54.0367 93.7289 52.7793 93.8389 51.4802C93.9488 50.1811 93.7639 48.8739 93.2978 47.6563C92.3115 45.1195 90.0583 43.0328 87.3304 42.0125C85.9365 41.4829 84.4535 41.2275 82.9627 41.2605C81.4238 41.2803 79.9102 41.6547 78.5396 42.3547C77.1314 43.0812 75.9627 44.1985 75.1737 45.5726C74.3673 46.9916 74.0806 48.6472 74.363 50.2547C74.8994 53.5066 77.4022 56.3916 80.6325 57.5598C82.271 58.166 84.0563 58.2531 85.7461 57.8095C87.4735 57.3754 89.0031 56.3694 90.086 54.9553C91.1762 53.5006 91.684 51.6913 91.5101 49.8817C91.4947 49.6567 91.4423 49.4348 91.4084 49.2098C91.2649 48.5437 91.0207 47.9034 90.684 47.3111C90.2179 46.5196 89.5986 45.829 88.8623 45.2798C87.3601 44.1549 85.4891 43.6377 83.6224 43.8311C81.7391 44.0211 79.9664 44.8097 78.5643 46.0812C77.1741 47.345 76.1755 49.0988 76.0737 50.9667C76.0301 51.8964 76.2087 52.8231 76.5946 53.6699C76.9843 54.5074 77.5221 55.2676 78.1821 55.9139C79.4994 57.2 81.1665 58.0695 82.9751 58.4137C83.8636 58.5838 84.7724 58.6223 85.6721 58.5277C86.5635 58.4395 87.4304 58.1844 88.2274 57.7756C89.0176 57.3722 89.7043 56.7921 90.234 56.0803C90.7513 55.3701 91.1203 54.5629 91.319 53.7069C91.7069 52.0044 91.5494 50.223 90.8689 48.6149C90.1913 47.0686 89.1194 45.7275 87.7606 44.7257C86.4018 43.7238 84.8036 43.0965 83.1261 42.9064C82.3147 42.8294 81.4963 42.872 80.6972 43.0328C79.9128 43.2094 79.1559 43.4914 78.4471 43.8712C77.7543 44.2591 77.1106 44.7289 76.5299 45.2706C75.9675 45.817 75.471 46.4273 75.0504 47.0892C74.6492 47.748 74.3313 48.4541 74.1041 49.1913C73.8963 49.9221 73.7925 50.6786 73.7959 51.4383C73.7996 52.93 74.2659 54.3839 75.1305 55.5995C76.0092 56.7424 77.2207 57.5846 78.5982 58.0099C79.919 58.4353 81.2901 58.685 82.6761 58.7527C84.0064 58.8421 85.3423 58.7067 86.6276 58.352C87.5419 58.1122 88.3941 57.6791 89.1268 57.082C89.8595 56.4849 90.4557 55.7376 90.8751 54.8905C91.1373 54.3524 91.3359 53.7855 91.4669 53.2014C91.7174 52.0747 91.754 50.911 91.5748 49.7708C91.24 47.6667 90.2447 45.7237 88.7329 44.2226C87.443 42.8949 85.7705 42.0037 83.9491 41.6735C83.1499 41.5342 82.3342 41.5155 81.5295 41.618C80.7981 41.7051 80.0836 41.8993 79.4088 42.1944C78.2704 42.6889 77.2895 43.4864 76.5731 44.5C76.0458 45.2409 75.6708 46.079 75.4696 46.9659C75.3473 47.5107 75.2986 48.0695 75.3247 48.6272C75.3247 48.8153 75.3555 48.957 75.3617 49.0526C75.3679 49.1482 75.374 49.2006 75.374 49.2006Z" fill="#5B63F6"/>
<path d="M87.5031 47.6039C87.5031 47.644 85.4965 48.3159 82.9937 49.1019C80.4908 49.8879 78.4472 50.4921 78.4349 50.4489C78.4225 50.4057 80.4415 49.7369 82.9443 48.9509C85.4472 48.1649 87.4754 47.5608 87.5031 47.6039Z" fill="#5B63F6"/>
<path d="M88.0608 49.0711C88.0762 49.1112 86.1929 49.7985 83.8565 50.6123C81.5201 51.426 79.6183 52.0332 79.6029 51.9901C79.5875 51.9469 81.4708 51.2626 83.8072 50.4489C86.1436 49.6352 88.0454 49.0249 88.0608 49.0711Z" fill="#5B63F6"/>
<path d="M84.6118 52.0794C84.6611 52.1473 83.6871 52.5325 82.5097 52.9517C81.9178 53.1613 81.3754 53.3401 80.9685 53.4634C80.7595 53.5457 80.541 53.6017 80.3181 53.6299C80.5121 53.5145 80.719 53.4224 80.9346 53.3555C81.3199 53.2076 81.8593 53.0103 82.448 52.8007C83.0367 52.5911 83.5823 52.4062 83.9738 52.2767C84.3652 52.1473 84.6272 52.0733 84.6118 52.0794Z" fill="#5B63F6"/>
<path d="M86.3503 53.5312C86.3503 53.5312 84.9386 52.8778 84.8708 53.223C84.803 53.5682 84.8985 53.7069 85.179 53.7932C85.4595 53.8795 86.2239 54.1384 86.2239 54.1384L86.3503 53.5312Z" fill="#FFBE9D"/>
<path d="M86.27 54.1754C86.27 54.1754 84.8583 53.522 84.7905 53.8672C84.7227 54.2124 84.8152 54.348 85.0988 54.4374C85.3823 54.5268 86.1437 54.7827 86.1437 54.7827L86.27 54.1754Z" fill="#EB996E"/>
<path d="M83.0244 55.618L77.6673 62.6334C76.9029 63.7646 75.7162 64.3286 74.9148 64.3502L74.4124 64.3934L74.662 69.1741L76.7765 68.9337C77.4353 68.8585 78.0674 68.6305 78.6224 68.2676C79.1774 67.9048 79.6399 67.4172 79.9729 66.8438L85.4194 57.4304C85.7784 56.8251 86.0976 56.197 86.3749 55.5502C86.6831 54.7364 86.3502 53.5189 86.3502 53.5189L84.1926 54.8813V53.411C84.1926 53.411 83.9614 53.3309 83.5114 53.7717C83.123 54.1631 83.0244 55.618 83.0244 55.618Z" fill="#FFBE9D"/>
<path d="M84.1587 52.7884L84.1864 57.9636C84.1867 58.0208 84.1987 58.0774 84.2217 58.1298C84.2447 58.1822 84.2781 58.2293 84.32 58.2683C84.3619 58.3073 84.4113 58.3372 84.4652 58.3564C84.5191 58.3756 84.5763 58.3835 84.6334 58.3797C84.7392 58.3719 84.838 58.3244 84.9101 58.2466C84.9822 58.1688 85.0221 58.0666 85.0218 57.9605V52.7206L84.5286 51.9192L84.1587 52.7884Z" fill="#455A64"/>
<path d="M84.5223 51.9346L84.3867 52.2459L84.7042 52.2305L84.5223 51.9346Z" fill="#263238"/>
<path d="M85.0156 52.7329C84.8919 52.8246 84.7411 52.8724 84.5872 52.8685C84.4349 52.8865 84.2806 52.8598 84.1433 52.7915C84.1433 52.7699 84.3437 52.8192 84.5841 52.8069C84.8245 52.7946 85.0064 52.7144 85.0156 52.7329Z" fill="#263238"/>
<path d="M84.5747 58.3797C84.5634 58.3074 84.5582 58.2342 84.5593 58.1609C84.5593 57.9821 84.5593 57.7849 84.5593 57.566C84.5593 57.0081 84.5593 56.3331 84.5439 55.6026C84.5286 54.872 84.5439 54.2001 84.5439 53.6422C84.5439 53.4233 84.5439 53.2261 84.5439 53.0473C84.5368 52.9745 84.5368 52.9012 84.5439 52.8285C84.5491 52.9013 84.5491 52.9744 84.5439 53.0473C84.5439 53.2261 84.5439 53.4233 84.5439 53.6422C84.5439 54.2001 84.5439 54.8751 84.5439 55.6026C84.5439 56.33 84.5439 57.0081 84.5439 57.566C84.5439 57.7849 84.5439 57.9821 84.5439 58.1609C84.558 58.2333 84.5683 58.3063 84.5747 58.3797Z" fill="#263238"/>
</g>
<defs>
<clipPath id="clip0">
<rect width="186.409" height="140" fill="white"/>
</clipPath>
</defs>
</svg>
