<svg width="245" height="234" viewBox="0 0 245 234" fill="none" xmlns="http://www.w3.org/2000/svg">
<path opacity="0.7" d="M27.2007 72.7772C27.2007 72.7772 12.5072 110.723 33.1562 148.933C53.8051 187.142 96.3362 207.327 130.377 224.587C164.418 241.848 199.765 233.441 216.562 205.172C233.358 176.902 210.322 156.722 210.29 116.41C210.258 76.0975 216.325 65.4252 194.479 31.3687C172.634 -2.68785 119.083 -10.2296 78.5859 15.0308C38.0891 40.2912 27.2007 72.7772 27.2007 72.7772Z" fill="white"/>
<path d="M115.315 3.54161C180.666 -2.25569 180.798 34.5993 210.253 68.9615C239.709 103.324 246.007 118.897 234.887 158.509C223.766 198.12 186.4 229.167 140.095 211.575C93.7907 193.983 67.2918 210.874 38.0997 195.237C8.90769 179.6 -1.95434 149.433 19.4324 113.859C40.8192 78.2846 34.711 10.7197 115.315 3.54161Z" fill="#5B63F6"/>
<path opacity="0.7" d="M115.315 3.54161C180.666 -2.25569 180.798 34.5993 210.253 68.9615C239.709 103.324 246.007 118.897 234.887 158.509C223.766 198.12 186.4 229.167 140.095 211.575C93.7907 193.983 67.2918 210.874 38.0997 195.237C8.90769 179.6 -1.95434 149.433 19.4324 113.859C40.8192 78.2846 34.711 10.7197 115.315 3.54161Z" fill="white"/>
<path d="M158.834 19.3132L56.1123 30.7445L72.0034 173.541L174.725 162.11L158.834 19.3132Z" fill="white" stroke="#263238" stroke-linecap="round" stroke-linejoin="round"/>
<path d="M158.833 19.3138L56.1118 30.7451L58.3105 50.5026L161.032 39.0713L158.833 19.3138Z" fill="#BFBFBF" stroke="#263238" stroke-linecap="round" stroke-linejoin="round"/>
<path d="M130.293 28.4173L85.9486 33.3503C85.7426 33.3606 85.5408 33.4127 85.3555 33.5036C85.1703 33.5945 85.0056 33.7222 84.8714 33.8789C84.7372 34.0356 84.6363 34.218 84.575 34.415C84.5136 34.612 84.4931 34.8194 84.5146 35.0246C84.5362 35.2298 84.5993 35.4284 84.7002 35.6084C84.801 35.7884 84.9376 35.9459 85.1014 36.0713C85.2652 36.1968 85.4528 36.2875 85.6529 36.338C85.8529 36.3884 86.0611 36.3976 86.2648 36.3649L130.609 31.4319C130.997 31.3732 131.347 31.1666 131.586 30.8553C131.825 30.544 131.934 30.1523 131.89 29.7624C131.847 29.3724 131.654 29.0145 131.352 28.7637C131.05 28.5129 130.663 28.3888 130.272 28.4173H130.293Z" fill="white"/>
<path d="M119.895 35.8378L97.7277 38.3043C97.6288 38.3141 97.5327 38.3436 97.4452 38.391C97.3578 38.4383 97.2806 38.5027 97.2183 38.5802C97.156 38.6577 97.1097 38.7469 97.0823 38.8425C97.0548 38.9381 97.0467 39.0382 97.0584 39.137C97.0797 39.3368 97.1793 39.52 97.3353 39.6464C97.4914 39.7729 97.6913 39.8323 97.8911 39.8116L120.063 37.3451C120.257 37.3158 120.432 37.2125 120.552 37.0568C120.671 36.9012 120.726 36.7053 120.704 36.5104C120.682 36.3154 120.586 36.1364 120.435 36.011C120.284 35.8857 120.09 35.8236 119.895 35.8378Z" fill="white"/>
<path opacity="0.3" d="M136.464 52.9241L78.3595 59.3854C78.2106 59.4022 78.0745 59.4774 77.9811 59.5945C77.8877 59.7116 77.8447 59.8611 77.8615 60.0099C77.8782 60.1588 77.9535 60.2949 78.0706 60.3883C78.1877 60.4817 78.3371 60.5247 78.486 60.508L136.575 54.0466C136.724 54.0299 136.86 53.9546 136.953 53.8375C137.047 53.7204 137.09 53.571 137.073 53.4221C137.056 53.2733 136.981 53.1371 136.864 53.0437C136.747 52.9503 136.597 52.9073 136.449 52.9241H136.464Z" fill="black"/>
<path opacity="0.3" d="M136.912 56.9558L70.1061 64.3869C69.9572 64.4037 69.8211 64.4789 69.7277 64.596C69.6343 64.7132 69.5913 64.8626 69.608 65.0114C69.6248 65.1603 69.7 65.2964 69.8172 65.3898C69.9343 65.4832 70.0837 65.5263 70.2326 65.5095L137.039 58.0784C137.115 58.0738 137.189 58.0539 137.257 58.0198C137.325 57.9857 137.386 57.9382 137.435 57.8801C137.484 57.822 137.521 57.7545 137.544 57.6817C137.566 57.6089 137.574 57.5323 137.566 57.4565C137.557 57.38 137.533 57.306 137.496 57.239C137.458 57.1719 137.407 57.1132 137.346 57.0664C137.285 57.0196 137.215 56.9857 137.14 56.9667C137.066 56.9477 136.988 56.944 136.912 56.9558Z" fill="black"/>
<path opacity="0.3" d="M119.926 62.9271L70.5543 68.4187C70.4055 68.4354 70.2694 68.5107 70.176 68.6278C70.0826 68.7449 70.0395 68.8943 70.0563 69.0432C70.0731 69.1921 70.1483 69.3282 70.2654 69.4216C70.3825 69.515 70.532 69.558 70.6808 69.5412L120.047 64.0496C120.124 64.0451 120.198 64.0251 120.266 63.991C120.334 63.957 120.395 63.9094 120.444 63.8513C120.493 63.7932 120.53 63.7257 120.553 63.6529C120.575 63.5801 120.582 63.5035 120.575 63.4277C120.566 63.3518 120.543 63.2782 120.505 63.2116C120.468 63.1449 120.417 63.0865 120.357 63.0398C120.296 62.993 120.227 62.959 120.153 62.9396C120.079 62.9203 120.002 62.916 119.926 62.9271Z" fill="black"/>
<path opacity="0.3" d="M151.197 50.7826L145.304 51.4384C144.511 51.5266 143.94 52.2406 144.028 53.0333L144.684 58.926C144.772 59.7186 145.486 60.2896 146.279 60.2014L152.172 59.5457C152.964 59.4575 153.535 58.7434 153.447 57.9508L152.791 52.0581C152.703 51.2654 151.989 50.6944 151.197 50.7826Z" stroke="#263238" stroke-linecap="round" stroke-linejoin="round"/>
<path d="M146.351 55.3115L148.291 57.1403L150.841 53.235" stroke="#5B63F6" stroke-width="3" stroke-linecap="round" stroke-linejoin="round"/>
<path opacity="0.3" d="M138.588 72.0235L80.4991 78.4849C80.3503 78.5016 80.2142 78.5769 80.1208 78.694C80.0274 78.8111 79.9843 78.9605 80.0011 79.1094C80.0179 79.2583 80.0931 79.3944 80.2102 79.4878C80.3273 79.5812 80.4768 79.6242 80.6256 79.6074L138.715 73.1461C138.788 73.1378 138.86 73.115 138.925 73.0792C138.989 73.0433 139.047 72.995 139.093 72.937C139.139 72.879 139.174 72.8124 139.194 72.7412C139.215 72.6699 139.221 72.5953 139.213 72.5215C139.204 72.4478 139.182 72.3765 139.146 72.3116C139.11 72.2466 139.061 72.1894 139.003 72.1432C138.945 72.0969 138.879 72.0626 138.808 72.042C138.736 72.0215 138.662 72.0152 138.588 72.0235Z" fill="black"/>
<path opacity="0.3" d="M139.036 76.0553L72.2301 83.4864C72.1564 83.4947 72.085 83.5174 72.0201 83.5533C71.9552 83.5892 71.898 83.6375 71.8517 83.6955C71.8055 83.7535 71.7711 83.82 71.7506 83.8913C71.7301 83.9626 71.7238 84.0372 71.7321 84.1109C71.7404 84.1846 71.7631 84.256 71.799 84.3209C71.8349 84.3858 71.8832 84.443 71.9412 84.4893C71.9992 84.5355 72.0657 84.5699 72.137 84.5904C72.2083 84.611 72.2829 84.6173 72.3566 84.609L139.163 77.1779C139.311 77.1611 139.448 77.0859 139.541 76.9687C139.634 76.8516 139.677 76.7022 139.661 76.5533C139.644 76.4045 139.569 76.2684 139.451 76.175C139.334 76.0816 139.185 76.0385 139.036 76.0553Z" fill="black"/>
<path opacity="0.3" d="M122.05 82.0265L72.6779 87.5181C72.529 87.5349 72.3929 87.6101 72.2995 87.7272C72.2061 87.8443 72.1631 87.9938 72.1798 88.1426C72.1966 88.2915 72.2718 88.4276 72.3889 88.521C72.5061 88.6144 72.6555 88.6575 72.8044 88.6407L122.171 83.1491C122.247 83.1445 122.321 83.1246 122.39 83.0905C122.458 83.0564 122.518 83.0089 122.567 82.9507C122.617 82.8926 122.654 82.8251 122.676 82.7523C122.699 82.6795 122.706 82.6029 122.698 82.5272C122.69 82.4512 122.666 82.3777 122.629 82.311C122.591 82.2444 122.541 82.1859 122.48 82.1392C122.42 82.0925 122.35 82.0584 122.276 82.039C122.203 82.0197 122.125 82.0154 122.05 82.0265Z" fill="black"/>
<path opacity="0.3" d="M153.322 69.8778L147.429 70.5336C146.637 70.6218 146.066 71.3359 146.154 72.1285L146.81 78.0212C146.898 78.8138 147.612 79.3849 148.405 79.2967L154.297 78.6409C155.09 78.5527 155.661 77.8386 155.573 77.046L154.917 71.1533C154.829 70.3607 154.115 69.7896 153.322 69.8778Z" stroke="#263238" stroke-linecap="round" stroke-linejoin="round"/>
<path d="M148.48 74.411L150.415 76.2398L152.965 72.3345" stroke="#5B63F6" stroke-width="3" stroke-linecap="round" stroke-linejoin="round"/>
<path opacity="0.3" d="M140.712 91.123L82.6232 97.5843C82.4838 97.6112 82.3596 97.6897 82.2755 97.8041C82.1915 97.9185 82.1536 98.0604 82.1696 98.2015C82.1856 98.3426 82.2542 98.4724 82.3617 98.5652C82.4692 98.6579 82.6078 98.7066 82.7497 98.7016L140.839 92.2298C140.912 92.2215 140.984 92.1987 141.049 92.1628C141.113 92.127 141.171 92.0786 141.217 92.0206C141.263 91.9626 141.298 91.8961 141.318 91.8248C141.339 91.7536 141.345 91.6789 141.337 91.6052C141.328 91.5315 141.306 91.4602 141.27 91.3953C141.234 91.3303 141.185 91.2731 141.127 91.2269C141.069 91.1806 141.003 91.1463 140.932 91.1257C140.86 91.1052 140.786 91.0989 140.712 91.1072V91.123Z" fill="black"/>
<path opacity="0.3" d="M141.165 95.1547L74.354 102.586C74.2802 102.593 74.2085 102.615 74.1434 102.65C74.0782 102.686 74.0208 102.734 73.9745 102.792C73.9283 102.85 73.8943 102.917 73.8743 102.988C73.8544 103.059 73.8491 103.134 73.8586 103.208C73.8665 103.281 73.8888 103.353 73.9243 103.418C73.9599 103.483 74.0079 103.541 74.0657 103.587C74.1234 103.634 74.1898 103.668 74.261 103.689C74.3322 103.71 74.4068 103.716 74.4805 103.708L141.286 96.2773C141.363 96.272 141.437 96.2515 141.505 96.2168C141.573 96.1822 141.634 96.1342 141.683 96.0756C141.732 96.0171 141.769 95.9493 141.792 95.8762C141.814 95.8031 141.821 95.7262 141.813 95.6501C141.805 95.5743 141.782 95.501 141.744 95.4346C141.707 95.3682 141.656 95.31 141.595 95.2637C141.535 95.2174 141.465 95.1839 141.391 95.1652C141.318 95.1464 141.241 95.1429 141.165 95.1547Z" fill="black"/>
<path opacity="0.3" d="M124.174 101.126L74.8019 106.618C74.653 106.634 74.5169 106.71 74.4235 106.827C74.3301 106.944 74.2871 107.093 74.3038 107.242C74.3206 107.391 74.3958 107.527 74.513 107.62C74.6301 107.714 74.7795 107.757 74.9284 107.74L124.295 102.243C124.444 102.227 124.58 102.153 124.674 102.036C124.768 101.919 124.812 101.77 124.796 101.621C124.78 101.473 124.705 101.336 124.588 101.242C124.472 101.148 124.323 101.105 124.174 101.121V101.126Z" fill="black"/>
<path opacity="0.3" d="M155.447 88.973L149.554 89.6288C148.762 89.717 148.191 90.4311 148.279 91.2237L148.935 97.1164C149.023 97.909 149.737 98.4801 150.53 98.3919L156.422 97.7361C157.215 97.6479 157.786 96.9338 157.698 96.1412L157.042 90.2485C156.954 89.4559 156.24 88.8848 155.447 88.973Z" stroke="#263238" stroke-linecap="round" stroke-linejoin="round"/>
<path d="M150.604 93.5104L152.539 95.3392L155.095 91.4286" stroke="#5B63F6" stroke-width="3" stroke-linecap="round" stroke-linejoin="round"/>
<path opacity="0.3" d="M142.836 110.222L84.7472 116.684C84.6078 116.711 84.4837 116.789 84.3996 116.904C84.3155 117.018 84.2776 117.16 84.2936 117.301C84.3096 117.442 84.3782 117.572 84.4857 117.665C84.5933 117.757 84.7318 117.806 84.8737 117.801L142.963 111.34C143.04 111.337 143.117 111.318 143.187 111.285C143.257 111.251 143.319 111.203 143.37 111.144C143.421 111.086 143.459 111.017 143.482 110.943C143.505 110.868 143.512 110.79 143.503 110.713C143.494 110.636 143.47 110.561 143.431 110.494C143.392 110.426 143.339 110.368 143.277 110.322C143.214 110.276 143.143 110.243 143.067 110.226C142.991 110.209 142.912 110.208 142.836 110.222Z" fill="black"/>
<path opacity="0.3" d="M143.289 114.254L76.478 121.685C76.4042 121.692 76.3326 121.714 76.2674 121.75C76.2022 121.785 76.1448 121.833 76.0986 121.891C76.0524 121.949 76.0183 122.016 75.9984 122.087C75.9784 122.159 75.9731 122.234 75.9826 122.307C75.9905 122.381 76.0128 122.452 76.0484 122.517C76.0839 122.583 76.1319 122.64 76.1897 122.686C76.2475 122.733 76.3138 122.768 76.385 122.788C76.4562 122.809 76.5308 122.816 76.6045 122.808L143.41 115.377C143.56 115.36 143.696 115.284 143.79 115.166C143.884 115.049 143.927 114.899 143.911 114.75C143.894 114.602 143.819 114.466 143.702 114.374C143.586 114.281 143.437 114.238 143.289 114.254Z" fill="black"/>
<path opacity="0.3" d="M126.319 120.225L76.9473 125.717C76.8734 125.724 76.8018 125.746 76.7366 125.782C76.6714 125.817 76.614 125.865 76.5678 125.923C76.5216 125.981 76.4875 126.048 76.4676 126.119C76.4477 126.191 76.4423 126.265 76.4519 126.339C76.4597 126.413 76.4821 126.484 76.5176 126.549C76.5531 126.614 76.6012 126.672 76.6589 126.718C76.7167 126.765 76.7831 126.799 76.8543 126.82C76.9254 126.841 77 126.848 77.0737 126.84L126.44 121.348C126.514 121.34 126.586 121.318 126.651 121.282C126.716 121.247 126.773 121.199 126.82 121.141C126.866 121.083 126.901 121.017 126.922 120.946C126.943 120.874 126.949 120.8 126.941 120.726C126.934 120.652 126.912 120.58 126.877 120.515C126.841 120.449 126.793 120.392 126.735 120.345C126.677 120.298 126.611 120.264 126.539 120.243C126.468 120.223 126.393 120.217 126.319 120.225Z" fill="black"/>
<path opacity="0.3" d="M157.573 108.074L151.68 108.729C150.888 108.818 150.317 109.532 150.405 110.324L151.061 116.217C151.149 117.01 151.863 117.581 152.655 117.492L158.548 116.837C159.341 116.748 159.912 116.034 159.824 115.242L159.168 109.349C159.08 108.556 158.366 107.985 157.573 108.074Z" stroke="#263238" stroke-linecap="round" stroke-linejoin="round"/>
<path d="M152.729 112.605L154.663 114.433L157.219 110.528" stroke="#5B63F6" stroke-width="3" stroke-linecap="round" stroke-linejoin="round"/>
<path opacity="0.3" d="M144.966 129.317L86.8765 135.778C86.8028 135.786 86.7314 135.808 86.6663 135.844C86.6013 135.879 86.5439 135.927 86.4974 135.985C86.4509 136.043 86.4162 136.109 86.3953 136.18C86.3745 136.252 86.3679 136.326 86.3758 136.4C86.3838 136.474 86.4062 136.545 86.4417 136.61C86.4773 136.675 86.5253 136.732 86.5831 136.779C86.6408 136.825 86.7072 136.86 86.7783 136.881C86.8495 136.902 86.924 136.908 86.9977 136.901L145.087 130.439C145.16 130.431 145.232 130.409 145.297 130.373C145.362 130.338 145.42 130.29 145.466 130.232C145.513 130.174 145.547 130.108 145.568 130.037C145.589 129.966 145.595 129.891 145.587 129.817C145.57 129.669 145.495 129.533 145.379 129.44C145.263 129.346 145.114 129.302 144.966 129.317Z" fill="black"/>
<path opacity="0.3" d="M145.413 133.338L78.6018 140.769C78.5241 140.772 78.4478 140.79 78.3777 140.824C78.3076 140.858 78.2452 140.905 78.1944 140.964C78.1437 141.023 78.1056 141.092 78.0827 141.166C78.0598 141.24 78.0525 141.319 78.0612 141.396C78.0699 141.473 78.0946 141.548 78.1335 141.615C78.1725 141.682 78.2249 141.741 78.2876 141.787C78.3502 141.833 78.4217 141.866 78.4975 141.883C78.5734 141.9 78.6519 141.901 78.7283 141.886L145.534 134.455C145.612 134.453 145.689 134.435 145.76 134.402C145.831 134.369 145.894 134.322 145.945 134.263C145.996 134.204 146.035 134.135 146.059 134.061C146.082 133.987 146.09 133.908 146.081 133.831C146.073 133.753 146.049 133.678 146.01 133.61C145.971 133.543 145.918 133.484 145.855 133.437C145.793 133.391 145.721 133.358 145.645 133.341C145.569 133.324 145.49 133.323 145.413 133.338Z" fill="black"/>
<path opacity="0.3" d="M128.427 139.325L79.0553 144.817C78.9064 144.833 78.7703 144.909 78.6769 145.026C78.5835 145.143 78.5405 145.292 78.5573 145.441C78.574 145.59 78.6493 145.726 78.7664 145.819C78.8835 145.913 79.0329 145.956 79.1818 145.939L128.554 140.447C128.702 140.429 128.837 140.353 128.93 140.235C129.023 140.118 129.065 139.969 129.049 139.82C129.041 139.747 129.019 139.675 128.983 139.611C128.948 139.546 128.9 139.489 128.842 139.443C128.784 139.397 128.717 139.362 128.646 139.342C128.575 139.322 128.501 139.316 128.427 139.325Z" fill="black"/>
<path opacity="0.3" d="M159.699 127.174L153.806 127.83C153.014 127.918 152.443 128.632 152.531 129.425L153.187 135.317C153.275 136.11 153.989 136.681 154.781 136.593L160.674 135.937C161.467 135.849 162.038 135.135 161.95 134.342L161.294 128.45C161.206 127.657 160.492 127.086 159.699 127.174Z" stroke="#263238" stroke-linecap="round" stroke-linejoin="round"/>
<path d="M154.853 131.704L156.787 133.533L159.343 129.628" stroke="#5B63F6" stroke-width="3" stroke-linecap="round" stroke-linejoin="round"/>
<path opacity="0.3" d="M146.583 143.878L88.4943 150.35C88.3454 150.367 88.2093 150.442 88.1159 150.559C88.0225 150.677 87.9795 150.826 87.9962 150.975C88.013 151.124 88.0882 151.26 88.2053 151.353C88.3225 151.447 88.4719 151.49 88.6208 151.473L146.71 145.012C146.783 145.004 146.855 144.982 146.92 144.947C146.985 144.912 147.043 144.864 147.089 144.806C147.135 144.748 147.169 144.681 147.189 144.609C147.209 144.538 147.215 144.463 147.205 144.39C147.198 144.315 147.177 144.242 147.142 144.176C147.107 144.11 147.059 144.051 147.001 144.003C146.944 143.956 146.877 143.92 146.805 143.899C146.733 143.877 146.658 143.87 146.583 143.878Z" fill="black"/>
<path opacity="0.3" d="M147.031 147.926L80.2252 155.357C80.1472 155.359 80.0704 155.377 79.9997 155.41C79.929 155.443 79.866 155.491 79.8145 155.549C79.7631 155.608 79.7244 155.677 79.7009 155.751C79.6775 155.826 79.6697 155.904 79.6781 155.982C79.6865 156.059 79.7109 156.134 79.7498 156.202C79.7887 156.27 79.8413 156.328 79.9041 156.375C79.9669 156.421 80.0387 156.454 80.1148 156.471C80.1909 156.488 80.2698 156.489 80.3464 156.474L147.158 149.043C147.297 149.016 147.421 148.938 147.505 148.824C147.589 148.709 147.627 148.567 147.611 148.426C147.595 148.285 147.527 148.155 147.419 148.062C147.312 147.97 147.173 147.921 147.031 147.926Z" fill="black"/>
<path opacity="0.3" d="M130.04 153.892L80.6729 159.384C80.5992 159.391 80.5277 159.414 80.4627 159.449C80.3976 159.485 80.3401 159.533 80.2936 159.591C80.2471 159.648 80.2124 159.715 80.1916 159.786C80.1708 159.857 80.1642 159.932 80.1723 160.005C80.1895 160.155 80.2651 160.291 80.3826 160.385C80.5001 160.479 80.65 160.522 80.7994 160.506L130.166 155.014C130.24 155.006 130.311 154.983 130.376 154.948C130.441 154.912 130.498 154.863 130.544 154.805C130.591 154.747 130.625 154.681 130.646 154.61C130.666 154.538 130.672 154.464 130.664 154.39C130.656 154.316 130.633 154.245 130.597 154.18C130.561 154.115 130.513 154.058 130.455 154.012C130.397 153.965 130.33 153.931 130.259 153.91C130.188 153.89 130.113 153.884 130.04 153.892Z" fill="black"/>
<path opacity="0.3" d="M161.322 141.741L155.429 142.397C154.636 142.485 154.065 143.199 154.153 143.992L154.809 149.884C154.897 150.677 155.611 151.248 156.404 151.16L162.297 150.504C163.089 150.416 163.66 149.702 163.572 148.909L162.916 143.016C162.828 142.224 162.114 141.653 161.322 141.741Z" stroke="#263238" stroke-linecap="round" stroke-linejoin="round"/>
<path d="M156.47 146.276L158.404 148.105L160.961 144.2" stroke="#5B63F6" stroke-width="3" stroke-linecap="round" stroke-linejoin="round"/>
<path d="M98.2865 106.602C98.3374 105.996 98.1873 105.39 97.8596 104.878L97.2114 103.729L95.9254 104.457L96.6264 105.69C96.9742 106.307 96.8319 106.686 96.3997 106.928C95.9676 107.171 95.567 107.108 95.2192 106.491L93.7172 103.824L92.1045 104.141L93.8226 107.171C94.6079 108.557 95.7462 108.952 97.0796 108.225C97.2916 108.103 97.488 107.956 97.6646 107.788C97.5897 107.614 97.5765 107.42 97.6274 107.238C97.6782 107.055 97.7899 106.896 97.9439 106.786C98.0472 106.706 98.163 106.644 98.2865 106.602Z" fill="#5B63F6"/>
<path d="M91.2766 102.681L91.5823 103.208H93.3584L92.5837 101.837C92.2359 101.221 92.3729 100.831 92.805 100.588C93.2372 100.346 93.643 100.42 93.9909 101.042L94.5179 101.964L95.7986 101.237L95.3243 100.399C94.539 99.0178 93.4006 98.6173 92.0672 99.3762C91.7611 99.5412 91.4893 99.763 91.2661 100.03C91.569 100.127 91.8863 100.172 92.2042 100.161L90.9393 100.636C90.8466 100.981 90.8288 101.342 90.887 101.695C90.9451 102.047 91.078 102.384 91.2766 102.681Z" fill="#5B63F6"/>
<path d="M101.127 97.0626C101.296 96.9781 101.473 96.9093 101.654 96.857C102.334 96.5513 102.487 95.5711 102.429 94.8807L101.728 94.0111L99.8413 95.0651L101.022 97.1416C101.053 97.11 101.088 97.0833 101.127 97.0626Z" fill="#5B63F6"/>
<path d="M109.164 101.189L110.445 100.462L105.549 91.8292L104.331 92.5143C104.721 92.6092 105.001 92.7937 105.011 93.0782C104.632 93.1309 104.168 93.0782 103.757 93.152L106.223 99.5449L103.103 95.6554C103.112 95.7415 103.099 95.8284 103.066 95.9084C103.033 95.9884 102.98 96.0589 102.913 96.1139C102.771 96.2141 102.566 96.2141 102.455 96.3458C102.344 96.4776 102.36 96.6357 102.265 96.7516C102.17 96.8676 102.023 96.8992 101.907 96.9835C101.791 97.0678 101.664 97.2839 101.533 97.4262C101.469 97.4931 101.389 97.5422 101.301 97.5685L104.769 103.682L105.949 103.007L102.487 96.9045L106.935 102.449L108.221 101.721L105.622 95.0124L109.164 101.189Z" fill="#5B63F6"/>
<path d="M112.405 93.6738C112.499 93.7206 112.582 93.7858 112.65 93.8655C112.718 93.9452 112.769 94.0377 112.8 94.1376C112.911 93.4863 112.77 92.8173 112.405 92.2666L111.768 91.1388C110.982 89.758 109.891 89.3838 108.532 90.1532L106.534 91.2864L111.435 99.9243L112.706 99.2023C112.295 98.944 111.836 98.7227 111.446 98.4434C111.263 98.3265 111.112 98.1651 111.009 97.9743C110.959 97.878 110.939 97.7695 110.95 97.6619C110.962 97.5543 111.004 97.4523 111.072 97.3682C111.161 97.293 111.27 97.2446 111.386 97.2287C111.501 97.2128 111.619 97.2302 111.725 97.2786L110.951 95.9084L111.594 95.5447C111.947 95.3531 112.255 95.087 112.495 94.7647C112.226 94.3378 111.757 93.4313 112.405 93.6738ZM110.893 94.3378L110.25 94.7015L108.59 91.7765L109.233 91.4128C109.665 91.1704 110.013 91.2336 110.36 91.8503L111.098 93.1468C111.446 93.737 111.325 94.069 110.893 94.3378Z" fill="#5B63F6"/>
<path d="M119.673 95.2496L118.977 94.0163L116.743 95.2812L113.475 89.5208L113.328 89.6367C113.232 89.7252 113.116 89.7886 112.99 89.8212C112.927 89.8355 112.86 89.8263 112.803 89.7952C112.746 89.7642 112.702 89.7135 112.679 89.6526C112.661 89.571 112.661 89.4864 112.679 89.4049C112.68 88.9144 112.525 88.4364 112.237 88.0399L111.183 88.6512L116.079 97.2839L119.673 95.2496Z" fill="#5B63F6"/>
<path d="M119.062 92.2297C119.209 91.845 119.668 91.7027 119.926 91.3548C119.949 91.3191 119.97 91.2822 119.989 91.2442L119.462 90.3588L120.796 89.6051C120.771 89.521 120.728 89.4435 120.669 89.3785C120.478 89.285 120.274 89.221 120.063 89.1888C120.031 89.1232 120.014 89.0509 120.015 88.9777C120.017 88.9046 120.035 88.8327 120.07 88.7683C120.104 88.7038 120.154 88.6485 120.214 88.607C120.274 88.5656 120.344 88.5392 120.416 88.53C120.506 88.53 120.611 88.53 120.68 88.4878C120.728 88.4305 120.752 88.357 120.748 88.2823L120.627 88.0715L118.761 89.1255L117.402 86.7223L119.742 85.3889L119.041 84.1557L115.352 86.2638L118.978 92.6566C118.984 92.5109 119.012 92.3669 119.062 92.2297Z" fill="#5B63F6"/>
<path d="M123.969 92.8147L123.268 91.5815L120.922 92.9096L120.221 91.7027L119.357 92.5143L119.057 92.8042L120.269 94.9386L123.969 92.8147Z" fill="#5B63F6"/>
<path d="M122.224 82.7854C122.224 82.9699 122.092 83.1754 121.913 83.1912C121.822 83.1901 121.731 83.1759 121.644 83.1491C121.481 83.152 121.319 83.1361 121.159 83.1016C121.125 83.0874 121.093 83.0679 121.065 83.0436L119.515 83.9238L120.216 85.1623L121.634 84.3559L125.85 91.7343L127.204 90.9648L122.988 83.5865L124.411 82.7801L123.71 81.5469L122.256 82.369C122.229 82.5061 122.24 82.6484 122.224 82.7854Z" fill="#5B63F6"/>
<path d="M128.143 88.0135L129.197 89.8739L130.62 89.0676C130.653 88.9742 130.696 88.8842 130.746 88.7988C131.059 88.341 131.481 87.968 131.974 87.7131L132.628 87.3073L132.195 86.5378L129.85 87.8712L128.417 85.3415L130.282 84.2874L129.581 83.0542L127.716 84.1082L126.356 81.6892L128.701 80.3611L128 79.1278L124.311 81.2359L126.973 85.9317C127.615 85.5892 127.937 86.8224 128.143 88.0135Z" fill="#5B63F6"/>
<path d="M100.848 105.068C101.069 105.105 101.201 105.326 101.375 105.474C101.438 105.532 101.511 105.579 101.591 105.611C101.692 105.571 101.79 105.525 101.886 105.474C103.214 104.72 103.493 103.519 102.713 102.133L102.634 101.996L100.811 101.948L101.406 103.002C101.754 103.619 101.617 104.009 101.185 104.251C100.753 104.494 100.347 104.415 99.9992 103.798L97.3641 99.1338C97.0109 98.5172 97.1532 98.1325 97.5854 97.8847C98.0176 97.637 98.4181 97.7214 98.7712 98.338L100.558 101.5C101.106 101.364 101.669 101.294 102.234 101.289L100.173 97.6581C99.3931 96.2773 98.2178 95.9031 96.8845 96.6568C95.5511 97.4104 95.2718 98.6173 96.057 99.9981L98.6026 104.488C98.7634 104.835 99.0039 105.138 99.3043 105.373C99.6048 105.608 99.9567 105.769 100.331 105.843C100.328 105.811 100.328 105.78 100.331 105.748C100.268 105.405 100.521 105.005 100.848 105.068Z" fill="#5B63F6"/>
<path d="M119.046 80.282L123.183 77.9367C121.997 78.2635 120.954 79.2543 119.731 79.1173C119.51 79.0592 119.277 79.0592 119.056 79.1173C118.918 79.2064 118.819 79.3443 118.778 79.5035C118.736 79.6627 118.757 79.8316 118.835 79.9763C118.888 80.0889 118.959 80.1921 119.046 80.282Z" fill="#5B63F6"/>
<path d="M108.669 86.1689C108.66 86.0778 108.678 85.986 108.722 85.9054C108.823 85.9408 108.93 85.9586 109.038 85.9581L110.466 85.1518C110.69 84.8989 110.945 84.6757 111.225 84.4877C111.496 84.3429 111.782 84.2297 112.079 84.1504L112.395 84.0555L115.03 82.5693C115.058 82.5155 115.095 82.4672 115.141 82.427C115.182 82.3999 115.226 82.3786 115.273 82.3638L112.553 81.5416L111.821 81.9527L111.742 82.5324L108.606 84.2084C108.295 84.4023 107.95 84.533 107.589 84.5931C107.454 84.6089 107.318 84.6089 107.183 84.5931L102.714 87.1281C102.749 87.3399 102.809 87.5468 102.893 87.7447C102.631 87.6959 102.381 87.5936 102.16 87.4443L101.243 87.9713C101.897 88.4035 102.54 88.8462 103.167 89.3153L108.669 86.1689Z" fill="#5B63F6"/>
<path d="M127.8 75.3227L125.639 74.1105L124.617 74.6903C125.219 75.3098 125.997 75.7293 126.846 75.8919L127.8 75.3227Z" fill="#5B63F6"/>
<path d="M139.421 88.082L131.263 73.6995C130.945 73.1433 130.421 72.7352 129.804 72.5644C129.187 72.3936 128.527 72.4739 127.969 72.7877L126.988 73.3464L127.363 73.71C127.753 74.1 128.153 74.4953 128.517 74.9116L129.012 74.6323C129.081 74.594 129.162 74.5841 129.238 74.6048C129.314 74.6255 129.378 74.6751 129.418 74.743L137.582 89.1308C137.62 89.2001 137.629 89.2815 137.607 89.3575C137.585 89.4334 137.535 89.4978 137.466 89.5366L126.361 95.8609C127.321 95.9189 128.29 95.7819 129.249 95.8925C129.595 95.9361 129.938 95.9977 130.277 96.077L138.509 91.4075C138.789 91.2504 139.035 91.0394 139.232 90.7866C139.429 90.5339 139.575 90.2445 139.66 89.9351C139.744 89.6258 139.767 89.3028 139.726 88.9847C139.685 88.6666 139.581 88.3598 139.421 88.082Z" fill="#5B63F6"/>
<path d="M89.4271 106.386L85.5903 99.6081C85.5705 99.5739 85.5576 99.5361 85.5525 99.4968C85.5473 99.4576 85.55 99.4178 85.5602 99.3796C85.5705 99.3414 85.5882 99.3056 85.6124 99.2743C85.6365 99.2429 85.6666 99.2167 85.701 99.197L96.7685 92.9149C96.7317 92.8305 96.6842 92.7462 96.6526 92.6619C96.809 92.6554 96.9654 92.6731 97.1164 92.7146L101.591 90.1796C101.443 90.1322 101.301 90.0742 101.159 90.0215L99.0506 89.1835L97.3641 90.1427L99.1981 91.2653C98.5604 90.8753 97.2587 90.8226 96.1361 90.8384L84.6838 97.3577C84.1266 97.674 83.7176 98.1985 83.5467 98.8161C83.3757 99.4336 83.4568 100.094 83.772 100.652L87.1029 106.523C87.2557 106.481 87.4138 106.444 87.5666 106.417C87.9889 106.357 88.4159 106.335 88.8421 106.354C89.0375 106.353 89.2329 106.363 89.4271 106.386Z" fill="#5B63F6"/>
<path d="M103.098 109.031C103.286 109.2 103.499 109.337 103.731 109.437C103.968 109.543 104.284 109.796 104.1 109.964C103.246 110.354 102.192 110.064 101.354 110.491C100.895 110.713 100.453 111.15 99.9624 111.018C100.555 111.378 101.089 111.828 101.543 112.352L122.472 100.483C122.472 100.399 122.498 100.314 122.514 100.225C122.514 100.059 122.553 99.8953 122.626 99.7465C122.699 99.5976 122.805 99.4674 122.936 99.3658C123.068 99.2642 123.22 99.1938 123.382 99.16C123.545 99.1262 123.713 99.1298 123.874 99.1707C124.145 99.1588 124.417 99.1872 124.68 99.255L127.289 97.7741C126.931 97.1571 126.507 96.581 126.024 96.056L103.098 109.031Z" fill="#5B63F6"/>
<path d="M99.7093 112.515C99.2045 112.351 98.7395 112.084 98.3443 111.73L94.1702 114.101C94.1364 114.121 94.099 114.134 94.0602 114.139C94.0213 114.144 93.9819 114.141 93.9441 114.131C93.9064 114.121 93.871 114.103 93.8402 114.079C93.8093 114.055 93.7836 114.025 93.7644 113.991L90.0752 107.524C89.7217 107.402 89.3457 107.359 88.9737 107.398C88.5468 107.482 88.1726 107.977 88.4045 108.341C88.6224 108.347 88.8349 108.41 89.0201 108.525C89.2054 108.64 89.3567 108.802 89.4586 108.994C89.2313 109.175 88.9815 109.326 88.7155 109.442L91.8776 115.034C92.0347 115.317 92.2467 115.565 92.5011 115.764C92.7555 115.963 93.0472 116.11 93.359 116.195C93.6708 116.28 93.9964 116.301 94.3167 116.259C94.6371 116.216 94.9456 116.11 95.2243 115.946L100.695 112.842L100.632 112.805C100.33 112.692 100.022 112.595 99.7093 112.515Z" fill="#5B63F6"/>
<g opacity="0.2">
<path opacity="0.2" d="M98.2865 106.602C98.3374 105.996 98.1873 105.39 97.8596 104.878L97.2114 103.729L95.9254 104.457L96.6264 105.69C96.9742 106.307 96.8319 106.686 96.3997 106.928C95.9676 107.171 95.567 107.108 95.2192 106.491L93.7172 103.824L92.1045 104.141L93.8226 107.171C94.6079 108.557 95.7462 108.952 97.0796 108.225C97.2916 108.103 97.488 107.956 97.6646 107.788C97.5897 107.614 97.5765 107.42 97.6274 107.238C97.6782 107.055 97.7899 106.896 97.9439 106.786C98.0472 106.706 98.163 106.644 98.2865 106.602Z" fill="black"/>
<path opacity="0.2" d="M91.2766 102.681L91.5823 103.208H93.3584L92.5837 101.837C92.2359 101.221 92.3729 100.831 92.805 100.588C93.2372 100.346 93.643 100.42 93.9909 101.042L94.5179 101.964L95.7986 101.237L95.3243 100.399C94.539 99.0178 93.4006 98.6173 92.0672 99.3762C91.7611 99.5412 91.4893 99.763 91.2661 100.03C91.569 100.127 91.8863 100.172 92.2042 100.161L90.9393 100.636C90.8466 100.981 90.8288 101.342 90.887 101.695C90.9451 102.047 91.078 102.384 91.2766 102.681Z" fill="black"/>
<path opacity="0.2" d="M101.127 97.0626C101.296 96.9781 101.473 96.9093 101.654 96.857C102.334 96.5513 102.487 95.5711 102.429 94.8807L101.728 94.0111L99.8413 95.0651L101.022 97.1416C101.053 97.11 101.088 97.0833 101.127 97.0626Z" fill="black"/>
<path opacity="0.2" d="M109.164 101.189L110.445 100.462L105.549 91.8292L104.331 92.5143C104.721 92.6092 105.001 92.7937 105.011 93.0782C104.632 93.1309 104.168 93.0782 103.757 93.152L106.223 99.5449L103.103 95.6554C103.112 95.7415 103.099 95.8284 103.066 95.9084C103.033 95.9884 102.98 96.0589 102.913 96.1139C102.771 96.2141 102.566 96.2141 102.455 96.3458C102.344 96.4776 102.36 96.6357 102.265 96.7516C102.17 96.8676 102.023 96.8992 101.907 96.9835C101.791 97.0678 101.664 97.2839 101.533 97.4262C101.469 97.4931 101.389 97.5422 101.301 97.5685L104.769 103.682L105.949 103.007L102.487 96.9045L106.935 102.449L108.221 101.721L105.622 95.0124L109.164 101.189Z" fill="black"/>
<path opacity="0.2" d="M112.405 93.6738C112.499 93.7206 112.582 93.7858 112.65 93.8655C112.718 93.9452 112.769 94.0377 112.8 94.1376C112.911 93.4863 112.77 92.8173 112.405 92.2666L111.768 91.1388C110.982 89.758 109.891 89.3838 108.532 90.1532L106.534 91.2864L111.435 99.9243L112.706 99.2023C112.295 98.944 111.836 98.7227 111.446 98.4434C111.263 98.3265 111.112 98.1651 111.009 97.9743C110.959 97.878 110.939 97.7695 110.95 97.6619C110.962 97.5543 111.004 97.4523 111.072 97.3682C111.161 97.293 111.27 97.2446 111.386 97.2287C111.501 97.2128 111.619 97.2302 111.725 97.2786L110.951 95.9084L111.594 95.5447C111.947 95.3531 112.255 95.087 112.495 94.7647C112.226 94.3378 111.757 93.4313 112.405 93.6738ZM110.893 94.3378L110.25 94.7015L108.59 91.7765L109.233 91.4128C109.665 91.1704 110.013 91.2336 110.36 91.8503L111.098 93.1468C111.446 93.737 111.325 94.069 110.893 94.3378Z" fill="black"/>
<path opacity="0.2" d="M119.673 95.2496L118.977 94.0163L116.743 95.2812L113.475 89.5208L113.328 89.6367C113.232 89.7252 113.116 89.7886 112.99 89.8212C112.927 89.8355 112.86 89.8263 112.803 89.7952C112.746 89.7642 112.702 89.7135 112.679 89.6526C112.661 89.571 112.661 89.4864 112.679 89.4049C112.68 88.9144 112.525 88.4364 112.237 88.0399L111.183 88.6512L116.079 97.2839L119.673 95.2496Z" fill="black"/>
<path opacity="0.2" d="M119.062 92.2297C119.209 91.845 119.668 91.7027 119.926 91.3548C119.949 91.3191 119.97 91.2822 119.989 91.2442L119.462 90.3588L120.796 89.6051C120.771 89.521 120.728 89.4435 120.669 89.3785C120.478 89.285 120.274 89.221 120.063 89.1888C120.031 89.1232 120.014 89.0509 120.015 88.9777C120.017 88.9046 120.035 88.8327 120.07 88.7683C120.104 88.7038 120.154 88.6485 120.214 88.607C120.274 88.5656 120.344 88.5392 120.416 88.53C120.506 88.53 120.611 88.53 120.68 88.4878C120.728 88.4305 120.752 88.357 120.748 88.2823L120.627 88.0715L118.761 89.1255L117.402 86.7223L119.742 85.3889L119.041 84.1557L115.352 86.2638L118.978 92.6566C118.984 92.5109 119.012 92.3669 119.062 92.2297Z" fill="black"/>
<path opacity="0.2" d="M123.969 92.8147L123.268 91.5815L120.922 92.9096L120.221 91.7027L119.357 92.5143L119.057 92.8042L120.269 94.9386L123.969 92.8147Z" fill="black"/>
<path opacity="0.2" d="M122.224 82.7854C122.224 82.9699 122.092 83.1754 121.913 83.1912C121.822 83.1901 121.731 83.1759 121.644 83.1491C121.481 83.152 121.319 83.1361 121.159 83.1016C121.125 83.0874 121.093 83.0679 121.065 83.0436L119.515 83.9238L120.216 85.1623L121.634 84.3559L125.85 91.7343L127.204 90.9648L122.988 83.5865L124.411 82.7801L123.71 81.5469L122.256 82.369C122.229 82.5061 122.24 82.6484 122.224 82.7854Z" fill="black"/>
<path opacity="0.2" d="M128.143 88.0135L129.197 89.8739L130.62 89.0676C130.653 88.9742 130.696 88.8842 130.746 88.7988C131.059 88.341 131.481 87.968 131.974 87.7131L132.628 87.3073L132.195 86.5378L129.85 87.8712L128.417 85.3415L130.282 84.2874L129.581 83.0542L127.716 84.1082L126.356 81.6892L128.701 80.3611L128 79.1278L124.311 81.2359L126.973 85.9317C127.615 85.5892 127.937 86.8224 128.143 88.0135Z" fill="black"/>
<path opacity="0.2" d="M100.848 105.068C101.069 105.105 101.201 105.326 101.375 105.474C101.438 105.532 101.511 105.579 101.591 105.611C101.692 105.571 101.79 105.525 101.886 105.474C103.214 104.72 103.493 103.519 102.713 102.133L102.634 101.996L100.811 101.948L101.406 103.002C101.754 103.619 101.617 104.009 101.185 104.251C100.753 104.494 100.347 104.415 99.9992 103.798L97.3641 99.1338C97.0109 98.5172 97.1532 98.1325 97.5854 97.8847C98.0176 97.637 98.4181 97.7214 98.7712 98.338L100.558 101.5C101.106 101.364 101.669 101.294 102.234 101.289L100.173 97.6581C99.3931 96.2773 98.2178 95.9031 96.8845 96.6568C95.5511 97.4104 95.2718 98.6173 96.057 99.9981L98.6026 104.488C98.7634 104.835 99.0039 105.138 99.3043 105.373C99.6048 105.608 99.9567 105.769 100.331 105.843C100.328 105.811 100.328 105.78 100.331 105.748C100.268 105.405 100.521 105.005 100.848 105.068Z" fill="black"/>
<path opacity="0.2" d="M119.046 80.282L123.183 77.9367C121.997 78.2635 120.954 79.2543 119.731 79.1173C119.51 79.0592 119.277 79.0592 119.056 79.1173C118.918 79.2064 118.819 79.3443 118.778 79.5035C118.736 79.6627 118.757 79.8316 118.835 79.9763C118.888 80.0889 118.959 80.1921 119.046 80.282Z" fill="black"/>
<path opacity="0.2" d="M108.669 86.1689C108.66 86.0778 108.678 85.986 108.722 85.9054C108.823 85.9408 108.93 85.9586 109.038 85.9581L110.466 85.1518C110.69 84.8989 110.945 84.6757 111.225 84.4877C111.496 84.3429 111.782 84.2297 112.079 84.1504L112.395 84.0555L115.03 82.5693C115.058 82.5155 115.095 82.4672 115.141 82.427C115.182 82.3999 115.226 82.3786 115.273 82.3638L112.553 81.5416L111.821 81.9527L111.742 82.5324L108.606 84.2084C108.295 84.4023 107.95 84.533 107.589 84.5931C107.454 84.6089 107.318 84.6089 107.183 84.5931L102.714 87.1281C102.749 87.3399 102.809 87.5468 102.893 87.7447C102.631 87.6959 102.381 87.5936 102.16 87.4443L101.243 87.9713C101.897 88.4035 102.54 88.8462 103.167 89.3153L108.669 86.1689Z" fill="black"/>
<path opacity="0.2" d="M127.8 75.3227L125.639 74.1105L124.617 74.6903C125.219 75.3098 125.997 75.7293 126.846 75.8919L127.8 75.3227Z" fill="black"/>
<path opacity="0.2" d="M139.421 88.082L131.263 73.6995C130.945 73.1433 130.421 72.7352 129.804 72.5644C129.187 72.3936 128.527 72.4739 127.969 72.7877L126.988 73.3464L127.363 73.71C127.753 74.1 128.153 74.4953 128.517 74.9116L129.012 74.6323C129.081 74.594 129.162 74.5841 129.238 74.6048C129.314 74.6255 129.378 74.6751 129.418 74.743L137.582 89.1308C137.62 89.2001 137.629 89.2815 137.607 89.3575C137.585 89.4334 137.535 89.4978 137.466 89.5366L126.361 95.8609C127.321 95.9189 128.29 95.7819 129.249 95.8925C129.595 95.9361 129.938 95.9977 130.277 96.077L138.509 91.4075C138.789 91.2504 139.035 91.0394 139.232 90.7866C139.429 90.5339 139.575 90.2445 139.66 89.9351C139.744 89.6258 139.767 89.3028 139.726 88.9847C139.685 88.6666 139.581 88.3598 139.421 88.082Z" fill="black"/>
<path opacity="0.2" d="M89.4271 106.386L85.5903 99.6081C85.5705 99.5739 85.5576 99.5361 85.5525 99.4968C85.5473 99.4576 85.55 99.4178 85.5602 99.3796C85.5705 99.3414 85.5882 99.3056 85.6124 99.2743C85.6365 99.2429 85.6666 99.2167 85.701 99.197L96.7685 92.9149C96.7317 92.8305 96.6842 92.7462 96.6526 92.6619C96.809 92.6554 96.9654 92.6731 97.1164 92.7146L101.591 90.1796C101.443 90.1322 101.301 90.0742 101.159 90.0215L99.0506 89.1835L97.3641 90.1427L99.1981 91.2653C98.5604 90.8753 97.2587 90.8226 96.1361 90.8384L84.6838 97.3577C84.1266 97.674 83.7176 98.1985 83.5467 98.8161C83.3757 99.4336 83.4568 100.094 83.772 100.652L87.1029 106.523C87.2557 106.481 87.4138 106.444 87.5666 106.417C87.9889 106.357 88.4159 106.335 88.8421 106.354C89.0375 106.353 89.2329 106.363 89.4271 106.386Z" fill="black"/>
<path opacity="0.2" d="M103.098 109.031C103.286 109.2 103.499 109.337 103.731 109.437C103.968 109.543 104.284 109.796 104.1 109.964C103.246 110.354 102.192 110.064 101.354 110.491C100.895 110.713 100.453 111.15 99.9624 111.018C100.555 111.378 101.089 111.828 101.543 112.352L122.472 100.483C122.472 100.399 122.498 100.314 122.514 100.225C122.514 100.059 122.553 99.8953 122.626 99.7465C122.699 99.5976 122.805 99.4674 122.936 99.3658C123.068 99.2642 123.22 99.1938 123.382 99.16C123.545 99.1262 123.713 99.1298 123.874 99.1707C124.145 99.1588 124.417 99.1872 124.68 99.255L127.289 97.7741C126.931 97.1571 126.507 96.581 126.024 96.056L103.098 109.031Z" fill="black"/>
<path opacity="0.2" d="M99.7093 112.515C99.2045 112.351 98.7395 112.084 98.3443 111.73L94.1702 114.101C94.1364 114.121 94.099 114.134 94.0602 114.139C94.0213 114.144 93.9819 114.141 93.9441 114.131C93.9064 114.121 93.871 114.103 93.8402 114.079C93.8093 114.055 93.7836 114.025 93.7644 113.991L90.0752 107.524C89.7217 107.402 89.3457 107.359 88.9737 107.398C88.5468 107.482 88.1726 107.977 88.4045 108.341C88.6224 108.347 88.8349 108.41 89.0201 108.525C89.2054 108.64 89.3567 108.802 89.4586 108.994C89.2313 109.175 88.9815 109.326 88.7155 109.442L91.8776 115.034C92.0347 115.317 92.2467 115.565 92.5011 115.764C92.7555 115.963 93.0472 116.11 93.359 116.195C93.6708 116.28 93.9964 116.301 94.3167 116.259C94.6371 116.216 94.9456 116.11 95.2243 115.946L100.695 112.842L100.632 112.805C100.33 112.692 100.022 112.595 99.7093 112.515Z" fill="black"/>
</g>
<path opacity="0.3" d="M75.977 93.6949C79.1919 96.0559 81.8797 107.398 82.1221 117.796C82.3646 128.194 87.3924 145.728 87.9932 148.601C88.594 151.473 88.3727 155.615 92.104 149.85C95.8354 144.084 106.75 134.076 111.298 137.401C115.847 140.727 108.189 151.905 104.041 157.924C99.8935 163.942 99.4719 174.541 94.502 181.176C89.5321 187.811 85.0419 197.83 80.1721 197.677C75.3024 197.524 43.0483 221.451 43.0483 221.451L43.6808 188.702L72.6673 141.27L75.977 93.6949Z" fill="black" fill-opacity="0.7"/>
<path d="M113.944 139.009C113.781 140.036 108.105 147.557 104.769 153.186C101.433 158.814 98.3073 168.612 97.4693 170.051C96.6313 171.489 86.4017 180.475 83.5979 184.233C80.7941 187.991 75.7874 189.651 70.7859 193.192C67.571 195.469 57.5522 207.216 50.801 215.327C47.0486 219.834 44.3028 223.233 44.3028 223.233L1.14453 211.981C1.14453 211.981 4.71777 209.035 9.41886 205.061H9.45048L9.49791 205.024C17.2241 198.463 27.9913 189.203 30.9637 185.709C35.7544 180.08 42.4266 173.392 42.4266 173.392C42.0208 165.576 42.8482 158.171 42.1156 155.357C41.7362 153.887 41.0616 145.523 40.5345 142.951C39.2539 136.379 33.6832 129.57 33.056 126.887C32.4289 124.204 25.0768 112.784 28.6659 110.676C29.3184 110.265 30.0939 110.095 30.8583 110.196C35.707 110.865 39.7018 122.576 42.4529 125.559C43.6317 126.971 44.6995 128.472 45.6467 130.049C47.8181 133.491 49.9472 137.359 49.9472 137.359C50.7799 134.023 44.7349 122.139 43.0643 110.881C41.3936 99.624 36.6029 93.579 43.0643 92.8833C43.5952 92.8238 44.1326 92.8703 44.6454 93.0203C49.1936 94.3484 51.1647 103.798 53.8841 112.968C54.1371 113.812 56.2083 119.867 57.821 124.537C58.8751 127.593 59.7183 130.054 59.7183 130.054C59.9239 124.32 58.1372 118.987 57.8421 113.79C57.7156 111.709 58.3691 103.366 57.547 95.0283C56.8408 87.9925 57.1622 85.1413 59.9133 84.5879C60.5026 84.4818 61.1033 84.4535 61.7 84.5035C66.4695 84.804 68.1613 97.4789 68.1613 102.422C68.1613 105.295 68.6514 110.902 69.0625 115.108C69.3629 118.149 69.6212 120.457 69.6212 120.457C69.6212 120.457 70.4539 113.474 69.832 98.4118C69.6897 95.1126 69.9058 92.7515 71.2022 91.7976C71.9137 91.2706 72.9414 91.181 74.4171 91.5815C78.5859 92.7094 79.9404 108.157 79.9404 113.996C79.9404 119.835 83.2764 129.838 83.9036 137.712C84.5308 145.586 87.2608 155.262 87.2608 155.262C87.2608 155.262 88.8049 155.889 89.8432 155.684C90.8814 155.478 98.0806 144.843 98.0806 144.843C101.433 137.565 107.957 135.356 111.509 136.173C113.143 136.547 114.197 137.554 113.944 139.009Z" fill="white"/>
<path opacity="0.4" d="M113.944 139.009C113.781 140.036 108.104 147.557 104.768 153.186C101.432 158.814 98.307 168.612 97.469 170.051C96.6311 171.489 86.4015 180.475 83.5977 184.233C80.7939 187.991 75.7871 189.651 70.7857 193.192C67.5708 195.469 57.552 207.216 50.8008 215.327C51.5439 212.387 53.2093 208.629 57.5625 205.019C65.1201 198.742 65.5734 193.819 69.6367 189.651C73.7001 185.482 80.8571 186.731 83.429 181.745C86.0009 176.76 94.9709 172.153 96.8472 167.774C98.7234 163.394 94.9709 162.467 98.307 157.196C101.643 151.926 104.879 150.645 104.405 148.579C103.93 146.514 102.529 143.383 105.422 140.774C107.23 139.151 109.354 137.111 111.525 136.173C113.143 136.547 114.197 137.554 113.944 139.009Z" fill="#5B63F6"/>
<path opacity="0.4" d="M59.8713 163.747C58.4852 163.052 59.5973 161.666 58.6223 160.511C57.6473 159.357 55.4232 166.809 54.9331 166.836C54.443 166.862 52.9515 163.046 52.3612 162.667C51.7709 162.287 51.4231 163.884 50.5851 166.836C49.7471 169.787 46.6693 171.284 44.8827 173.392C43.096 175.5 32.35 186.963 29.7096 191.269C27.0691 195.574 10.7629 204.096 9.49805 205.014C17.2243 198.463 27.9914 189.203 30.9639 185.709C35.7546 180.08 42.4267 173.392 42.4267 173.392C42.0209 165.576 42.8483 158.171 42.1158 155.357C41.7363 153.887 41.0617 145.523 40.5347 142.951C39.254 136.379 33.6833 129.57 33.0562 126.887C32.429 124.204 25.077 112.784 28.666 110.676C29.3185 110.265 30.0941 110.095 30.8585 110.196C30.0416 110.776 29.2458 111.608 29.9889 112.831C31.3117 114.971 32.7663 117.221 32.7663 119.588C32.7663 121.954 36.7981 125.285 38.3633 127.493C39.9286 129.701 38.4687 128.921 39.5123 131.946C40.5558 134.972 41.8048 134.339 42.4267 137.396C43.0486 140.453 46.527 142.403 45.9736 146.213C45.4202 150.024 47.639 155.325 47.639 155.325C47.639 155.325 49.4467 150.187 48.7879 147.42C48.1292 144.653 48.8933 141.164 48.2609 140.226C47.7339 139.383 46.2898 133.659 45.6258 130.102C47.7971 133.543 49.9263 137.412 49.9263 137.412C50.759 134.076 44.714 122.191 43.0433 110.934C41.3727 99.6766 36.582 93.6316 43.0433 92.9359C43.5742 92.8764 44.1117 92.923 44.6244 93.0729C47.3808 98.222 45.4624 102.032 44.851 104.267C44.1817 106.702 48.1661 112.952 48.7563 117.258C49.2834 121.279 50.369 120.863 50.5113 120.789C50.3901 120.9 49.3624 121.949 49.9843 124.932C50.6325 128.094 55.2546 135.604 55.2546 137.702C55.2546 139.799 54.8751 143.251 54.8751 144.274C54.8751 145.296 58.5643 152.137 59.007 153.929C59.4497 155.721 58.8331 150.477 59.8397 148.659C60.8463 146.84 61.3786 140.495 61.5104 140.837C63.2443 145.243 61.2627 164.432 59.8713 163.747Z" fill="#5B63F6"/>
<path opacity="0.4" d="M62.8596 116.652C61.6791 118.439 61.7107 132.384 59.6974 132.431C58.7224 132.431 58.2481 128.927 57.8528 124.526C58.9069 127.583 59.7501 130.044 59.7501 130.044C59.9557 124.31 58.169 118.976 57.8739 113.78C57.7474 111.698 58.4009 103.355 57.5788 95.0177C56.8726 87.9819 57.194 85.1307 59.9451 84.5773C60.5249 86.4535 61.9478 88.667 62.3115 90.7224C62.8069 93.5578 61.8372 95.9031 61.0045 96.2562C60.1718 96.6093 60.0295 98.4381 61.073 98.7069C62.1165 98.9757 61.073 112.283 61.5578 113.991C62.0427 115.698 64.0454 114.892 62.8596 116.652Z" fill="#5B63F6"/>
<path opacity="0.4" d="M73.6898 101.042C71.5237 101.996 71.4077 103.703 70.7595 106.154C70.1112 108.604 71.687 112.183 70.7595 117.806C69.8319 123.43 73.2154 127.056 70.7595 133.348C68.3035 139.641 69.4577 128.078 69.0466 122.808C68.905 120.241 68.9155 117.668 69.0782 115.103C69.3786 118.144 69.6369 120.452 69.6369 120.452C69.6369 120.452 70.4696 113.469 69.8477 98.4065C69.7054 95.1073 69.9215 92.7462 71.218 91.7923C73.4421 93.8108 75.5344 100.23 73.6898 101.042Z" fill="#5B63F6"/>
<path d="M44.303 223.238C44.303 223.238 65.7794 196.76 70.7861 193.198C75.7929 189.635 80.7996 187.985 83.5982 184.238C86.3967 180.491 96.6368 171.516 97.4695 170.056C98.3022 168.596 101.433 158.799 104.769 153.191C108.105 147.583 113.781 140.015 113.944 139.014C114.672 134.424 102.998 134.218 98.0967 144.853C98.0967 144.853 90.9028 155.484 89.8592 155.694C88.8157 155.905 87.2768 155.273 87.2768 155.273C87.2768 155.273 84.5468 145.602 83.9196 137.723C83.2925 129.844 79.9564 119.83 79.9564 114.007C79.9564 108.183 78.6019 92.7199 74.4331 91.592C70.2644 90.4642 69.6319 93.3207 69.848 98.4434C70.4699 113.506 69.6372 120.489 69.6372 120.489C69.6372 120.489 68.1773 107.403 68.1773 102.454C68.1773 97.5053 66.4856 84.8303 61.716 84.5351C57.3364 84.2558 56.725 86.717 57.563 95.0757C58.401 103.434 57.7316 111.756 57.8581 113.838C58.1691 119.05 59.9662 124.378 59.7344 130.102C59.7344 130.102 54.3112 114.402 53.8949 113.005C50.875 102.77 48.7827 92.2297 43.0487 92.8622C36.5873 93.5579 41.3833 99.6029 43.0487 110.86C44.7141 122.117 50.7643 134.002 49.9316 137.338C49.9316 137.338 44.9302 128.257 42.4373 125.538C39.2752 122.117 34.5003 107.213 28.6608 110.655C25.0718 112.763 32.4449 124.22 33.0668 126.903C33.6887 129.585 39.2646 136.389 40.5453 142.967C41.0723 145.539 41.7311 153.902 42.1264 155.373C42.8589 158.187 42.0315 165.592 42.4373 173.408C42.4373 173.408 35.7651 180.08 30.9745 185.709C26.1838 191.337 1.15527 211.981 1.15527 211.981" stroke="#263238" stroke-linecap="round" stroke-linejoin="round"/>
<path d="M87.2769 155.267C88.2388 157.642 88.2388 160.298 87.2769 162.672" stroke="#263238" stroke-linecap="round" stroke-linejoin="round"/>
<path d="M89.0317 155.71C89.63 156.149 90.0733 156.767 90.2978 157.475C90.5223 158.183 90.5163 158.943 90.2808 159.647" stroke="#263238" stroke-linecap="round" stroke-linejoin="round"/>
<path d="M69.6372 120.452C69.6372 120.452 71.3079 132.231 70.5753 134.418" stroke="#263238" stroke-linecap="round" stroke-linejoin="round"/>
<path d="M59.7344 130.044C59.9133 131.182 59.9133 132.342 59.7344 133.48" stroke="#263238" stroke-linecap="round" stroke-linejoin="round"/>
<path d="M49.9365 137.338C49.9365 137.338 50.2475 139.114 49.9365 139.53" stroke="#263238" stroke-linecap="round" stroke-linejoin="round"/>
<path d="M102.787 147.346C102.787 147.346 104.674 148.369 105.291 149.85" stroke="#263238" stroke-linecap="round" stroke-linejoin="round"/>
<path d="M59.8027 98.4065C60.4143 98.5533 61.053 98.5439 61.66 98.379C62.2669 98.2142 62.8226 97.8992 63.2759 97.4631" stroke="#263238" stroke-linecap="round" stroke-linejoin="round"/>
<path d="M60.4404 115.345C60.4404 115.345 64.1929 116.594 65.5526 115.345" stroke="#263238" stroke-linecap="round" stroke-linejoin="round"/>
<path d="M72.6621 118.992C72.6621 118.992 75.1602 118.054 76.8309 118.576" stroke="#263238" stroke-linecap="round" stroke-linejoin="round"/>
<path d="M48.7876 122.328C48.7876 122.328 50.7692 119.719 52.3345 120.452" stroke="#263238" stroke-linecap="round" stroke-linejoin="round"/>
<path d="M40.6558 130.044C40.6558 130.044 38.885 130.877 38.3633 131.762" stroke="#263238" stroke-linecap="round" stroke-linejoin="round"/>
<path d="M42.4268 173.392C42.8612 172.904 43.2461 172.375 43.5757 171.811C43.8866 171.184 43.4703 164.511 43.5757 160.216" stroke="#263238" stroke-linecap="round" stroke-linejoin="round"/>
<path d="M64.298 199.659C61.8421 202.41 54.3109 207.396 51.291 210.416" stroke="#263238" stroke-linecap="round" stroke-linejoin="round"/>
<path d="M74.2224 137.338C72.9733 140.885 74.3278 145.365 74.2224 147.351C74.117 149.338 73.6954 158.419 73.6954 158.419" stroke="#263238" stroke-linecap="round" stroke-linejoin="round"/>
<path d="M62.8596 137.338C61.1942 140.152 61.7159 143.905 62.2377 145.77C62.7595 147.636 62.2957 155.257 62.2957 155.257" stroke="#263238" stroke-linecap="round" stroke-linejoin="round"/>
<path d="M44.9299 146.303C44.7919 148.138 45.1563 149.976 45.984 151.62" stroke="#263238" stroke-linecap="round" stroke-linejoin="round"/>
<path d="M55.249 140.779C54.3109 144.221 55.5652 145.781 55.6706 146.303" stroke="#263238" stroke-linecap="round" stroke-linejoin="round"/>
<path opacity="0.3" d="M139.927 118.054L138.151 107.745C138.072 107.287 138.087 106.818 138.195 106.366C138.302 105.914 138.5 105.489 138.776 105.115C139.052 104.741 139.401 104.427 139.802 104.192C140.202 103.957 140.646 103.805 141.107 103.745L145.086 103.218C145.086 103.218 143.758 100.525 148.032 92.6777C152.306 84.8303 172.855 63.9863 188.434 99.002C204.013 134.018 218.248 205.372 218.248 205.372C218.248 205.372 176.197 156.401 174.858 153.892C173.519 151.383 160.718 152.885 157.761 146.155C154.805 139.425 148.596 120.22 148.596 120.22L143.79 120.879C142.906 120.999 142.009 120.771 141.289 120.245C140.569 119.718 140.081 118.933 139.927 118.054Z" fill="black" fill-opacity="0.7"/>
<path d="M176.987 94.4011L168.918 95.8662L157.703 97.9058L143.015 100.578C142.733 100.63 142.444 100.625 142.164 100.565C141.884 100.505 141.619 100.39 141.383 100.227C141.148 100.064 140.947 99.8556 140.792 99.6147C140.637 99.3738 140.531 99.1047 140.48 98.8228L137.255 81.0884C137.153 80.5197 137.281 79.934 137.61 79.4591C137.938 78.9841 138.442 78.6585 139.01 78.5534L147.553 76.9723L159.98 74.7166L172.982 72.3503C173.264 72.2986 173.553 72.303 173.833 72.3633C174.113 72.4236 174.378 72.5385 174.614 72.7016C174.849 72.8646 175.05 73.0725 175.205 73.3134C175.36 73.5543 175.466 73.8234 175.517 74.1053L178.742 91.8397C178.798 92.1234 178.796 92.4152 178.738 92.6983C178.679 92.9814 178.565 93.2499 178.402 93.4884C178.238 93.7268 178.029 93.9303 177.786 94.087C177.543 94.2437 177.272 94.3505 176.987 94.4011Z" fill="#5B63F6"/>
<path opacity="0.3" d="M171.28 82.6273L168.919 95.8662L157.703 97.9058C154.457 96.4776 149.102 93.99 148.032 92.6355C146.757 91.0545 146.936 81.7366 147.553 76.9723L159.98 74.7166C164.36 77.7365 171.28 82.6273 171.28 82.6273Z" fill="black" fill-opacity="0.7"/>
<path opacity="0.3" d="M145.244 100.172L143.015 100.578C142.733 100.63 142.444 100.625 142.164 100.565C141.884 100.505 141.619 100.39 141.383 100.227C141.148 100.064 140.947 99.8556 140.792 99.6147C140.637 99.3738 140.531 99.1047 140.48 98.8228L137.255 81.0884C137.153 80.5197 137.281 79.934 137.61 79.459C137.938 78.9841 138.442 78.6585 139.01 78.5534L141.234 78.1476C140.666 78.2526 140.163 78.5784 139.835 79.0536C139.507 79.5287 139.381 80.1145 139.484 80.6826L142.709 98.417C142.76 98.6989 142.866 98.968 143.021 99.2089C143.176 99.4498 143.377 99.6577 143.613 99.8208C143.848 99.9838 144.114 100.099 144.394 100.159C144.674 100.219 144.963 100.224 145.244 100.172Z" fill="black" fill-opacity="0.7"/>
<path d="M176.987 94.4011L168.918 95.8662L157.703 97.9058L143.015 100.578C142.733 100.63 142.444 100.625 142.164 100.565C141.884 100.505 141.619 100.39 141.383 100.227C141.148 100.064 140.947 99.8556 140.792 99.6147C140.637 99.3738 140.531 99.1047 140.48 98.8228L137.255 81.0884C137.153 80.5197 137.281 79.934 137.61 79.4591C137.938 78.9841 138.442 78.6585 139.01 78.5534L147.553 76.9723L159.98 74.7166L172.982 72.3503C173.264 72.2986 173.553 72.303 173.833 72.3633C174.113 72.4236 174.378 72.5385 174.614 72.7016C174.849 72.8646 175.05 73.0725 175.205 73.3134C175.36 73.5543 175.466 73.8234 175.517 74.1053L178.742 91.8397C178.798 92.1234 178.796 92.4152 178.738 92.6983C178.679 92.9814 178.565 93.2499 178.402 93.4884C178.238 93.7268 178.029 93.9303 177.786 94.087C177.543 94.2437 177.272 94.3505 176.987 94.4011V94.4011Z" stroke="#263238" stroke-linecap="round" stroke-linejoin="round"/>
<path d="M174.59 71.4133L140.755 77.6279C139.575 77.8448 138.793 78.978 139.01 80.1589L142.253 97.8176C142.47 98.9985 143.603 99.78 144.784 99.5631L178.619 93.3485C179.8 93.1316 180.582 91.9984 180.365 90.8175L177.121 73.1588C176.905 71.9779 175.771 71.1964 174.59 71.4133Z" stroke="#263238" stroke-width="0.996394" stroke-linecap="round" stroke-linejoin="round"/>
<path d="M173.644 73.546L141.76 79.3404C141.187 79.4445 140.807 79.9932 140.911 80.5659L144.087 98.0405C144.191 98.6132 144.74 98.9932 145.312 98.8891L177.197 93.0947C177.77 92.9906 178.15 92.4419 178.046 91.8691L174.87 74.3946C174.766 73.8218 174.217 73.4419 173.644 73.546Z" stroke="#263238" stroke-linecap="round" stroke-linejoin="round"/>
<path d="M179.217 93.9952L177.003 94.3958C177.569 94.2895 178.069 93.9638 178.395 93.4897C178.721 93.0157 178.846 92.432 178.742 91.8661L175.517 74.1316C175.466 73.8497 175.36 73.5806 175.205 73.3397C175.05 73.0989 174.849 72.8909 174.614 72.7279C174.378 72.5649 174.113 72.4499 173.833 72.3896C173.553 72.3293 173.264 72.3249 172.982 72.3766L175.211 71.9708C175.78 71.8693 176.366 71.9969 176.841 72.3257C177.316 72.6545 177.641 73.1578 177.746 73.7258L180.972 91.4602C181.073 92.0289 180.946 92.6146 180.617 93.0896C180.288 93.5645 179.785 93.8901 179.217 93.9952V93.9952Z" stroke="#263238" stroke-linecap="round" stroke-linejoin="round"/>
<path d="M243.319 150.804L221.495 209.346C221.495 209.346 212.367 191.954 203.934 175.858C197.199 162.988 190.906 150.919 190.058 149.143C188.155 145.143 181.657 136.764 181.657 136.764C181.657 136.764 174.99 132.948 171.938 126.302C168.887 119.656 165.53 95.882 165.53 95.882C165.53 95.882 156.765 92.5828 154.673 91.1388C152.581 89.6947 150.673 76.3504 150.673 74.8273C150.673 73.3042 152.781 70.2527 152.781 70.2527C152.781 70.2527 152.312 68.0181 154.989 65.7624C155.864 65.0441 156.834 64.4499 157.872 63.9969H157.925C157.925 63.9969 157.577 58.9533 160.202 57.4829C160.327 57.4119 160.457 57.3503 160.592 57.2984C162.932 56.3972 170.605 55.2324 170.605 55.2324C171.69 54.2792 172.953 53.5502 174.321 53.0874C175.68 52.7133 183.143 54.4472 187.312 55.4749C188.988 55.886 190.131 56.1811 190.131 56.1811C190.131 56.1811 197.183 56.5026 198.516 57.2984C199.447 57.9082 200.296 58.6324 201.046 59.4539L201.178 59.6068C201.178 59.6068 207.465 60.9138 208.799 63.2169C210.132 65.52 210.701 76.946 209.753 84.3718C208.804 91.7976 210.506 104.399 210.506 104.399C210.506 104.399 212.472 114.133 213.995 117.827C215.518 121.522 243.319 150.804 243.319 150.804Z" fill="white"/>
<path opacity="0.4" d="M203.934 175.858C197.199 162.988 190.906 150.919 190.058 149.143C188.155 145.143 181.657 136.764 181.657 136.764C181.657 136.764 174.99 132.948 171.938 126.302C168.887 119.656 165.53 95.882 165.53 95.882C165.53 95.882 156.765 92.5829 154.673 91.1388C152.581 89.6947 150.673 76.3504 150.673 74.8273C150.673 73.3042 152.781 70.2527 152.781 70.2527C152.781 70.2527 152.312 68.0181 154.989 65.7625C154.989 66.3633 154.989 67.3752 154.989 68.9668C154.926 71.9866 158.483 90.1954 159.364 89.642C160.244 89.0887 161.603 87.7553 161.245 86.58C161.245 86.58 159.522 79.5126 157.893 63.9969H157.946C157.946 63.9969 157.598 58.9533 160.223 57.4829C159.771 58.575 159.482 59.7273 159.364 60.9033C159.306 63.3592 162.225 84.4034 163.369 84.9357C164.513 85.468 167.411 82.6642 167.411 82.6642C167.411 82.6642 166.42 76.693 166.774 74.1475C166.774 74.1475 175.591 79.5231 175.854 85.6261C175.881 86.2954 177.572 95.861 177.572 95.861C177.572 95.861 169.988 110.302 177.73 123.477C177.73 123.477 173.794 121.116 172.855 117.364C172.855 117.364 171.712 128.4 179.844 134.229C179.844 134.229 185.678 128.5 191.438 127.772C191.438 127.772 191.544 128.152 187.686 131.193C183.828 134.234 183.306 135.588 183.306 135.588C183.306 135.588 187.48 131.372 190.817 131.193C190.817 131.193 187.375 135.172 187.48 136.005C187.586 136.837 197.32 153.481 200.862 165.091C202.306 169.94 203.291 173.439 203.934 175.858Z" fill="#5B63F6"/>
<path opacity="0.4" d="M176.603 65.404C176.603 65.404 179.412 67.5122 180.244 65.404C180.722 64.276 181.026 63.0818 181.146 61.8624C181.146 61.8624 182.226 61.367 183.254 63.9705C184.281 66.574 194.585 67.2381 196.998 68.5715C199.412 69.9048 200.371 68.5715 200.371 68.5715C200.934 69.0335 201.319 69.6754 201.463 70.3887C201.607 71.1021 201.501 71.8433 201.162 72.4873C199.992 74.9063 203.307 75.1224 204.593 73.3411C205.879 71.5597 204.883 78.4374 201.705 79.1384C201.705 79.1384 201.794 82.1424 199.75 84.2031H201.483C201.483 84.2031 196.867 87.8659 195.639 88.0662C194.411 88.2665 200.208 90.3166 199.133 90.7487C198.058 91.1809 195.012 91.144 195.012 91.144C195.012 91.144 196.983 92.509 196.998 93.4102C197.014 94.3114 196.066 94.9913 195.639 94.2377C195.212 93.484 191.807 82.6905 190.11 78.7009C188.413 74.7113 181.404 71.5544 176.603 65.404Z" fill="#5B63F6"/>
<path opacity="0.4" d="M201.041 59.417C195.128 57.7991 187.196 55.496 187.196 55.496L187.306 55.438C188.982 55.8491 190.126 56.1442 190.126 56.1442C190.126 56.1442 197.178 56.4657 198.511 57.2615C199.441 57.8713 200.291 58.5955 201.041 59.417Z" fill="#5B63F6"/>
<path d="M192.724 68.7191C187.581 67.665 183.907 72.0604 183.907 72.0604C183.907 72.0604 189.019 76.6877 190.152 78.6746C191.286 80.6615 193.167 87.36 193.167 87.36C195.323 87.7078 199.296 85.4838 200.25 79.5811C201.204 73.6784 197.842 69.7679 192.724 68.7191Z" fill="#5B63F6"/>
<path d="M221.495 209.346C221.495 209.346 191.981 153.144 190.058 149.143C188.134 145.143 181.657 136.764 181.657 136.764C181.657 136.764 174.99 132.948 171.938 126.302C168.887 119.656 165.53 95.8821 165.53 95.8821C165.53 95.8821 156.765 92.5829 154.673 91.1388C152.581 89.6948 150.673 76.3504 150.673 74.8273C150.673 73.3042 152.781 70.2527 152.781 70.2527C152.781 70.2527 152.022 66.6426 157.925 63.9706C157.925 63.9706 157.545 58.442 160.592 57.272C162.932 56.3708 170.605 55.2061 170.605 55.2061C171.69 54.2529 172.953 53.5239 174.321 53.0611C176.223 52.5341 190.131 56.1547 190.131 56.1547C190.131 56.1547 197.183 56.4762 198.516 57.272C199.492 57.9153 200.379 58.6824 201.157 59.5541C201.157 59.5541 207.444 60.8611 208.778 63.1642C210.111 65.4673 210.68 76.8933 209.732 84.3191C208.783 91.7449 210.485 104.346 210.485 104.346C210.485 104.346 212.451 114.08 213.974 117.775C215.497 121.469 243.319 150.804 243.319 150.804" stroke="#263238" stroke-linecap="round" stroke-linejoin="round"/>
<path d="M196.508 95.1073C196.508 95.1073 195.175 94.8227 193.462 88.5353C191.749 82.2478 191.296 79.307 187.744 75.581C185.225 72.9458 179.459 68.64 176.603 65.4041C173.746 62.1681 170.589 59.5541 168.123 61.5568C166.152 63.1378 164.866 67.2434 166.6 73.5783C168.829 81.7155 175.859 85.5892 175.859 85.5892L177.578 95.8241C177.578 95.8241 170.12 110.76 178.526 124.858" stroke="#263238" stroke-linecap="round" stroke-linejoin="round"/>
<path d="M183.881 72.0604C183.881 72.0604 187.57 67.6703 192.698 68.7191C197.826 69.7678 201.157 73.6731 200.224 79.5811C199.291 85.489 195.296 87.7078 193.141 87.36" stroke="#263238" stroke-linecap="round" stroke-linejoin="round"/>
<path d="M170.589 55.1955C169.819 57.1317 169.226 59.1339 168.818 61.1773" stroke="#263238" stroke-linecap="round" stroke-linejoin="round"/>
<path d="M167.469 75.834C167.469 75.834 167.912 82.3427 168.829 84.3402C169.746 86.3376 171.269 87.9608 171.933 90.5327C172.597 93.1046 172.697 97.1047 172.887 97.6792C173.077 98.2537 174.178 98.4012 174.178 98.4012C175.759 98.4381 176.397 97.616 177.309 96.3616" stroke="#263238" stroke-linecap="round" stroke-linejoin="round"/>
<path d="M157.94 63.96C157.94 63.96 159.369 77.863 160.512 83.7709C161.656 89.6789 163.674 90.5327 166.99 92.4405C170.305 94.3484 172.133 98.2378 172.423 98.8228C172.713 99.4078 173.799 99.4711 173.799 99.4711C174.437 99.418 175.051 99.2066 175.587 98.8559C176.123 98.5053 176.562 98.0266 176.866 97.4631" stroke="#263238" stroke-linecap="round" stroke-linejoin="round"/>
<path d="M152.786 70.2422C152.428 70.7955 155.485 84.9146 157.076 89.0096C158.668 93.1046 158.847 93.7529 163.058 94.9123C167.269 96.0718 170.468 98.0007 171.606 97.3208" stroke="#263238" stroke-linecap="round" stroke-linejoin="round"/>
<path d="M182.031 62.4316C182.031 62.4316 184.218 67.6703 182.774 71.117" stroke="#263238" stroke-linecap="round" stroke-linejoin="round"/>
<path d="M190.126 56.1442C193.71 57.5612 197.398 58.7012 201.157 59.554" stroke="#263238" stroke-linecap="round" stroke-linejoin="round"/>
<path d="M204.609 74.2476C204.609 74.2476 202.933 77.3096 200.393 77.9684" stroke="#263238" stroke-linecap="round" stroke-linejoin="round"/>
<path d="M200.387 70.9115C200.387 70.9115 199.787 72.4926 199.149 72.93" stroke="#263238" stroke-linecap="round" stroke-linejoin="round"/>
<path d="M202.495 83.4864C202.495 83.4864 198.685 86.3692 195.027 87.1176" stroke="#263238" stroke-linecap="round" stroke-linejoin="round"/>
<path d="M193.462 88.5405C193.462 88.5405 195.043 90.538 199.149 90.7277" stroke="#263238" stroke-linecap="round" stroke-linejoin="round"/>
<path d="M181.13 79.7972C181.13 79.7972 184.861 76.2134 186.99 76.7088" stroke="#263238" stroke-linecap="round" stroke-linejoin="round"/>
<path d="M188.434 80.5245C188.434 80.5245 185.609 82.6326 185.093 82.6326" stroke="#263238" stroke-linecap="round" stroke-linejoin="round"/>
<path d="M159.348 91.7027C159.348 91.7027 160.286 91.8766 161.018 90.7435" stroke="#263238" stroke-linecap="round" stroke-linejoin="round"/>
<path d="M162.684 86.5695C162.684 86.5695 164.95 85.1675 166.431 84.8988" stroke="#263238" stroke-linecap="round" stroke-linejoin="round"/>
<path d="M182.647 134.107C183.117 133.691 187.496 130.149 190.205 128.895" stroke="#263238" stroke-linecap="round" stroke-linejoin="round"/>
<path d="M188.329 132.431C188.018 132.336 185.531 134.94 184.218 135.983" stroke="#263238" stroke-linecap="round" stroke-linejoin="round"/>
<path d="M189.562 140.152C189.562 140.152 197.905 155.963 199.781 162.287" stroke="#263238" stroke-linecap="round" stroke-linejoin="round"/>
<path d="M213.995 117.796C214.701 121.68 216.994 124.542 218.248 126.091" stroke="#263238" stroke-linecap="round" stroke-linejoin="round"/>
<path opacity="0.4" d="M187.697 70.2422C186.484 70.9906 187.76 73.436 188.434 74.685C189.109 75.9341 192.124 77.921 192.751 79.7972C193.378 81.6734 197.341 81.6207 198.548 79.7972C199.755 77.9737 199.602 74.3319 196.313 71.5598C193.025 68.7876 189.42 69.1881 187.697 70.2422Z" fill="white"/>
<path d="M164.555 175.273C159.187 174.361 153.669 175.294 148.9 177.921C144.131 180.547 140.393 184.712 138.294 189.735C136.196 194.759 135.862 200.346 137.346 205.584C138.83 210.822 142.045 215.403 146.467 218.579" stroke="#263238" stroke-linecap="round" stroke-linejoin="round"/>
<path d="M174.594 179.474C172.36 177.86 169.864 176.644 167.216 175.879" stroke="#263238" stroke-linecap="round" stroke-linejoin="round"/>
<path d="M172.17 220.076C175.418 218.278 178.206 215.752 180.316 212.697C182.426 209.642 183.801 206.14 184.333 202.466C184.865 198.791 184.539 195.044 183.382 191.516C182.225 187.988 180.267 184.775 177.662 182.13" stroke="#263238" stroke-linecap="round" stroke-linejoin="round"/>
<path d="M173.335 227.676L174.768 228.941L172.534 221.283" stroke="#263238" stroke-linecap="round" stroke-linejoin="round"/>
<path d="M156.47 222.753C160.013 223.361 163.648 223.165 167.105 222.179L171.643 226.184" stroke="#263238" stroke-linecap="round" stroke-linejoin="round"/>
<path d="M150.947 221.119C151.846 221.507 152.769 221.84 153.708 222.116" stroke="#263238" stroke-linecap="round" stroke-linejoin="round"/>
<path d="M162.415 187.3C165.4 187.81 168.086 189.42 169.944 191.811C171.803 194.202 172.698 197.203 172.455 200.221C172.212 203.24 170.848 206.058 168.631 208.122C166.414 210.185 163.505 211.344 160.477 211.37C157.449 211.396 154.52 210.287 152.268 208.262C150.016 206.238 148.604 203.443 148.309 200.429C148.014 197.415 148.858 194.4 150.674 191.977C152.491 189.554 155.149 187.899 158.125 187.337" stroke="#263238" stroke-linecap="round" stroke-linejoin="round"/>
<path d="M158.124 212.487C154.614 211.889 151.485 209.921 149.426 207.016C147.366 204.112 146.544 200.508 147.141 196.997" stroke="#263238" stroke-linecap="round" stroke-linejoin="round"/>
<path d="M173.008 203.812C172.181 206.098 170.75 208.116 168.867 209.653C166.984 211.19 164.72 212.188 162.314 212.539" stroke="#263238" stroke-linecap="round" stroke-linejoin="round"/>
<path d="M148.174 193.646C149.535 190.687 151.925 188.323 154.898 186.995C157.871 185.667 161.226 185.465 164.338 186.426C167.449 187.387 170.106 189.446 171.812 192.22C173.519 194.994 174.159 198.293 173.614 201.503" stroke="#263238" stroke-linecap="round" stroke-linejoin="round"/>
<path d="M168.439 194.41L168.592 194.246" stroke="#263238" stroke-width="2" stroke-linecap="round" stroke-linejoin="round"/>
<path d="M166.289 196.729L167.358 195.574" stroke="#263238" stroke-width="2" stroke-linecap="round" stroke-linejoin="round"/>
<path d="M153.16 198.431L158.33 205.303L165.35 197.741" stroke="#263238" stroke-width="2" stroke-linecap="round" stroke-linejoin="round"/>
</svg>
