<svg width="202" height="177" viewBox="0 0 202 177" fill="none" xmlns="http://www.w3.org/2000/svg">
<g clip-path="url(#clip0)">
<path opacity="0.3" d="M141.419 94.8099C141.419 94.8099 149.011 62.6334 174.622 59.0961C174.622 59.0961 179.605 58.4836 181.264 63.9708C182.923 69.458 173.015 69.4966 166.892 71.7045C160.768 73.9123 146.491 83.2674 141.419 94.8099Z" fill="#AEC3FF"/>
<path opacity="0.3" d="M140.838 88.7887C140.838 88.7887 138.176 62.1357 156.86 52.6772C156.86 52.6772 160.516 50.8943 163.233 54.6611C165.95 58.4279 158.371 61.0687 154.256 64.3731C150.142 67.6774 141.681 78.6086 140.838 88.7887Z" fill="#AEC3FF"/>
<path d="M2.65883 152.207C-1.29548 143.197 13.0469 135.456 13.0469 135.456C13.0469 135.456 31.9457 141.573 34.6592 139.896C37.3727 138.219 19.5226 131.51 19.5226 131.51C23.9269 127.201 40.8145 123.251 40.8145 123.251C40.8145 123.251 52.2071 138.972 54.424 136.678C56.6409 134.384 43.6292 123.27 43.6292 123.27C49.3686 120.933 58.026 122.851 58.026 122.851C70.4935 127.29 64.1495 143.07 64.1495 143.07C64.1495 143.07 68.2152 148.433 76.2909 151.835C76.2909 151.835 77.9146 152.357 80.1759 153.645L78.9157 154.66C78.5407 154.405 78.1646 154.17 77.7862 153.958H77.7794L77.7624 153.949C77.5192 153.824 77.1726 153.646 76.7397 153.434C75.7477 152.991 75.0353 152.638 74.5501 152.374C71.49 150.936 67.3459 149.192 65.7165 149.439C65.6865 149.166 65.6208 148.899 65.521 148.643L65.7165 149.439C67.2823 155.802 57.117 165.257 50.1151 168.864C43.1133 172.47 44.3677 168.667 45.3881 163.309C46.4085 157.952 53.7717 153.217 54.9058 150.525C56.0398 147.833 52.2355 149.111 48.4857 152.646C44.7359 156.181 45.9517 161.8 39.9771 167.63C34.0024 173.459 19.2669 165.257 19.2669 165.257C24.8518 163.045 30.8788 154.121 29.9481 152.337C29.0175 150.553 17.275 160.258 15.0536 161.286C12.8321 162.313 6.61201 161.221 2.65883 152.207Z" fill="#CDE0FB"/>
<path d="M183.229 163.043C188.998 156.237 178.537 145.798 178.537 145.798C178.537 145.798 160.53 146.222 158.606 144.062C156.682 141.901 173.933 140.692 173.933 140.692C171.22 135.806 157.57 128.003 157.57 128.003C157.57 128.003 143.6 138.716 142.267 136.15C140.935 133.583 155.12 127.294 155.12 127.294C150.737 123.779 142.717 123.204 142.717 123.204C130.734 123.834 132.162 139.189 132.162 139.189C132.162 139.189 127.241 142.797 119.343 143.664C119.343 143.664 117.797 143.696 115.499 144.232L116.331 145.441C116.722 145.316 117.11 145.21 117.495 145.123C117.496 145.122 117.497 145.122 117.498 145.122C117.5 145.122 117.501 145.122 117.502 145.123H117.519C117.762 145.077 118.11 145.009 118.542 144.939C119.519 144.81 120.224 144.692 120.719 144.584C123.749 144.13 127.803 143.684 129.155 144.321C129.252 144.092 129.378 143.876 129.531 143.68C129.417 143.884 129.286 144.097 129.155 144.321C126.148 149.442 132.534 160.292 137.685 165.24C142.836 170.187 142.731 166.556 143.231 161.637C143.731 156.718 138.557 150.695 138.269 148.062C137.98 145.43 140.948 147.524 143.298 151.569C145.648 155.614 143.131 160.18 146.821 166.795C150.51 173.411 165.432 170.091 165.432 170.091C161.151 166.722 158.222 157.412 159.496 156.098C160.77 154.785 168.459 166.263 170.124 167.73C171.788 169.196 177.461 169.849 183.229 163.043Z" fill="#CDE0FB"/>
<path opacity="0.5" d="M39.7293 31.2069C45.6744 21.2313 62.9449 29.7035 62.9449 29.7035C62.9449 29.7035 70.0263 52.0556 73.4977 53.5135C76.9691 54.9713 71.1763 33.2204 71.1763 33.2204C78.3361 34.4976 93.7102 48.0161 93.7102 48.0161C93.7102 48.0161 86.4163 69.7398 90.1399 70.2977C93.8636 70.8556 95.6169 50.7352 95.6169 50.7352C101.797 54.6486 105.89 64.2821 105.89 64.2821C110.173 79.304 90.6638 84.0275 90.6638 84.0275C90.6638 84.0275 88.2991 91.6101 90.566 101.703C90.566 101.703 91.1785 103.621 91.491 106.676L89.6525 106.161C89.64 105.626 89.6082 105.104 89.5525 104.594C89.5534 104.593 89.5538 104.591 89.5538 104.589C89.5538 104.588 89.5534 104.586 89.5525 104.584C89.5525 104.577 89.5525 104.569 89.5525 104.563C89.5059 104.243 89.4388 103.788 89.3502 103.232C89.0968 101.974 88.9445 101.056 88.8684 100.402C88.1514 96.4768 86.9856 91.2987 85.6311 89.9022C85.8724 89.6864 86.0844 89.44 86.2617 89.1693L85.6311 89.9022C80.595 95.7678 64.538 92.485 56.2715 88.2307C48.0049 83.9764 52.5217 82.5731 58.3668 79.8801C64.2119 77.1871 73.8114 81.0164 77.1759 80.2596C80.5405 79.5028 76.7078 76.7371 70.7343 75.5474C64.7608 74.3577 60.2019 79.3892 50.5082 77.6438C40.8144 75.8985 38.5884 56.119 38.5884 56.119C44.5426 59.9688 57.2441 59.6415 58.3236 57.5212C59.4031 55.4009 42.0235 50.7761 39.5145 49.3399C37.0056 47.9036 33.7842 41.1835 39.7293 31.2069Z" fill="#CDE0FB"/>
<path d="M106.11 49.466C106.102 48.8533 106.218 48.2453 106.451 47.6786C106.674 47.1418 107.006 46.6575 107.427 46.2571C107.864 45.8459 108.38 45.5271 108.943 45.3197C109.582 45.0849 110.259 44.9694 110.94 44.9788C111.625 44.9705 112.306 45.0859 112.951 45.3197C113.52 45.5248 114.04 45.8438 114.481 46.2571C114.902 46.6578 115.235 47.142 115.458 47.6786C115.69 48.2455 115.806 48.8534 115.798 49.466C115.807 50.0739 115.691 50.6771 115.458 51.2386C115.232 51.7692 114.899 52.248 114.481 52.6454C114.04 53.0583 113.519 53.3772 112.951 53.5828C112.306 53.816 111.625 53.9314 110.94 53.9237C110.259 53.9325 109.582 53.817 108.943 53.5828C108.38 53.3749 107.865 53.0562 107.427 52.6454C107.009 52.2484 106.677 51.7695 106.451 51.2386C106.218 50.6773 106.102 50.074 106.11 49.466ZM114.546 41.1267H107.345L106.323 16.5089H115.569L114.546 41.1267Z" fill="#F78248"/>
<path d="M84.3558 25.3958C84.3515 24.9282 84.4411 24.4645 84.6194 24.0323C84.7905 23.6206 85.0455 23.249 85.3682 22.9414C85.7041 22.6263 86.0998 22.3817 86.5318 22.2221C87.0223 22.043 87.5414 21.9551 88.0636 21.9631C88.5897 21.9559 89.1128 22.0436 89.6078 22.2221C90.0442 22.3797 90.4439 22.6244 90.7827 22.9414C91.1054 23.249 91.3604 23.6206 91.5315 24.0323C91.7107 24.4671 91.8008 24.9335 91.7963 25.4038C91.8019 25.8716 91.7118 26.3356 91.5315 26.7673C91.3585 27.1747 91.1036 27.5421 90.7827 27.8468C90.4441 28.164 90.0443 28.4088 89.6078 28.5661C89.1128 28.7446 88.5897 28.8323 88.0636 28.8252C87.5414 28.8331 87.0223 28.7453 86.5318 28.5661C86.0996 28.4069 85.7038 28.1623 85.3682 27.8468C85.0464 27.5398 84.7915 27.1696 84.6194 26.7594C84.4389 26.3278 84.3492 25.8636 84.3558 25.3958ZM90.8327 18.9962H85.3012L84.5183 0.101868H91.6145L90.8327 18.9962Z" fill="#AEC3FF"/>
<path d="M191.778 57.3257C191.774 56.8554 191.864 56.389 192.043 55.9542C192.214 55.5427 192.469 55.1713 192.792 54.8634C193.127 54.5479 193.523 54.3033 193.955 54.1441C194.446 53.9649 194.966 53.8771 195.488 53.885C196.014 53.8778 196.537 53.9655 197.031 54.1441C197.468 54.301 197.868 54.5458 198.206 54.8634C198.529 55.171 198.784 55.5425 198.955 55.9542C199.135 56.3888 199.226 56.8553 199.221 57.3257C199.227 57.7937 199.136 58.2578 198.955 58.6893C198.782 59.0966 198.527 59.4641 198.206 59.7688C197.868 60.086 197.468 60.3307 197.031 60.488C196.536 60.6661 196.014 60.7538 195.488 60.7471C194.966 60.7545 194.446 60.6667 193.955 60.488C193.523 60.3285 193.128 60.0839 192.792 59.7688C192.471 59.4637 192.216 59.0964 192.043 58.6893C191.863 58.2576 191.772 57.7935 191.778 57.3257ZM198.255 50.9261H192.726L191.942 32.0318H199.038L198.255 50.9261Z" fill="#AEC3FF"/>
<path d="M179.614 105.408C178.459 107.561 177.096 109.594 175.543 111.479C173.997 113.325 172.416 114.727 171.08 115.202H171.07C171 115.226 170.932 115.248 170.862 115.267C170.859 115.268 170.855 115.268 170.852 115.267C170.601 115.342 170.339 115.376 170.077 115.367C165.696 115.169 161.078 105.771 161.078 105.771C161.078 105.771 161.198 104.657 162.05 103.87C162.793 103.188 163.365 103.004 163.365 103.004C163.365 103.004 168.084 107.85 169.237 108.199C169.962 108.417 170.916 105.033 172.281 100.783C173.647 96.5337 178.447 95.486 178.447 95.486C178.447 95.486 183.303 98.5733 179.614 105.408Z" fill="#AEC3FF"/>
<path d="M175.544 111.479C173.998 113.325 172.417 114.727 171.082 115.202H171.071L170.863 115.267H170.852C170.901 115.235 172.329 114.494 172.556 113.118C172.784 111.713 171.299 110.564 175.036 108.39C177.211 107.13 175.544 111.479 175.544 111.479Z" fill="#94B0ED"/>
<path d="M172.124 175.94H182.392C183.128 175.441 182.193 170.563 182.193 170.563C182.193 170.563 179.391 169.5 178.907 171.662C178.423 173.824 175.337 174.511 173.705 174.774C172.588 174.956 172.235 175.57 172.124 175.94Z" fill="#24406D"/>
<path d="M187.783 125.377C187.783 125.377 187.459 131.368 187.053 138.31C186.763 143.287 186.431 148.753 186.144 152.847C186.107 153.391 186.069 153.91 186.031 154.401C186.021 154.553 186.009 154.704 185.998 154.855C185.263 164.035 182.804 172.078 182.804 172.078C179.917 172.686 178.613 171.574 178.613 171.574C178.613 171.574 176.623 148.259 175.886 138.856C175.344 131.935 174.881 121.857 174.881 121.857L187.783 125.377Z" fill="#FF9E55"/>
<path d="M187.053 138.31C186.762 143.287 186.431 148.753 186.144 152.847C184.257 148.395 180.4 131.042 180.4 131.042L187.053 138.31Z" fill="#ED7D2B"/>
<path d="M187.352 175.94H197.622C198.357 175.441 197.423 170.563 197.423 170.563C197.423 170.563 194.62 169.5 194.136 171.662C193.652 173.824 190.567 174.511 188.934 174.774C187.817 174.956 187.465 175.57 187.352 175.94Z" fill="#24406D"/>
<path d="M177.675 124.187C177.675 124.187 185.008 142.44 187.352 149.359C189.022 154.287 193.731 171.577 193.731 171.577C193.731 171.577 195.777 172.201 197.5 170.996C197.5 170.996 199.252 153.331 195.714 148.351C193.836 145.708 195.247 120.88 187.634 120.667C180.021 120.455 177.675 124.187 177.675 124.187Z" fill="#FF9E55"/>
<path d="M192.69 118.315C192.66 120.911 192.631 122.816 192.638 123.298C192.659 124.868 191.654 125.223 190.619 125.463C190.619 125.463 189.663 125.668 188.46 125.873C187.278 126.071 185.846 126.266 184.845 126.259C181.633 126.209 178.447 125.685 175.388 124.702C174.419 124.702 173.978 123.205 173.819 121.112C173.711 119.696 174.148 105.573 174.203 102.047C174.24 99.5176 175.629 97.1802 176.021 96.8382C179.616 93.6566 190.225 94.0599 192.135 96.253C192.607 96.795 192.745 102.023 192.761 107.751C192.764 111.438 192.727 115.331 192.69 118.315Z" fill="#AEC3FF"/>
<path d="M186.318 94.994C184.964 96.4621 180.409 96.2439 180.549 94.9633C180.567 94.8054 180.597 93.8679 180.613 93.7225C180.624 93.6088 180.635 93.4952 180.645 93.3816C180.675 93.0657 180.7 92.7862 180.721 92.5453C180.782 91.843 180.801 91.4624 180.801 91.4624C180.931 91.4249 183.857 90.5942 185.311 90.2499C185.8 90.1363 186.124 90.0738 186.118 90.117C185.678 93.3873 186.765 94.5122 186.318 94.994Z" fill="#FFB27D"/>
<path d="M185.473 91.2169C185.473 91.2169 184.251 92.4578 180.723 92.5475C180.785 91.8453 180.804 91.4646 180.804 91.4646C180.933 91.4271 183.859 90.5965 185.314 90.2522C185.575 90.3579 185.235 91.0408 185.473 91.2169Z" fill="#ED975D"/>
<path d="M179.91 91.2908C180.571 91.5123 181.251 91.6705 181.941 91.7635C183.606 91.9907 185.797 91.8567 186.487 89.8409C187.646 86.4501 189.125 84.4162 185.715 83.0321C183.89 82.2901 182.722 82.2515 181.929 82.5344C181.24 82.7776 180.834 83.2662 180.527 83.748C179.862 84.7866 178.53 90.6965 179.91 91.2908Z" fill="#FFB27D"/>
<path d="M180.781 81.1243C179.563 81.9197 179.961 83.798 181.396 84.0514C182.256 84.2026 182.977 84.2321 183.394 84.4185C184.242 84.7946 184.972 85.1946 184.77 86.5092C184.703 86.957 184.485 87.5024 185.636 87.2319C185.774 87.1854 185.924 87.1944 186.054 87.2569C186.532 87.5399 185.921 88.9137 185.737 89.2114C185.737 89.2114 185.473 90.1954 186.061 90.6738C186.132 90.7317 187.287 91.2419 190.071 86.9763C190.509 86.3081 190.926 84.8014 190.251 83.3503C189.576 81.8993 187.693 80.0653 184.147 80.0653C183.223 80.0653 181.835 80.4312 180.781 81.1243Z" fill="#233862"/>
<path d="M192.691 118.315C192.172 120.723 192.304 120.748 191.51 120.116C188.272 117.543 189.218 116.194 189.937 113.963C190.657 111.733 188.132 108.244 189.937 106.757C191.704 105.304 192.71 107.647 192.754 107.751C192.764 111.438 192.727 115.331 192.691 118.315Z" fill="#94B0ED"/>
<path d="M192.611 118.004C192.611 118.004 191.391 120 190.591 119.936C189.791 119.871 188.71 119.566 188.091 120.163C187.471 120.76 186.462 122.292 186.743 122.701C187.024 123.111 188.153 122.748 188.963 122.3C189.774 121.853 191.053 122.521 191.734 122.012C192.414 121.503 194.045 119.481 194.045 119.481L192.611 118.004Z" fill="#FFB27D"/>
<path d="M192.128 96.253C192.128 96.253 202.258 105.784 200.943 112.126C200.343 115.016 198.483 117.453 193.527 121.399C193.527 121.399 191.181 119.779 190.667 118.463C190.667 118.463 195.166 112.126 194.993 111.046C194.779 109.726 191.708 106.414 190.606 105.899C189.505 105.384 189.605 97.3586 192.128 96.253Z" fill="#AEC3FF"/>
<path d="M190.591 119.936C190.591 119.936 189.522 119.469 189.179 119.269C188.836 119.069 188.912 119.393 189.018 119.554C189.124 119.715 189.409 120.079 189.828 120.122C190.095 120.138 190.361 120.073 190.591 119.936Z" fill="#FFB27D"/>
<path d="M12.4646 99.2176C12.0987 98.5108 20.455 95.9678 20.588 102.939C20.588 102.939 36.2416 102.554 28.7693 93.8281C26.182 90.8079 26.4479 88.3103 26.5263 85.9877C26.6047 83.6651 24.9139 76.9053 19.1199 77.5859C19.1199 77.5859 17.6029 76.9678 15.711 77.9507C11.3999 80.1824 1.75273 101.788 12.4646 99.2176Z" fill="#163560"/>
<path d="M38.0576 105.618C38.0576 105.618 39.0803 104.067 39.8984 104.037C40.7165 104.006 42.2403 103.582 42.1187 103.884C41.9971 104.187 41.054 104.225 40.9631 104.401C40.8722 104.578 42.3619 104.856 42.788 104.889C43.2141 104.922 44.2174 104.889 44.1868 105.101C44.1561 105.314 42.3778 106.197 41.1188 106.075C39.8598 105.954 38.3121 106.44 38.3121 106.44L38.0576 105.618Z" fill="#FFB27D"/>
<path d="M23.3208 106.118C23.7668 106.95 24.2887 107.739 24.8798 108.475C26.0911 109.992 27.958 111.743 30.3022 112.09C31.4214 112.254 32.5168 112.013 33.5225 111.567C36.3632 110.303 38.5096 107.397 38.5096 107.397C39.0119 106.027 38.1903 105.1 38.1903 105.1C38.1903 105.1 32.4418 106.393 31.8941 106.123C31.3464 105.852 27.9807 98.3813 27.374 97.137C26.0854 94.494 24.0401 93.735 24.0401 93.735L23.3208 106.118Z" fill="#AEC3FF"/>
<path d="M24.8801 108.475C26.0914 109.992 27.9583 111.743 30.3025 112.09C31.4218 112.254 32.5171 112.013 33.5228 111.567C33.4091 111.581 30.5684 111.933 29.4321 109.904C28.2754 107.836 27.0254 104.551 25.3085 105.647C24.571 106.119 24.604 107.293 24.8801 108.475Z" fill="#94B0ED"/>
<path d="M1.87461 168.171C1.87461 168.171 0.12016 169.773 0.462186 170.91C0.804213 172.047 2.38708 172.806 2.60184 174.196C2.8166 175.586 3.6711 176.345 4.44151 176.345H8.1129C8.1129 176.345 8.68105 175.367 7.31067 175.071C5.94029 174.776 5.42555 173.139 5.51077 171.627C5.59599 170.115 5.38237 168.087 5.38237 168.087L2.47344 167.414L1.87461 168.171Z" fill="#1D3356"/>
<path d="M16.7214 168.852C16.7214 168.852 16.0896 175.634 16.86 176.011L26.7162 175.991C26.7162 175.991 26.7162 174.855 25.1322 174.601C23.5482 174.346 20.7688 173.421 20.2984 171.357C19.828 169.292 16.7214 168.852 16.7214 168.852Z" fill="#1D3356"/>
<path d="M9.14025 101.544C9.05156 103.061 9.05156 104.582 9.14025 106.099C9.23797 107.747 10.9038 109.952 11.1401 110.498C11.7333 111.861 12.4014 112.088 12.4014 112.088L17.5784 113.358L19.3965 113.803L25.1336 112.095C25.1336 112.095 27.7471 104.8 26.6983 100.695C25.6495 96.5893 24.045 93.7361 24.045 93.7361C24.045 93.7361 20.1555 92.2021 13.2673 93.3475L9.14025 101.544Z" fill="#AEC3FF"/>
<path d="M10.6548 106.772C10.7525 108.418 10.9036 109.953 11.14 110.498C11.7331 111.861 12.4013 112.088 12.4013 112.088L17.5782 113.358L19.8258 112.697C19.8258 112.697 12.3263 111.561 13.1546 105.105L10.6548 106.772Z" fill="#F2CCAA"/>
<path d="M24.7687 113.196C24.7687 113.196 27.6094 122.041 27.7924 125.052C27.9753 128.064 22.3609 167.829 22.1348 169.217C21.9223 170.525 20.2985 171.358 20.2985 171.358C20.2985 171.358 19.5508 171.798 18.4804 171.497C17.0032 171.08 16.5339 170.58 16.5339 170.58C16.5339 170.58 14.3227 142.22 15.6908 132.088C16.5244 125.824 16.9869 119.515 17.076 113.196H24.7687Z" fill="#233862"/>
<path d="M12.7293 112.933C12.7293 112.933 8.39551 118.748 7.99099 122.68C7.58647 126.611 7.35694 140.42 6.49676 144.252C5.63659 148.085 2.47314 155.46 2.47314 167.414C2.47314 167.414 2.80153 168.095 3.81625 168.464C4.20377 168.595 4.59829 168.704 4.99799 168.791C5.40484 168.884 5.83113 168.837 6.20815 168.658C6.58518 168.479 6.89098 168.178 7.07628 167.804C9.21478 163.499 16.0269 149.612 16.3757 146.731C16.6234 144.685 18.7733 131.19 23.4651 123.268C24.5911 121.366 22.7742 113.803 22.7742 113.803L12.7293 112.933Z" fill="#2B478B"/>
<path d="M25.2221 111.832C25.2221 111.832 24.0858 112.734 21.8132 112.779C19.1066 112.834 12.4001 112.09 12.4001 112.09C12.2151 112.641 12.1184 113.219 12.1138 113.801C12.1138 113.801 20.3053 115.868 25.0517 114.103C25.0539 114.103 25.6664 112.951 25.2221 111.832Z" fill="#233862"/>
<path d="M21.2305 113.713C21.2305 112.943 21.7839 112.316 22.4656 112.316C23.1474 112.316 23.7008 112.943 23.7008 113.713C23.7008 114.484 23.1463 115.112 22.4645 115.112C21.7827 115.112 21.2305 114.482 21.2305 113.713ZM21.6395 113.713C21.6395 114.259 22.01 114.702 22.4656 114.702C22.9213 114.702 23.2917 114.259 23.2917 113.713C23.2917 113.168 22.9213 112.725 22.4656 112.725C22.01 112.725 21.6395 113.169 21.6395 113.713Z" fill="white"/>
<path d="M4.45386 114.189L11.1058 119.985C11.3368 120.185 11.6381 120.286 11.9434 120.265C12.2488 120.244 12.5332 120.102 12.7341 119.871L21.2211 110.124C21.3206 110.009 21.3967 109.877 21.4449 109.733C21.493 109.589 21.5124 109.437 21.5019 109.286C21.4913 109.135 21.451 108.987 21.3834 108.851C21.3157 108.716 21.2219 108.595 21.1074 108.495L14.4556 102.7C14.3413 102.601 14.2086 102.525 14.0649 102.477C13.9213 102.428 13.7695 102.409 13.6184 102.42C13.4673 102.43 13.3197 102.47 13.1841 102.538C13.0486 102.606 12.9277 102.7 12.8284 102.814L4.34023 112.561C4.13945 112.792 4.03862 113.093 4.05993 113.399C4.08124 113.704 4.22293 113.989 4.45386 114.189Z" fill="#F78248"/>
<path d="M14.2944 113.459C14.3898 113.484 17.8283 113.888 17.8294 114.595C17.8294 115.417 16.8215 116.518 15.8704 116.465C15.4863 116.445 13.7114 114.813 13.7114 114.813L14.2944 113.459Z" fill="#FFB27D"/>
<path d="M16.0615 92.9657C16.4524 92.0169 16.6808 90.5715 16.674 88.783L16.9342 88.8341L21.3021 89.6989C21.3021 89.6989 21.2032 91.0738 21.1998 92.3692V92.401C21.1998 93.5259 21.96 94.6542 20.1556 95.1008C19.5977 95.2383 15.2388 94.9588 16.0615 92.9657Z" fill="#FFB27D"/>
<path d="M21.302 89.6989C21.302 89.6989 21.2032 91.0738 21.1998 92.3692C18.7556 92.2999 17.4636 90.0704 16.9341 88.8341L21.302 89.6989Z" fill="#E8945B"/>
<path d="M22.1233 90.9249C22.1233 90.9249 16.3396 91.0203 16.3351 87.4183C16.3305 83.8162 15.5828 81.3959 19.2747 81.188C22.9665 80.98 23.6857 82.3493 23.98 83.5515C24.2743 84.7537 23.6221 90.8079 22.1233 90.9249Z" fill="#FFB27D"/>
<path d="M21.904 81.1005C21.904 81.1005 20.3211 85.3264 17.8906 85.9513C15.4601 86.5763 14.4067 85.9252 14.4067 85.9252C14.4067 85.9252 16.2703 84.448 16.6577 81.8595C16.6577 81.8595 20.7098 79.0881 21.904 81.1005Z" fill="#163560"/>
<path d="M21.5117 81.4437C21.5117 81.4437 22.6855 81.8823 23.1696 82.739C23.7526 83.7392 24.0247 84.8903 23.9514 86.0456C23.9514 86.0456 25.1445 83.1731 23.8037 81.5482C22.381 79.8245 21.5117 81.4437 21.5117 81.4437Z" fill="#163560"/>
<path d="M14.2944 113.459C14.2944 113.459 15.1194 113.194 15.6705 113.271C16.2216 113.349 16.6284 113.26 16.6284 113.414C16.6284 113.569 15.9171 113.642 15.7659 113.714C15.6148 113.787 14.2944 113.459 14.2944 113.459Z" fill="#FFB27D"/>
<path d="M13.2672 93.3463C13.2672 93.3463 9.16175 93.635 7.58571 97.4597C6.00966 101.285 3.03369 107.705 3.03369 108.785C3.03369 109.866 4.70178 113.196 13.6592 115.112C13.6592 115.112 14.5853 114.137 14.5296 113.367C14.5296 113.367 8.93791 108.564 8.95268 108.002C8.98109 106.941 9.86967 105.539 14.7785 100.628C16.108 99.2926 13.2672 93.3463 13.2672 93.3463Z" fill="#AEC3FF"/>
<path d="M128 60.7437H83.6343C82.5618 60.7439 81.5331 61.1697 80.7743 61.9278L49.4034 93.2986C49.0276 93.6743 48.7295 94.1204 48.5262 94.6113C48.3228 95.1022 48.2182 95.6284 48.2183 96.1598V140.524C48.2183 141.597 48.6446 142.627 49.4034 143.385L80.7743 174.755C81.1498 175.131 81.5957 175.429 82.0864 175.632C82.5772 175.836 83.1031 175.94 83.6343 175.94H128C128.531 175.94 129.057 175.836 129.548 175.632C130.039 175.429 130.485 175.131 130.86 174.755L162.229 143.385C162.987 142.627 163.414 141.597 163.414 140.524V96.1598C163.414 95.6284 163.309 95.1022 163.106 94.6113C162.902 94.1204 162.604 93.6743 162.229 93.2986L130.86 61.9278C130.101 61.1695 129.073 60.7436 128 60.7437Z" fill="#F78248"/>
<path d="M124.879 170.174H86.7559C85.992 170.175 85.2353 170.026 84.5297 169.733C83.824 169.44 83.1833 169.011 82.6447 168.469L55.6883 141.514C55.1465 140.975 54.7169 140.335 54.4243 139.629C54.1318 138.923 53.9821 138.167 53.9839 137.403V99.2801C53.9823 98.5162 54.132 97.7595 54.4246 97.0539C54.7172 96.3482 55.1467 95.7076 55.6883 95.1689L82.6447 68.2126C83.1833 67.6709 83.824 67.2413 84.5297 66.9488C85.2353 66.6562 85.992 66.5064 86.7559 66.5081H124.879C125.643 66.5062 126.399 66.6559 127.105 66.9485C127.811 67.2411 128.451 67.6707 128.99 68.2126L155.946 95.1701C156.488 95.7083 156.918 96.3487 157.21 97.0542C157.503 97.7597 157.653 98.5163 157.651 99.2801V137.403C157.653 138.167 157.503 138.924 157.21 139.629C156.918 140.335 156.488 140.976 155.946 141.514L128.99 168.47C128.451 169.012 127.811 169.442 127.105 169.734C126.399 170.026 125.643 170.176 124.879 170.174ZM86.7559 70.4624C86.5114 70.462 86.2693 70.51 86.0434 70.6036C85.8176 70.6972 85.6125 70.8346 85.44 71.0079L58.4848 97.9654C58.3115 98.1376 58.174 98.3424 58.0804 98.5681C57.9868 98.7937 57.9388 99.0357 57.9393 99.2801V137.403C57.9387 137.647 57.9866 137.889 58.0802 138.115C58.1739 138.341 58.3114 138.546 58.4848 138.719L85.4412 165.676C85.6137 165.849 85.8188 165.987 86.0446 166.08C86.2705 166.173 86.5126 166.221 86.757 166.22H124.88C125.124 166.221 125.366 166.173 125.592 166.08C125.818 165.987 126.023 165.849 126.196 165.676L153.152 138.719C153.326 138.546 153.463 138.341 153.557 138.115C153.65 137.89 153.698 137.647 153.697 137.403V99.2801C153.698 99.0357 153.65 98.7936 153.557 98.5679C153.463 98.3422 153.326 98.1374 153.152 97.9654L126.194 71.0079C126.022 70.8346 125.817 70.6971 125.591 70.6035C125.365 70.5099 125.123 70.462 124.879 70.4624H86.7559Z" fill="#FFE5D4"/>
<path d="M136.564 119.792L135.788 119.12C134.846 118.309 133.621 117.904 132.38 117.993C131.14 118.082 129.986 118.658 129.169 119.596L124.782 124.663C124.644 124.823 124.46 124.938 124.255 124.99C124.049 125.043 123.833 125.031 123.635 124.957C123.436 124.882 123.266 124.749 123.146 124.574C123.026 124.4 122.962 124.193 122.964 123.981C122.963 123.584 122.942 123.187 122.9 122.792V90.8999C122.897 89.8906 122.495 88.9236 121.781 88.2099C121.068 87.4963 120.101 87.094 119.091 87.091H118.81C117.8 87.0937 116.833 87.4959 116.119 88.2096C115.406 88.9233 115.003 89.8905 115.001 90.8999V111.659C115.001 111.9 114.905 112.131 114.734 112.302C114.564 112.472 114.333 112.568 114.092 112.568C113.825 112.568 113.569 112.462 113.38 112.273C113.191 112.084 113.085 111.828 113.085 111.561V86.8774C113.082 85.9019 112.693 84.9672 112.003 84.2774C111.313 83.5876 110.379 83.1988 109.403 83.1958H108.868C107.893 83.1988 106.958 83.5876 106.268 84.2774C105.578 84.9672 105.189 85.9019 105.186 86.8774V111.727C105.186 111.951 105.098 112.166 104.939 112.324C104.781 112.482 104.566 112.571 104.342 112.571C104.201 112.571 104.061 112.544 103.931 112.49C103.8 112.436 103.682 112.357 103.582 112.257C103.482 112.157 103.403 112.038 103.349 111.908C103.295 111.777 103.267 111.638 103.267 111.496V91.6873C103.265 90.678 102.862 89.7108 102.149 88.997C101.435 88.2833 100.468 87.8812 99.4584 87.8785H99.1766C98.1674 87.8815 97.2003 88.2837 96.4866 88.9974C95.773 89.711 95.3707 90.6781 95.3677 91.6873V111.658C95.3677 111.899 95.272 112.13 95.1015 112.301C94.931 112.471 94.6998 112.567 94.4587 112.567C94.3267 112.567 94.196 112.541 94.074 112.49C93.9521 112.44 93.8413 112.366 93.748 112.272C93.6547 112.179 93.5808 112.068 93.5304 111.946C93.4799 111.824 93.4541 111.693 93.4542 111.561V95.9371C93.4509 94.9279 93.0486 93.961 92.335 93.2475C91.6214 92.5339 90.6545 92.1315 89.6454 92.1282H89.3636C88.3543 92.1312 87.3872 92.5335 86.6736 93.2471C85.9599 93.9608 85.5577 94.9278 85.5547 95.9371V123.371C85.5547 123.447 85.5547 123.522 85.5626 123.598C85.5626 123.725 85.5547 123.854 85.5547 123.982V139.082C85.5547 145.218 90.576 150.241 96.7131 150.241H111.813C113.683 150.237 115.521 149.765 117.16 148.866C118.8 147.968 120.188 146.673 121.197 145.1C121.793 144.165 122.454 143.272 123.175 142.43L137.046 126.408C137.856 125.465 138.259 124.24 138.169 123.001C138.079 121.761 137.502 120.608 136.564 119.792Z" fill="#FFE5D4"/>
</g>
<defs>
<clipPath id="clip0">
<rect width="201.47" height="177" fill="white"/>
</clipPath>
</defs>
</svg>
