<svg width="333" height="264" viewBox="0 0 333 264" fill="none" xmlns="http://www.w3.org/2000/svg">
<g clip-path="url(#clip0)">
<path d="M56.4212 97.2663L2.77852 123.083C1.94762 123.483 1.59822 124.48 1.9981 125.311L38.0054 200.129C38.4053 200.96 39.403 201.309 40.2339 200.909L93.8766 175.093C94.7075 174.693 95.0569 173.695 94.657 172.864L58.6497 98.0468C58.2499 97.2159 57.2521 96.8665 56.4212 97.2663Z" fill="#F1923E"/>
<path d="M55.5664 99.7206L5.23859 123.942L40.1012 196.381L90.4291 172.16L55.5664 99.7206Z" fill="#FAFAFA"/>
<path d="M41.1646 108C40.1595 107.222 38.9571 106.739 37.6928 106.607C36.4285 106.475 35.1524 106.698 34.008 107.252L32.4631 104.211C31.9243 103.095 30.9663 102.239 29.7982 101.827C28.6301 101.416 27.3467 101.483 26.228 102.014C25.6712 102.282 25.1726 102.656 24.7608 103.117C24.3489 103.577 24.032 104.114 23.828 104.697C23.624 105.28 23.537 105.898 23.5719 106.514C23.6069 107.131 23.7632 107.735 24.0318 108.291L25.5767 111.499L24.5029 112.039C23.3822 112.602 22.4375 113.462 21.7717 114.524C21.106 115.587 20.7446 116.812 20.7272 118.066V119.66L42.6402 109.115L41.1646 108ZM29.4702 108.499C29.0195 108.715 28.5149 108.792 28.0202 108.721C27.5255 108.651 27.0628 108.435 26.6906 108.102C26.3184 107.768 26.0534 107.332 25.929 106.848C25.8046 106.364 25.8264 105.854 25.9916 105.382C26.1569 104.91 26.4582 104.498 26.8575 104.198C27.2568 103.897 27.7362 103.722 28.2352 103.694C28.7341 103.665 29.2303 103.786 29.6609 104.039C30.0916 104.293 30.4375 104.668 30.6549 105.118C30.7997 105.418 30.8839 105.743 30.9027 106.075C30.9215 106.408 30.8746 106.74 30.7645 107.054C30.6544 107.369 30.4835 107.658 30.2614 107.906C30.0393 108.154 29.7704 108.355 29.4702 108.499Z" fill="#F1923E"/>
<path d="M28.8328 125.223C28.8813 125.313 25.8607 126.858 22.0919 128.687C18.3231 130.516 15.2332 131.894 15.1639 131.804C15.0947 131.714 18.136 130.169 21.9048 128.34C25.6736 126.511 28.7912 125.133 28.8328 125.223Z" fill="#E0E0E0"/>
<path d="M22.8748 130.925C21.8658 131.611 20.7914 132.196 19.6672 132.67C18.5936 133.243 17.4657 133.707 16.3002 134.056C17.3179 133.382 18.3992 132.809 19.5287 132.345C20.597 131.767 21.7173 131.292 22.8748 130.925Z" fill="#E0E0E0"/>
<path d="M58.0202 121.911C58.0617 121.995 49.5958 126.165 39.1069 131.209C28.618 136.252 20.0828 140.277 20.0412 140.215C19.9997 140.153 28.4656 135.934 38.9268 130.883C49.388 125.833 57.9786 121.821 58.0202 121.911Z" fill="#E0E0E0"/>
<path d="M59.766 125.528C59.8076 125.618 51.3417 129.781 40.8528 134.832C30.3639 139.882 21.8286 143.901 21.7871 143.838C21.7455 143.776 30.2045 139.585 40.7003 134.534C51.1962 129.484 59.7106 125.438 59.766 125.528Z" fill="#E0E0E0"/>
<path d="M61.5049 129.151C61.5534 129.241 53.0805 133.405 42.5986 138.455C32.1166 143.506 23.5745 147.524 23.526 147.462C23.4775 147.399 31.9503 143.208 42.4392 138.157C52.9281 133.107 61.4633 129.061 61.5049 129.151Z" fill="#E0E0E0"/>
<path d="M63.2508 132.774C63.2924 132.864 54.8265 137.028 44.3376 142.079C33.8487 147.129 25.3134 151.14 25.2719 151.085C25.2303 151.029 33.6962 146.831 44.1851 141.788C54.674 136.744 63.2093 132.684 63.2508 132.774Z" fill="#E0E0E0"/>
<path d="M64.9966 136.391C65.0382 136.481 56.5722 140.651 46.0834 145.695C35.5945 150.738 27.0592 154.764 27.0177 154.701C26.9761 154.639 35.4628 150.42 45.924 145.369C56.3852 140.319 64.9481 136.308 64.9966 136.391Z" fill="#E0E0E0"/>
<path d="M66.7356 140.014C66.7771 140.104 58.3112 144.268 47.8292 149.318C37.3473 154.369 28.7982 158.387 28.7566 158.325C28.7151 158.262 37.181 154.071 47.6699 149.02C58.1588 143.97 66.694 139.924 66.7356 140.014Z" fill="#E0E0E0"/>
<path d="M49.3187 152.422C49.1049 152.589 48.8724 152.731 48.6259 152.845L46.6168 153.877C44.9125 154.729 42.5432 155.893 39.9244 157.154C37.3057 158.415 34.9155 159.544 33.1835 160.341L31.1052 161.269C30.8595 161.398 30.5989 161.495 30.3292 161.56C30.5464 161.398 30.7783 161.256 31.022 161.137L33.0311 160.112C34.7354 159.253 37.1047 158.089 39.7235 156.828C42.3423 155.567 44.7324 154.445 46.4644 153.648L48.5428 152.72C48.7893 152.592 49.0496 152.492 49.3187 152.422Z" fill="#E0E0E0"/>
<path d="M55.3114 112.074C54.3833 112.72 53.3894 113.265 52.3462 113.702C51.3566 114.246 50.3114 114.683 49.2286 115.004C50.1567 114.358 51.1506 113.812 52.1938 113.376C53.1834 112.832 54.2286 112.395 55.3114 112.074Z" fill="#E0E0E0"/>
<path d="M44.4692 164.484C42.9114 165.437 41.2912 166.284 39.6196 167.019C38 167.864 36.3268 168.603 34.6107 169.229C36.1685 168.276 37.7887 167.429 39.4603 166.694C41.0799 165.848 42.7531 165.11 44.4692 164.484Z" fill="#E0E0E0"/>
<path d="M46.3952 167.601C44.8077 168.562 43.16 169.421 41.4625 170.171C39.8161 171.032 38.1151 171.784 36.3705 172.423C37.9579 171.459 39.6055 170.598 41.3032 169.846C42.9504 168.989 44.6513 168.239 46.3952 167.601Z" fill="#E0E0E0"/>
<path d="M72.8737 150.205C72.1719 150.747 71.3977 151.188 70.5736 151.514C69.8005 151.954 68.9706 152.285 68.1072 152.498C68.8153 151.962 69.591 151.522 70.4142 151.189C71.1867 150.753 72.0138 150.422 72.8737 150.205Z" fill="#E0E0E0"/>
<path d="M74.4463 153.087C73.7382 153.623 72.9625 154.063 72.1393 154.396C71.3668 154.832 70.5397 155.163 69.6799 155.38C70.3816 154.838 71.1558 154.398 71.9799 154.071C72.7531 153.631 73.583 153.3 74.4463 153.087Z" fill="#E0E0E0"/>
<path d="M43.4577 173.268C42.7785 173.791 42.0301 174.218 41.2338 174.536C40.4868 174.96 39.6848 175.28 38.8506 175.485C39.5288 174.951 40.2771 174.513 41.0745 174.183C41.8229 173.769 42.6249 173.462 43.4577 173.268Z" fill="#E0E0E0"/>
<path d="M76.2683 156.461C75.7881 156.891 75.2311 157.228 74.6264 157.452C74.069 157.787 73.457 158.021 72.8182 158.144C73.3003 157.711 73.8597 157.373 74.4671 157.147C75.0201 156.809 75.6308 156.577 76.2683 156.461Z" fill="#E0E0E0"/>
<path d="M42.3007 183.425C42.3603 183.37 42.4253 183.321 42.4946 183.279L43.0766 182.891L45.3143 181.457L53.3576 176.407L53.517 176.303L53.5863 176.476C53.9664 177.454 53.9982 178.533 53.6763 179.531C53.5129 180.073 53.2284 180.57 52.8443 180.985C52.4602 181.401 51.9866 181.723 51.4594 181.928C50.8954 182.155 50.2839 182.239 49.6795 182.173C49.0751 182.106 48.4966 181.891 47.9954 181.547C47.4942 181.159 47.1184 180.633 46.9151 180.032C46.7118 179.432 46.6899 178.786 46.8523 178.173C46.977 177.703 47.2149 177.27 47.5451 176.912C47.626 176.822 47.714 176.739 47.8084 176.663C47.902 176.577 48.0069 176.505 48.1201 176.448C48.195 176.409 48.2782 176.389 48.3626 176.389C48.447 176.389 48.5302 176.409 48.6051 176.448C48.7231 176.529 48.8185 176.639 48.8822 176.767C49.3004 177.559 49.537 178.435 49.575 179.33C49.6276 180.192 49.4929 181.054 49.1801 181.859C48.9155 182.664 48.3917 183.358 47.6906 183.833C47.3349 184.045 46.9268 184.153 46.5128 184.145C46.0988 184.136 45.6955 184.011 45.3489 183.785C44.7035 183.379 44.215 182.766 43.9634 182.046C43.6433 180.761 43.6433 179.417 43.9634 178.132L44.0049 177.868L44.1851 178.069C44.9201 178.906 45.3818 179.948 45.5083 181.055C45.605 181.882 45.5247 182.721 45.2727 183.515C45.1118 184.008 44.8783 184.475 44.58 184.9C44.4691 185.046 44.379 185.143 44.3167 185.212C44.2543 185.281 44.2266 185.316 44.2197 185.309C44.6236 184.748 44.9347 184.126 45.1411 183.466C45.3588 182.689 45.4153 181.876 45.3074 181.076C45.1708 180.018 44.714 179.027 43.998 178.236L44.2197 178.173C43.9114 179.411 43.9114 180.705 44.2197 181.942C44.4521 182.593 44.8993 183.145 45.4875 183.508C45.7843 183.701 46.1295 183.807 46.4836 183.813C46.8377 183.819 47.1864 183.725 47.4897 183.542C48.1219 183.101 48.5937 182.467 48.8337 181.734C49.1211 180.969 49.2439 180.153 49.194 179.337C49.1436 178.494 48.907 177.673 48.5012 176.933C48.4712 176.858 48.4207 176.793 48.3557 176.746C48.3325 176.733 48.3062 176.726 48.2795 176.726C48.2527 176.726 48.2264 176.733 48.2033 176.746C48.0327 176.844 47.8803 176.97 47.7529 177.12C47.4727 177.435 47.273 177.813 47.171 178.222C47.0266 178.766 47.0455 179.34 47.2254 179.874C47.4052 180.407 47.7381 180.876 48.1825 181.221C48.631 181.525 49.1465 181.715 49.6847 181.775C50.2229 181.836 50.7677 181.764 51.2723 181.568C51.7524 181.382 52.1839 181.09 52.5344 180.713C52.8849 180.336 53.145 179.885 53.2953 179.392C53.6019 178.469 53.5798 177.468 53.2329 176.559L53.4616 176.635L45.3489 181.575L43.0627 182.96L42.46 183.307C42.4113 183.352 42.3579 183.391 42.3007 183.425Z" fill="#E0E0E0"/>
<path d="M78.2706 165.959C78.2686 166.181 78.2312 166.401 78.1598 166.61C78.0896 166.869 77.9823 167.117 77.8411 167.345C77.6476 167.674 77.3392 167.921 76.9751 168.038C76.7505 168.114 76.5069 168.114 76.2823 168.038C76.0513 167.943 75.8502 167.787 75.7003 167.587C75.4164 167.164 75.1574 166.724 74.9244 166.271L73.2271 163.098L73.5388 163.029C73.4834 164.615 73.428 166.347 73.3587 168.162C73.3587 168.599 73.3587 169.021 73.3102 169.444V170.137L72.9984 169.492C72.0493 167.546 71.1695 165.724 70.3935 164.144H70.6845C70.239 165.723 70.0061 167.353 69.9917 168.994C69.9917 170.178 70.0679 170.85 70.0333 170.857C69.9737 170.702 69.9386 170.538 69.9294 170.372C69.8667 169.913 69.8274 169.45 69.8116 168.987C69.75 167.332 69.9321 165.677 70.352 164.075L70.4559 163.673L70.636 164.047L73.2894 169.375L72.943 169.444C72.943 169.028 72.943 168.599 72.9915 168.162C73.0677 166.347 73.137 164.615 73.1994 163.029V162.405L73.4834 162.952C74.0931 164.096 74.6542 165.162 75.16 166.119C75.3787 166.568 75.6215 167.005 75.8874 167.428C75.9889 167.595 76.1407 167.726 76.3211 167.802C76.5016 167.878 76.7013 167.895 76.892 167.85C77.1671 167.754 77.4141 167.59 77.611 167.375C77.808 167.16 77.9489 166.9 78.0212 166.617C78.0894 166.393 78.1728 166.173 78.2706 165.959Z" fill="#E0E0E0"/>
<path d="M78.2013 163.368C78.2567 163.444 75.3955 165.488 71.8138 167.927C68.232 170.365 65.2807 172.27 65.2253 172.187C65.1699 172.104 67.9965 170.067 71.6128 167.629C75.2292 165.19 78.1459 163.285 78.2013 163.368Z" fill="#E0E0E0"/>
<path d="M81.7138 163.971C80.2363 165.48 78.6726 166.903 77.0305 168.232C75.4686 169.655 73.8263 170.987 72.1116 172.222C73.5911 170.715 75.1547 169.292 76.7949 167.961C78.3567 166.538 79.9991 165.206 81.7138 163.971Z" fill="#E0E0E0"/>
<path d="M107.056 14.7223H104.14L97.8143 5.8338V0.0143352C97.8143 0.0143352 93.3042 -0.26278 93.8377 7.35795C94.3711 14.9787 93.7961 13.0319 93.7961 13.0319C93.7961 13.0319 84.2286 13.0735 83.4042 13.9048C82.8222 14.5076 82.5659 24.0127 82.462 29.1463C82.4006 30.3898 82.7566 31.6181 83.4733 32.6361C84.1901 33.6541 85.2265 34.4034 86.4178 34.7649C86.7443 34.8626 87.0819 34.9185 87.4224 34.9311C89.8056 34.9311 101.971 32.9913 101.971 32.9913H107.008L107.056 14.7223Z" fill="#F1923E"/>
<path d="M115.404 13.1151L113.61 33.0606H108.615V13.5169L115.404 13.1151Z" fill="#F1923E"/>
<path d="M331.979 18.5979C331.23 12.529 326.097 6.86891 319.979 6.86891C316.37 6.86891 312.941 8.75331 310.474 11.3859C309.599 12.2788 308.791 13.2351 308.056 14.2472C307.54 13.1109 306.937 12.0155 306.255 10.9702C304.357 7.90117 301.364 5.37248 297.824 4.66583C291.831 3.4673 285.686 7.99816 283.753 13.8038C281.82 19.6094 283.428 26.1147 286.607 31.3384C289.787 36.562 295.254 43.3861 305.313 46.7738C312.241 45.8801 321.566 39.7212 325.709 35.2249C329.852 30.7287 332.706 24.6598 331.979 18.5979Z" fill="#F1923E"/>
<path d="M329.748 29.4886C329.681 29.4961 329.614 29.4961 329.547 29.4886L328.958 29.447L326.692 29.26L318.379 28.4979L318.531 28.4078C317.527 31.0197 316.356 34.0818 315.067 37.4141L314.86 37.9545L314.721 37.3864C313.661 33.008 312.483 28.0961 311.257 22.9209C310.876 21.3205 310.495 19.741 310.128 18.203L310.481 18.2723L304.135 27.0015L304.073 27.0846H303.969L289.365 25.5604L285.208 25.1032L284.113 24.9646C283.986 24.9578 283.86 24.9345 283.739 24.8954C283.866 24.8831 283.994 24.8831 284.12 24.8954L285.215 24.9716L289.372 25.3318L303.99 26.7174L303.83 26.7867L310.149 18.0436L310.398 17.6903L310.495 18.1129C310.869 19.6509 311.243 21.2236 311.631 22.8308L315.095 37.3033H314.749C316.058 33.9571 317.257 30.9019 318.282 28.297L318.317 28.1931H318.427L326.741 29.0798L328.993 29.3431L329.581 29.4193C329.64 29.4351 329.696 29.4584 329.748 29.4886Z" fill="#FAFAFA"/>
<path d="M181.531 56.4729H176.959V76.9727H181.531V56.4729Z" fill="#F1923E"/>
<path d="M168.992 64.4331V69.0056H189.492V64.4331H168.992Z" fill="#F1923E"/>
<path d="M196.267 66.7747C196.25 66.6831 196.239 66.5906 196.233 66.4976C196.233 66.2967 196.198 66.0265 196.177 65.687C196.177 65.5069 196.177 65.306 196.136 65.0912C196.094 64.8765 196.066 64.634 196.025 64.3985C195.948 63.8039 195.827 63.2157 195.664 62.6388C195.263 61.0459 194.623 59.523 193.766 58.1217C191.747 54.7363 188.609 52.1618 184.894 50.8426C181.18 49.5235 177.121 49.5423 173.419 50.8959C172.66 51.1672 171.922 51.4913 171.209 51.8658C170.486 52.263 169.792 52.7097 169.13 53.2029C168.456 53.7031 167.815 54.247 167.211 54.831C166.617 55.4477 166.064 56.1027 165.556 56.7916C164.507 58.2048 163.691 59.7765 163.138 61.4471C161.974 64.9106 161.974 68.6596 163.138 72.1231C163.689 73.7944 164.506 75.3663 165.556 76.7787C166.061 77.4704 166.614 78.1255 167.211 78.7393C167.813 79.3274 168.454 79.8737 169.13 80.3743C169.792 80.8674 170.486 81.3142 171.209 81.7114C171.923 82.083 172.662 82.407 173.419 82.6813C177.121 84.0245 181.176 84.0389 184.888 82.722C188.599 81.405 191.738 78.8387 193.766 75.4624C194.625 74.0593 195.265 72.5339 195.664 70.9384C195.828 70.364 195.949 69.7781 196.025 69.1856C196.066 68.9224 196.115 68.6868 196.136 68.4929C196.156 68.2989 196.136 68.0772 196.177 67.8971C196.177 67.5507 196.219 67.2874 196.233 67.0865C196.238 66.9934 196.249 66.9009 196.267 66.8094C196.275 66.9016 196.275 66.9943 196.267 67.0865C196.267 67.2874 196.267 67.5576 196.267 67.8971V68.4998C196.267 68.7215 196.205 68.957 196.177 69.1926C196.108 69.7909 195.997 70.3835 195.845 70.9661C195.461 72.5832 194.833 74.1322 193.981 75.5594C192.732 77.6681 191.046 79.4858 189.038 80.8909C187.03 82.2959 184.744 83.2559 182.335 83.7066C179.322 84.2653 176.214 84.0143 173.329 82.9792C172.558 82.7003 171.806 82.3717 171.077 81.9954C169.588 81.1752 168.216 80.1593 166.997 78.9748C166.387 78.3499 165.823 77.6832 165.306 76.9796C164.228 75.5382 163.393 73.9306 162.833 72.2201C162.262 70.4581 161.961 68.6199 161.939 66.7678C161.965 64.9183 162.266 63.083 162.833 61.3224C163.396 59.6154 164.231 58.0105 165.306 56.5699C165.824 55.8655 166.389 55.1966 166.997 54.5677C167.614 53.9744 168.269 53.4213 168.957 52.9119C170.857 51.5103 173.026 50.5146 175.327 49.9866C177.629 49.4586 180.014 49.4097 182.335 49.8429C184.733 50.3035 187.005 51.2688 189.001 52.6746C190.996 54.0805 192.671 55.8948 193.912 57.997C194.762 59.4224 195.39 60.9689 195.775 62.5833C195.927 63.1684 196.038 63.7633 196.108 64.3638C196.108 64.6201 196.184 64.8626 196.198 65.0566V65.6524C196.198 65.9988 196.198 66.269 196.198 66.4699C196.23 66.5692 196.253 66.6712 196.267 66.7747Z" fill="#F1923E"/>
<path d="M143.428 63.0705C143.511 60.0499 140.726 57.7221 137.885 56.6137C135.045 55.5052 131.955 55.0895 129.447 53.406C127.23 51.9096 125.741 49.5818 123.863 47.6836C121.547 45.3359 118.647 43.6468 115.462 42.7898C112.277 41.9328 108.922 41.9386 105.74 42.8067C102.558 43.6748 99.6645 45.374 97.3561 47.7297C95.0478 50.0854 93.4078 53.013 92.6045 56.2119C91.5307 60.5072 92.265 65.5853 95.6528 68.4466C99.5879 71.7581 105.414 71.0238 110.451 69.9915C115.487 68.9592 121.196 67.9131 125.401 70.8991C127.937 72.6865 129.392 75.5893 130.944 78.2773C132.496 80.9654 134.408 83.7019 137.373 84.7134C140.338 85.7249 144.301 83.979 144.405 80.8822" fill="#263238"/>
<path d="M143.227 64.7263C142.894 67.255 144.723 69.5204 146.545 71.3078C148.367 73.0953 150.425 74.9866 150.751 77.543C151.125 80.5012 148.963 83.4109 149.594 86.3276C149.988 88.1774 151.429 89.5976 152.302 91.2811C153.459 93.7034 153.65 96.4755 152.836 99.0334C152.088 101.583 150.889 107.271 149.116 109.252C144.218 114.725 136.424 119.45 129.267 121.092C122.11 122.734 114.67 122.748 107.34 122.297C101.341 121.93 94.4334 122.207 89.4314 113.949C86.8403 109.668 85.5587 103.987 84.187 99.1789C82.9953 95.0222 81.97 90.6091 83.2032 86.48C83.896 84.083 85.3716 81.9422 86.0783 79.5521C86.965 76.5454 86.6394 73.3169 86.9928 70.2202C87.3786 66.8322 88.568 63.5854 90.4618 60.7498C92.3556 57.9142 94.8992 55.5719 97.881 53.9177C100.863 52.2635 104.196 51.3453 107.605 51.2395C111.013 51.1336 114.397 51.8431 117.476 53.3091" fill="#263238"/>
<path d="M89.8679 75.0974C90.4291 66.486 96.1585 55.9278 104.742 56.8561L131.526 63.6871C132.783 63.8252 133.942 64.4286 134.777 65.3786C135.612 66.3286 136.061 67.5564 136.036 68.8207L133.022 133.444L133.209 133.479C133.209 133.479 127.106 151.706 109.391 146.143C105.878 145.035 104.271 141.197 103.578 137.241H103.398C103.398 136.77 103.398 136.333 103.398 135.855C103.053 132.909 103.018 129.934 103.294 126.981C103.246 121.764 103.253 119.63 103.246 119.679C103.239 119.727 92.2442 117.822 89.9995 103.46C88.8564 96.3731 89.2444 84.6649 89.8679 75.0974Z" fill="#FFBE9D"/>
<path d="M94.184 83.7503C94.1764 84.2302 94.3571 84.694 94.6873 85.0424C95.0175 85.3907 95.471 85.5959 95.9506 85.6139C96.185 85.6328 96.4207 85.6047 96.644 85.5313C96.8673 85.4579 97.0738 85.3406 97.2512 85.1864C97.4286 85.0322 97.5735 84.8442 97.6773 84.6332C97.7811 84.4223 97.8418 84.1928 97.8558 83.9582C97.8616 83.4776 97.6794 83.0138 97.348 82.6657C97.0167 82.3175 96.5625 82.1126 96.0823 82.0946C95.8483 82.0757 95.6129 82.1038 95.39 82.1773C95.1671 82.2508 94.9611 82.3682 94.7842 82.5225C94.6074 82.6767 94.4631 82.8649 94.36 83.0757C94.257 83.2866 94.1971 83.516 94.184 83.7503Z" fill="#263238"/>
<path d="M92.3896 81.194C92.6183 81.4365 94.0177 80.4042 95.9991 80.4111C97.9805 80.4181 99.4631 81.4157 99.6501 81.1732C99.754 81.0693 99.5185 80.6328 98.8881 80.1756C98.0345 79.5759 97.0145 79.2586 95.9714 79.268C94.9402 79.2594 93.9331 79.5797 93.0963 80.1825C92.4866 80.6536 92.2719 81.0831 92.3896 81.194Z" fill="#263238"/>
<path d="M113.658 83.7504C113.653 84.231 113.835 84.6948 114.166 85.0429C114.498 85.391 114.952 85.596 115.432 85.614C115.666 85.6329 115.901 85.6047 116.124 85.5312C116.347 85.4577 116.553 85.3404 116.73 85.1861C116.907 85.0318 117.051 84.8437 117.154 84.6328C117.257 84.422 117.317 84.1926 117.33 83.9582C117.338 83.4783 117.157 83.0145 116.827 82.6662C116.497 82.3178 116.043 82.1127 115.564 82.0946C115.329 82.0748 115.093 82.1022 114.869 82.1753C114.646 82.2483 114.439 82.3655 114.261 82.5199C114.083 82.6743 113.939 82.8627 113.835 83.0741C113.732 83.2854 113.672 83.5154 113.658 83.7504Z" fill="#263238"/>
<path d="M111.871 81.6028C112.1 81.8453 113.499 80.8199 115.48 80.8269C117.462 80.8338 118.91 81.8314 119.125 81.5889C119.228 81.4781 119 81.0485 118.363 80.5844C117.506 79.9897 116.488 79.6728 115.446 79.6768C114.416 79.6717 113.412 79.9944 112.578 80.5982C111.968 81.0624 111.76 81.5266 111.871 81.6028Z" fill="#263238"/>
<path d="M104.645 96.283C104.645 96.1721 103.426 95.9574 101.431 95.6941C100.925 95.6456 100.447 95.5417 100.357 95.1953C100.317 94.6728 100.438 94.1506 100.703 93.6989L102.207 89.8469C104.285 84.3669 105.809 79.8569 105.587 79.7806C105.366 79.7044 103.509 84.069 101.431 89.556C100.923 90.9046 100.442 92.1955 99.9897 93.4287C99.6684 94.0365 99.5727 94.7384 99.7195 95.4101C99.7929 95.5885 99.9059 95.7479 100.05 95.8763C100.194 96.0047 100.365 96.0988 100.551 96.1514C100.831 96.2283 101.12 96.2702 101.41 96.2761C103.391 96.3869 104.638 96.4008 104.645 96.283Z" fill="#263238"/>
<path d="M103.225 119.734C109.986 119.852 116.646 118.089 122.464 114.642C122.464 114.642 117.614 124.57 103.239 123.198L103.225 119.734Z" fill="#EB996E"/>
<path d="M105.477 101.063C105.854 100.589 106.346 100.22 106.906 99.9892C107.466 99.7588 108.076 99.6755 108.677 99.747C109.115 99.7859 109.541 99.9134 109.928 100.122C110.315 100.33 110.655 100.615 110.929 100.959C111.189 101.291 111.342 101.694 111.368 102.114C111.394 102.535 111.292 102.954 111.074 103.315C110.758 103.673 110.34 103.927 109.876 104.043C109.413 104.159 108.925 104.132 108.476 103.966C107.542 103.632 106.682 103.116 105.948 102.449C105.724 102.294 105.533 102.096 105.386 101.867C105.316 101.756 105.279 101.628 105.279 101.496C105.279 101.365 105.316 101.236 105.386 101.126" fill="#EB996E"/>
<path d="M110.472 97.6687C110.153 97.6687 110.146 99.8025 108.296 101.32C106.446 102.837 104.139 102.601 104.139 102.906C104.139 103.038 104.652 103.322 105.615 103.35C106.875 103.371 108.102 102.947 109.079 102.151C110.016 101.387 110.62 100.289 110.763 99.0889C110.86 98.1883 110.624 97.6548 110.472 97.6687Z" fill="#263238"/>
<path d="M110.977 78.1318C111.171 78.6722 113.153 78.4228 115.474 78.7068C117.794 78.9909 119.679 79.6283 119.991 79.1502C120.129 78.9216 119.804 78.4089 119.041 77.8893C118.04 77.2323 116.894 76.8281 115.702 76.7116C114.514 76.5635 113.307 76.7013 112.183 77.1134C111.331 77.4598 110.901 77.8755 110.977 78.1318Z" fill="#263238"/>
<path d="M93.131 75.4577C93.4843 75.908 94.8491 75.4577 96.491 75.4577C98.133 75.4577 99.5185 75.7625 99.8442 75.2983C99.9827 75.0697 99.761 74.6055 99.1514 74.1899C98.3372 73.676 97.3886 73.4161 96.4263 73.4433C95.4639 73.4704 94.5315 73.7834 93.7476 74.3423C93.1726 74.7787 92.9647 75.2429 93.131 75.4577Z" fill="#263238"/>
<path d="M141.55 110.929C139.567 111.329 137.517 111.25 135.57 110.701C133.622 110.152 131.834 109.146 130.352 107.769C128.87 106.391 127.737 104.681 127.048 102.779C126.358 100.877 126.131 98.8376 126.385 96.8303C126.828 93.304 128.734 89.7154 127.507 86.3761C125.893 81.963 119.707 80.6051 118.065 76.199C117.109 73.6425 117.968 70.6566 116.887 68.1418C115.868 65.7793 113.388 64.4215 110.97 63.5485C108.553 62.6756 105.968 62.0729 103.939 60.5002C101.909 58.9276 100.648 55.9486 101.957 53.7386C112.68 55.0224 123.211 57.5807 133.327 61.3593C135.675 62.2322 138.135 63.2853 139.52 65.3706C140.989 67.5737 140.906 70.4211 140.795 73.0675L138.987 111.739" fill="#263238"/>
<path d="M140.65 115.861C140.65 115.861 140.74 115.82 140.885 115.716L141.523 115.231C142.077 114.794 142.908 114.15 143.899 113.256C145.139 112.19 146.269 111.001 147.273 109.709C148.646 107.991 149.57 105.958 149.961 103.793C150.236 102.476 150.213 101.114 149.893 99.8073C149.573 98.5005 148.964 97.2821 148.111 96.2415C147.07 95.2063 145.951 94.2521 144.765 93.3872C143.57 92.4817 142.663 91.2497 142.153 89.8401C141.093 86.9165 141.564 83.5287 141.155 80.0647C140.75 76.4509 139.338 73.0234 137.082 70.1717C135.919 68.7353 134.47 67.5558 132.828 66.7077C131.216 65.9745 129.533 65.4081 127.805 65.0173C126.197 64.6127 124.693 63.8712 123.392 62.8419C122.17 61.8178 121.093 60.6314 120.191 59.3156C118.39 56.7522 117.053 54.0226 115.342 51.7433C114.531 50.6274 113.581 49.6193 112.515 48.7435C111.515 47.9403 110.379 47.321 109.162 46.9146C108.122 46.5178 107.004 46.3688 105.897 46.4794C104.789 46.5901 103.722 46.9573 102.782 47.5519C102.12 48.0654 101.576 48.7141 101.185 49.4549C100.794 50.1956 100.566 51.0113 100.516 51.8473C100.43 52.9064 100.739 53.9599 101.382 54.8055C101.548 55.02 101.744 55.2091 101.964 55.3667C102.035 55.4283 102.114 55.4796 102.2 55.5191C102.141 55.4465 102.076 55.3792 102.006 55.3182C101.809 55.1441 101.634 54.9463 101.486 54.7293C100.92 53.8894 100.674 52.874 100.793 51.868C100.859 51.0772 101.091 50.3092 101.474 49.6144C101.858 48.9195 102.383 48.3135 103.017 47.836C103.915 47.2927 104.926 46.9649 105.972 46.8784C107.018 46.7918 108.07 46.9489 109.044 47.3372C110.206 47.7372 111.287 48.3401 112.238 49.1177C113.259 49.9832 114.171 50.9696 114.954 52.0551C116.617 54.2928 117.926 57.0224 119.755 59.6758C120.679 61.0444 121.789 62.2778 123.053 63.3407C124.395 64.4032 125.946 65.1705 127.604 65.5923C129.294 65.9779 130.94 66.5351 132.516 67.255C134.085 68.0714 135.467 69.2036 136.576 70.5804C138.764 73.3348 140.136 76.6466 140.539 80.1409C140.961 83.4871 140.476 86.9303 141.606 90.041C142.151 91.5418 143.112 92.8563 144.377 93.8305C145.545 94.6719 146.65 95.5981 147.682 96.6017C148.495 97.5817 149.078 98.731 149.39 99.9657C149.702 101.2 149.733 102.489 149.483 103.737C149.129 105.839 148.263 107.821 146.961 109.508C145.985 110.799 144.893 111.998 143.698 113.09C142.721 114.005 141.931 114.677 141.405 115.169C141.139 115.384 140.887 115.615 140.65 115.861Z" fill="#455A64"/>
<path d="M143.275 117.649C146.227 114.794 151.263 117.275 153.743 120.545C156.224 123.815 157.976 128.041 161.738 129.69C165.5 131.338 170.384 129.918 173.516 132.537C177.867 136.153 175.421 144.529 180.132 147.674C181.996 148.922 184.462 148.88 186.457 149.905C191.161 152.33 191.106 158.967 190.378 164.211C189.388 171.59 188.265 179.21 184.206 185.446C180.146 191.681 172.241 196.038 165.216 193.641C158.461 191.334 154.99 184.046 152.24 177.458C148.444 168.322 144.642 159.207 140.837 150.113C138.641 144.841 136.417 139.486 135.703 133.819C134.99 128.152 135.946 122.041 139.555 117.593" fill="#263238"/>
<path d="M145.167 111.358C147.307 111.102 148.949 113.728 148.381 115.813C147.813 117.898 145.818 119.277 143.774 119.97C142.646 120.417 141.42 120.558 140.22 120.378C139.62 120.285 139.056 120.035 138.583 119.655C138.11 119.274 137.745 118.776 137.525 118.21C137.301 117.722 137.278 117.165 137.462 116.66C137.646 116.155 138.023 115.744 138.509 115.515C139.895 114.635 140.747 113.942 141.862 113.326C143.566 112.39 143.462 112.266 145.167 111.324" fill="#5B63F6"/>
<path d="M95.8122 134.463L104.146 128.151L135.537 126.142L136.798 130.348L126.586 194.064L134.643 270.077H90.8517L95.8122 134.463Z" fill="#5B63F6"/>
<g opacity="0.3">
<path opacity="0.3" d="M129.427 243.114C128.422 242.04 126.78 240.571 125.318 240.536C114.829 240.308 104.126 239.262 93.6368 239.026L92.7985 270.091C95.3064 265.671 97.6827 261.085 98.3409 256.027C98.6318 253.824 99.0337 251.178 101.008 250.249C102.144 249.716 103.481 249.924 104.708 250.173C108.497 250.921 112.259 251.898 116.111 252.141C119.963 252.383 124.002 251.815 127.237 249.709C128.386 249.031 129.311 248.032 129.898 246.834C130.177 246.232 130.281 245.564 130.198 244.906C130.114 244.248 129.847 243.627 129.427 243.114Z" fill="black"/>
</g>
<path d="M102.608 135.751L101.632 126.641C101.591 126.26 101.628 125.874 101.738 125.506C101.848 125.138 102.03 124.796 102.274 124.5C102.518 124.203 102.818 123.958 103.157 123.779C103.497 123.599 103.868 123.489 104.25 123.454L133.14 120.843C133.325 120.828 133.51 120.852 133.686 120.911C133.862 120.97 134.024 121.063 134.163 121.186C134.302 121.309 134.415 121.458 134.495 121.625C134.575 121.792 134.621 121.974 134.629 122.159L134.955 133.001L126.586 147.196L117.988 149.933H107.472L101.424 143.476L102.608 135.751Z" fill="#5B63F6"/>
<path d="M130.687 129.523C130.3 129.507 129.913 129.468 129.53 129.405C128.485 129.308 127.433 129.289 126.385 129.35C124.827 129.462 123.28 129.694 121.757 130.043C120.032 130.403 118.155 130.909 116.166 131.394C114.3 131.881 112.398 132.219 110.478 132.405C108.899 132.554 107.306 132.447 105.761 132.087C104.721 131.843 103.729 131.431 102.823 130.867C102.582 130.711 102.35 130.54 102.13 130.355C101.978 130.23 101.902 130.154 101.916 130.147C101.929 130.14 102.255 130.375 102.906 130.743C103.824 131.248 104.812 131.617 105.837 131.837C107.358 132.156 108.919 132.236 110.465 132.073C112.365 131.87 114.248 131.525 116.097 131.04C118.078 130.562 119.963 130.064 121.702 129.717C123.243 129.387 124.81 129.187 126.385 129.121C127.448 129.076 128.513 129.132 129.565 129.288C129.939 129.352 130.223 129.408 130.417 129.454C130.59 129.482 130.694 129.509 130.687 129.523Z" fill="#263238"/>
<g opacity="0.3">
<path opacity="0.3" d="M103.294 130.957C102.518 133.084 102.498 135.717 104.07 137.345C105.345 138.675 107.403 139.008 109.211 138.647C111.002 138.186 112.7 137.422 114.233 136.389C118.21 134.026 122.256 131.574 126.773 130.569C127.07 130.534 127.35 130.416 127.584 130.23C127.638 130.18 127.681 130.119 127.71 130.052C127.739 129.985 127.755 129.912 127.755 129.838C127.755 129.765 127.739 129.692 127.71 129.625C127.681 129.557 127.638 129.497 127.584 129.447C127.47 129.38 127.341 129.345 127.21 129.343C123.212 128.941 119.242 130.036 115.328 130.95C111.414 131.865 107.222 132.454 103.447 131.089" fill="black"/>
</g>
<path d="M108.816 123.163C108.409 123.386 108.067 123.71 107.825 124.106C107.368 124.84 107.396 126.087 107.43 127.431C107.506 130.126 107.95 132.281 107.846 132.281C107.644 131.842 107.511 131.374 107.451 130.895C107.232 129.752 107.104 128.594 107.07 127.431C107.045 126.786 107.059 126.141 107.112 125.498C107.15 124.955 107.322 124.429 107.61 123.967C107.808 123.654 108.089 123.403 108.421 123.24C108.663 123.143 108.809 123.143 108.816 123.163Z" fill="#263238"/>
<path d="M116.45 131.082C116.459 129.611 116.389 128.14 116.243 126.676C115.91 124.258 115.106 122.422 115.217 122.381C115.48 122.734 115.679 123.13 115.806 123.551C116.184 124.542 116.452 125.571 116.603 126.62C116.753 127.671 116.783 128.736 116.693 129.793C116.686 130.234 116.604 130.669 116.45 131.082Z" fill="#263238"/>
<path d="M125.755 121.612C126.012 121.926 126.198 122.293 126.302 122.685C126.615 123.615 126.744 124.596 126.683 125.574C126.617 126.555 126.358 127.514 125.921 128.394C125.766 128.771 125.529 129.109 125.228 129.385C125.855 128.198 126.226 126.893 126.316 125.553C126.405 124.214 126.212 122.871 125.748 121.612H125.755Z" fill="#263238"/>
<path d="M85.2401 138.564C85.2401 138.564 75.3886 145.16 72.7698 157.076C70.733 166.442 65.1491 215.922 65.1491 215.922L55.3876 234.918L61.7613 250.076C67.2199 250.462 72.64 248.914 77.0721 245.705L81.3605 242.587L89.2237 230.927L85.2401 138.564Z" fill="#EBEBEB"/>
<path d="M101.936 129.821L85.2401 138.557L81.2981 151.513L77.7856 189.048L84.3948 233.061L72.7975 269.939L92.7984 270.091L93.2765 248.469L95.2717 178.504L97.2323 133.929L101.936 129.821Z" fill="#EBEBEB"/>
<path d="M93.8515 188.154C93.7337 187.988 93.6294 187.811 93.5397 187.628L92.7084 186.097C92.362 185.404 92.0156 184.559 91.593 183.575C91.3921 183.076 91.2189 182.529 91.0179 181.954C90.817 181.379 90.5953 180.769 90.4221 180.118C88.8495 174.929 87.8103 167.44 88.032 159.182C88.032 158.544 88.0805 157.914 88.1221 157.284V157.173L88.226 157.131L91.1496 155.898L91.108 156.203L88.1844 153.854L88.1221 153.806V153.736C88.0935 150.899 88.5432 148.077 89.4522 145.388C90.1866 142.943 90.9902 140.837 91.6969 139.105C92.4035 137.373 93.0201 136.022 93.4566 135.107C93.6783 134.643 93.8515 134.29 93.9692 134.061C94.026 133.938 94.0932 133.82 94.1702 133.708C94.1368 133.838 94.0879 133.963 94.0247 134.082L93.5605 135.156C93.1587 136.084 92.5767 137.449 91.8978 139.188C91.2189 140.927 90.4429 143.033 89.7363 145.471C88.8621 148.128 88.4337 150.912 88.4685 153.709L88.3992 153.591L91.3297 155.926L91.5583 156.113L91.2881 156.23L88.3645 157.464L88.4754 157.311C88.4338 157.928 88.4061 158.558 88.3853 159.196C88.1706 167.419 89.1613 174.874 90.6646 180.042C90.824 180.7 91.0387 181.303 91.2258 181.878C91.4128 182.453 91.5791 183.007 91.78 183.506C92.1888 184.49 92.4728 185.356 92.8331 186.034L93.5951 187.593C93.6931 187.774 93.7788 187.962 93.8515 188.154Z" fill="#263238"/>
<path d="M80.7438 214.439C80.6809 214.262 80.6277 214.081 80.5844 213.899C80.4875 213.506 80.3558 212.979 80.1895 212.319C80.0164 211.626 79.8224 210.795 79.6284 209.818C79.4344 208.841 79.1781 207.74 78.9841 206.472C78.7901 205.204 78.5268 203.867 78.3398 202.398C78.1527 200.929 77.9657 199.35 77.7925 197.694C77.4877 194.369 77.2867 190.704 77.2867 186.852C77.2867 183 77.5154 179.335 77.8271 176.017C78.0142 174.361 78.1735 172.781 78.4021 171.313C78.6308 169.844 78.8317 168.479 79.0534 167.239C79.2751 165.999 79.5106 164.883 79.7462 163.9C79.9817 162.916 80.148 162.078 80.3212 161.399C80.4944 160.72 80.6191 160.214 80.723 159.826C80.7629 159.64 80.8162 159.457 80.8823 159.279C80.8691 159.468 80.8389 159.656 80.7923 159.84L80.4597 161.426C80.3073 162.119 80.1203 162.957 79.9471 163.941C79.7739 164.925 79.5245 166.02 79.3374 167.287C79.1504 168.555 78.9079 169.885 78.7347 171.354C78.5615 172.823 78.3675 174.395 78.1943 176.044C77.9033 179.363 77.6955 183.014 77.6816 186.859C77.6678 190.704 77.8756 194.348 78.1527 197.666C78.3259 199.315 78.4645 200.895 78.6723 202.357C78.8802 203.818 79.0672 205.19 79.2681 206.43C79.469 207.67 79.6838 208.793 79.857 209.776C80.0302 210.76 80.2103 211.605 80.3627 212.291C80.5152 212.977 80.6122 213.483 80.6884 213.878C80.7268 214.062 80.7454 214.25 80.7438 214.439Z" fill="#263238"/>
<path d="M85.2608 248.233C85.0656 248.828 84.793 249.394 84.4502 249.917C83.7019 251.221 82.8468 252.461 81.8938 253.623C80.9425 254.788 79.895 255.87 78.7624 256.859C78.3149 257.296 77.8145 257.675 77.2729 257.988C77.6804 257.519 78.1203 257.079 78.5892 256.672C79.658 255.636 80.6687 254.542 81.6167 253.395C82.5563 252.241 83.4306 251.036 84.2355 249.785C84.5408 249.245 84.8834 248.726 85.2608 248.233Z" fill="#263238"/>
<path d="M162.009 137.49C165.517 138.853 168.636 141.057 171.093 143.908C173.55 146.759 175.27 150.169 176.1 153.84C181.566 177.922 190.912 209.957 191.064 220.3C191.244 233.463 185.522 242.469 177.977 244.132C172.033 245.448 118.175 242.497 118.175 242.497L115.654 222.406L159.3 215.984L153.328 182.674L159.237 136.451L162.009 137.49Z" fill="#EBEBEB"/>
<path d="M159.237 136.417L147.176 131.491L134.463 124.036L134.387 126.219C135.948 128.884 136.492 132.024 135.918 135.059L125.318 190.247L127.715 230.574L132.641 270.063H170.89L153.328 228.738L159.528 173.045L159.237 136.417Z" fill="#EBEBEB"/>
<path d="M170.412 244.472L170.149 244.506L169.38 244.582C168.687 244.652 167.696 244.645 166.394 244.679C163.803 244.679 160.034 244.624 155.344 244.472C145.97 244.16 132.925 243.529 118.189 242.677H118.044V242.525C117.746 240.135 117.427 237.613 117.109 235.057C116.561 230.727 116.035 226.501 115.529 222.462V222.288H115.695L149.005 217.439L158.787 216.053L161.413 215.7L162.106 215.61H162.341L162.112 215.658L161.42 215.776L158.801 216.192L149.039 217.681L115.785 222.649L115.931 222.448C116.444 226.494 116.977 230.713 117.517 235.043C117.843 237.606 118.155 240.128 118.453 242.518L118.286 242.365C133.015 243.225 146.067 243.897 155.434 244.278C160.117 244.458 163.879 244.562 166.47 244.596C167.766 244.596 168.777 244.596 169.449 244.555L170.218 244.513L170.412 244.472Z" fill="#263238"/>
<path d="M152.974 179.266C153.024 179.386 153.056 179.511 153.071 179.64C153.127 179.924 153.196 180.27 153.279 180.707C153.459 181.684 153.702 183.021 153.972 184.649C154.561 188.03 155.358 192.609 156.244 197.673C157.131 202.738 157.852 207.331 158.42 210.719C158.676 212.354 158.884 213.691 159.036 214.675C159.099 215.111 159.147 215.471 159.189 215.755C159.204 215.882 159.204 216.01 159.189 216.136C159.137 216.02 159.102 215.896 159.085 215.769C159.029 215.485 158.96 215.132 158.87 214.702C158.69 213.719 158.441 212.388 158.136 210.76C157.533 207.428 156.75 202.828 155.863 197.736C154.977 192.644 154.228 188.037 153.695 184.69C153.446 183.055 153.238 181.711 153.085 180.728C153.03 180.294 152.981 179.933 152.94 179.647C152.937 179.519 152.949 179.391 152.974 179.266Z" fill="#263238"/>
<path d="M140.012 127.944C140.012 127.944 140.012 127.992 140.061 128.082L140.172 128.484C140.262 128.844 140.414 129.364 140.56 130.057C140.982 132.016 141.288 133.998 141.474 135.994C141.757 139.006 141.833 142.033 141.703 145.056C141.585 148.52 141.225 152.309 140.705 156.348V156.473H140.58L136.611 157.207L136.742 156.965C136.971 157.574 137.2 158.226 137.38 158.898C138.471 163.313 138.315 167.944 136.929 172.276C135.832 175.79 134.276 179.144 132.302 182.252C130.653 184.926 129.17 186.977 128.145 188.397L126.946 190.018C126.822 190.191 126.711 190.323 126.628 190.434C126.596 190.486 126.556 190.533 126.51 190.572C126.51 190.572 126.51 190.517 126.6 190.413L126.891 189.976C127.168 189.575 127.584 189.02 128.027 188.314C129.018 186.873 130.473 184.801 132.08 182.12C134.008 179.016 135.531 175.677 136.611 172.185C137.754 168.257 138.294 163.588 137.033 159.022C136.858 158.379 136.65 157.746 136.41 157.124L136.334 156.923L136.548 156.882L140.49 156.154L140.345 156.307C140.871 152.282 141.252 148.485 141.384 145.049C141.53 142.047 141.481 139.038 141.239 136.042C141.076 134.05 140.805 132.068 140.428 130.105C140.303 129.412 140.165 128.886 140.102 128.526C140.068 128.359 140.04 128.228 140.019 128.117C140.006 128.06 140.004 128.001 140.012 127.944Z" fill="#263238"/>
<path d="M140.012 184.538V175.746C140.012 175.746 140.123 173.578 138.294 174.035C136.465 174.493 136.805 177.922 136.805 177.922C136.805 177.922 136.465 191.3 137.262 191.189C138.059 191.078 138.37 190.046 138.37 190.046V184.898L140.012 184.538Z" fill="#5B63F6"/>
<path d="M147.619 185.085C146.054 185.268 144.476 185.328 142.901 185.265C141.326 185.328 139.749 185.268 138.183 185.085C139.749 184.907 141.326 184.847 142.901 184.905C144.476 184.847 146.053 184.907 147.619 185.085Z" fill="#263238"/>
<path d="M165.015 142.714C164.698 142.863 164.369 142.986 164.032 143.081C163.135 143.401 162.261 143.778 161.413 144.21C158.619 145.649 156.195 147.714 154.332 150.245C153.805 150.958 153.341 151.716 152.947 152.51C152.605 153.261 152.327 154.04 152.116 154.838C151.758 156.199 151.526 157.591 151.423 158.995C151.326 160.193 151.305 161.177 151.298 161.849C151.319 162.2 151.319 162.551 151.298 162.902C151.211 162.572 151.165 162.232 151.159 161.891C151.105 160.933 151.105 159.973 151.159 159.015C151.228 157.589 151.439 156.174 151.79 154.789C151.999 153.968 152.279 153.165 152.628 152.392C153.032 151.576 153.507 150.797 154.048 150.065C155.938 147.486 158.431 145.409 161.309 144.017C162.174 143.599 163.07 143.252 163.99 142.977C164.322 142.855 164.665 142.767 165.015 142.714Z" fill="#263238"/>
<path d="M9.78796 215.915L72.7975 239.255L125.914 247.374L62.759 216.587L9.78796 215.915Z" fill="#263238"/>
<path d="M36.7515 241.084C36.2454 237.717 35.1027 234.477 33.3845 231.537C33.0134 230.983 32.724 230.379 32.5255 229.743C32.4264 229.425 32.4068 229.087 32.4684 228.76C32.53 228.433 32.6709 228.126 32.8788 227.865C33.6894 226.985 35.165 227.373 36.1626 228.038C38.1819 229.509 39.6697 231.595 40.4025 233.983C41.1245 236.353 41.5891 238.794 41.7881 241.264" fill="#FFBE9D"/>
<path d="M61.311 235.084H58.1796C57.4112 234.323 56.4552 233.778 55.4084 233.505C55.0211 233.44 54.6233 233.481 54.2574 233.623C53.8915 233.766 53.571 234.005 53.33 234.315C54.7156 232.008 56.2397 229.466 56.5307 228.773C57.0919 227.422 55.8379 226.411 53.8219 226.411C51.8059 226.411 42.8827 239.04 42.8827 239.04C42.8827 239.04 48.425 228.877 48.9585 227.325C50.3025 223.445 46.0557 223.168 44.5177 225.032C42.6056 227.353 34.8809 239.04 34.8809 239.04C34.8809 239.04 33.4122 241.409 34.4237 243.661C35.4352 245.913 38.3726 245.047 38.3726 245.047C38.4161 245.704 38.6308 246.339 38.9954 246.889C39.3599 247.438 39.8617 247.882 40.451 248.178C42.7095 249.439 45.6885 247.977 45.6885 247.977L57.2374 250.568L61.3941 250.153C64.2311 249.869 66.8921 248.646 68.9553 246.678C71.0185 244.71 72.3658 242.11 72.7836 239.29L61.311 235.084Z" fill="#FFBE9D"/>
<path d="M53.5448 234.135C53.6764 234.218 52.1592 236.629 50.1501 239.525C49.1525 240.973 48.231 242.296 47.5452 243.197C47.2075 243.72 46.8176 244.207 46.3813 244.652C46.6462 244.088 46.9664 243.552 47.3373 243.051C47.9678 242.088 48.8546 240.765 49.8522 239.317C50.8498 237.869 51.7643 236.546 52.4294 235.632L53.233 234.53C53.325 234.389 53.4293 234.257 53.5448 234.135Z" fill="#EB996E"/>
<path d="M52.852 246.993C53.1338 246.334 53.4771 245.703 53.8773 245.109C54.5701 243.973 55.5262 242.428 56.5931 240.71C57.1265 239.858 57.6392 239.04 58.0549 238.285C58.2366 237.963 58.3529 237.608 58.3969 237.24C58.4409 236.873 58.4117 236.5 58.3112 236.144C58.1074 235.473 57.7731 234.849 57.3274 234.308C57.3274 234.308 57.5145 234.405 57.7708 234.682C58.1322 235.08 58.3997 235.553 58.5537 236.068C58.6825 236.455 58.7311 236.864 58.6965 237.27C58.662 237.676 58.545 238.071 58.3528 238.43C57.9371 239.213 57.4314 240.038 56.9048 240.897C55.831 242.615 54.8265 244.139 54.0921 245.241C53.7207 245.853 53.3063 246.439 52.852 246.993Z" fill="#EB996E"/>
<path d="M58.914 248.143C59.0301 247.518 59.2378 246.914 59.5306 246.349L60.355 244.465C60.6984 243.715 60.981 242.939 61.2002 242.144C61.305 241.764 61.3265 241.366 61.2631 240.978C61.1998 240.589 61.053 240.219 60.833 239.892C60.6097 239.632 60.3268 239.43 60.0086 239.303C59.741 239.167 59.4491 239.084 59.1496 239.061C58.7121 239.126 58.2912 239.274 57.9094 239.497C57.7649 239.589 57.6054 239.654 57.4384 239.691C57.4384 239.691 57.57 239.56 57.8402 239.373C58.0077 239.26 58.1811 239.155 58.3598 239.061C58.6026 238.922 58.8715 238.835 59.1496 238.805C59.4889 238.812 59.8234 238.888 60.1333 239.026C60.5015 239.16 60.8302 239.384 61.0894 239.677C61.352 240.04 61.5295 240.456 61.6087 240.896C61.6879 241.337 61.6666 241.789 61.5466 242.22C61.3258 243.041 61.0265 243.839 60.6529 244.603C60.3273 245.296 60.0156 245.926 59.7592 246.453C59.5075 247.031 59.2254 247.595 58.914 248.143Z" fill="#EB996E"/>
<path d="M61.0408 237.239C61.2107 237.253 61.3759 237.303 61.5257 237.384C61.9545 237.565 62.3594 237.798 62.7312 238.077C63.9895 239.017 64.8693 240.376 65.2112 241.909C65.5531 243.442 65.3344 245.047 64.5948 246.432C64.3828 246.849 64.1198 247.237 63.8119 247.589C63.5903 247.832 63.4448 247.942 63.4309 247.929C63.4171 247.915 63.8882 247.361 64.3662 246.321C65.0098 244.973 65.1828 243.448 64.8576 241.99C64.5323 240.532 63.7275 239.225 62.5718 238.278C62.0811 237.904 61.57 237.557 61.0408 237.239Z" fill="#EB996E"/>
<path d="M40.7419 230.609C39.9731 232.056 39.1002 233.445 38.1301 234.766C37.2641 236.178 36.2938 237.523 35.2273 238.791C35.9921 237.343 36.8627 235.953 37.8322 234.634C38.7019 233.222 39.6744 231.877 40.7419 230.609Z" fill="#EB996E"/>
<path d="M115.494 223.182L108.289 221.554L101.361 215.035C100.518 214.244 99.4251 213.774 98.2715 213.705L85.6834 213.012C84.4236 212.934 83.1825 213.346 82.2195 214.162L73.2131 221.783L112.501 240.869L117.891 241.347L115.494 223.182Z" fill="#FFBE9D"/>
<path d="M94.1494 219.822C94.1494 219.877 93.221 219.711 91.7246 219.517C90.2281 219.323 88.0943 219.15 86.0229 220.113C85.0586 220.578 84.1479 221.147 83.3071 221.81C82.5104 222.406 81.7968 222.96 81.1664 223.383C80.6716 223.726 80.1504 224.03 79.6076 224.29C79.4144 224.397 79.2067 224.474 78.991 224.519C78.991 224.464 79.8154 224.083 81.0209 223.175C81.6236 222.732 82.3164 222.157 83.0993 221.54C83.9524 220.849 84.8822 220.259 85.8705 219.78C86.8838 219.334 87.9776 219.098 89.085 219.088C89.9786 219.074 90.8716 219.143 91.7523 219.295C92.5074 219.413 93.1379 219.552 93.512 219.656C93.7324 219.674 93.948 219.73 94.1494 219.822Z" fill="#EB996E"/>
<path d="M96.7336 226.833C96.7336 226.888 96.2209 226.66 95.348 226.577C94.2493 226.476 93.1421 226.63 92.1127 227.027C91.076 227.432 90.0826 227.941 89.1475 228.544C88.7664 228.821 88.355 229.054 87.9213 229.237C88.2377 228.888 88.6015 228.585 89.002 228.336C89.9196 227.658 90.9239 227.106 91.988 226.695C93.068 226.278 94.2384 226.151 95.3827 226.327C95.872 226.364 96.3408 226.539 96.7336 226.833Z" fill="#EB996E"/>
<path d="M112.938 227.997C112.848 228.052 111.836 226.542 110.499 224.755C109.162 222.967 108.012 221.561 108.088 221.492C109.111 222.39 110.017 223.414 110.783 224.54C111.647 225.595 112.371 226.757 112.938 227.997Z" fill="#EB996E"/>
<path d="M93.1102 213.725L109.044 198.865C109.207 198.714 109.335 198.529 109.419 198.324C109.503 198.118 109.541 197.897 109.53 197.675C109.52 197.454 109.461 197.237 109.358 197.04C109.255 196.844 109.11 196.672 108.934 196.537C108.651 196.321 108.302 196.21 107.946 196.224C107.591 196.238 107.251 196.376 106.987 196.613L88.2814 213.393" fill="#5B63F6"/>
<g opacity="0.3">
<path opacity="0.3" d="M93.1102 213.725L109.044 198.865C109.207 198.714 109.335 198.529 109.419 198.324C109.503 198.118 109.541 197.897 109.53 197.675C109.52 197.454 109.461 197.237 109.358 197.04C109.255 196.844 109.11 196.672 108.934 196.537C108.651 196.321 108.302 196.21 107.946 196.224C107.591 196.238 107.251 196.376 106.987 196.613L88.2814 213.393" fill="black"/>
</g>
<path d="M223.515 70.4972C223.265 70.4003 213.601 67.8646 214.183 77.6399C214.765 87.4153 224.457 84.8104 224.464 84.5263C224.471 84.2423 223.515 70.4972 223.515 70.4972Z" fill="#B78876"/>
<path d="M221.256 81.0069C221.208 80.9723 221.09 81.1316 220.813 81.284C220.417 81.482 219.959 81.5168 219.538 81.381C218.485 81.0692 217.515 79.4828 217.363 77.7231C217.287 76.9 217.391 76.0703 217.668 75.2914C217.741 74.9798 217.889 74.6907 218.099 74.4493C218.309 74.2078 218.575 74.0213 218.873 73.9058C219.066 73.8422 219.275 73.8483 219.463 73.923C219.652 73.9977 219.808 74.1362 219.905 74.3145C220.051 74.5778 220.002 74.7787 220.051 74.7925C220.099 74.8064 220.252 74.6124 220.148 74.2175C220.081 73.9774 219.931 73.7688 219.725 73.6287C219.587 73.5344 219.431 73.4688 219.267 73.4355C219.102 73.4022 218.933 73.4019 218.769 73.4347C218.373 73.5382 218.01 73.7416 217.716 74.0254C217.421 74.3093 217.204 74.6641 217.086 75.0558C216.714 75.9293 216.566 76.8819 216.656 77.827C216.836 79.7945 217.958 81.575 219.393 81.9006C219.66 81.9613 219.938 81.9611 220.205 81.9C220.473 81.8388 220.723 81.7183 220.938 81.5473C221.249 81.2425 221.291 81.0208 221.256 81.0069Z" fill="#AA6550"/>
<path d="M247.915 35.5873C252.882 35.5873 257.94 35.5873 264.154 38.8365C268.075 40.9149 270.514 44.1226 272.558 48.0438C274.188 51.2317 274.984 54.7807 274.871 58.3595C274.691 61.7403 274.677 64.1027 273.327 67.2064" fill="#263238"/>
<path d="M245.927 36.3563C249.418 36.1075 252.924 36.5575 256.239 37.6799C259.555 38.8023 262.613 40.5745 265.235 42.893C267.858 45.2114 269.991 48.0295 271.511 51.1824C273.032 54.3353 273.908 57.7597 274.089 61.2553C274.726 73.497 275.287 86.7363 275.156 93.4009C274.865 107.714 260.531 109.827 260.531 109.827C260.531 109.827 260.849 114.067 261.223 119.332C261.39 121.847 261.051 124.371 260.226 126.753C259.4 129.134 258.106 131.327 256.419 133.2C254.732 135.073 252.686 136.589 250.404 137.658C248.121 138.726 245.647 139.327 243.128 139.423C240.653 139.518 238.183 139.123 235.861 138.263C233.538 137.402 231.408 136.092 229.592 134.408C227.776 132.723 226.311 130.697 225.278 128.446C224.246 126.194 223.668 123.761 223.577 121.286L221.45 63.6039C221.191 56.7675 223.603 50.0988 228.176 45.0102C232.748 39.9216 239.122 36.8128 245.947 36.3425L245.927 36.3563Z" fill="#B78876"/>
<path d="M260.531 109.827C260.531 109.827 251.732 110.284 242.172 104.167C242.172 104.167 246.502 114.559 260.787 113.409L260.531 109.827Z" fill="#AA6550"/>
<path d="M268.602 69.2155C268.613 69.7534 268.411 70.2739 268.04 70.6633C267.668 71.0527 267.158 71.2794 266.62 71.2939C266.361 71.3117 266.101 71.2775 265.856 71.1933C265.61 71.1091 265.384 70.9766 265.19 70.8036C264.996 70.6306 264.839 70.4205 264.728 70.1859C264.617 69.9512 264.553 69.6967 264.542 69.4372C264.541 68.9024 264.747 68.388 265.116 68.0009C265.485 67.6138 265.989 67.3838 266.523 67.3589C266.782 67.342 267.042 67.3769 267.287 67.4615C267.532 67.546 267.758 67.6786 267.952 67.8514C268.145 68.0243 268.302 68.2339 268.414 68.4681C268.526 68.7023 268.589 68.9564 268.602 69.2155Z" fill="#263238"/>
<path d="M270.59 66.3197C270.334 66.583 268.796 65.426 266.593 65.4121C264.39 65.3983 262.775 66.4929 262.54 66.2227C262.422 66.098 262.685 65.62 263.392 65.1142C264.347 64.4594 265.483 64.1202 266.641 64.1443C267.785 64.1453 268.897 64.5146 269.814 65.1974C270.486 65.717 270.715 66.2019 270.59 66.3197Z" fill="#263238"/>
<path d="M247.035 69.2155C247.046 69.7546 246.843 70.2761 246.47 70.6657C246.098 71.0553 245.586 71.2812 245.047 71.2939C244.788 71.3108 244.528 71.2759 244.283 71.1913C244.038 71.1068 243.812 70.9742 243.618 70.8013C243.425 70.6285 243.268 70.4189 243.156 70.1847C243.044 69.9505 242.981 69.6964 242.968 69.4372C242.968 68.9013 243.174 68.3858 243.545 67.9985C243.915 67.6113 244.421 67.3821 244.957 67.3589C245.215 67.343 245.475 67.3785 245.719 67.4634C245.964 67.5483 246.19 67.681 246.383 67.8536C246.576 68.0263 246.734 68.2356 246.845 68.4693C246.957 68.7031 247.022 68.9567 247.035 69.2155Z" fill="#263238"/>
<path d="M248.968 66.5621C248.712 66.8254 247.167 65.6684 244.971 65.6545C242.774 65.6407 241.153 66.7284 240.911 66.4582C240.8 66.3404 241.056 65.8554 241.77 65.3497C242.727 64.6987 243.862 64.3599 245.019 64.3798C246.161 64.3875 247.272 64.7561 248.192 65.4328C248.843 65.9594 249.093 66.4374 248.968 66.5621Z" fill="#263238"/>
<path d="M256.817 82.9121C256.817 82.7874 258.203 82.5657 260.392 82.2956C260.953 82.2401 261.487 82.1362 261.584 81.7552C261.64 81.1747 261.514 80.5913 261.224 80.0855C260.711 78.7 260.164 77.3144 259.595 75.7971C257.337 69.6867 255.709 64.6709 255.958 64.5808C256.208 64.4908 258.238 69.368 260.489 75.4785C261.036 76.9818 261.556 78.4159 262.048 79.7946C262.396 80.4736 262.494 81.2535 262.325 81.9976C262.24 82.1948 262.111 82.3704 261.95 82.5118C261.788 82.6532 261.597 82.7568 261.39 82.8151C261.079 82.8922 260.761 82.9341 260.441 82.9398C258.21 83.0576 256.824 83.0576 256.817 82.9121Z" fill="#263238"/>
<path d="M250.333 84.4016C250.693 84.4016 250.672 86.771 252.702 88.4822C254.732 90.1934 257.281 89.9509 257.295 90.2834C257.295 90.4358 256.72 90.7476 255.646 90.7684C254.246 90.771 252.89 90.2805 251.815 89.3828C250.786 88.5208 250.128 87.295 249.979 85.9604C249.896 84.9905 250.166 84.3877 250.333 84.4016Z" fill="#263238"/>
<path d="M249.598 57.9715C249.377 58.5673 247.188 58.2694 244.603 58.5604C242.019 58.8514 239.927 59.5372 239.588 58.9968C239.442 58.7405 239.809 58.1794 240.654 57.6113C241.783 56.9125 243.055 56.4795 244.375 56.3451C245.696 56.2106 247.029 56.3783 248.275 56.8353C249.224 57.1887 249.695 57.6598 249.598 57.9715Z" fill="#263238"/>
<path d="M270.278 58.4911C269.89 58.9899 268.38 58.4564 266.558 58.4218C264.736 58.3872 263.191 58.7266 262.838 58.2001C262.685 57.9438 262.928 57.445 263.607 56.9808C264.517 56.4197 265.574 56.1424 266.642 56.1844C267.711 56.2263 268.743 56.5856 269.606 57.2163C270.244 57.7359 270.451 58.2486 270.278 58.4911Z" fill="#263238"/>
<path d="M221.596 68.0863C221.596 68.0863 222.219 71.3978 222.386 72.8873C222.448 73.4346 222.386 79.4966 223.847 79.8153C225.115 80.0785 227.63 78.9216 228.752 76.4136C229.875 73.9057 232.008 67.8854 231.773 65.1488C231.461 61.4216 231.288 57.6251 232.036 53.9533C232.784 50.2815 234.537 46.7067 237.482 44.3927C240.426 42.0788 244.687 41.2821 248.04 42.9586C250.118 43.9978 251.649 45.8337 253.582 47.1154C255.296 48.3298 257.396 48.8744 259.485 48.6465C260.521 48.5164 261.499 48.0961 262.307 47.4343C263.115 46.7724 263.719 45.8958 264.05 44.9054C264.66 42.7231 263.537 40.333 261.785 38.885C260.032 37.4371 257.78 36.772 255.55 36.3286C249.357 34.9989 242.915 35.4505 236.969 37.6311C231.101 39.9104 225.884 44.2888 223.39 50.0598C220.494 56.7314 220.827 60.8258 221.596 68.0724" fill="#263238"/>
<path d="M254.309 69.3057C254.241 68.5126 254.116 67.7255 253.935 66.9502C253.38 64.8453 252.133 62.9883 250.395 61.678C249.206 60.7787 247.823 60.1712 246.356 59.9044C244.672 59.5966 242.936 59.7425 241.327 60.327C240.46 60.6362 239.647 61.0779 238.916 61.6364C238.135 62.1979 237.451 62.8836 236.893 63.6663C235.691 65.3024 235.043 67.2792 235.043 69.3091C235.043 71.339 235.691 73.3159 236.893 74.9519C237.455 75.7315 238.138 76.4167 238.916 76.9818C239.647 77.5383 240.46 77.9777 241.327 78.2843C242.935 78.8708 244.671 79.0191 246.356 78.7138C247.824 78.446 249.207 77.836 250.395 76.9333C252.135 75.6258 253.384 73.7714 253.942 71.6681C254.119 70.89 254.242 70.1007 254.309 69.3057C254.32 69.3583 254.32 69.4124 254.309 69.465V69.9292C254.313 70.1823 254.292 70.4352 254.247 70.6843C254.214 71.0258 254.154 71.364 254.067 71.6958C253.551 73.8619 252.306 75.7846 250.541 77.1411C249.233 78.1487 247.692 78.8103 246.061 79.0646C244.43 79.3189 242.761 79.1577 241.209 78.596C240.308 78.2837 239.462 77.8326 238.701 77.2589C237.902 76.6809 237.2 75.9793 236.622 75.1805C235.371 73.4852 234.696 71.4335 234.696 69.3264C234.696 67.2193 235.371 65.1677 236.622 63.4723C237.784 61.8901 239.387 60.6853 241.23 60.0084C242.892 59.4147 244.683 59.2736 246.419 59.5996C247.932 59.8871 249.356 60.528 250.575 61.4702C252.34 62.825 253.585 64.745 254.102 66.9086C254.189 67.2427 254.249 67.5833 254.282 67.927C254.327 68.1738 254.347 68.4244 254.344 68.6752V69.1394C254.323 69.2572 254.316 69.3057 254.309 69.3057Z" fill="#263238"/>
<path d="M279.506 69.3056C279.433 68.5131 279.308 67.7263 279.132 66.9501C278.575 64.8443 277.326 62.9872 275.585 61.678C274.397 60.7776 273.013 60.1699 271.546 59.9044C269.864 59.5965 268.13 59.7424 266.523 60.327C264.749 60.9804 263.207 62.1418 262.089 63.6663C260.884 65.3006 260.233 67.2782 260.233 69.3091C260.233 71.34 260.884 73.3176 262.089 74.9519C262.649 75.7312 263.33 76.4164 264.105 76.9818C264.838 77.5397 265.654 77.9792 266.523 78.2842C268.13 78.8709 269.863 79.0191 271.546 78.7138C273.014 78.4459 274.397 77.8359 275.585 76.9333C277.325 75.6258 278.574 73.7713 279.132 71.668C279.308 70.8896 279.433 70.1004 279.506 69.3056C279.509 69.3587 279.509 69.4119 279.506 69.465C279.506 69.5897 279.506 69.7421 279.506 69.9291C279.509 70.1819 279.49 70.4345 279.451 70.6843C279.415 71.0259 279.353 71.3641 279.264 71.6958C278.754 73.8641 277.507 75.7885 275.737 77.1411C274.519 78.0819 273.094 78.7206 271.581 79.0047C269.843 79.3378 268.049 79.1966 266.385 78.596C264.539 77.9279 262.937 76.7212 261.785 75.132C260.529 73.4384 259.852 71.3861 259.852 69.2779C259.852 67.1697 260.529 65.1174 261.785 63.4238C262.362 62.6243 263.064 61.9226 263.863 61.3454C264.626 60.7722 265.471 60.319 266.371 60.0014C268.036 59.4075 269.829 59.2664 271.567 59.5926C273.081 59.8791 274.505 60.5201 275.724 61.4632C277.492 62.8145 278.738 64.736 279.25 66.9016C279.339 67.2356 279.402 67.5762 279.437 67.92C279.476 68.1674 279.495 68.4177 279.492 68.6682C279.492 68.8553 279.492 69.0077 279.492 69.1324C279.501 69.1898 279.506 69.2476 279.506 69.3056Z" fill="#263238"/>
<path d="M260.281 68.2665C260.281 68.3219 259.928 68.1418 259.381 67.9616C258.665 67.721 257.91 67.6222 257.157 67.6707C256.412 67.726 255.684 67.9186 255.009 68.2388C254.49 68.4951 254.199 68.7168 254.164 68.6683C254.129 68.6198 254.372 68.3427 254.857 68.0171C255.539 67.6056 256.311 67.3632 257.106 67.3102C257.901 67.2572 258.698 67.395 259.429 67.7122C260.032 67.9755 260.309 68.2387 260.281 68.2665Z" fill="#263238"/>
<path d="M264.182 44.1156C264.327 43.3743 264.078 42.9587 264.5 42.6538C264.923 42.349 265.886 43.2219 266.205 43.5822C266.315 43.6999 266.648 43.2427 266.78 43.1596C266.924 42.8625 267.009 42.5401 267.029 42.2104C266.967 41.6908 266.156 41.5176 265.775 41.199C265.382 40.8535 264.922 40.5918 264.424 40.43C264.221 40.3296 263.996 40.2838 263.77 40.2972C263.544 40.3106 263.325 40.3826 263.136 40.5062C263.023 40.6392 262.939 40.7939 262.889 40.9608C262.839 41.1277 262.824 41.3031 262.845 41.4761C262.843 41.8227 262.908 42.1663 263.039 42.4876C263.169 42.8108 263.416 43.073 263.731 43.2219" fill="#263238"/>
<path d="M221.062 60.4795C221.062 60.4795 228.08 63.0497 231.731 64.6016L231.523 61.0129L221.319 56.9739C221.319 56.9739 221.055 59.6412 221.062 60.4795Z" fill="#EBEBEB"/>
<path d="M221.72 54.9025C223.416 55.4277 225.076 56.0641 226.688 56.8076C228.353 57.4423 229.974 58.1899 231.537 59.0454C229.841 58.5202 228.182 57.8837 226.57 57.1402C224.904 56.5055 223.284 55.7579 221.72 54.9025Z" fill="#EBEBEB"/>
<path d="M223.833 130.5L223.293 113.52C223.293 113.52 226.667 129.059 244.34 128.858C261.223 128.664 260.919 115.169 260.919 115.169L261.521 122.013V149.663L250.506 194.771L236.435 196.53L220.889 134.872L223.833 130.5Z" fill="#5B63F6"/>
<path d="M259.346 125.069C259.294 125.196 259.226 125.317 259.145 125.429C258.934 125.77 258.702 126.099 258.452 126.413C257.564 127.582 256.503 128.609 255.307 129.461C253.532 130.731 251.542 131.67 249.432 132.232C246.848 132.925 244.154 133.111 241.5 132.779C238.856 132.415 236.285 131.642 233.879 130.486C231.926 129.552 230.07 128.429 228.337 127.133C227.164 126.273 226.04 125.347 224.97 124.362C224.589 124.016 224.311 123.725 224.117 123.531C224.014 123.44 223.921 123.337 223.84 123.226C223.958 123.299 224.067 123.385 224.166 123.482L225.067 124.258C225.842 124.951 226.993 125.872 228.489 126.946C230.231 128.201 232.087 129.291 234.031 130.202C236.409 131.324 238.944 132.076 241.548 132.433C244.155 132.76 246.8 132.589 249.342 131.927C251.42 131.388 253.389 130.492 255.162 129.281C256.352 128.458 257.422 127.474 258.341 126.357C259.007 125.526 259.318 125.048 259.346 125.069Z" fill="#263238"/>
<path d="M247.084 270.043L246.827 189.886L224.062 131.408L223.3 113.804L209.444 124.293C209.444 124.293 189.263 193.759 188.924 191.362C188.584 188.965 188.924 270.043 188.924 270.043H247.084Z" fill="#EBEBEB"/>
<path d="M246.536 269.821C246.439 269.821 246.356 251.76 246.356 229.48C246.356 207.199 246.439 189.138 246.536 189.138C246.633 189.138 246.716 207.199 246.716 229.48C246.716 251.76 246.633 269.821 246.536 269.821Z" fill="#263238"/>
<path d="M209.631 135.71L212.444 137.844L210.469 150.806L243.696 185.612L213.518 145.984L216.088 135.71H209.631Z" fill="#E0E0E0"/>
<path d="M248.331 228.981L197.334 214.03L195.644 175.296L209.631 124.265C209.631 124.265 176.294 140.899 174.022 151.499C171.749 162.098 166.283 187.815 165.708 206.416C165.188 223.043 165.112 234.128 168.909 239.47C179.786 254.669 251.448 257.385 280.074 239.47" fill="#EBEBEB"/>
<path d="M244.34 186.457C244.34 186.457 244.278 186.402 244.174 186.27C244.07 186.138 243.904 185.937 243.717 185.702L241.985 183.485C240.474 181.531 238.32 178.732 235.666 175.282L214.931 148.146L213.372 146.067L213.317 145.998V145.915C214.204 142.368 215.07 138.924 215.894 135.641L216.06 135.862H209.603H209.437V135.696C209.437 131.539 209.437 127.66 209.437 124.251V124.182L209.493 124.14L219.517 116.519L222.289 114.441L222.981 113.908C223.06 113.842 223.146 113.787 223.238 113.741L223.009 113.942L222.316 114.503L219.607 116.623L209.659 124.341L209.714 124.23C209.714 127.639 209.714 131.484 209.714 135.675L209.548 135.516H216.005H216.282L216.227 135.738L213.663 146.012L213.629 145.859L215.194 147.903L235.84 175.109L242.075 183.374C242.768 184.344 243.356 185.099 243.751 185.633C243.931 185.882 244.07 186.083 244.181 186.228L244.34 186.457Z" fill="#263238"/>
<path d="M267.071 121.244C263.004 114.136 260.891 114.871 260.891 114.871L261.106 117.406V122.734L259.173 145.596L246.82 195.262L247.077 270.043H293.778L299.59 178.76L299.064 139.43L267.071 121.244Z" fill="#EBEBEB"/>
<path d="M299.071 139.43C299.071 139.43 311.16 148.353 312.234 162.715C313.086 174.375 315.005 206.306 315.386 213.254C315.94 224.076 307.509 249.425 285.561 242.248C272.398 237.938 223.778 221.415 223.778 221.415L227.013 200.763L284.723 204.227L285.873 156.092L299.071 139.43Z" fill="#EBEBEB"/>
<path d="M226.327 203.14C226.327 203.14 209.991 201.373 206.236 202.287C202.599 203.167 197.424 207.615 197.424 207.615L197.5 214.065L223.778 221.415L226.327 203.14Z" fill="#B78876"/>
<path d="M246.827 187.794C246.845 187.718 246.871 187.644 246.903 187.572C246.959 187.413 247.042 187.198 247.146 186.935C247.375 186.353 247.707 185.549 248.123 184.496L251.781 175.545L257.24 162.285C257.76 161.045 258.272 159.75 258.917 158.482C259.561 157.214 260.261 155.946 260.995 154.679C262.587 152.094 264.317 149.596 266.177 147.196C267.119 145.984 268.068 144.799 269.052 143.663V143.85L267.015 138.675L266.946 138.502L267.119 138.439L275.62 135.564L275.53 135.8C271.581 129.205 268.248 123.634 265.879 119.686C264.715 117.732 263.718 116.166 262.658 115.529C262.259 115.288 261.823 115.113 261.369 115.009C261.208 114.979 261.048 114.94 260.891 114.891C261.054 114.902 261.216 114.923 261.376 114.954C261.847 115.039 262.299 115.205 262.713 115.446C263.356 115.863 263.911 116.402 264.348 117.032C264.96 117.85 265.526 118.701 266.045 119.582L275.814 135.641L275.918 135.814L275.724 135.876L267.223 138.793L267.327 138.564L269.371 143.739L269.412 143.836L269.336 143.919C268.366 145.042 267.417 146.226 266.482 147.439C264.629 149.821 262.904 152.3 261.314 154.866C260.572 156.126 259.845 157.367 259.235 158.634C258.626 159.902 258.085 161.163 257.566 162.41C255.487 167.384 253.603 171.867 252.023 175.642C250.444 179.418 249.155 182.425 248.261 184.545C247.818 185.577 247.465 186.388 247.222 186.963C247.104 187.226 247.014 187.427 246.938 187.586C246.911 187.66 246.873 187.73 246.827 187.794Z" fill="#263238"/>
<path d="M305.701 238.229C305.642 238.308 305.575 238.38 305.5 238.444L304.876 239.047C304.056 239.797 303.168 240.47 302.223 241.056C300.717 241.973 299.082 242.659 297.373 243.093C295.109 243.654 292.763 243.804 290.445 243.536C289.094 243.379 287.761 243.096 286.462 242.691C285.076 242.262 283.746 241.728 282.305 241.229C279.458 240.19 276.396 239.151 273.181 237.987C266.738 235.728 259.637 233.318 252.155 230.858C237.19 225.946 223.542 221.803 213.649 218.845L201.927 215.381L198.74 214.432L197.916 214.183C197.821 214.157 197.728 214.122 197.639 214.079L197.93 214.141L198.761 214.363L201.969 215.243C204.74 216.019 208.765 217.162 213.746 218.603C223.653 221.492 237.301 225.6 252.286 230.519C259.776 232.971 266.877 235.368 273.313 237.668C276.527 238.811 279.582 239.899 282.43 240.945C283.857 241.458 285.201 241.998 286.587 242.428C287.866 242.834 289.182 243.119 290.515 243.28C292.81 243.561 295.137 243.432 297.387 242.899C299.09 242.482 300.723 241.822 302.237 240.938C303.181 240.366 304.076 239.714 304.911 238.992L305.555 238.417C305.599 238.351 305.648 238.288 305.701 238.229Z" fill="#263238"/>
<path d="M197.473 214.183C197.473 214.259 196.551 214.058 195.089 214.12C194.235 214.155 193.388 214.295 192.568 214.536C191.566 214.836 190.61 215.272 189.727 215.831C188.132 216.884 186.782 218.269 185.771 219.891C185.002 221.138 184.663 221.97 184.6 221.97C184.637 221.756 184.703 221.549 184.794 221.353C185.004 220.802 185.259 220.269 185.556 219.76C186.527 218.053 187.89 216.602 189.533 215.527C190.446 214.95 191.438 214.509 192.477 214.217C193.327 213.987 194.202 213.869 195.082 213.864C195.673 213.856 196.263 213.909 196.842 214.023C197.059 214.047 197.271 214.101 197.473 214.183Z" fill="#263238"/>
<path d="M181.407 209.125C181.407 209.125 181.407 209.056 181.469 208.938C181.552 208.773 181.659 208.621 181.788 208.488C182.282 208.003 182.918 207.688 183.603 207.587C184.594 207.424 185.605 207.424 186.596 207.587C187.808 207.747 189 208.037 190.15 208.453C192.253 209.192 194.174 210.373 195.782 211.917C196.262 212.389 196.7 212.901 197.092 213.448C197.244 213.642 197.372 213.854 197.473 214.079C197.41 214.127 196.842 213.24 195.609 212.104C193.983 210.65 192.085 209.531 190.025 208.814C188.901 208.411 187.741 208.116 186.561 207.934C185.601 207.76 184.62 207.732 183.651 207.851C183.007 207.924 182.398 208.184 181.899 208.599C181.552 208.897 181.434 209.139 181.407 209.125Z" fill="#263238"/>
<path d="M200.445 164.662C200.332 164.322 200.253 163.971 200.209 163.616C200.105 163.283 199.96 162.888 199.8 162.431C199.641 161.974 199.364 161.475 199.045 160.948C198.3 159.708 197.429 158.547 196.447 157.484C195.232 156.194 193.899 155.02 192.464 153.979C189.859 152.075 186.897 150.715 183.755 149.981C182.799 149.779 181.829 149.654 180.852 149.607C180.493 149.609 180.134 149.582 179.779 149.524C180.136 149.473 180.498 149.455 180.859 149.469C181.847 149.458 182.834 149.546 183.804 149.732C187.009 150.4 190.033 151.75 192.672 153.688C194.13 154.736 195.476 155.932 196.69 157.256C197.678 158.344 198.542 159.538 199.267 160.817C199.579 161.364 199.78 161.897 199.96 162.348C200.14 162.798 200.237 163.235 200.32 163.574C200.389 163.933 200.43 164.297 200.445 164.662Z" fill="#263238"/>
<path d="M297.263 223.868C297.254 223.785 297.254 223.701 297.263 223.618V222.891C297.263 222.254 297.214 221.318 297.124 220.12C296.873 216.715 296.174 213.359 295.046 210.137C294.706 209.069 294.241 208.046 293.66 207.088C293.012 206.069 292.07 205.269 290.958 204.795C288.637 203.798 285.845 203.929 283.005 203.77L264.41 202.987C249.044 202.294 235.375 201.74 226.785 201.283L226.902 201.186C226.383 204.345 225.967 206.846 225.683 208.585C225.538 209.423 225.427 210.074 225.344 210.539C225.309 210.746 225.274 210.913 225.254 211.044L225.212 211.211C225.206 211.153 225.206 211.095 225.212 211.037L225.281 210.532C225.344 210.067 225.441 209.409 225.558 208.564C225.822 206.825 226.196 204.317 226.674 201.151V201.054H226.778L264.403 202.62L282.998 203.458C284.425 203.527 285.818 203.562 287.155 203.673C288.487 203.747 289.798 204.042 291.034 204.546C292.198 205.035 293.188 205.863 293.875 206.922C294.461 207.901 294.926 208.948 295.26 210.04C296.373 213.282 297.035 216.662 297.228 220.085C297.304 221.291 297.304 222.233 297.297 222.856C297.297 223.161 297.297 223.404 297.297 223.584C297.269 223.778 297.263 223.868 297.263 223.868Z" fill="#263238"/>
<path d="M286.254 178.684C286.351 178.684 286.434 184.275 286.434 191.154C286.434 198.034 286.351 203.624 286.254 203.624C286.157 203.624 286.074 198.034 286.074 191.154C286.074 184.275 286.157 178.684 286.254 178.684Z" fill="#263238"/>
<path d="M174.423 150.231C174.423 150.231 174.382 150.39 174.285 150.688C174.188 150.986 174.015 151.436 173.869 152.074C173.53 153.272 173.1 155.06 172.622 157.394C171.659 162.064 170.474 168.895 169.158 177.444C168.5 181.725 167.773 186.45 167.08 191.514C166.726 194.057 166.505 196.703 166.325 199.447C166.145 202.19 165.999 204.989 165.888 207.927C165.68 213.753 165.556 219.905 165.722 226.313C165.777 227.914 165.833 229.535 165.964 231.163C166.006 231.981 166.138 232.784 166.241 233.595C166.389 234.405 166.586 235.205 166.83 235.992C167.323 237.582 168.103 239.068 169.13 240.377C170.161 241.709 171.516 242.754 173.066 243.412C176.363 245.029 179.803 246.342 183.34 247.333C186.921 248.407 190.621 249.273 194.376 250.042C202.546 251.728 210.842 252.739 219.178 253.062C223.127 253.164 227.079 253.062 231.018 252.757C234.877 252.487 238.638 252.065 242.276 251.545C249.134 250.573 255.894 249.001 262.477 246.848C268.115 244.986 273.581 242.64 278.814 239.837V240.065L256.464 232.119L250.43 229.965L248.871 229.396C248.518 229.265 248.344 229.189 248.344 229.189L248.878 229.362L250.451 229.895L256.506 231.974L278.952 239.802L279.222 239.892L278.973 240.031C273.73 242.857 268.253 245.223 262.602 247.104C256.004 249.278 249.228 250.866 242.352 251.85C238.708 252.397 234.939 252.806 231.073 253.076C227.123 253.385 223.16 253.492 219.199 253.395C210.841 253.076 202.525 252.065 194.334 250.374C190.565 249.598 186.859 248.732 183.25 247.658C179.692 246.654 176.232 245.33 172.913 243.703C171.299 243.024 169.886 241.941 168.812 240.557C167.761 239.212 166.965 237.686 166.463 236.054C166.212 235.255 166.011 234.44 165.86 233.616C165.757 232.784 165.625 231.967 165.583 231.149C165.452 229.507 165.396 227.886 165.348 226.3C165.182 219.87 165.348 213.718 165.542 207.885C165.653 204.975 165.803 202.147 165.992 199.398C166.179 196.627 166.408 193.995 166.768 191.452C167.461 186.36 168.195 181.656 168.846 177.381C170.232 168.832 171.437 162.008 172.442 157.346C172.941 155.011 173.384 153.224 173.744 152.025C173.897 151.422 174.091 150.979 174.188 150.681C174.285 150.383 174.423 150.231 174.423 150.231Z" fill="#263238"/>
<path d="M197.396 209.395C205.925 199.953 205.551 183.166 200.653 171.257C200.202 184.157 198.678 195.602 197.514 208.141" fill="#E0E0E0"/>
<path d="M200.673 173.668C200.688 173.806 200.688 173.946 200.673 174.084C200.673 174.395 200.632 174.776 200.597 175.261C200.514 176.335 200.403 177.804 200.258 179.591C199.953 183.291 199.565 188.314 199.087 193.87L197.964 208.155C197.833 209.943 197.722 211.411 197.639 212.485L197.535 213.656C197.527 213.794 197.508 213.93 197.48 214.065C197.459 213.929 197.459 213.792 197.48 213.656C197.48 213.344 197.48 212.963 197.514 212.471C197.549 211.446 197.625 209.963 197.722 208.135C197.937 204.477 198.283 199.419 198.74 193.842C199.198 188.265 199.655 183.222 200.022 179.571C200.209 177.783 200.362 176.321 200.472 175.248C200.535 174.77 200.583 174.382 200.618 174.077C200.618 173.939 200.636 173.801 200.673 173.668Z" fill="#263238"/>
<path d="M221.693 156.611C221.875 159.048 221.935 161.492 221.873 163.934C221.935 166.377 221.875 168.821 221.693 171.257C221.596 171.257 221.513 167.973 221.513 163.934C221.513 159.895 221.596 156.611 221.693 156.611Z" fill="#263238"/>
<path d="M216.136 180.935C216.282 182.352 216.827 183.697 217.709 184.815C218.513 185.861 220.141 186.893 221.45 186.803C222.437 186.854 223.419 186.647 224.302 186.204C225.185 185.761 225.938 185.096 226.487 184.275C228.08 181.739 228.475 176.453 227.18 173.329C226.3 171.181 224.325 169.172 222.004 169.123C218.956 169.054 217.044 171.257 216.393 173.488" fill="#E0E0E0"/>
<path d="M216.407 173.488C216.507 172.961 216.697 172.455 216.968 171.992C217.269 171.435 217.655 170.928 218.111 170.488C218.722 169.903 219.462 169.471 220.272 169.227C220.742 169.083 221.229 169.004 221.72 168.992C222.257 168.962 222.795 169.033 223.307 169.2C224.423 169.594 225.403 170.298 226.133 171.229C226.958 172.235 227.53 173.422 227.803 174.693C228.091 176.043 228.193 177.425 228.108 178.802C227.969 180.97 227.54 183.132 226.341 184.781C225.745 185.555 224.95 186.154 224.041 186.512C223.215 186.844 222.326 186.993 221.436 186.949C220.787 186.955 220.146 186.797 219.573 186.492C219.068 186.228 218.602 185.897 218.187 185.508C217.535 184.858 217.017 184.086 216.663 183.236C216.426 182.699 216.262 182.133 216.178 181.552C216.155 181.401 216.141 181.248 216.136 181.095C216.127 181.042 216.127 180.988 216.136 180.935C216.277 181.704 216.51 182.453 216.829 183.166C217.199 183.98 217.721 184.716 218.367 185.335C218.785 185.701 219.252 186.009 219.753 186.249C220.288 186.525 220.883 186.666 221.485 186.658C222.362 186.702 223.238 186.536 224.039 186.175C224.84 185.813 225.544 185.266 226.092 184.58C227.207 183.035 227.637 180.908 227.768 178.788C227.921 176.017 227.457 173.287 225.898 171.444C225.201 170.561 224.269 169.891 223.21 169.511C222.73 169.352 222.226 169.28 221.72 169.297C221.252 169.302 220.786 169.369 220.335 169.497C219.56 169.721 218.849 170.122 218.256 170.668C217.803 171.083 217.414 171.561 217.099 172.089C216.842 172.542 216.611 173.009 216.407 173.488Z" fill="#263238"/>
<path d="M214.515 181.074C214.662 182.49 215.207 183.835 216.088 184.954C216.885 186 218.52 187.032 219.829 186.942C220.815 186.992 221.798 186.785 222.681 186.342C223.563 185.898 224.316 185.234 224.866 184.413C226.459 181.871 226.854 176.592 225.558 173.467C224.679 171.313 222.704 169.31 220.383 169.262C219.094 169.251 217.839 169.675 216.82 170.466C215.802 171.257 215.08 172.368 214.772 173.62" fill="#E0E0E0"/>
<path d="M214.786 173.62C214.887 173.095 215.077 172.591 215.347 172.13C215.648 171.573 216.034 171.066 216.49 170.627C217.461 169.691 218.751 169.156 220.099 169.13C220.636 169.102 221.174 169.172 221.686 169.338C222.802 169.733 223.782 170.437 224.512 171.368C225.337 172.372 225.908 173.56 226.175 174.832C226.468 176.18 226.573 177.563 226.487 178.94C226.348 181.109 225.919 183.263 224.72 184.919C224.124 185.694 223.329 186.292 222.42 186.651C221.593 186.983 220.705 187.131 219.815 187.087C219.165 187.091 218.524 186.932 217.952 186.623C217.446 186.365 216.98 186.036 216.566 185.646C215.91 184.997 215.391 184.222 215.042 183.367C214.805 182.833 214.642 182.269 214.557 181.691C214.557 181.49 214.515 181.337 214.508 181.233C214.501 181.181 214.501 181.127 214.508 181.074C214.65 181.84 214.883 182.587 215.201 183.298C215.567 184.117 216.089 184.856 216.739 185.473C217.157 185.84 217.624 186.147 218.125 186.388C218.661 186.661 219.255 186.801 219.857 186.797C220.733 186.839 221.608 186.673 222.407 186.311C223.207 185.95 223.91 185.404 224.457 184.718C225.579 183.166 226.009 181.046 226.14 178.926C226.293 176.155 225.829 173.426 224.27 171.583C223.584 170.692 222.659 170.014 221.603 169.629C221.125 169.47 220.623 169.398 220.12 169.414C218.834 169.434 217.601 169.927 216.656 170.8C216.203 171.214 215.813 171.693 215.499 172.22C215.232 172.671 214.994 173.139 214.786 173.62Z" fill="#263238"/>
<path d="M217.46 172.844C216.691 172.746 215.912 172.902 215.24 173.289C214.568 173.675 214.041 174.271 213.739 174.984C213.164 176.437 213.164 178.055 213.739 179.508C213.978 180.261 214.372 180.955 214.896 181.545C215.431 182.139 216.177 182.5 216.975 182.55C217.552 182.517 218.113 182.347 218.611 182.053C219.109 181.758 219.529 181.349 219.836 180.859C220.372 180.096 220.737 179.226 220.906 178.309C221.074 177.392 221.043 176.449 220.813 175.545C220.494 174.34 219.607 173.114 218.367 173.079" fill="#E0E0E0"/>
<path d="M218.36 173.079C218.36 173.079 218.457 173.079 218.637 173.079C218.905 173.11 219.162 173.197 219.393 173.336C219.801 173.608 220.151 173.959 220.422 174.368C220.694 174.777 220.881 175.236 220.972 175.719C221.31 177.14 221.159 178.634 220.543 179.959C220.197 180.753 219.665 181.451 218.991 181.995C218.628 182.308 218.197 182.529 217.732 182.641C217.267 182.753 216.781 182.753 216.317 182.64C215.409 182.351 214.646 181.726 214.183 180.894C213.758 180.149 213.458 179.339 213.296 178.497C213.123 177.793 213.095 177.062 213.214 176.347C213.333 175.632 213.597 174.949 213.989 174.34C214.27 173.938 214.627 173.595 215.041 173.331C215.455 173.067 215.916 172.887 216.4 172.802C216.664 172.763 216.932 172.763 217.196 172.802C217.37 172.837 217.46 172.864 217.46 172.878C217.114 172.866 216.769 172.887 216.427 172.941C215.514 173.153 214.716 173.705 214.197 174.486C213.838 175.074 213.602 175.729 213.503 176.412C213.404 177.094 213.445 177.789 213.622 178.455C213.783 179.257 214.076 180.027 214.488 180.735C214.906 181.487 215.594 182.051 216.414 182.314C216.824 182.414 217.253 182.415 217.664 182.316C218.075 182.218 218.456 182.022 218.776 181.746C219.405 181.234 219.907 180.585 220.245 179.848C220.844 178.588 221.012 177.166 220.723 175.802C220.577 174.879 220.081 174.047 219.337 173.481C219.039 173.288 218.708 173.151 218.36 173.079Z" fill="#263238"/>
<path d="M220.951 184.233C220.896 184.233 220.82 184.011 220.584 183.734C220.267 183.378 219.857 183.116 219.399 182.979C218.926 182.843 218.437 182.766 217.945 182.751C217.564 182.751 217.314 182.688 217.314 182.64C217.314 182.591 217.55 182.536 217.945 182.494C218.471 182.438 219.002 182.485 219.51 182.633C220.04 182.785 220.495 183.125 220.792 183.589C221.007 183.949 220.993 184.226 220.951 184.233Z" fill="#263238"/>
<path d="M221.499 171.901C221.499 171.901 221.388 172.144 221.069 172.4C220.641 172.728 220.139 172.947 219.607 173.038C219.077 173.134 218.531 173.106 218.014 172.954C217.626 172.823 217.418 172.67 217.439 172.629C218.126 172.736 218.825 172.755 219.517 172.684C220.207 172.506 220.873 172.243 221.499 171.901Z" fill="#263238"/>
<path d="M269.101 122.277C269.101 122.277 269.184 122.277 269.329 122.36C269.541 122.454 269.746 122.561 269.946 122.678C270.688 123.099 271.385 123.596 272.024 124.161C274.154 126.038 275.703 128.485 276.486 131.214C277.306 133.894 277.874 136.645 278.183 139.43C278.308 140.497 278.37 141.363 278.412 141.959C278.447 142.27 278.447 142.583 278.412 142.894C278.334 142.592 278.283 142.284 278.259 141.973C278.169 141.315 278.051 140.469 277.92 139.465C277.536 136.706 276.936 133.982 276.125 131.318C275.355 128.65 273.875 126.241 271.844 124.348C270.982 123.591 270.065 122.898 269.101 122.277Z" fill="#263238"/>
<path d="M260.468 198.532C262.477 198.456 264.085 196.454 266.094 196.565C266.458 196.596 266.812 196.698 267.136 196.866C267.461 197.034 267.749 197.264 267.984 197.543C268.22 197.822 268.398 198.145 268.509 198.493C268.619 198.841 268.66 199.208 268.629 199.572C268.598 199.936 268.496 200.29 268.328 200.614C268.16 200.939 267.93 201.227 267.651 201.462C267.372 201.698 267.049 201.876 266.701 201.986C266.353 202.097 265.987 202.138 265.623 202.107C263.51 201.865 262.276 199.391 260.212 198.92" fill="#263238"/>
<path d="M277.497 200.244C276.868 200.243 276.241 200.192 275.62 200.091L275.731 199.398C278.211 199.793 280.296 199.398 281.924 198.186C284.003 196.683 285.298 193.988 285.852 190.177V190.032C286.081 188.522 286.393 158.891 286.393 153.265C286.393 144.474 278.682 143.275 278.349 143.227C278.017 143.178 271.027 142 267.306 151.596C263.413 161.648 257.185 181.019 256.776 183.291C256.72 183.568 256.644 183.914 256.561 184.309C255.91 187.219 254.566 193.267 258.598 196.745C263.094 200.632 266.641 199.128 266.787 199.066L267.071 199.696C266.904 199.766 262.997 201.463 258.147 197.272C253.797 193.517 255.203 187.198 255.882 184.157C255.972 183.769 256.041 183.464 256.09 183.166C256.506 180.88 262.755 161.426 266.662 151.346C270.569 141.266 278.384 142.527 278.439 142.548C278.495 142.569 287.058 143.864 287.058 153.265C287.058 157.9 286.753 188.528 286.51 190.136V190.274C285.928 194.279 284.515 197.126 282.305 198.747C280.906 199.752 279.219 200.277 277.497 200.244Z" fill="#263238"/>
<path d="M286.76 158.939C286.453 157.72 285.967 156.553 285.319 155.475C284.582 154.339 283.656 153.336 282.582 152.51C281.26 151.512 279.742 150.804 278.128 150.432C275.162 149.779 272.062 150.183 269.364 151.575C268.262 152.177 267.236 152.91 266.309 153.757C266.352 153.681 266.406 153.611 266.468 153.549C266.626 153.351 266.8 153.166 266.988 152.995C267.661 152.349 268.418 151.797 269.239 151.353C271.976 149.855 275.165 149.402 278.211 150.078C279.874 150.471 281.434 151.218 282.783 152.268C283.887 153.123 284.826 154.172 285.554 155.364C286.042 156.163 286.402 157.032 286.621 157.942C286.687 158.188 286.735 158.437 286.767 158.69C286.767 158.842 286.774 158.939 286.76 158.939Z" fill="#263238"/>
<path d="M304.405 214.321C304.15 213.318 303.83 212.332 303.449 211.37C302.465 209.074 300.832 207.114 298.752 205.73C297.587 205.018 296.292 204.547 294.942 204.345C293.828 204.172 292.707 204.056 291.582 203.999L289.302 203.839C289.022 203.832 288.744 203.794 288.471 203.728C288.749 203.694 289.031 203.694 289.309 203.728L291.596 203.77C292.732 203.795 293.865 203.888 294.99 204.047C296.391 204.23 297.738 204.702 298.946 205.433C301.087 206.85 302.742 208.891 303.685 211.28C303.973 211.992 304.187 212.733 304.322 213.49C304.386 213.762 304.414 214.042 304.405 214.321Z" fill="#263238"/>
<path d="M269.454 202.765C269.454 202.765 276.271 192.45 278.01 191.099C279.749 189.748 294.637 183.028 296.362 184.108C298.087 185.189 297.055 187.531 297.055 187.531C297.055 187.531 303.345 185.328 304.017 186.194C304.379 186.715 304.572 187.333 304.572 187.967C304.572 188.601 304.379 189.22 304.017 189.741C304.017 189.741 307.481 189.207 307.481 190.281C307.467 191.002 307.277 191.709 306.927 192.339C306.577 192.97 306.077 193.505 305.472 193.898C303.865 195.103 293.411 202.059 292.572 203.985L289.185 203.777L269.454 202.765Z" fill="#B78876"/>
<path d="M289.06 199.807C289.137 199.578 289.241 199.359 289.372 199.156C289.703 198.592 290.079 198.054 290.494 197.549C291.887 195.887 293.559 194.481 295.434 193.392C297.299 192.301 299.255 191.374 301.281 190.621C302.05 190.323 302.666 190.101 303.117 189.928C303.339 189.836 303.572 189.771 303.809 189.734C303.611 189.871 303.394 189.981 303.165 190.06L301.371 190.828C299.393 191.638 297.472 192.58 295.621 193.648C293.779 194.723 292.115 196.076 290.688 197.659C289.607 198.941 289.122 199.842 289.06 199.807Z" fill="#AA6550"/>
<path d="M280.421 199.641C280.502 199.377 280.613 199.124 280.753 198.886C280.989 198.408 281.328 197.722 281.799 196.891C282.343 195.914 282.971 194.986 283.677 194.119C284.096 193.592 284.575 193.115 285.104 192.699C285.679 192.311 286.282 191.951 286.912 191.577C289.043 190.307 291.266 189.2 293.563 188.265C294.259 187.99 294.972 187.759 295.697 187.572C295.963 187.496 296.237 187.447 296.514 187.427C296.514 187.489 295.385 187.753 293.66 188.529C291.406 189.527 289.213 190.659 287.092 191.916C286.469 192.283 285.866 192.651 285.305 193.018C284.795 193.411 284.33 193.859 283.919 194.355C283.209 195.202 282.57 196.105 282.007 197.057L280.857 198.983C280.736 199.217 280.589 199.438 280.421 199.641Z" fill="#AA6550"/>
</g>
<defs>
<clipPath id="clip0">
<rect width="332.16" height="271" fill="white" transform="translate(0.420227)"/>
</clipPath>
</defs>
</svg>
