<svg width="28" height="25" viewBox="0 0 28 25" fill="none" xmlns="http://www.w3.org/2000/svg">
<g clip-path="url(#clip0)">
<path d="M1.75 0H10.5C10.9641 0 11.4092 0.184374 11.7374 0.512563C12.0656 0.840752 12.25 1.28587 12.25 1.75C12.25 1.75 12.4775 3.35475 14 3.5H26.25C27.216 3.5 28 4.256 28 5.222V7H0V1.75C0 1.28587 0.184376 0.840752 0.512564 0.512563C0.840752 0.184374 1.28587 0 1.75 0ZM28 22.75C28 23.2141 27.8156 23.6592 27.4874 23.9874C27.1592 24.3156 26.7141 24.5 26.25 24.5H1.75C1.28587 24.5 0.840752 24.3156 0.512564 23.9874C0.184376 23.6592 0 23.2141 0 22.75V8.75H28V22.75Z" fill="white"/>
</g>
<defs>
<clipPath id="clip0">
<rect width="28" height="24.5" fill="white" transform="matrix(-1 0 0 1 28 0)"/>
</clipPath>
</defs>
</svg>
