<svg width="28" height="26" viewBox="0 0 28 26" fill="none" xmlns="http://www.w3.org/2000/svg">
<g clip-path="url(#clip0)">
<path d="M14 0C14 0 5.3396 7.476 0.4998 11.5248C0.345796 11.659 0.221718 11.824 0.135616 12.0093C0.0495132 12.1945 0.00330906 12.3958 0 12.6C0 12.9713 0.1475 13.3274 0.41005 13.5899C0.672601 13.8525 1.0287 14 1.4 14H4.2V23.8C4.2 24.1713 4.3475 24.5274 4.61005 24.7899C4.8726 25.0525 5.2287 25.2 5.6 25.2H9.8C10.1713 25.2 10.5274 25.0525 10.7899 24.7899C11.0525 24.5274 11.2 24.1713 11.2 23.8V18.2H16.8V23.8C16.8 24.1713 16.9475 24.5274 17.2101 24.7899C17.4726 25.0525 17.8287 25.2 18.2 25.2H22.4C22.7713 25.2 23.1274 25.0525 23.3899 24.7899C23.6525 24.5274 23.8 24.1713 23.8 23.8V14H26.6C26.9713 14 27.3274 13.8525 27.59 13.5899C27.8525 13.3274 28 12.9713 28 12.6C27.998 12.3918 27.9488 12.1869 27.8559 12.0006C27.763 11.8143 27.6289 11.6516 27.4638 11.5248C22.6576 7.476 14 0 14 0Z" fill="white"/>
</g>
<defs>
<clipPath id="clip0">
<rect width="28" height="25.2" fill="white"/>
</clipPath>
</defs>
</svg>
