<svg width="137" height="140" viewBox="0 0 137 140" fill="none" xmlns="http://www.w3.org/2000/svg">
<g clip-path="url(#clip0)">
<path d="M42.0724 16.2057C42.0724 16.2057 19.4794 27.7182 8.21507 45.4586C-3.04927 63.1991 -2.17005 86.0035 11.5267 102.951C25.2234 119.898 51.3945 117.655 73.3105 128.393C95.2264 139.13 119.419 136.915 129.77 114.181C140.121 91.4473 124.507 82.9523 121.805 56.6433C119.103 30.3343 95.4194 -8.19169 42.0724 16.2057Z" fill="#5B63F6"/>
<path opacity="0.7" d="M42.0724 16.2057C42.0724 16.2057 19.4794 27.7182 8.21507 45.4586C-3.04927 63.1991 -2.17005 86.0035 11.5267 102.951C25.2234 119.898 51.3945 117.655 73.3105 128.393C95.2264 139.13 119.419 136.915 129.77 114.181C140.121 91.4473 124.507 82.9523 121.805 56.6433C119.103 30.3343 95.4194 -8.19169 42.0724 16.2057Z" fill="white"/>
<path d="M70.6482 139.936C104.248 139.936 131.485 138.667 131.485 137.102C131.485 135.537 104.248 134.268 70.6482 134.268C37.0488 134.268 9.81104 135.537 9.81104 137.102C9.81104 138.667 37.0488 139.936 70.6482 139.936Z" fill="#263238"/>
<path d="M111.839 6.65996C112.274 7.38907 113.846 8.45821 113.846 8.46127C113.846 8.46434 114.238 7.21138 114.253 7.12867C114.419 6.17594 114.183 4.23677 113.227 3.7313C113.066 3.65096 112.889 3.60559 112.709 3.59818C112.529 3.59076 112.349 3.62145 112.182 3.68825C112.015 3.75505 111.863 3.85645 111.738 3.98582C111.612 4.11518 111.515 4.26959 111.453 4.43895C111.169 5.14968 111.469 6.04114 111.839 6.65996Z" fill="#263238"/>
<path d="M127.243 18.1786C127.243 18.1969 128.257 17.3514 128.315 17.2902C128.98 16.5886 129.847 14.8394 129.335 13.8928C129.244 13.7371 129.122 13.6022 128.976 13.497C128.83 13.3918 128.663 13.3186 128.487 13.2822C128.31 13.2458 128.128 13.2469 127.953 13.2856C127.777 13.3243 127.611 13.3997 127.466 13.5068C126.835 13.9387 126.593 14.8486 126.547 15.5716C126.52 16.4171 127.243 18.1786 127.243 18.1786Z" fill="#263238"/>
<path d="M109.171 11.5247C109.759 12.0884 111.426 12.6735 111.558 12.7195C111.221 13.6681 110.949 14.6384 110.743 15.6236C110.617 16.1965 110.51 16.7816 110.409 17.3667C110.409 17.0941 110.409 16.846 110.409 16.8123C110.32 15.8503 109.582 14.0551 108.522 13.807C108.344 13.7714 108.161 13.7737 107.985 13.8138C107.808 13.8539 107.642 13.9308 107.498 14.0396C107.353 14.1484 107.233 14.2865 107.146 14.4449C107.058 14.6034 107.005 14.7785 106.99 14.9589C106.901 15.7186 107.425 16.4906 107.946 16.9991C108.467 17.5077 109.885 18.0346 110.262 18.1694C110.225 18.3961 110.185 18.6197 110.151 18.8464C109.983 19.9278 109.818 20.9908 109.625 22.063C109.557 22.4337 109.478 22.7983 109.398 23.1597C109.398 22.9177 109.398 22.7125 109.398 22.6818C109.309 21.7169 108.571 19.9247 107.514 19.6735C107.336 19.6384 107.154 19.6411 106.977 19.6814C106.801 19.7217 106.635 19.7987 106.491 19.9074C106.346 20.016 106.226 20.154 106.139 20.3122C106.051 20.4703 105.998 20.6452 105.982 20.8254C105.893 21.5851 106.417 22.3571 106.938 22.8687C107.459 23.3803 108.742 23.8521 109.187 24.0144C109.095 24.3821 109.003 24.7558 108.895 25.1081C108.819 25.3501 108.761 25.586 108.669 25.8249L108.411 26.5265C108.234 26.9676 108.053 27.4241 107.866 27.8499C107.741 28.1562 107.615 28.4289 107.489 28.7107C107.56 28.3431 107.685 27.6171 107.688 27.5558C107.747 26.5908 107.29 24.6915 106.279 24.2993C106.109 24.239 105.928 24.2154 105.748 24.2299C105.569 24.2444 105.394 24.2967 105.236 24.3835C105.077 24.4703 104.939 24.5895 104.83 24.7334C104.721 24.8773 104.644 25.0425 104.604 25.2184C104.398 25.9567 104.8 26.8083 105.238 27.3812C105.722 28.0123 107.217 28.8179 107.404 28.9129C107.192 29.3786 106.984 29.8319 106.791 30.2578C106.203 31.4832 105.657 32.5339 105.222 33.3212L105.814 33.744C106.239 32.9199 106.785 31.8263 107.373 30.5212C107.59 30.0495 107.811 29.5379 108.032 29.0109C108.563 29.1425 109.101 29.2448 109.643 29.3173C109.744 30.126 110.492 31.523 110.59 31.7037C110.155 31.9794 109.732 32.2398 109.327 32.4818C108.176 33.1742 107.165 33.7317 106.371 34.1545L107.015 34.614C107.756 34.1912 108.657 33.6643 109.661 33.0302C110.106 32.7514 110.58 32.4481 111.046 32.1295C111.187 32.2827 112.348 33.5265 113.08 33.8359C113.748 34.1177 114.673 34.2893 115.335 33.9063C115.493 33.8212 115.632 33.7037 115.742 33.5614C115.852 33.4192 115.931 33.2554 115.974 33.0806C116.017 32.9058 116.023 32.724 115.99 32.547C115.958 32.37 115.89 32.2016 115.788 32.053C115.154 31.1737 113.2 31.2136 112.281 31.5107C112.225 31.5291 111.668 31.7864 111.303 31.9549C111.499 31.8263 111.686 31.7007 111.885 31.5628C112.278 31.2963 112.664 31.0175 113.077 30.7173L113.668 30.2578C113.867 30.1107 114.06 29.9269 114.263 29.7615C114.716 29.3632 115.157 28.9405 115.592 28.5055C115.828 28.8486 116.683 30.0556 117.302 30.4354C117.92 30.8153 118.806 31.1217 119.516 30.8429C119.686 30.7835 119.842 30.6889 119.973 30.5653C120.104 30.4417 120.207 30.2918 120.276 30.1254C120.344 29.9591 120.377 29.7801 120.372 29.6002C120.367 29.4203 120.324 29.2435 120.246 29.0814C119.752 28.1195 117.816 27.856 116.86 28.0153C116.802 28.0153 116.131 28.2144 115.764 28.3217C116.021 28.0551 116.281 27.7947 116.536 27.519C117.268 26.7225 117.985 25.8923 118.705 25.0683L119.369 24.3177C119.452 24.4403 120.436 25.8985 121.128 26.3243C121.741 26.7011 122.635 27.0105 123.346 26.7317C123.515 26.6716 123.67 26.5765 123.8 26.4527C123.931 26.3289 124.033 26.1792 124.102 26.0131C124.171 25.8471 124.204 25.6684 124.199 25.4888C124.195 25.3091 124.152 25.1325 124.075 24.9702C123.582 24.0053 121.646 23.7449 120.69 23.9042C120.619 23.9042 119.651 24.1891 119.409 24.2718C119.896 23.7204 120.39 23.1781 120.895 22.6604C121.585 21.9609 122.32 21.307 123.095 20.7028C123.134 20.7611 124.155 22.2867 124.865 22.7217C125.478 23.0985 126.369 23.4079 127.083 23.1291C127.253 23.0693 127.408 22.9745 127.539 22.8508C127.669 22.7271 127.772 22.5773 127.841 22.4111C127.91 22.2449 127.943 22.0661 127.938 21.8863C127.933 21.7065 127.89 21.5298 127.812 21.3676C127.316 20.4057 125.38 20.1422 124.427 20.3015C124.363 20.3015 123.628 20.5221 123.278 20.6293L123.251 20.5742C124.037 19.9839 124.875 19.4652 125.754 19.0241C126.235 18.7729 126.706 18.5646 127.172 18.3685C127.334 18.6748 128.091 20.0503 128.679 20.5129C129.267 20.9755 130.101 21.3615 130.839 21.1624C131.014 21.1221 131.179 21.0453 131.323 20.9369C131.466 20.8285 131.586 20.6909 131.672 20.5333C131.759 20.3757 131.812 20.2015 131.826 20.0222C131.841 19.8429 131.818 19.6625 131.758 19.4928C131.372 18.4788 129.476 18.0101 128.511 18.0621C128.459 18.0621 127.926 18.151 127.54 18.2214C127.751 18.1357 127.969 18.0438 128.174 17.9672C128.937 17.6608 129.657 17.4556 130.294 17.2656C130.658 17.1615 130.989 17.0726 131.299 16.993C131.605 17.2105 132.888 18.0621 133.615 18.1969C134.341 18.3317 135.266 18.295 135.829 17.7772C135.966 17.6604 136.077 17.5161 136.154 17.3537C136.231 17.1913 136.273 17.0145 136.277 16.8348C136.282 16.655 136.248 16.4764 136.179 16.3104C136.11 16.1445 136.006 15.9951 135.875 15.8718C135.067 15.1519 133.167 15.6083 132.334 16.0985C132.264 16.1414 131.213 16.9317 131.228 16.944H131.246C130.94 17.0144 130.634 17.0941 130.275 17.186C129.632 17.3606 128.906 17.5659 128.131 17.8416C127.295 18.1317 126.477 18.4692 125.68 18.8525C124.775 19.282 123.909 19.7916 123.095 20.3751L123.067 20.3965C123.254 20.1422 123.759 19.4101 123.79 19.3488C124.246 18.4972 124.629 16.5917 123.876 15.8013C123.747 15.6759 123.594 15.5789 123.425 15.5166C123.256 15.4542 123.077 15.428 122.897 15.4396C122.718 15.4511 122.543 15.5002 122.384 15.5836C122.225 15.667 122.085 15.783 121.973 15.9239C121.48 16.509 121.486 17.4556 121.643 18.1541C121.823 18.9505 122.889 20.3567 122.975 20.47C122.168 21.0784 121.403 21.7395 120.684 22.449C120.264 22.8595 119.853 23.2884 119.458 23.7204C119.615 23.4967 119.765 23.2915 119.765 23.2639C120.221 22.4092 120.604 20.5068 119.85 19.7133C119.722 19.5879 119.568 19.4909 119.4 19.4286C119.231 19.3663 119.051 19.34 118.872 19.3516C118.693 19.3631 118.518 19.4122 118.359 19.4956C118.199 19.5791 118.06 19.695 117.948 19.8359C117.452 20.421 117.461 21.3676 117.617 22.0661C117.773 22.7646 118.665 23.9991 118.904 24.3208C118.748 24.4862 118.597 24.6547 118.438 24.8232C117.703 25.6319 116.971 26.4407 116.226 27.2158C115.966 27.4884 115.696 27.7457 115.43 28.0061C115.568 27.8039 115.684 27.6355 115.699 27.6079C116.156 26.7532 116.536 24.8508 115.782 24.0604C115.654 23.9343 115.501 23.8367 115.332 23.7739C115.164 23.711 114.984 23.6844 114.804 23.6957C114.625 23.7069 114.45 23.7559 114.29 23.8393C114.131 23.9227 113.991 24.0388 113.88 24.1799C113.387 24.765 113.393 25.7116 113.552 26.4101C113.711 27.1085 114.511 28.2267 114.777 28.6066C114.499 28.8639 114.217 29.1243 113.932 29.3602C113.733 29.5195 113.555 29.6849 113.347 29.8319L112.734 30.2761C112.342 30.5457 111.937 30.8276 111.548 31.0788C111.279 31.2565 111.018 31.4219 110.758 31.5904C111.022 31.3208 111.527 30.7847 111.564 30.7357C112.048 30.0359 112.346 29.2239 112.428 28.3768C112.485 28.3021 112.535 28.2221 112.578 28.1379C112.663 27.9794 112.715 27.8046 112.728 27.625C112.742 27.4454 112.718 27.2649 112.657 27.0953C112.596 26.9257 112.501 26.7707 112.376 26.6405C112.252 26.5103 112.101 26.4078 111.934 26.3396C110.92 25.9597 109.315 27.0687 108.712 27.8254C108.675 27.8683 108.344 28.3983 108.142 28.7444C108.231 28.5269 108.32 28.3186 108.411 28.095C108.589 27.6538 108.758 27.2096 108.938 26.7317C109.015 26.4989 109.098 26.263 109.177 26.0241C109.257 25.7851 109.321 25.5309 109.398 25.2796C109.557 24.7007 109.704 24.1033 109.815 23.4998C110.201 23.656 111.579 24.1921 112.305 24.1676C113.031 24.1431 113.966 23.895 114.407 23.2823C114.515 23.1388 114.592 22.974 114.633 22.7987C114.673 22.6235 114.677 22.4416 114.642 22.265C114.608 22.0884 114.537 21.921 114.433 21.7738C114.33 21.6266 114.197 21.5028 114.042 21.4105C113.099 20.8775 111.34 21.7169 110.632 22.3877C110.587 22.4306 110.13 22.9576 109.885 23.2547C109.959 22.8902 110.029 22.5287 110.09 22.158C110.262 21.0888 110.397 20.0136 110.547 18.9199C110.59 18.586 110.639 18.2582 110.685 17.9274C110.822 17.9825 112.446 18.6565 113.261 18.6289C113.981 18.6044 114.894 18.3716 115.335 17.7466C115.443 17.6027 115.52 17.4377 115.56 17.2623C115.6 17.0868 115.604 16.9049 115.569 16.7282C115.535 16.5515 115.464 16.384 115.361 16.2364C115.257 16.0889 115.124 15.9647 114.97 15.8718C114.027 15.3418 112.268 16.1965 111.561 16.8521C111.506 16.9011 110.85 17.6639 110.694 17.8661C110.798 17.137 110.908 16.4109 111.046 15.7033C111.221 14.743 111.46 13.7954 111.76 12.8665C111.824 12.8941 113.515 13.6018 114.348 13.5742C115.068 13.5497 115.981 13.3169 116.422 12.6919C116.531 12.5484 116.608 12.3837 116.649 12.2084C116.689 12.0331 116.692 11.8512 116.658 11.6746C116.624 11.498 116.552 11.3307 116.449 11.1834C116.346 11.0362 116.212 10.9124 116.058 10.8201C115.114 10.2902 113.356 11.1418 112.648 11.7974C112.602 11.8403 112.1 12.4101 111.87 12.7164L111.815 12.6858C112.144 11.7599 112.554 10.8649 113.04 10.0114C113.304 9.53961 113.583 9.09234 113.861 8.68184C114.168 8.84727 115.552 9.5825 116.312 9.6407C117.072 9.69891 117.966 9.56412 118.472 8.99125C118.595 8.86033 118.69 8.70488 118.75 8.53501C118.809 8.36514 118.832 8.18464 118.818 8.00524C118.803 7.82583 118.751 7.65153 118.664 7.49365C118.578 7.33578 118.459 7.19785 118.316 7.08884C117.436 6.45777 115.595 7.11335 114.817 7.70153C114.774 7.73217 114.379 8.09672 114.097 8.36937C114.226 8.1825 114.358 7.98644 114.483 7.80875C114.961 7.14398 115.439 6.56193 115.868 6.05339C116.113 5.76543 116.34 5.5081 116.554 5.27221C116.937 5.27221 118.469 5.27221 119.149 4.9965C119.829 4.72079 120.583 4.1663 120.766 3.42495C120.816 3.25203 120.828 3.07063 120.803 2.89256C120.778 2.71448 120.715 2.54373 120.62 2.39142C120.524 2.23911 120.397 2.10866 120.248 2.00857C120.098 1.90848 119.93 1.84099 119.752 1.81051C118.68 1.65733 117.348 3.0849 116.925 3.95493C116.888 4.02845 116.447 5.26915 116.468 5.26915H116.49C116.278 5.49278 116.055 5.73786 115.813 6.00744C115.375 6.50679 114.894 7.07965 114.388 7.73829C113.849 8.44111 113.351 9.1745 112.896 9.93479C112.383 10.7843 111.947 11.6784 111.594 12.6061C111.593 12.6173 111.593 12.6287 111.594 12.6398C111.613 12.3335 111.628 11.4359 111.622 11.3654C111.533 10.4035 110.795 8.60832 109.738 8.36018C109.56 8.32456 109.378 8.32688 109.201 8.36697C109.025 8.40705 108.859 8.48401 108.714 8.59278C108.569 8.70156 108.449 8.83969 108.362 8.99812C108.274 9.15654 108.221 9.33168 108.206 9.51204C108.127 10.2411 108.65 11.0284 109.171 11.5247Z" fill="#263238"/>
<path d="M80.7822 22.4245C81.5787 22.1182 82.9266 20.7856 82.9266 20.7856C82.9266 20.7856 81.7717 20.1729 81.7012 20.1392C80.7975 19.7991 78.8491 19.6735 78.1751 20.5221C78.0673 20.6657 77.9908 20.8304 77.9507 21.0055C77.9107 21.1806 77.9079 21.3622 77.9425 21.5384C77.9772 21.7146 78.0486 21.8816 78.152 22.0285C78.2554 22.1753 78.3885 22.2988 78.5428 22.3908C79.1708 22.8044 80.1051 22.6696 80.7822 22.4245Z" fill="#263238"/>
<path d="M94.9445 9.41401C94.966 9.41401 94.3318 8.26215 94.2706 8.18863C93.7038 7.40438 92.1476 6.22495 91.1183 6.55887C90.9488 6.61921 90.7939 6.71459 90.6637 6.8388C90.5336 6.963 90.431 7.11325 90.3628 7.27973C90.2946 7.44621 90.2622 7.6252 90.2678 7.80503C90.2734 7.98486 90.3169 8.16149 90.3953 8.32342C90.7016 9.02495 91.5533 9.43239 92.2579 9.59782C93.0727 9.80307 94.9445 9.41401 94.9445 9.41401Z" fill="#263238"/>
<path d="M85.068 25.9444C85.7327 25.4696 86.615 23.9409 86.6855 23.8184C87.5585 24.3251 88.4642 24.7734 89.3966 25.1602C89.9389 25.3899 90.4933 25.6013 91.0509 25.8096C90.7813 25.7514 90.5393 25.7024 90.5056 25.6993C89.5437 25.6105 87.629 26.0057 87.2032 27.0013C87.1374 27.1686 87.1076 27.3479 87.1155 27.5275C87.1235 27.7072 87.1691 27.8831 87.2494 28.044C87.3297 28.2048 87.4428 28.347 87.5816 28.4614C87.7204 28.5757 87.8816 28.6596 88.0548 28.7077C88.7839 28.9344 89.6509 28.5637 90.2391 28.144C90.8273 27.7243 91.6146 26.4284 91.8137 26.0853L92.457 26.3182C93.4894 26.6827 94.5218 27.0442 95.5205 27.4271C95.8728 27.565 96.2128 27.709 96.5559 27.856C96.32 27.8039 96.1179 27.7641 96.0872 27.7611C95.1222 27.6722 93.2106 28.0674 92.7848 29.06C92.718 29.2272 92.6872 29.4067 92.6945 29.5867C92.7018 29.7666 92.7469 29.943 92.827 30.1043C92.9071 30.2657 93.0203 30.4083 93.1593 30.5229C93.2982 30.6375 93.4598 30.7215 93.6334 30.7694C94.3656 30.9961 95.2295 30.6254 95.8176 30.2057C96.4058 29.786 97.1165 28.6158 97.3494 28.2083C97.6955 28.3676 98.0448 28.5147 98.3726 28.6954C98.5931 28.8179 98.8168 28.919 99.0343 29.0538L99.6776 29.4337C100.079 29.691 100.492 29.9514 100.875 30.2118C101.145 30.3926 101.399 30.5672 101.654 30.7449C101.304 30.607 100.615 30.3497 100.554 30.3344C99.6163 30.0985 97.6649 30.1965 97.092 31.1186C97.0015 31.2738 96.9447 31.4462 96.9252 31.6248C96.9057 31.8034 96.924 31.9841 96.9789 32.1551C97.0338 32.3261 97.124 32.4837 97.2438 32.6176C97.3636 32.7515 97.5102 32.8587 97.6741 32.9322C98.3634 33.2691 99.2732 33.0333 99.9196 32.7085C100.627 32.3501 101.696 31.0298 101.828 30.8705C102.248 31.1768 102.655 31.4525 103.035 31.7313C104.141 32.54 105.063 33.263 105.765 33.839L106.289 33.3396C105.556 32.7667 104.582 32.0284 103.409 31.1952C102.983 30.8888 102.52 30.5825 102.043 30.2761C102.269 29.7778 102.465 29.2663 102.631 28.7444C103.446 28.7934 104.956 28.3155 105.152 28.2543C105.342 28.7291 105.523 29.1947 105.685 29.639C106.151 30.898 106.512 31.9947 106.782 32.8525L107.352 32.3042C107.076 31.4985 106.72 30.5151 106.282 29.4092C106.092 28.9252 105.881 28.4105 105.654 27.8775C105.832 27.7672 107.269 26.8573 107.707 26.1926C108.105 25.5799 108.445 24.7098 108.191 23.9899C108.137 23.8183 108.047 23.66 107.928 23.5254C107.809 23.3907 107.662 23.2827 107.498 23.2084C107.334 23.1341 107.157 23.0952 106.977 23.0942C106.797 23.0932 106.619 23.1302 106.454 23.2026C105.474 23.6621 105.152 25.5891 105.278 26.5479C105.278 26.6061 105.431 27.2096 105.532 27.5895C105.44 27.3751 105.351 27.1667 105.253 26.9462C105.063 26.5112 104.858 26.0823 104.64 25.6197C104.53 25.3991 104.414 25.1786 104.3 24.9549C104.187 24.7313 104.046 24.5077 103.92 24.2779C103.614 23.7602 103.28 23.2486 102.931 22.7462C103.314 22.5777 104.659 21.9619 105.146 21.4228C105.633 20.8836 106.099 20.0718 105.955 19.3212C105.928 19.1433 105.863 18.973 105.766 18.8216C105.669 18.6702 105.541 18.541 105.39 18.4424C105.239 18.3438 105.07 18.2781 104.892 18.2495C104.714 18.221 104.532 18.2302 104.359 18.2766C103.32 18.5829 102.707 20.4394 102.686 21.4074C102.686 21.4687 102.747 22.1641 102.787 22.544C102.576 22.2376 102.367 21.9313 102.144 21.6249C101.494 20.758 100.814 19.9002 100.137 19.0425C99.9288 18.779 99.7235 18.5155 99.5244 18.249C99.6592 18.1908 101.274 17.4923 101.819 16.8919C102.303 16.3558 102.772 15.5379 102.631 14.7873C102.603 14.6093 102.539 14.4391 102.441 14.2877C102.343 14.1364 102.215 14.0074 102.064 13.9091C101.913 13.8108 101.743 13.7454 101.565 13.7173C101.387 13.6891 101.206 13.6988 101.032 13.7457C99.9962 14.0521 99.3835 15.9085 99.3621 16.8766C99.3621 16.947 99.4509 17.9488 99.4846 18.2031C99.0343 17.621 98.5901 17.0359 98.1765 16.4446C97.6124 15.6465 97.1007 14.8125 96.6448 13.9479C96.706 13.9204 98.3971 13.2004 98.9546 12.5816C99.4387 12.0486 99.9074 11.2306 99.7664 10.4801C99.7385 10.3022 99.6736 10.1322 99.5759 9.98104C99.4781 9.82986 99.3497 9.70086 99.199 9.60241C99.0483 9.50395 98.8786 9.43821 98.7009 9.40946C98.5232 9.3807 98.3414 9.38955 98.1673 9.43545C97.1288 9.7418 96.5192 11.6013 96.4977 12.5663C96.4977 12.6306 96.5621 13.3934 96.6049 13.7549L96.5437 13.7733C96.1096 12.8874 95.7549 11.9647 95.4837 11.0162C95.3275 10.4985 95.208 9.99606 95.1008 9.50285C95.4316 9.39869 96.9236 8.91466 97.4903 8.41532C98.057 7.91598 98.587 7.18994 98.5257 6.41488C98.5195 6.23401 98.4752 6.0565 98.3955 5.89399C98.3159 5.73147 98.2028 5.58764 98.0636 5.47193C97.9245 5.35621 97.7624 5.27123 97.5881 5.22255C97.4138 5.17388 97.2312 5.16261 97.0522 5.1895C95.9861 5.3825 95.1774 7.1593 95.0487 8.11817C95.0487 8.17024 95.0273 8.70941 95.0242 9.10153C94.9813 8.8779 94.9292 8.64814 94.8925 8.4337C94.7454 7.62495 94.6627 6.88053 94.5861 6.21882C94.5494 5.83895 94.5249 5.49891 94.5034 5.18031C94.773 4.91073 95.8483 3.81707 96.1117 3.12473C96.3752 2.43239 96.5161 1.51948 96.1117 0.870026C96.022 0.714063 95.9004 0.578762 95.7549 0.472941C95.6094 0.36712 95.4432 0.293155 95.2671 0.255869C95.0911 0.218583 94.9092 0.218812 94.7333 0.256541C94.5574 0.29427 94.3913 0.368653 94.2461 0.47484C93.3883 1.13655 93.4864 3.08797 93.8141 3.99782C93.8417 4.0744 94.4268 5.25383 94.4421 5.24158L94.4575 5.2232C94.4575 5.52954 94.4881 5.86346 94.5157 6.22189C94.5708 6.88666 94.6382 7.64027 94.7669 8.45208C94.8944 9.32904 95.0745 10.1976 95.306 11.053C95.558 12.0125 95.8953 12.9475 96.3139 13.8468L96.3323 13.8775C96.1148 13.6446 95.4898 13.0166 95.4378 12.9584C94.6842 12.3457 92.8706 11.6228 91.9669 12.2201C91.8192 12.323 91.6948 12.4558 91.6019 12.6099C91.5089 12.7641 91.4496 12.9361 91.4276 13.1147C91.4056 13.2934 91.4216 13.4746 91.4744 13.6467C91.5272 13.8188 91.6157 13.9778 91.734 14.1133C92.2181 14.7046 93.1432 14.8731 93.8785 14.8455C94.6934 14.8179 96.2741 14.0306 96.3997 13.9663C96.8503 14.8721 97.362 15.7462 97.9314 16.5825C98.2561 17.0726 98.6023 17.5536 98.9516 18.0346C98.7586 17.8385 98.587 17.667 98.5594 17.6455C97.8058 17.0328 95.9923 16.3098 95.0885 16.9072C94.9408 17.0101 94.8165 17.1429 94.7235 17.297C94.6306 17.4512 94.5712 17.6232 94.5493 17.8018C94.5273 17.9805 94.5432 18.1617 94.596 18.3338C94.6488 18.5059 94.7373 18.6649 94.8557 18.8004C95.3397 19.3917 96.2649 19.5602 97.0001 19.5357C97.7354 19.5112 99.0925 18.8648 99.4509 18.6871C99.5888 18.8709 99.7205 19.0547 99.8583 19.2355C100.517 20.1116 101.179 20.9816 101.801 21.8516C102.021 22.158 102.226 22.4643 102.432 22.7707L102.092 22.4306C101.338 21.8179 99.5244 21.098 98.6207 21.6923C98.473 21.7952 98.3486 21.928 98.2557 22.0822C98.1628 22.2363 98.1034 22.4083 98.0814 22.5869C98.0595 22.7656 98.0754 22.9469 98.1282 23.1189C98.181 23.291 98.2695 23.45 98.3879 23.5856C98.8688 24.1799 99.7971 24.3484 100.532 24.3208C101.268 24.2932 102.493 23.7081 102.919 23.5059C103.121 23.8306 103.323 24.1554 103.504 24.477C103.62 24.7007 103.749 24.909 103.856 25.1387C103.963 25.3685 104.077 25.5891 104.184 25.8127C104.377 26.2477 104.576 26.695 104.754 27.1239C104.879 27.4302 104.993 27.709 105.109 27.9969C104.895 27.6906 104.46 27.0779 104.42 27.0473C103.821 26.4414 103.078 25.9985 102.26 25.7606C102.197 25.6902 102.128 25.6266 102.052 25.5707C101.912 25.4574 101.749 25.375 101.575 25.3288C101.401 25.2826 101.219 25.2737 101.041 25.3026C100.863 25.3315 100.694 25.3976 100.543 25.4966C100.393 25.5956 100.265 25.7252 100.168 25.877C99.6071 26.7961 100.398 28.5882 101.032 29.3173C101.068 29.3602 101.528 29.7829 101.819 30.0464C101.623 29.9177 101.436 29.7921 101.234 29.6635C100.833 29.4061 100.425 29.158 99.9901 28.8945L99.3376 28.5269C99.1231 28.3983 98.878 28.291 98.6483 28.1746C98.106 27.9081 97.5454 27.6661 96.9756 27.4333C97.1993 27.084 97.9804 25.828 98.0907 25.1112C98.201 24.3943 98.1397 23.4569 97.6067 22.9085C97.4863 22.7747 97.3392 22.6677 97.1748 22.5945C97.0104 22.5213 96.8324 22.4834 96.6524 22.4834C96.4725 22.4834 96.2945 22.5213 96.1301 22.5945C95.9657 22.6677 95.8185 22.7747 95.6982 22.9085C95.0028 23.7387 95.5174 25.6228 96.0321 26.4407C96.0627 26.4928 96.5008 27.0534 96.7459 27.3322C96.3997 27.1974 96.0566 27.0595 95.7043 26.9309C94.6872 26.5663 93.6457 26.2263 92.6071 25.8832L91.6575 25.5768C91.7371 25.4543 92.699 23.9807 92.8216 23.1751C92.9288 22.4613 92.8706 21.5208 92.3376 20.9755C92.2172 20.8417 92.07 20.7347 91.9056 20.6615C91.7412 20.5882 91.5633 20.5504 91.3833 20.5504C91.2033 20.5504 91.0253 20.5882 90.8609 20.6615C90.6965 20.7347 90.5494 20.8417 90.429 20.9755C89.7336 21.8057 90.2483 23.6928 90.7629 24.5107C90.7997 24.572 91.4277 25.3562 91.5993 25.5492C90.9008 25.3103 90.2084 25.0713 89.5375 24.8048C88.6283 24.4526 87.7422 24.0433 86.8846 23.5794C86.9214 23.5212 87.9323 21.9864 88.0579 21.1654C88.1682 20.4516 88.1069 19.5112 87.5739 18.9628C87.4535 18.829 87.3063 18.722 87.1419 18.6488C86.9775 18.5755 86.7996 18.5377 86.6196 18.5377C86.4396 18.5377 86.2617 18.5755 86.0973 18.6488C85.9329 18.722 85.7857 18.829 85.6653 18.9628C84.9699 19.793 85.4846 21.677 85.9993 22.495C86.033 22.5501 86.5108 23.1475 86.7437 23.414L86.7038 23.463C85.8552 22.9666 85.0524 22.3956 84.3052 21.7567C83.8885 21.4105 83.5087 21.0551 83.1502 20.7028C83.3677 20.4363 84.348 19.2079 84.541 18.4818C84.734 17.7558 84.7739 16.8429 84.3021 16.2394C84.1966 16.0937 84.0617 15.9718 83.906 15.8817C83.7503 15.7916 83.5773 15.7353 83.3984 15.7165C83.2195 15.6977 83.0386 15.7169 82.8676 15.7726C82.6966 15.8284 82.5392 15.9196 82.4058 16.0403C81.6216 16.7908 81.9279 18.7208 82.3476 19.5908C82.3721 19.6368 82.654 20.0932 82.8715 20.421C82.7122 20.2586 82.5437 20.0963 82.3936 19.937C81.8268 19.3457 81.3428 18.7698 80.9231 18.2551C80.6841 17.9488 80.4758 17.6884 80.2798 17.4341C80.3594 17.0604 80.6505 15.5562 80.4912 14.8333C80.3319 14.1103 79.9397 13.2709 79.2443 12.9523C79.0771 12.8701 78.8941 12.8253 78.7079 12.821C78.5216 12.8166 78.3367 12.8529 78.1659 12.9272C77.995 13.0016 77.8425 13.1122 77.7187 13.2514C77.5949 13.3906 77.5029 13.5551 77.4491 13.7335C77.0999 14.7597 78.2579 16.3313 79.033 16.9103C79.1003 16.9593 80.2369 17.621 80.243 17.6026C80.2491 17.5842 80.243 17.5842 80.243 17.5781C80.4238 17.8293 80.6198 18.0958 80.8557 18.3807C81.2662 18.9046 81.738 19.4928 82.2925 20.0993C82.8833 20.7605 83.5124 21.3866 84.1765 21.9742C84.917 22.6347 85.7145 23.2283 86.5599 23.7479H86.5936C86.2872 23.6744 85.4141 23.4906 85.3467 23.4845C84.3848 23.3956 82.4701 23.7908 82.0443 24.7834C81.9781 24.9509 81.9478 25.1305 81.9555 25.3104C81.9632 25.4904 82.0087 25.6667 82.089 25.828C82.1693 25.9892 82.2827 26.1317 82.4217 26.2463C82.5608 26.3608 82.7223 26.4448 82.896 26.4928C83.6159 26.7348 84.4951 26.3641 85.068 25.9444Z" fill="#263238"/>
<path d="M35.4307 114.068C36.0005 114.264 36.9624 115.204 36.9624 115.204C36.9624 115.204 36.1475 115.661 36.0924 115.682C35.4521 115.94 34.0644 116.059 33.5711 115.465C33.4929 115.364 33.4366 115.247 33.406 115.123C33.3754 114.999 33.371 114.869 33.3932 114.743C33.4154 114.617 33.4637 114.497 33.535 114.391C33.6062 114.285 33.6989 114.194 33.807 114.126C34.2757 113.82 34.9436 113.899 35.4307 114.068Z" fill="#263238"/>
<path d="M45.7209 123.133C45.7209 123.133 45.292 123.963 45.2583 124.012C44.8662 124.579 43.7726 125.442 43.0343 125.219C42.9131 125.178 42.8019 125.111 42.7077 125.025C42.6136 124.938 42.5386 124.833 42.4875 124.715C42.4365 124.598 42.4105 124.471 42.4113 124.343C42.4121 124.215 42.4396 124.089 42.492 123.972C42.7034 123.47 43.3008 123.166 43.8001 123.038C44.3853 122.888 45.7209 123.133 45.7209 123.133Z" fill="#263238"/>
<path d="M38.4329 111.51C38.9139 111.838 39.5664 112.916 39.6185 113.002C40.2337 112.626 40.8733 112.293 41.5331 112.003C41.9161 111.835 42.3082 111.672 42.7003 111.519C42.5104 111.562 42.3388 111.602 42.3143 111.602C41.6312 111.681 40.2618 111.43 39.9401 110.726C39.892 110.607 39.869 110.48 39.8726 110.353C39.8763 110.225 39.9064 110.1 39.9612 109.985C40.0159 109.869 40.0941 109.767 40.1907 109.683C40.2873 109.6 40.4002 109.538 40.5222 109.5C41.0399 109.326 41.6618 109.577 42.0876 109.868C42.5135 110.159 43.0955 111.072 43.2426 111.314L43.699 111.136C44.4281 110.86 45.1572 110.588 45.8649 110.3C46.1161 110.199 46.3581 110.088 46.6001 109.993L46.2662 110.067C45.58 110.144 44.2106 109.892 43.892 109.188C43.8439 109.07 43.8209 108.943 43.8245 108.815C43.8281 108.687 43.8583 108.562 43.913 108.447C43.9678 108.332 44.0459 108.229 44.1425 108.146C44.2391 108.062 44.352 108 44.4741 107.962C44.9887 107.788 45.6106 108.042 46.0364 108.33C46.4622 108.618 46.9861 109.445 47.1668 109.733C47.4089 109.614 47.657 109.494 47.8868 109.368C48.043 109.28 48.1931 109.203 48.3524 109.105L48.8058 108.823C49.0876 108.636 49.3817 108.44 49.6513 108.25L50.1843 107.834C49.9362 107.938 49.4491 108.14 49.4062 108.14C48.7415 108.321 47.3476 108.278 46.9279 107.632C46.8614 107.522 46.8187 107.399 46.8024 107.272C46.7861 107.145 46.7966 107.016 46.8332 106.893C46.8699 106.77 46.9318 106.656 47.0152 106.558C47.0985 106.461 47.2013 106.382 47.317 106.326C47.801 106.078 48.4535 106.232 48.9191 106.455C49.3848 106.679 50.2089 107.625 50.3069 107.742C50.6132 107.527 50.8889 107.313 51.1555 107.111C51.9305 106.516 52.5769 105.983 53.0701 105.579L53.45 105.928C52.9353 106.345 52.2522 106.887 51.4281 107.488C51.1218 107.708 50.8154 107.938 50.4692 108.168C50.6372 108.519 50.7845 108.88 50.9104 109.249C51.5231 109.268 52.1302 109.371 52.7148 109.555C52.8434 109.212 52.966 108.878 53.0732 108.56C53.3795 107.656 53.6307 106.869 53.8084 106.253L54.222 106.633C54.0382 107.212 53.7992 107.919 53.5051 108.716C53.3765 109.062 53.2325 109.433 53.0793 109.813C53.208 109.886 54.2465 110.514 54.5682 110.983C54.8898 111.452 55.1165 112.028 54.945 112.545C54.9083 112.668 54.8464 112.781 54.7632 112.879C54.6801 112.976 54.5776 113.055 54.4622 113.11C54.3469 113.166 54.2213 113.196 54.0934 113.2C53.9655 113.204 53.8382 113.182 53.7196 113.133C53.015 112.827 52.7546 111.449 52.8281 110.762C52.8281 110.723 52.9292 110.291 52.9966 110.018C52.9323 110.171 52.8741 110.324 52.8067 110.481C52.678 110.787 52.5371 111.093 52.39 111.436C52.3134 111.593 52.2369 111.743 52.1572 111.914C52.0776 112.086 51.9826 112.239 51.8968 112.401C51.6854 112.778 51.4557 113.146 51.2137 113.513C51.4894 113.63 52.4574 114.049 52.8128 114.432C53.1682 114.815 53.5113 115.382 53.4255 115.921C53.4076 116.048 53.3636 116.169 53.2961 116.278C53.2287 116.386 53.1394 116.479 53.0339 116.552C52.9283 116.624 52.809 116.673 52.6833 116.696C52.5577 116.72 52.4286 116.716 52.3043 116.687C51.5598 116.485 51.0942 115.171 51.0789 114.481C51.0789 114.439 51.1095 113.942 51.134 113.67C50.987 113.89 50.8277 114.108 50.6868 114.325C50.2364 114.953 49.7677 115.575 49.2929 116.197C49.1489 116.387 49.008 116.58 48.8671 116.77C48.9651 116.81 50.1261 117.284 50.5244 117.707C50.8767 118.081 51.2229 118.657 51.1371 119.193C51.1193 119.32 51.0751 119.442 51.0075 119.55C50.9399 119.659 50.8503 119.753 50.7444 119.825C50.6385 119.897 50.5188 119.946 50.3928 119.969C50.2668 119.992 50.1374 119.989 50.0128 119.959C49.2684 119.757 48.8058 118.442 48.7874 117.753C48.7874 117.701 48.8334 116.987 48.8548 116.807C48.5485 117.226 48.2421 117.649 47.9358 118.078C47.5473 118.656 47.1953 119.257 46.8819 119.879C46.9279 119.898 48.1441 120.388 48.5515 120.82C48.9038 121.193 49.25 121.769 49.1642 122.309C49.1464 122.435 49.1023 122.557 49.0346 122.666C48.967 122.775 48.8774 122.868 48.7715 122.94C48.6657 123.012 48.5459 123.062 48.4199 123.085C48.2939 123.108 48.1645 123.104 48.0399 123.074C47.2955 122.869 46.8329 121.543 46.8145 120.869C46.8145 120.823 46.8482 120.277 46.8728 120.02H46.8299C46.5334 120.655 46.2945 121.315 46.1161 121.993C46.0119 122.364 45.9323 122.725 45.8649 123.081C46.1008 123.148 47.173 123.47 47.5835 123.819C47.994 124.168 48.383 124.686 48.3524 125.228C48.3487 125.356 48.3183 125.482 48.2631 125.597C48.2079 125.713 48.1292 125.816 48.032 125.899C47.9348 125.982 47.8213 126.045 47.6987 126.081C47.5761 126.118 47.4471 126.129 47.32 126.113C46.5572 125.994 45.9537 124.738 45.8465 124.058C45.8465 124.021 45.8251 123.638 45.8159 123.356C45.7883 123.519 45.7546 123.681 45.7331 123.834C45.6412 124.413 45.5922 124.946 45.5524 125.418C45.531 125.688 45.5187 125.933 45.5095 126.159C45.7056 126.349 46.4868 127.112 46.6859 127.602C46.885 128.092 46.9922 128.739 46.7196 129.207C46.657 129.319 46.5718 129.416 46.4695 129.493C46.3672 129.569 46.2501 129.624 46.1255 129.653C46.001 129.682 45.8718 129.684 45.7462 129.66C45.6206 129.636 45.5014 129.586 45.3962 129.514C44.7835 129.057 44.8141 127.676 45.0347 127.011C45.0561 126.953 45.4544 126.092 45.4636 126.113C45.4636 125.893 45.4636 125.657 45.4911 125.4C45.5187 124.925 45.5555 124.389 45.6351 123.81C45.7152 123.183 45.8308 122.561 45.9813 121.947C46.1474 121.259 46.3739 120.586 46.6583 119.937C46.6593 119.93 46.6593 119.923 46.6583 119.916C46.5082 120.084 46.0732 120.544 46.0456 120.575C45.5156 121.019 44.2351 121.564 43.5795 121.154C43.4733 121.082 43.3832 120.989 43.3152 120.88C43.2471 120.771 43.2026 120.649 43.1844 120.522C43.1662 120.395 43.1748 120.266 43.2096 120.143C43.2444 120.019 43.3047 119.904 43.3865 119.806C43.7235 119.377 44.3791 119.245 44.8968 119.251C45.4758 119.251 46.6154 119.8 46.7043 119.842C47.0053 119.187 47.3492 118.553 47.7336 117.943C47.9603 117.588 48.1992 117.239 48.4412 116.892C48.3064 117.033 48.1839 117.159 48.1655 117.174C47.6386 117.618 46.355 118.164 45.7148 117.753C45.6085 117.681 45.5184 117.588 45.4504 117.479C45.3823 117.371 45.3378 117.249 45.3196 117.122C45.3014 116.995 45.31 116.866 45.3448 116.742C45.3797 116.619 45.4399 116.504 45.5218 116.405C45.8557 115.976 46.5143 115.845 47.029 115.851C47.5436 115.857 48.5331 116.298 48.7905 116.418L49.0723 116.022C49.5288 115.388 49.9914 114.757 50.4202 114.126C50.5703 113.905 50.7266 113.679 50.8552 113.455C50.7358 113.581 50.6347 113.688 50.6163 113.7C50.0863 114.144 48.8058 114.69 48.1655 114.279C48.0597 114.207 47.9701 114.114 47.9023 114.006C47.8346 113.897 47.7902 113.776 47.772 113.649C47.7539 113.523 47.7623 113.394 47.7968 113.271C47.8314 113.148 47.8912 113.033 47.9725 112.934C48.3064 112.502 48.9651 112.371 49.4798 112.377C49.9944 112.383 50.8859 112.781 51.1922 112.922C51.3331 112.689 51.471 112.456 51.5966 112.224C51.6763 112.061 51.7651 111.917 51.8386 111.746C51.9121 111.574 51.9887 111.421 52.0622 111.262C52.1909 110.955 52.3288 110.625 52.4482 110.318C52.534 110.104 52.6106 109.898 52.6872 109.69C52.5401 109.914 52.2399 110.343 52.2093 110.376C51.7942 110.818 51.2718 111.146 50.6929 111.326C50.6477 111.376 50.5985 111.422 50.5458 111.464C50.4477 111.546 50.3334 111.607 50.2103 111.643C50.0873 111.678 49.9581 111.688 49.8312 111.67C49.7043 111.653 49.5824 111.609 49.4733 111.542C49.3643 111.475 49.2705 111.386 49.1979 111.28C48.7843 110.628 49.3235 109.344 49.7616 108.811C49.7892 108.78 50.1078 108.474 50.313 108.281C50.1752 108.376 50.0434 108.468 49.8994 108.563C49.6207 108.753 49.3327 108.933 49.0264 109.13L48.5668 109.402C48.4167 109.497 48.2421 109.577 48.0798 109.663C47.6999 109.862 47.3016 110.042 46.8973 110.214C47.0627 110.462 47.6386 111.347 47.7275 111.856C47.8163 112.365 47.7887 113.035 47.4211 113.434C47.3363 113.53 47.2323 113.607 47.1159 113.66C46.9995 113.714 46.8732 113.742 46.7451 113.744C46.617 113.746 46.49 113.72 46.3722 113.67C46.2544 113.62 46.1483 113.546 46.0609 113.452C45.5555 112.87 45.8924 111.519 46.2478 110.928C46.2692 110.891 46.5725 110.496 46.741 110.281C46.499 110.386 46.257 110.487 46.0058 110.588C45.2859 110.863 44.5476 111.121 43.8124 111.381C43.5887 111.458 43.3651 111.54 43.1415 111.623C43.1997 111.709 43.9073 112.744 44.0054 113.317C44.0942 113.823 44.0666 114.494 43.699 114.892C43.6144 114.988 43.5108 115.065 43.3948 115.118C43.2787 115.171 43.1529 115.2 43.0252 115.202C42.8975 115.204 42.7708 115.179 42.6531 115.13C42.5355 115.08 42.4295 115.006 42.3419 114.913C41.8334 114.331 42.1703 112.98 42.5257 112.389C42.5502 112.343 42.9883 111.776 43.1047 111.635C42.6115 111.816 42.1213 111.997 41.6465 112.199C41.0025 112.463 40.3772 112.77 39.7747 113.118C39.8023 113.158 40.5436 114.236 40.6478 114.821C40.7336 115.327 40.706 115.998 40.3415 116.396C40.2568 116.492 40.153 116.57 40.0367 116.623C39.9204 116.677 39.7942 116.706 39.6661 116.708C39.538 116.71 39.411 116.685 39.293 116.635C39.1751 116.585 39.0689 116.511 38.9813 116.418C38.4727 115.835 38.8097 114.484 39.1651 113.893C39.1896 113.853 39.5205 113.421 39.6828 113.219L39.6522 113.186C39.0545 113.551 38.4906 113.97 37.9673 114.435C37.6763 114.69 37.4128 114.947 37.1616 115.204C37.3178 115.391 38.0347 116.252 38.1848 116.767C38.3349 117.281 38.3747 117.934 38.05 118.369C37.9763 118.474 37.8814 118.562 37.7715 118.628C37.6616 118.694 37.5391 118.737 37.4118 118.752C37.2846 118.768 37.1554 118.757 37.0327 118.72C36.9099 118.683 36.7962 118.621 36.699 118.537C36.1292 118.017 36.3161 116.638 36.604 116.01C36.6194 115.976 36.8185 115.649 36.9655 115.397C36.8552 115.514 36.7358 115.633 36.6316 115.75C36.2364 116.179 35.9025 116.598 35.6084 116.975C35.443 117.186 35.3021 117.386 35.1642 117.569C35.2255 117.833 35.4552 118.902 35.3511 119.407C35.2469 119.913 34.9835 120.529 34.4903 120.765C34.3768 120.823 34.2524 120.858 34.1249 120.866C33.9974 120.874 33.8696 120.856 33.7496 120.811C33.6297 120.767 33.5203 120.699 33.4284 120.61C33.3365 120.521 33.2641 120.414 33.2159 120.296C32.9524 119.57 33.755 118.43 34.2973 118.007C34.3463 117.971 35.1458 117.484 35.1489 117.496C35.2745 117.315 35.4124 117.122 35.5655 116.917C35.8504 116.537 36.1782 116.108 36.5642 115.67C36.9767 115.191 37.4165 114.735 37.8815 114.307C38.3912 113.838 38.9406 113.415 39.5235 113.042H39.545C39.3275 113.1 38.7086 113.244 38.6627 113.25C37.9765 113.326 36.6071 113.075 36.2885 112.371C36.2403 112.253 36.2172 112.126 36.2206 111.999C36.224 111.871 36.2539 111.746 36.3084 111.631C36.3628 111.515 36.4407 111.413 36.5369 111.329C36.6332 111.246 36.7457 111.183 36.8675 111.145C37.3852 110.952 38.0071 111.204 38.4329 111.51Z" fill="#263238"/>
<path d="M53.9892 118.449C54.5528 118.225 55.9069 118.305 55.9069 118.305C55.9069 118.305 55.5822 119.181 55.5546 119.224C55.2483 119.836 54.2588 120.826 53.496 120.694C53.3709 120.668 53.2526 120.616 53.1488 120.541C53.045 120.467 52.9579 120.371 52.893 120.261C52.8282 120.151 52.787 120.029 52.7721 119.902C52.7572 119.775 52.769 119.646 52.8067 119.524C52.9415 119.009 53.5113 118.635 53.9892 118.449Z" fill="#263238"/>
<path d="M67.7012 118.648C67.7012 118.648 67.9157 119.567 67.9218 119.616C67.9923 120.302 67.7257 121.668 67.0028 121.978C66.8838 122.026 66.7561 122.048 66.6279 122.044C66.4996 122.039 66.3738 122.008 66.2584 121.952C66.1429 121.896 66.0405 121.817 65.9577 121.719C65.8748 121.621 65.8134 121.506 65.7774 121.383C65.6089 120.866 65.8693 120.244 66.1634 119.824C66.5279 119.328 67.7012 118.648 67.7012 118.648Z" fill="#263238"/>
<path d="M54.5988 114.54C55.1778 114.478 56.3726 114.874 56.4675 114.904C56.6923 114.219 56.9625 113.55 57.2763 112.901C57.454 112.524 57.65 112.147 57.8461 111.773C57.7328 111.93 57.6255 112.08 57.6102 112.08C57.1384 112.582 55.9345 113.284 55.236 112.956C55.1216 112.898 55.0206 112.816 54.9396 112.717C54.8585 112.617 54.7992 112.502 54.7654 112.378C54.7317 112.254 54.7242 112.125 54.7435 111.998C54.7629 111.871 54.8085 111.75 54.8776 111.642C55.1564 111.176 55.7966 110.961 56.3052 110.906C56.8137 110.851 57.8522 111.164 58.1249 111.253L58.3546 110.824C58.7314 110.137 59.1082 109.457 59.4575 108.777C59.5831 108.538 59.6934 108.299 59.8067 108.057C59.7056 108.198 59.6168 108.315 59.6015 108.33C59.1328 108.835 57.9258 109.534 57.2273 109.206C57.1133 109.148 57.0127 109.067 56.932 108.967C56.8512 108.868 56.7921 108.753 56.7583 108.63C56.7246 108.506 56.717 108.377 56.736 108.251C56.755 108.124 56.8003 108.003 56.8689 107.895C57.1507 107.426 57.7879 107.215 58.2995 107.16C58.8111 107.105 59.7454 107.386 60.0671 107.491C60.1743 107.239 60.2846 106.991 60.3735 106.743C60.4347 106.575 60.5052 106.415 60.5542 106.241C60.6032 106.066 60.6645 105.901 60.7166 105.732C60.8085 105.404 60.9034 105.07 60.9861 104.749C61.0443 104.525 61.0934 104.311 61.1454 104.096C61.026 104.335 60.7809 104.801 60.7564 104.838C60.3673 105.407 59.2829 106.281 58.5415 106.063C58.4199 106.023 58.3081 105.957 58.2132 105.871C58.1183 105.785 58.0425 105.68 57.9906 105.563C57.9386 105.446 57.9118 105.319 57.9117 105.191C57.9116 105.063 57.9383 104.936 57.9901 104.819C58.1953 104.317 58.7927 104.007 59.2921 103.876C59.8404 103.729 61.0321 103.925 61.1822 103.949C61.268 103.594 61.3476 103.248 61.415 102.92C61.6203 101.964 61.7643 101.14 61.8684 100.5L62.3831 100.521C62.2667 101.171 62.0982 102.025 61.8623 103.018C61.7765 103.379 61.6816 103.765 61.5774 104.161C61.9332 104.317 62.279 104.495 62.6128 104.694C63.0928 104.316 63.6227 104.007 64.1875 103.775C64.0619 103.428 63.9363 103.098 63.8137 102.785C63.4645 101.894 63.1367 101.137 62.8702 100.552L63.4338 100.573C63.6697 101.134 63.9485 101.823 64.2395 102.623C64.3713 102.969 64.4999 103.346 64.6317 103.732C64.7787 103.707 65.9735 103.508 66.5218 103.652C67.0212 103.784 67.6185 104.09 67.8268 104.596C67.8786 104.713 67.9053 104.84 67.9052 104.968C67.9052 105.096 67.8783 105.222 67.8264 105.34C67.7744 105.457 67.6986 105.562 67.6037 105.648C67.5089 105.734 67.397 105.799 67.2754 105.839C66.5341 106.06 65.4373 105.187 65.0605 104.614C65.036 104.58 64.8277 104.188 64.7021 103.94C64.7542 104.096 64.8063 104.246 64.8584 104.415C64.9625 104.737 65.0605 105.061 65.1647 105.41C65.2076 105.582 65.2535 105.754 65.2964 105.925C65.3393 106.097 65.3761 106.287 65.4159 106.467C65.4986 106.887 65.566 107.319 65.6212 107.754C65.903 107.662 66.9109 107.353 67.4255 107.408C67.9402 107.463 68.5743 107.674 68.8562 108.143C68.9248 108.251 68.9703 108.372 68.9895 108.498C69.0088 108.625 69.0014 108.754 68.968 108.877C68.9345 109.001 68.8757 109.116 68.7953 109.215C68.7148 109.314 68.6145 109.396 68.5008 109.454C67.8023 109.785 66.5953 109.087 66.1266 108.584C66.096 108.551 65.7988 108.152 65.6395 107.929C65.6702 108.192 65.7039 108.453 65.7284 108.719C65.7958 109.488 65.8387 110.269 65.8877 111.047C65.8877 111.286 65.9183 111.522 65.9336 111.761C66.0347 111.727 67.2264 111.332 67.8023 111.393C68.3139 111.449 68.9511 111.66 69.233 112.126C69.3022 112.234 69.348 112.355 69.3675 112.482C69.3871 112.608 69.3799 112.738 69.3464 112.861C69.3129 112.985 69.2539 113.101 69.1732 113.2C69.0925 113.3 68.9918 113.381 68.8776 113.44C68.1791 113.768 66.9721 113.072 66.5004 112.567C66.4667 112.53 66.0378 111.954 65.9367 111.804C65.9735 112.328 66.0133 112.849 66.0745 113.36C66.1551 114.051 66.2789 114.737 66.4452 115.413C66.4942 115.397 67.7349 114.981 68.3231 115.045C68.8347 115.097 69.4719 115.312 69.7538 115.777C69.823 115.885 69.8688 116.006 69.8883 116.133C69.9079 116.26 69.9007 116.389 69.8672 116.513C69.8337 116.637 69.7747 116.752 69.694 116.852C69.6133 116.951 69.5126 117.033 69.3984 117.091C68.6999 117.419 67.4929 116.724 67.0242 116.218C66.9936 116.185 66.6658 115.747 66.5157 115.535L66.4759 115.554C66.6628 116.23 66.911 116.889 67.2172 117.52C67.3796 117.87 67.5542 118.194 67.7319 118.507C67.9555 118.406 68.9818 117.952 69.5179 117.952C70.054 117.952 70.6912 118.09 71.019 118.525C71.099 118.625 71.1575 118.74 71.1905 118.863C71.2235 118.987 71.2305 119.116 71.2109 119.242C71.1913 119.368 71.1456 119.489 71.0767 119.597C71.0077 119.704 70.9171 119.796 70.8106 119.867C70.152 120.271 68.8776 119.711 68.3599 119.254C68.3323 119.23 68.0535 118.948 67.882 118.743C67.9647 118.881 68.0474 119.028 68.1301 119.159C68.4365 119.659 68.7428 120.094 69.0216 120.48C69.1809 120.697 69.3279 120.89 69.4719 121.071C69.7415 121.071 70.8321 121.157 71.31 121.399C71.7879 121.641 72.2842 122.063 72.3791 122.6C72.4046 122.725 72.4035 122.855 72.376 122.98C72.3484 123.105 72.295 123.223 72.2191 123.326C72.1432 123.43 72.0466 123.516 71.9354 123.58C71.8242 123.643 71.7009 123.683 71.5735 123.696C70.8045 123.751 69.9284 122.667 69.671 122.027C69.6496 121.972 69.4015 121.068 69.4168 121.068H69.4321C69.2912 120.899 69.1441 120.716 68.9879 120.51C68.6999 120.13 68.3752 119.698 68.0689 119.205C67.7216 118.678 67.4056 118.131 67.1222 117.566C66.8009 116.935 66.5364 116.277 66.3319 115.6C66.3319 115.6 66.3319 115.581 66.3319 115.575C66.3319 115.802 66.2951 116.433 66.2859 116.494C66.1726 117.174 65.5538 118.421 64.791 118.534C64.6636 118.549 64.5346 118.537 64.4123 118.498C64.2899 118.46 64.177 118.397 64.0806 118.312C63.9842 118.228 63.9066 118.124 63.8528 118.008C63.7989 117.891 63.7699 117.765 63.7678 117.637C63.7433 117.091 64.1568 116.561 64.552 116.234C64.9993 115.863 66.2155 115.532 66.3135 115.505C66.1222 114.81 65.9779 114.104 65.8816 113.391C65.8233 112.974 65.7774 112.554 65.7345 112.132C65.7345 112.328 65.7161 112.502 65.71 112.527C65.5966 113.207 64.9778 114.454 64.215 114.567C64.085 114.585 63.9527 114.574 63.8271 114.536C63.7015 114.498 63.5854 114.434 63.4867 114.347C63.388 114.261 63.309 114.154 63.255 114.035C63.201 113.915 63.1732 113.785 63.1735 113.654C63.1489 113.112 63.5625 112.582 63.9577 112.251C64.3529 111.92 65.3914 111.617 65.664 111.54C65.664 111.378 65.6365 111.216 65.6212 111.053C65.5568 110.275 65.4956 109.5 65.4128 108.74C65.3853 108.471 65.3454 108.207 65.3087 107.947C65.3087 108.119 65.2903 108.253 65.2872 108.287C65.1739 108.967 64.5551 110.217 63.7892 110.327C63.6621 110.341 63.5334 110.329 63.4115 110.29C63.2895 110.252 63.1769 110.188 63.0809 110.104C62.9849 110.019 62.9075 109.916 62.8538 109.8C62.8002 109.684 62.7713 109.558 62.7691 109.43C62.7446 108.888 63.1581 108.358 63.5533 108.03C63.9485 107.702 64.8859 107.417 65.2107 107.328C65.1647 107.062 65.1187 106.792 65.0605 106.535C65.0177 106.36 64.987 106.189 64.9349 106.014L64.7879 105.502C64.6837 105.178 64.5796 104.844 64.4816 104.531C64.408 104.314 64.3314 104.109 64.2579 103.9C64.2886 104.167 64.3406 104.691 64.3406 104.733C64.3102 105.339 64.1245 105.927 63.8015 106.44C63.8017 106.508 63.7956 106.575 63.7831 106.642C63.7619 106.768 63.7144 106.889 63.6438 106.996C63.5732 107.103 63.481 107.194 63.3731 107.263C63.2652 107.333 63.144 107.379 63.0173 107.398C62.8905 107.418 62.7611 107.411 62.6373 107.377C61.8991 107.151 61.4732 105.824 61.464 105.135C61.464 105.095 61.5039 104.654 61.5376 104.375C61.4916 104.534 61.4518 104.681 61.4058 104.856C61.317 105.184 61.2159 105.509 61.0995 105.858C61.0444 106.023 60.9861 106.192 60.9279 106.36C60.8697 106.529 60.7962 106.703 60.7288 106.875C60.5665 107.273 60.3826 107.668 60.1896 108.063C60.4745 108.143 61.4886 108.44 61.8868 108.771C62.2851 109.102 62.6986 109.626 62.6741 110.171C62.6723 110.299 62.6438 110.426 62.5903 110.542C62.5368 110.658 62.4595 110.762 62.3634 110.847C62.2674 110.932 62.1546 110.996 62.0324 111.035C61.9103 111.073 61.7814 111.086 61.654 111.072C60.8881 110.958 60.2693 109.715 60.1529 109.035C60.1529 108.992 60.1192 108.492 60.11 108.22C59.9905 108.456 59.8741 108.691 59.7454 108.927C59.3778 109.604 58.9857 110.281 58.5936 110.955L58.2413 111.568C58.3424 111.596 59.5555 111.923 59.9997 112.291C60.4439 112.659 60.8115 113.149 60.7901 113.694C60.7879 113.822 60.759 113.949 60.7051 114.065C60.6512 114.181 60.5736 114.285 60.4772 114.369C60.3809 114.454 60.2679 114.517 60.1456 114.556C60.0232 114.594 59.8942 114.606 59.7669 114.592C59.0041 114.481 58.3822 113.235 58.2689 112.554C58.2689 112.502 58.2198 111.789 58.2198 111.605C57.9625 112.061 57.7082 112.524 57.4754 112.98C57.1616 113.602 56.8864 114.242 56.6514 114.898C56.7004 114.898 57.9656 115.247 58.422 115.624C58.8203 115.955 59.2339 116.482 59.2093 117.027C59.2071 117.155 59.1783 117.281 59.1246 117.397C59.0709 117.513 58.9936 117.617 58.8975 117.701C58.8015 117.786 58.6889 117.849 58.567 117.888C58.445 117.926 58.3163 117.939 58.1892 117.925C57.4264 117.814 56.8045 116.568 56.6881 115.888C56.6881 115.845 56.6514 115.299 56.6452 115.039H56.5993C56.3836 115.706 56.2277 116.391 56.1336 117.085C56.0754 117.468 56.0417 117.836 56.0203 118.194C56.2623 118.234 57.3651 118.421 57.8155 118.715C58.2658 119.009 58.7161 119.478 58.7529 120.023C58.7649 120.151 58.75 120.28 58.7092 120.401C58.6684 120.523 58.6026 120.635 58.516 120.729C58.4295 120.824 58.324 120.899 58.2066 120.951C58.0891 121.002 57.9621 121.029 57.8338 121.028C57.0619 121 56.3021 119.83 56.1183 119.168C56.1183 119.132 56.0448 118.752 56.0019 118.476C56.0019 118.639 55.9805 118.807 55.9774 118.96C55.9559 119.545 55.9774 120.081 55.9927 120.556C55.9927 120.826 56.0233 121.068 56.0417 121.295C56.2592 121.457 57.1293 122.119 57.3866 122.581C57.6439 123.044 57.8369 123.672 57.6163 124.171C57.5684 124.29 57.4962 124.397 57.4045 124.486C57.3127 124.575 57.2033 124.644 57.0834 124.689C56.9634 124.733 56.8355 124.752 56.7078 124.744C56.5802 124.736 56.4555 124.702 56.3419 124.643C55.668 124.263 55.5393 122.875 55.6772 122.192C55.6772 122.134 55.9835 121.242 55.9835 121.249C55.9621 121.028 55.9406 120.792 55.9222 120.538C55.8916 120.063 55.861 119.524 55.8702 118.939C55.8707 118.307 55.9085 117.676 55.9835 117.049C56.0653 116.345 56.2077 115.65 56.4093 114.972V114.947C56.2807 115.134 55.9039 115.642 55.8702 115.679C55.4015 116.185 54.1975 116.883 53.4991 116.555C53.3851 116.497 53.2845 116.416 53.2037 116.317C53.123 116.217 53.0638 116.102 53.0301 115.979C52.9963 115.856 52.9887 115.726 53.0078 115.6C53.0268 115.473 53.0721 115.352 53.1406 115.244C53.45 114.809 54.0872 114.598 54.5988 114.54Z" fill="#263238"/>
<path d="M124.369 24.5781H38.8159C37.6536 24.5781 36.7113 25.5204 36.7113 26.6827V109.852C36.7113 111.015 37.6536 111.957 38.8159 111.957H124.369C125.531 111.957 126.474 111.015 126.474 109.852V26.6827C126.474 25.5204 125.531 24.5781 124.369 24.5781Z" fill="white" stroke="#263238" stroke-linecap="round" stroke-linejoin="round"/>
<path d="M124.427 24.5781H38.7638C38.22 24.5781 37.6984 24.7939 37.3136 25.1782C36.9287 25.5625 36.7121 26.0837 36.7113 26.6276V30.2455H126.464V26.6276C126.464 26.0864 126.249 25.5674 125.868 25.1836C125.486 24.7998 124.968 24.5821 124.427 24.5781Z" fill="#5B63F6" stroke="#263238" stroke-linecap="round" stroke-linejoin="round"/>
<path d="M41.0185 27.3138C41.0191 27.4811 40.9701 27.6449 40.8775 27.7844C40.785 27.9238 40.6532 28.0326 40.4987 28.0971C40.3443 28.1616 40.1742 28.1788 40.01 28.1465C39.8457 28.1142 39.6948 28.0339 39.5762 27.9158C39.4577 27.7977 39.3769 27.647 39.344 27.4829C39.3111 27.3188 39.3277 27.1487 39.3916 26.994C39.4555 26.8393 39.5639 26.7071 39.703 26.614C39.8421 26.521 40.0057 26.4713 40.173 26.4713C40.3965 26.4721 40.6106 26.561 40.7689 26.7188C40.9272 26.8765 41.0169 27.0903 41.0185 27.3138Z" fill="white" stroke="#263238" stroke-linecap="round" stroke-linejoin="round"/>
<path d="M44.563 27.3138C44.5636 27.4811 44.5145 27.6449 44.422 27.7844C44.3294 27.9238 44.1976 28.0326 44.0432 28.0971C43.8887 28.1616 43.7186 28.1788 43.5544 28.1465C43.3902 28.1142 43.2392 28.0339 43.1207 27.9158C43.0021 27.7977 42.9213 27.647 42.8884 27.4829C42.8555 27.3188 42.8721 27.1487 42.936 26.994C42.9999 26.8393 43.1083 26.7071 43.2474 26.614C43.3865 26.521 43.5501 26.4713 43.7175 26.4713C43.9412 26.4713 44.1558 26.56 44.3142 26.7179C44.4727 26.8758 44.5622 27.0901 44.563 27.3138Z" fill="white" stroke="#263238" stroke-linecap="round" stroke-linejoin="round"/>
<path d="M48.1074 27.3138C48.108 27.4813 48.0589 27.6452 47.9662 27.7847C47.8735 27.9242 47.7415 28.033 47.5869 28.0974C47.4322 28.1618 47.262 28.1788 47.0977 28.1463C46.9334 28.1137 46.7825 28.0331 46.664 27.9147C46.5456 27.7963 46.465 27.6453 46.4325 27.481C46.4 27.3167 46.417 27.1465 46.4813 26.9919C46.5457 26.8372 46.6546 26.7052 46.7941 26.6125C46.9336 26.5199 47.0975 26.4707 47.265 26.4713C47.4881 26.4721 47.702 26.5612 47.8598 26.719C48.0176 26.8768 48.1066 27.0906 48.1074 27.3138Z" fill="white" stroke="#263238" stroke-linecap="round" stroke-linejoin="round"/>
<path d="M82.9633 40.5632V34.8254H81.787V34.179H84.8504V34.8254H83.6741V40.5632H82.9633Z" fill="#263238"/>
<path d="M85.2916 35.7199C85.2916 34.7427 85.7756 34.1146 86.7498 34.1146C87.724 34.1146 88.2203 34.7273 88.2203 35.7199V39.0192C88.2203 39.9873 87.7363 40.6245 86.7498 40.6245C85.7634 40.6245 85.2916 39.9873 85.2916 39.0192V35.7199ZM85.9932 39.056C85.9932 39.6411 86.2413 39.975 86.7498 39.975C87.2584 39.975 87.5065 39.6381 87.5065 39.056V35.6862C87.5065 35.1103 87.2706 34.7672 86.7498 34.7672C86.229 34.7672 85.9932 35.1133 85.9932 35.6862V39.056Z" fill="#263238"/>
<path d="M90.3891 34.179C91.3817 34.179 91.8382 34.7917 91.8382 35.7659V38.9856C91.8382 39.9597 91.3817 40.5632 90.3891 40.5632H88.8942V34.179H90.3891ZM90.3891 39.9138C90.9007 39.9138 91.1458 39.6074 91.1458 39.0131V35.7291C91.1458 35.144 90.9007 34.8254 90.3799 34.8254H89.6141V39.9138H90.3891Z" fill="#263238"/>
<path d="M93.2136 39.2766L92.9686 40.5632H92.313L93.5384 34.179H94.5677L95.7931 40.5632H95.0824L94.8342 39.2766H93.2136ZM93.3056 38.6639H94.7301L94.0071 34.9877L93.3056 38.6639Z" fill="#263238"/>
<path d="M97.0277 38.2718L95.6768 34.179H96.4151L97.4107 37.316L98.4124 34.179H99.0864L97.7293 38.2718V40.5632H97.0277V38.2718Z" fill="#263238"/>
<path d="M42.3112 34.3536V34.4455H41.9528V34.3322C41.9528 34.0258 41.8364 33.8481 41.5637 33.8481C41.2911 33.8481 41.1778 34.0289 41.1778 34.3291C41.1778 35.0888 42.3143 35.1624 42.3143 36.1151C42.3143 36.6267 42.0692 36.9606 41.5515 36.9606C41.0338 36.9606 40.7887 36.6267 40.7887 36.1151V35.9221H41.1441V36.1488C41.1441 36.4551 41.2697 36.6328 41.5392 36.6328C41.8088 36.6328 41.9375 36.4551 41.9375 36.1488C41.9375 35.3952 40.804 35.3217 40.804 34.3689C40.804 33.8451 41.046 33.5203 41.5546 33.5203C42.0631 33.5203 42.3112 33.8389 42.3112 34.3536Z" fill="#263238"/>
<path d="M44.1401 34.3567V34.663H43.7817V34.3383C43.7817 34.0319 43.6622 33.8481 43.3865 33.8481C43.1108 33.8481 42.9882 34.0319 42.9882 34.3383V36.1304C42.9882 36.4368 43.1138 36.6175 43.3865 36.6175C43.6591 36.6175 43.7817 36.4337 43.7817 36.1304V35.6893H44.1401V36.109C44.1401 36.6236 43.8981 36.9606 43.3773 36.9606C42.8565 36.9606 42.6145 36.6236 42.6145 36.109V34.3567C42.6145 33.8451 42.8565 33.505 43.3773 33.505C43.8981 33.505 44.1401 33.8451 44.1401 34.3567Z" fill="#263238"/>
<path d="M44.8633 35.4044V36.9361H44.4865V33.5387H44.8633V35.0705H45.6965V33.5387H46.0733V36.9269H45.6965V35.3952L44.8633 35.4044Z" fill="#263238"/>
<path d="M47.6662 35.0398V35.3799H46.8391V36.5838H47.8562V36.9269H46.4623V33.5387H47.8562V33.8818H46.8391V35.0398H47.6662Z" fill="#263238"/>
<path d="M48.9988 33.5387C49.5257 33.5387 49.7677 33.8451 49.7677 34.3812V36.0906C49.7677 36.6083 49.5257 36.9269 48.9988 36.9269H48.2053V33.5387H48.9988ZM48.9988 36.5838C49.2714 36.5838 49.4001 36.4153 49.4001 36.1059V34.3628C49.4001 34.0564 49.2714 33.8818 48.9957 33.8818H48.5883V36.5838H48.9988Z" fill="#263238"/>
<path d="M50.4908 36.1304C50.4908 36.4368 50.6103 36.6175 50.886 36.6175C51.1617 36.6175 51.2781 36.4337 51.2781 36.1304V33.5387H51.6335V36.109C51.6335 36.6236 51.3945 36.9667 50.8737 36.9667C50.353 36.9667 50.1171 36.6236 50.1171 36.109V33.5387H50.4908V36.1304Z" fill="#263238"/>
<path d="M51.9949 36.9269V33.5387H52.3747V36.5838H53.3428V36.9269H51.9949Z" fill="#263238"/>
<path d="M54.8347 35.0398V35.3799H54.0045V36.5838H55.0216V36.9269H53.6277V33.5387H55.0216V33.8818H54.0045V35.0398H54.8347Z" fill="#263238"/>
<path d="M64.1536 44.5243V44.6254C64.1714 44.7609 64.1452 44.8986 64.0791 45.0182C64.0129 45.1378 63.9102 45.2331 63.786 45.2901C63.9118 45.3495 64.0153 45.4475 64.0814 45.5699C64.1475 45.6922 64.1728 45.8325 64.1536 45.9702V46.2092C64.1536 46.4123 64.073 46.6071 63.9293 46.7507C63.7857 46.8944 63.5909 46.975 63.3878 46.975C63.1847 46.975 62.9899 46.8944 62.8462 46.7507C62.7026 46.6071 62.6219 46.4123 62.6219 46.2092V45.9702C62.6022 45.8317 62.628 45.6905 62.6954 45.5679C62.7628 45.4452 62.8681 45.3478 62.9957 45.2901C62.8694 45.2353 62.7645 45.1406 62.697 45.0206C62.6295 44.9006 62.6032 44.7618 62.6219 44.6254V44.5243C62.6219 44.3212 62.7026 44.1264 62.8462 43.9827C62.9899 43.8391 63.1847 43.7584 63.3878 43.7584C63.5909 43.7584 63.7857 43.8391 63.9293 43.9827C64.073 44.1264 64.1536 44.3212 64.1536 44.5243ZM62.9895 44.5243V44.6805C62.9895 44.9869 63.1396 45.1339 63.3939 45.1339C63.6482 45.1339 63.7983 44.993 63.7983 44.6805V44.5243C63.7983 44.1934 63.6482 44.0433 63.3939 44.0433C63.1396 44.0433 62.9895 44.2026 62.9895 44.5335V44.5243ZM62.9895 45.9181V46.1908C62.9895 46.5216 63.1366 46.6779 63.3939 46.6779C63.6512 46.6779 63.7952 46.5216 63.7983 46.1908V45.9181C63.7983 45.6118 63.6604 45.4556 63.3939 45.4556C63.1274 45.4556 62.9895 45.6149 62.9895 45.9273V45.9181Z" fill="#263238"/>
<path d="M64.8247 44.7816V45.2289H64.4785V44.7816H64.8247ZM64.8247 46.537V46.9812H64.4785V46.537H64.8247Z" fill="#263238"/>
<path d="M65.1648 44.5396C65.1648 44.0464 65.4099 43.7278 65.9031 43.7278C66.3963 43.7278 66.6414 44.0341 66.6414 44.5396V46.2C66.6414 46.6932 66.3994 47.0149 65.9031 47.0149C65.4068 47.0149 65.1648 46.6932 65.1648 46.2V44.5396ZM65.5202 46.2214C65.5202 46.5278 65.6427 46.6871 65.9031 46.6871C66.1635 46.6871 66.283 46.5125 66.283 46.2214V44.5212C66.283 44.2149 66.1635 44.0525 65.9031 44.0525C65.6427 44.0525 65.5202 44.2271 65.5202 44.5212V46.2214Z" fill="#263238"/>
<path d="M66.9537 44.5396C66.9537 44.0464 67.1988 43.7278 67.692 43.7278C68.1852 43.7278 68.4303 44.0341 68.4303 44.5396V46.2C68.4303 46.6932 68.1883 47.0149 67.692 47.0149C67.1957 47.0149 66.9537 46.6932 66.9537 46.2V44.5396ZM67.3091 46.2214C67.3091 46.5278 67.4316 46.6871 67.692 46.6871C67.9524 46.6871 68.0719 46.5125 68.0719 46.2214V44.5212C68.0719 44.2149 67.9524 44.0525 67.692 44.0525C67.4316 44.0525 67.3091 44.2271 67.3091 44.5212V46.2214Z" fill="#263238"/>
<path d="M72.1831 44.3466C72.0476 44.4287 71.894 44.476 71.7358 44.4845V44.1781C71.8631 44.1813 71.9876 44.1403 72.0881 44.0621C72.1886 43.9839 72.259 43.8734 72.2873 43.7492H72.5477V46.9689H72.1923L72.1831 44.3466Z" fill="#263238"/>
<path d="M73.0531 44.5396C73.0531 44.0464 73.2951 43.7278 73.7883 43.7278C74.2816 43.7278 74.5297 44.0341 74.5297 44.5396V46.2C74.5297 46.6932 74.2846 47.0149 73.7883 47.0149C73.2921 47.0149 73.0531 46.6932 73.0531 46.2V44.5396ZM73.4054 46.2214C73.4054 46.5278 73.531 46.6871 73.7883 46.6871C74.0457 46.6871 74.1713 46.5125 74.1713 46.2214V44.5212C74.1713 44.2149 74.0518 44.0525 73.7883 44.0525C73.5249 44.0525 73.4054 44.2271 73.4054 44.5212V46.2214Z" fill="#263238"/>
<path d="M75.2127 44.7816V45.2289H74.8696V44.7816H75.2127ZM75.2127 46.537V46.9812H74.8696V46.537H75.2127Z" fill="#263238"/>
<path d="M75.5559 44.5396C75.5559 44.0464 75.7979 43.7278 76.2911 43.7278C76.7843 43.7278 77.0325 44.0341 77.0325 44.5396V46.2C77.0325 46.6932 76.7874 47.0149 76.2911 47.0149C75.7949 47.0149 75.5559 46.6932 75.5559 46.2V44.5396ZM75.9082 46.2214C75.9082 46.5278 76.0338 46.6871 76.2911 46.6871C76.5485 46.6871 76.6741 46.5125 76.6741 46.2214V44.5212C76.6741 44.2149 76.5515 44.0525 76.2911 44.0525C76.0307 44.0525 75.9082 44.2271 75.9082 44.5212V46.2214Z" fill="#263238"/>
<path d="M77.3451 44.5396C77.3451 44.0464 77.5871 43.7278 78.0803 43.7278C78.5735 43.7278 78.8217 44.0341 78.8217 44.5396V46.2C78.8217 46.6932 78.5766 47.0149 78.0803 47.0149C77.584 47.0149 77.3451 46.6932 77.3451 46.2V44.5396ZM77.6974 46.2214C77.6974 46.5278 77.823 46.6871 78.0803 46.6871C78.3377 46.6871 78.4633 46.5125 78.4633 46.2214V44.5212C78.4633 44.2149 78.3438 44.0525 78.0803 44.0525C77.8169 44.0525 77.6974 44.2271 77.6974 44.5212V46.2214Z" fill="#263238"/>
<path d="M82.801 44.3466C82.6656 44.4287 82.5119 44.476 82.3538 44.4845V44.1781C82.4811 44.1813 82.6055 44.1403 82.706 44.0621C82.8066 43.9839 82.8769 43.8734 82.9052 43.7492H83.1564V46.9689H82.801V44.3466Z" fill="#263238"/>
<path d="M85.1476 44.5427C85.1476 45.5138 84.057 45.863 84.0509 46.6044V46.6565H85.1078V46.9812H83.6986V46.7055C83.6986 45.667 84.7892 45.4648 84.7892 44.561C84.7892 44.2302 84.6789 44.0556 84.4093 44.0556C84.1397 44.0556 84.0325 44.2424 84.0325 44.5273V44.8122H83.6986V44.5518C83.6986 44.0586 83.9222 43.7308 84.4216 43.7308C84.9209 43.7308 85.1476 44.0525 85.1476 44.5427Z" fill="#263238"/>
<path d="M85.8247 44.7816V45.2289H85.4785V44.7816H85.8247ZM85.8247 46.537V46.9812H85.4785V46.537H85.8247Z" fill="#263238"/>
<path d="M86.1647 44.5396C86.1647 44.0464 86.4067 43.7278 86.8999 43.7278C87.3931 43.7278 87.6413 44.0341 87.6413 44.5396V46.2C87.6413 46.6932 87.3962 47.0149 86.8999 47.0149C86.4036 47.0149 86.1647 46.6932 86.1647 46.2V44.5396ZM86.517 46.2214C86.517 46.5278 86.6426 46.6871 86.8999 46.6871C87.1572 46.6871 87.2828 46.5125 87.2828 46.2214V44.5212C87.2828 44.2149 87.1603 44.0525 86.8999 44.0525C86.6395 44.0525 86.517 44.2271 86.517 44.5212V46.2214Z" fill="#263238"/>
<path d="M87.9537 44.5396C87.9537 44.0464 88.1957 43.7278 88.689 43.7278C89.1822 43.7278 89.4303 44.0341 89.4303 44.5396V46.2C89.4303 46.6932 89.1852 47.0149 88.689 47.0149C88.1927 47.0149 87.9537 46.6932 87.9537 46.2V44.5396ZM88.306 46.2214C88.306 46.5278 88.4316 46.6871 88.689 46.6871C88.9463 46.6871 89.0719 46.5125 89.0719 46.2214V44.5212C89.0719 44.2149 88.9524 44.0525 88.689 44.0525C88.4255 44.0525 88.306 44.2271 88.306 44.5212V46.2214Z" fill="#263238"/>
<path d="M94.6045 44.5427C94.6045 45.5138 93.5139 45.863 93.5078 46.6044V46.6565H94.5678V46.9812H93.1555V46.7055C93.1555 45.667 94.243 45.4648 94.243 44.561C94.243 44.2302 94.1328 44.0556 93.8662 44.0556C93.5997 44.0556 93.4894 44.2424 93.4894 44.5273V44.8122H93.1555V44.5518C93.1555 44.0586 93.3792 43.7308 93.8754 43.7308C94.3717 43.7308 94.6045 44.0525 94.6045 44.5427Z" fill="#263238"/>
<path d="M95.2784 44.7816V45.2289H94.9353V44.7816H95.2784ZM95.2784 46.537V46.9812H94.9353V46.537H95.2784Z" fill="#263238"/>
<path d="M95.6185 44.5396C95.6185 44.0464 95.8636 43.7278 96.3568 43.7278C96.85 43.7278 97.0951 44.0341 97.0951 44.5396V46.2C97.0951 46.6932 96.8531 47.0149 96.3568 47.0149C95.8605 47.0149 95.6185 46.6932 95.6185 46.2V44.5396ZM95.9739 46.2214C95.9739 46.5278 96.0995 46.6871 96.3568 46.6871C96.6142 46.6871 96.7367 46.5125 96.7367 46.2214V44.5212C96.7367 44.2149 96.6172 44.0525 96.3568 44.0525C96.0964 44.0525 95.9739 44.2271 95.9739 44.5212V46.2214Z" fill="#263238"/>
<path d="M97.4076 44.5396C97.4076 44.0464 97.6527 43.7278 98.1459 43.7278C98.6391 43.7278 98.8872 44.0341 98.8872 44.5396V46.2C98.8872 46.6932 98.6422 47.0149 98.1459 47.0149C97.6496 47.0149 97.4076 46.6932 97.4076 46.2V44.5396ZM97.763 46.2214C97.763 46.5278 97.8886 46.6871 98.1459 46.6871C98.4032 46.6871 98.5257 46.5125 98.5257 46.2214V44.5212C98.5257 44.2149 98.4063 44.0525 98.1459 44.0525C97.8855 44.0525 97.763 44.2271 97.763 44.5212V46.2214Z" fill="#263238"/>
<path d="M104.686 46.3317V46.9812H104.334V46.3317H103.296V46.007L104.294 43.7615H104.686V46.007H104.944V46.3317H104.686ZM103.626 46.007H104.334V44.4201L103.626 46.007Z" fill="#263238"/>
<path d="M105.563 44.7816V45.2289H105.219V44.7816H105.563ZM105.563 46.537V46.9812H105.219V46.537H105.563Z" fill="#263238"/>
<path d="M105.903 44.5396C105.903 44.0464 106.148 43.7278 106.641 43.7278C107.134 43.7278 107.379 44.0341 107.379 44.5396V46.2C107.379 46.6932 107.137 47.0149 106.641 47.0149C106.145 47.0149 105.903 46.6932 105.903 46.2V44.5396ZM106.258 46.2214C106.258 46.5278 106.384 46.6871 106.641 46.6871C106.898 46.6871 107.021 46.5125 107.021 46.2214V44.5212C107.021 44.2149 106.901 44.0525 106.641 44.0525C106.38 44.0525 106.258 44.2271 106.258 44.5212V46.2214Z" fill="#263238"/>
<path d="M107.695 44.5396C107.695 44.0464 107.937 43.7278 108.43 43.7278C108.923 43.7278 109.171 44.0341 109.171 44.5396V46.2C109.171 46.6932 108.926 47.0149 108.43 47.0149C107.934 47.0149 107.695 46.6932 107.695 46.2V44.5396ZM108.047 46.2214C108.047 46.5278 108.173 46.6871 108.43 46.6871C108.687 46.6871 108.813 46.5125 108.813 46.2214V44.5212C108.813 44.2149 108.69 44.0525 108.43 44.0525C108.17 44.0525 108.047 44.2271 108.047 44.5212V46.2214Z" fill="#263238"/>
<path d="M115.638 44.5335V44.5947H115.301V44.512C115.301 44.2057 115.182 44.0525 114.921 44.0525C114.661 44.0525 114.529 44.2271 114.529 44.5702V45.2932C114.566 45.1866 114.637 45.0951 114.731 45.0326C114.825 44.9701 114.937 44.9401 115.05 44.947C115.464 44.947 115.647 45.2534 115.647 45.7129V46.2C115.647 46.6932 115.402 47.0149 114.909 47.0149C114.416 47.0149 114.171 46.6932 114.171 46.2V44.558C114.171 44.0464 114.401 43.7278 114.909 43.7278C115.418 43.7278 115.638 44.0433 115.638 44.5335ZM114.517 45.7405V46.2214C114.517 46.5278 114.636 46.6871 114.897 46.6871C115.157 46.6871 115.28 46.5125 115.28 46.2214V45.7405C115.28 45.4494 115.157 45.2748 114.897 45.2748C114.636 45.2748 114.517 45.4494 114.517 45.7405Z" fill="#263238"/>
<path d="M116.327 44.7816V45.2289H115.981V44.7816H116.327ZM116.327 46.537V46.9812H115.981V46.537H116.327Z" fill="#263238"/>
<path d="M116.661 44.5396C116.661 44.0464 116.906 43.7278 117.397 43.7278C117.887 43.7278 118.138 44.0341 118.138 44.5396V46.2C118.138 46.6932 117.896 47.0149 117.397 47.0149C116.897 47.0149 116.661 46.6932 116.661 46.2V44.5396ZM117.017 46.2214C117.017 46.5278 117.139 46.6871 117.397 46.6871C117.654 46.6871 117.78 46.5125 117.78 46.2214V44.5212C117.78 44.2149 117.66 44.0525 117.397 44.0525C117.133 44.0525 117.017 44.2271 117.017 44.5212V46.2214Z" fill="#263238"/>
<path d="M118.457 44.5396C118.457 44.0464 118.702 43.7278 119.195 43.7278C119.688 43.7278 119.933 44.0341 119.933 44.5396V46.2C119.933 46.6932 119.691 47.0149 119.195 47.0149C118.699 47.0149 118.457 46.6932 118.457 46.2V44.5396ZM118.812 46.2214C118.812 46.5278 118.935 46.6871 119.195 46.6871C119.455 46.6871 119.575 46.5125 119.575 46.2214V44.5212C119.575 44.2149 119.455 44.0525 119.195 44.0525C118.935 44.0525 118.812 44.2271 118.812 44.5212V46.2214Z" fill="#263238"/>
<path d="M70.8658 82.8818H61.0566V92.1243H70.8658V82.8818Z" stroke="#ADADAD" stroke-miterlimit="10"/>
<path d="M80.9598 82.8818H71.1506V92.1243H80.9598V82.8818Z" stroke="#ADADAD" stroke-miterlimit="10"/>
<path d="M91.0539 82.8818H81.2448V92.1243H91.0539V82.8818Z" stroke="#ADADAD" stroke-miterlimit="10"/>
<path d="M101.151 82.8818H91.3419V92.1243H101.151V82.8818Z" stroke="#ADADAD" stroke-miterlimit="10"/>
<path d="M111.245 82.8818H101.436V92.1243H111.245V82.8818Z" stroke="#ADADAD" stroke-miterlimit="10"/>
<path d="M121.382 82.8818H111.573V92.1243H121.382V82.8818Z" stroke="#ADADAD" stroke-miterlimit="10"/>
<path d="M40.8868 48.9234H56.7709" stroke="#ADADAD" stroke-miterlimit="10"/>
<path d="M40.8868 50.6665H56.7709" stroke="#ADADAD" stroke-miterlimit="10"/>
<path d="M40.8868 52.4066H56.7709" stroke="#ADADAD" stroke-miterlimit="10"/>
<path d="M40.8868 54.1466H56.7709" stroke="#ADADAD" stroke-miterlimit="10"/>
<path d="M40.8868 55.8866H56.7709" stroke="#ADADAD" stroke-miterlimit="10"/>
<path d="M40.8868 57.6297H56.7709" stroke="#ADADAD" stroke-miterlimit="10"/>
<path d="M40.8868 59.3698H56.7709" stroke="#ADADAD" stroke-miterlimit="10"/>
<path d="M40.8868 61.1098H56.7709" stroke="#ADADAD" stroke-miterlimit="10"/>
<path d="M40.8868 87.6945H56.7709" stroke="#ADADAD" stroke-miterlimit="10"/>
<path d="M40.8868 89.4346H56.7709" stroke="#ADADAD" stroke-miterlimit="10"/>
<path d="M40.8868 91.1746H56.7709" stroke="#ADADAD" stroke-miterlimit="10"/>
<path d="M40.8868 92.9146H56.7709" stroke="#ADADAD" stroke-miterlimit="10"/>
<path d="M40.8868 94.6578H56.7709" stroke="#ADADAD" stroke-miterlimit="10"/>
<path d="M40.8868 96.3978H56.7709" stroke="#ADADAD" stroke-miterlimit="10"/>
<path d="M40.8868 98.1378H56.7709" stroke="#ADADAD" stroke-miterlimit="10"/>
<path d="M40.8868 99.8779H56.7709" stroke="#ADADAD" stroke-miterlimit="10"/>
<path d="M70.8658 48.9326H61.0566V58.175H70.8658V48.9326Z" stroke="#ADADAD" stroke-miterlimit="10"/>
<path d="M80.9598 48.9326H71.1506V58.175H80.9598V48.9326Z" fill="#5B63F6" stroke="#ADADAD" stroke-miterlimit="10"/>
<path d="M91.0539 48.9326H81.2448V58.175H91.0539V48.9326Z" fill="#5B63F6" stroke="#ADADAD" stroke-miterlimit="10"/>
<path d="M101.151 48.9326H91.3419V58.175H101.151V48.9326Z" stroke="#ADADAD" stroke-miterlimit="10"/>
<path d="M111.245 48.9326H101.436V58.175H111.245V48.9326Z" stroke="#ADADAD" stroke-miterlimit="10"/>
<path d="M121.382 48.9326H111.573V58.175H121.382V48.9326Z" stroke="#ADADAD" stroke-miterlimit="10"/>
<path d="M72.8723 51.5672H79.7314" stroke="#ADADAD" stroke-miterlimit="10"/>
<path d="M72.8723 52.6118H79.7314" stroke="#ADADAD" stroke-miterlimit="10"/>
<path d="M72.8723 53.6564H79.7314" stroke="#ADADAD" stroke-miterlimit="10"/>
<path d="M72.8723 54.698H79.7314" stroke="#ADADAD" stroke-miterlimit="10"/>
<path d="M72.8723 55.7427H79.7314" stroke="#ADADAD" stroke-miterlimit="10"/>
<path d="M70.8658 60.2398H61.0566V69.4823H70.8658V60.2398Z" stroke="#ADADAD" stroke-miterlimit="10"/>
<path d="M80.9598 60.2398H71.1506V69.4823H80.9598V60.2398Z" fill="#5B63F6" stroke="#ADADAD" stroke-miterlimit="10"/>
<path d="M91.0539 60.2398H81.2448V69.4823H91.0539V60.2398Z" stroke="#ADADAD" stroke-miterlimit="10"/>
<path d="M101.151 60.2398H91.3419V69.4823H101.151V60.2398Z" stroke="#ADADAD" stroke-miterlimit="10"/>
<path d="M111.245 60.2398H101.436V69.4823H111.245V60.2398Z" stroke="#ADADAD" stroke-miterlimit="10"/>
<path d="M121.382 60.2398H111.573V69.4823H121.382V60.2398Z" stroke="#ADADAD" stroke-miterlimit="10"/>
<path d="M72.8723 62.7518H79.7314" stroke="#ADADAD" stroke-miterlimit="10"/>
<path d="M72.8723 63.7934H79.7314" stroke="#ADADAD" stroke-miterlimit="10"/>
<path d="M72.8723 64.8381H79.7314" stroke="#ADADAD" stroke-miterlimit="10"/>
<path d="M72.8723 65.8827H79.7314" stroke="#ADADAD" stroke-miterlimit="10"/>
<path d="M72.8723 66.9273H79.7314" stroke="#ADADAD" stroke-miterlimit="10"/>
<path d="M70.8658 71.544H61.0566V80.7864H70.8658V71.544Z" stroke="#ADADAD" stroke-miterlimit="10"/>
<path d="M80.9598 71.544H71.1506V80.7864H80.9598V71.544Z" stroke="#ADADAD" stroke-miterlimit="10"/>
<path d="M91.0539 71.544H81.2448V80.7864H91.0539V71.544Z" stroke="#ADADAD" stroke-miterlimit="10"/>
<path d="M101.151 71.544H91.3419V80.7864H101.151V71.544Z" stroke="#ADADAD" stroke-miterlimit="10"/>
<path d="M111.245 71.544H101.436V80.7864H111.245V71.544Z" fill="#5B63F6" stroke="#ADADAD" stroke-miterlimit="10"/>
<path d="M121.382 71.544H111.573V80.7864H121.382V71.544Z" stroke="#ADADAD" stroke-miterlimit="10"/>
<path d="M103.289 74.0836H110.149" stroke="#ADADAD" stroke-miterlimit="10"/>
<path d="M103.289 75.1282H110.149" stroke="#ADADAD" stroke-miterlimit="10"/>
<path d="M103.289 76.1698H110.149" stroke="#ADADAD" stroke-miterlimit="10"/>
<path d="M103.289 77.2144H110.149" stroke="#ADADAD" stroke-miterlimit="10"/>
<path d="M103.289 78.2591H110.149" stroke="#ADADAD" stroke-miterlimit="10"/>
<path d="M70.8658 94.2166H61.0566V103.459H70.8658V94.2166Z" stroke="#ADADAD" stroke-miterlimit="10"/>
<path d="M80.9598 94.2166H71.1506V103.459H80.9598V94.2166Z" stroke="#ADADAD" stroke-miterlimit="10"/>
<path d="M91.0539 94.2166H81.2448V103.459H91.0539V94.2166Z" fill="#5B63F6" stroke="#ADADAD" stroke-miterlimit="10"/>
<path d="M101.151 94.2166H91.3419V103.459H101.151V94.2166Z" fill="#5B63F6" stroke="#ADADAD" stroke-miterlimit="10"/>
<path d="M111.245 94.2166H101.436V103.459H111.245V94.2166Z" fill="#5B63F6" stroke="#ADADAD" stroke-miterlimit="10"/>
<path d="M121.382 94.2166H111.573V103.459H121.382V94.2166Z" stroke="#ADADAD" stroke-miterlimit="10"/>
<path d="M82.8623 96.747H89.7214" stroke="#ADADAD" stroke-miterlimit="10"/>
<path d="M82.8623 97.7917H89.7214" stroke="#ADADAD" stroke-miterlimit="10"/>
<path d="M82.8623 98.8363H89.7214" stroke="#ADADAD" stroke-miterlimit="10"/>
<path d="M82.8623 99.8779H89.7214" stroke="#ADADAD" stroke-miterlimit="10"/>
<path d="M82.8623 100.923H89.7214" stroke="#ADADAD" stroke-miterlimit="10"/>
<path d="M92.8523 96.747H99.7114" stroke="#ADADAD" stroke-miterlimit="10"/>
<path d="M92.8523 97.7917H99.7114" stroke="#ADADAD" stroke-miterlimit="10"/>
<path d="M92.8523 98.8363H99.7114" stroke="#ADADAD" stroke-miterlimit="10"/>
<path d="M92.8523 99.8779H99.7114" stroke="#ADADAD" stroke-miterlimit="10"/>
<path d="M92.8523 100.923H99.7114" stroke="#ADADAD" stroke-miterlimit="10"/>
<path d="M102.842 96.747H109.701" stroke="#ADADAD" stroke-miterlimit="10"/>
<path d="M102.842 97.7917H109.701" stroke="#ADADAD" stroke-miterlimit="10"/>
<path d="M102.842 98.8363H109.701" stroke="#ADADAD" stroke-miterlimit="10"/>
<path d="M102.842 99.8779H109.701" stroke="#ADADAD" stroke-miterlimit="10"/>
<path d="M102.842 100.923H109.701" stroke="#ADADAD" stroke-miterlimit="10"/>
<path d="M33.9112 29.5777C31.1357 27.5221 27.478 27.7396 25.2815 29.1151C23.085 30.4906 22.4049 32.9659 21.7891 34.66C20.5638 38.0298 17.9322 40.0333 15.0832 41.9786C12.3261 43.8687 8.74493 46.6381 10.6351 50.4153C11.4898 52.1278 12.5589 53.3042 10.9414 56.0858C9.32393 58.8674 7.62371 60.154 8.79701 62.8254C9.97032 65.4967 11.4714 69.6753 17.7852 68.1772C24.099 66.6792 26.0259 59.5077 26.6692 56.8425C27.3125 54.1772 30.4036 53.0836 32.6613 51.1689C34.9191 49.2543 34.6955 46.2459 34.0522 44.3221C33.562 42.8455 33.0106 40.744 34.6985 39.0713L34.9191 39.1387C34.9191 39.1387 38.3104 37.607 38.874 36.6726C39.4377 35.7383 36.6837 31.6302 33.9112 29.5777Z" fill="#263238" stroke="#263238" stroke-linecap="round" stroke-linejoin="round"/>
<path d="M38.8494 47.6398C38.8494 47.6398 45.4542 52.7405 47.1759 53.8158C48.8975 54.891 53.0669 56.9037 53.9982 57.6236C54.9295 58.3436 53.4958 61.4285 51.4862 62.5772C49.4765 63.726 47.6078 62.4333 46.5326 61.8573C45.4573 61.2814 38.2612 56.6158 38.2612 56.6158L38.8494 47.6398Z" fill="#919191" stroke="#263238" stroke-linecap="round" stroke-linejoin="round"/>
<path d="M40.3231 50.6757L39.2019 57.1059L41.7538 52.0022" stroke="#263238" stroke-linecap="round" stroke-linejoin="round"/>
<path d="M41.0675 81.1816C41.0675 81.1816 39.3458 81.2521 37.3913 79.4569C35.4368 77.6617 34.9406 76.8713 34.9406 76.8713C34.9406 76.8713 33.948 66.8845 33.948 65.9501C33.948 65.0158 34.7506 60.3501 35.4797 58.0525C36.2088 55.7549 37.5629 58.4845 37.5629 58.4845C37.5629 58.4845 39.2141 74.5676 39.502 76.1484C39.79 77.7291 41.0675 81.1816 41.0675 81.1816Z" fill="#787878" stroke="#263238" stroke-linecap="round" stroke-linejoin="round"/>
<path d="M35.3021 98.8057C35.3021 98.8057 33.3415 103.683 33.2649 106.039C33.1883 108.394 33.6723 111.948 31.8557 115.933C30.0391 119.919 28.3358 125.761 28.0509 127.547C27.766 129.333 29.3988 134.222 30.2443 135.818C31.0898 137.414 30.759 137.295 29.8614 137.264C29.1907 137.266 28.5315 137.09 27.9505 136.755C27.3696 136.42 26.8874 135.937 26.5529 135.356C25.5971 133.751 25.9647 132.752 25.3275 132.17L24.6719 131.585L24.1082 135.049L23.324 134.912L24.0378 130.442C24.0378 130.442 23.9581 129.428 24.4207 128.993C24.8833 128.558 25.6032 127.235 25.6032 127.235C25.6032 127.235 26.3752 120.97 26.1822 116.693C25.9892 112.417 25.8544 109.718 26.3629 107.938C26.8715 106.158 26.8898 105.594 26.9511 103.799C27.0124 102.004 26.9695 99.8687 26.9787 99.5317C26.9879 99.1947 35.3021 98.8057 35.3021 98.8057Z" fill="white"/>
<path opacity="0.2" d="M26.9634 99.5379C26.9634 99.7829 26.9634 100.996 26.9634 102.332C27.9406 102.534 30.3332 102.803 34.2146 101.835C34.7476 100.187 35.3021 98.8057 35.3021 98.8057C35.3021 98.8057 26.9756 99.2009 26.9634 99.5379Z" fill="black"/>
<path d="M35.3021 98.8057C35.3021 98.8057 33.3415 103.683 33.2649 106.039C33.1883 108.394 33.6723 111.948 31.8557 115.933C30.0391 119.919 28.3358 125.761 28.0509 127.547C27.766 129.333 29.3988 134.222 30.2443 135.818C31.0898 137.414 30.759 137.295 29.8614 137.264C29.1907 137.266 28.5315 137.09 27.9505 136.755C27.3696 136.42 26.8874 135.937 26.5529 135.356C25.5971 133.751 25.9647 132.752 25.3275 132.17L24.6719 131.585L24.1082 135.049L23.324 134.912L24.0378 130.442C24.0378 130.442 23.9581 129.428 24.4207 128.993C24.8833 128.558 25.6032 127.235 25.6032 127.235C25.6032 127.235 26.3752 120.97 26.1822 116.693C25.9892 112.417 25.8544 109.718 26.3629 107.938C26.8715 106.158 26.8898 105.594 26.9511 103.799C27.0124 102.004 26.9695 99.8687 26.9787 99.5317C26.9879 99.1947 35.3021 98.8057 35.3021 98.8057Z" stroke="#263238" stroke-linecap="round" stroke-linejoin="round"/>
<path d="M30.2443 135.824L30.1554 135.647C28.2316 136.223 27.3983 134.281 26.4027 131.971C25.927 130.861 25.289 129.829 24.5095 128.907C24.4727 128.944 24.439 128.981 24.4053 129.011C23.9427 129.446 24.0224 130.46 24.0224 130.46L23.3086 134.93L24.0928 135.068L24.6565 131.603L25.3121 132.188C25.9646 132.77 25.597 133.769 26.5375 135.374C26.872 135.955 27.3542 136.438 27.9351 136.773C28.5161 137.108 29.1753 137.284 29.846 137.283C30.7589 137.301 31.0898 137.424 30.2443 135.824Z" fill="#5B63F6" stroke="#263238" stroke-linecap="round" stroke-linejoin="round"/>
<path d="M23.1493 133.003L23.2657 137.056L23.8263 137.074L24.1265 134.045L23.1493 133.003Z" fill="#5B63F6" stroke="#263238" stroke-linecap="round" stroke-linejoin="round"/>
<path d="M19.9357 98.0674C19.9357 98.0674 21.1917 100.803 20.1532 105.04C19.1147 109.277 20.1256 115.937 21.6849 120.146C23.2442 124.355 23.1002 128.169 23.2963 129.073C23.4923 129.976 23.0941 131.762 23.1645 133.003C23.235 134.244 25.309 136.333 25.7256 137.019C26.1422 137.705 29.2945 137.813 30.0818 137.84C30.8691 137.868 31.0009 137.084 30.4556 136.728C29.9103 136.373 28.737 134.311 28.737 134.311C28.737 134.311 26.9632 130.329 26.7825 128.965C26.6017 127.602 25.9707 119.613 26.2525 117.937C26.5343 116.261 27.5177 106.97 27.8241 104.51C28.1304 102.05 28.3602 98.5729 28.3602 98.5729L19.9357 98.0674Z" fill="white"/>
<path opacity="0.2" d="M28.0722 102.032C28.2376 100.209 28.3449 98.5729 28.3449 98.5729L19.9357 98.0674C20.3108 99.0319 20.5181 100.054 20.5484 101.088C21.933 101.581 24.3961 102.166 28.0722 102.032Z" fill="black"/>
<path d="M19.9357 98.0674C19.9357 98.0674 21.1917 100.803 20.1532 105.04C19.1147 109.277 20.1256 115.937 21.6849 120.146C23.2442 124.355 23.1002 128.169 23.2963 129.073C23.4923 129.976 23.0941 131.762 23.1645 133.003C23.235 134.244 25.309 136.333 25.7256 137.019C26.1422 137.705 29.2945 137.813 30.0818 137.84C30.8691 137.868 31.0009 137.084 30.4556 136.728C29.9103 136.373 28.737 134.311 28.737 134.311C28.737 134.311 26.9632 130.329 26.7825 128.965C26.6017 127.602 25.9707 119.613 26.2525 117.937C26.5343 116.261 27.5177 106.97 27.8241 104.51C28.1304 102.05 28.3602 98.5729 28.3602 98.5729L19.9357 98.0674Z" stroke="#263238" stroke-linecap="round" stroke-linejoin="round"/>
<path d="M30.4403 136.728C30.1956 136.528 29.9828 136.291 29.8092 136.027C28.302 135.953 26.4885 135.782 25.885 135.227C25.1773 134.581 23.4985 131.502 23.2504 131.042C23.1701 131.693 23.1364 132.348 23.1493 133.003C23.2198 134.228 25.2937 136.333 25.7103 137.019C26.127 137.705 29.2793 137.813 30.0666 137.84C30.8539 137.868 30.9887 137.084 30.4403 136.728Z" fill="#5B63F6" stroke="#263238" stroke-linecap="round" stroke-linejoin="round"/>
<path d="M18.5204 67.2429C18.5204 67.2429 14.6451 78.884 14.93 83.902C15.2149 88.9199 18.0915 98.8394 18.0915 98.8394C18.0915 98.8394 24.5523 100.561 29.1475 100.561C32.0764 100.524 34.9824 100.039 37.765 99.1243C37.765 99.1243 40.0626 82.888 39.0578 77.1532C38.4251 73.6521 37.0539 70.3259 35.0355 67.3961L18.5204 67.2429Z" fill="#263238" stroke="#263238" stroke-linecap="round" stroke-linejoin="round"/>
<path d="M21.8259 47.2109C21.8259 47.2109 25.5572 45.5597 27.4259 45.5597C29.2946 45.5597 33.3843 48.7182 34.0307 49.2941C34.6771 49.87 36.9747 56.4013 37.3331 58.1965C37.6915 59.9917 35.0355 67.8893 35.0355 67.8893C35.0355 67.8893 30.2259 68.8941 26.6355 68.7532C23.0451 68.6123 21.4644 68.1772 21.4644 68.1772C21.4644 68.1772 20.0307 60.9965 19.32 56.7597C18.6092 52.523 17.8127 49.7138 18.4591 48.6477C19.1055 47.5816 21.8259 47.2109 21.8259 47.2109Z" fill="white"/>
<path opacity="0.3" d="M35.0355 67.8893C35.0355 67.8893 37.6946 59.9917 37.3331 58.1965C36.9716 56.4013 34.6771 49.867 34.0307 49.2941C33.8346 49.1164 33.3138 48.6998 32.6337 48.2066L32.1711 48.8775C32.1711 48.8775 34.5606 55.7549 34.6403 58.4232C34.7169 60.9138 32.4959 67.5217 32.1895 68.3733C33.8438 68.1405 35.0355 67.8893 35.0355 67.8893Z" fill="black"/>
<path d="M21.8259 47.2109C21.8259 47.2109 25.5572 45.5597 27.4259 45.5597C29.2946 45.5597 33.3843 48.7182 34.0307 49.2941C34.6771 49.87 36.9747 56.4013 37.3331 58.1965C37.6915 59.9917 35.0355 67.8893 35.0355 67.8893C35.0355 67.8893 30.2259 68.8941 26.6355 68.7532C23.0451 68.6123 21.4644 68.1772 21.4644 68.1772C21.4644 68.1772 20.0307 60.9965 19.32 56.7597C18.6092 52.523 17.8127 49.7138 18.4591 48.6477C19.1055 47.5816 21.8259 47.2109 21.8259 47.2109Z" stroke="#263238" stroke-linecap="round" stroke-linejoin="round"/>
<path d="M30.7988 46.635C30.7988 46.635 34.5332 53.3134 35.6115 57.4797C36.6899 61.646 38.482 79.0924 39.2724 79.8827C39.8077 80.3951 40.4119 80.8302 41.0675 81.1755C41.0675 81.1755 38.9231 69.3996 38.9231 65.8797C38.9231 62.3597 39.499 48.5742 39.1376 47.7838C38.7761 46.9934 37.5599 47.4254 35.0448 47.1374C32.5297 46.8495 30.7988 46.635 30.7988 46.635Z" fill="#919191" stroke="#263238" stroke-linecap="round" stroke-linejoin="round"/>
<path d="M24.6626 45.1921L12.7151 49.723C12.7151 49.723 13.144 63.6525 13.288 65.4477C13.4319 67.2429 14.1519 68.1772 15.1567 68.8941C16.1615 69.6109 16.5199 68.7532 16.5199 68.7532C16.5199 68.7532 14.5103 76.2923 13.288 78.8626C12.0656 81.4328 12.7151 81.5921 12.7151 81.5921C12.7151 81.5921 17.3807 83.6017 20.7567 82.5265C24.1326 81.4512 25.1374 79.0066 25.1374 79.0066L23.2595 56.9803C23.2595 56.9803 23.2595 50.6604 23.6179 49.2236C23.9764 47.7869 24.6626 45.1921 24.6626 45.1921Z" fill="#919191" stroke="#263238" stroke-linecap="round" stroke-linejoin="round"/>
<path d="M16.2412 72.5151C16.2412 72.5151 19.8132 72.6162 21.9546 71.8013V73.1278C20.3656 73.3421 18.7636 73.4444 17.1602 73.4341" stroke="#263238" stroke-linecap="round" stroke-linejoin="round"/>
<path d="M15.2211 49.7567C15.2211 49.7567 18.3856 51.9011 19.4058 55.2709" stroke="#263238" stroke-linecap="round" stroke-linejoin="round"/>
<path d="M24.6626 45.1921C24.3428 45.454 24.0503 45.7475 23.7895 46.0683C23.379 46.5799 22.2578 48.9449 21.5808 49.6617C20.9038 50.3786 21.2745 50.5348 21.5318 50.4858C21.7891 50.4368 24.2521 49.5667 24.7147 49.3554C25.101 49.1967 25.4957 49.0597 25.8972 48.9449L29.5948 52.5904L30.6241 48.8928C30.6241 48.8928 34.4749 49.1991 34.9375 49.2512C35.4001 49.3033 35.7585 49.046 35.4001 49.046C35.0416 49.046 32.0609 47.5571 31.6504 47.3519C31.2399 47.1466 30.6731 45.912 29.4416 45.091C28.2101 44.27 25.5388 44.0127 24.6626 45.1921Z" fill="white" stroke="#263238" stroke-linecap="round" stroke-linejoin="round"/>
<path d="M29.8522 46.4267L29.5949 52.5904C29.5949 52.5904 25.8452 47.8635 25.3703 47.2998C25.0441 46.8184 24.817 46.2769 24.7025 45.7068L25.113 40.3641C25.113 40.3641 27.527 44.27 28.1458 44.6805C28.7647 45.091 29.8001 45.912 29.8522 46.4267Z" fill="white" stroke="#263238" stroke-linecap="round" stroke-linejoin="round"/>
<path d="M28.1581 44.6805C27.5454 44.27 25.1253 40.3641 25.1253 40.3641L24.819 44.365C25.2907 45.3177 28.9148 47.4499 29.5183 47.5479C29.6124 47.5654 29.7076 47.5756 29.8032 47.5786L29.8522 46.4267C29.8002 45.912 28.7739 45.091 28.1581 44.6805Z" fill="#263238" stroke="#263238" stroke-linecap="round" stroke-linejoin="round"/>
<path d="M34.2698 33.891C34.2698 33.891 28.7739 37.1291 27.1288 37.898L26.2098 38.1554C26.2098 38.1554 25.0273 36.4613 24.4606 36.8197C23.8938 37.1781 23.5875 38.1033 23.8969 38.9274C24.1715 39.506 24.5942 40.0017 25.1223 40.3641C25.1223 40.3641 25.1743 42.8302 25.5358 43.7554C25.8973 44.6805 29.6592 46.8893 30.2719 46.9904C30.8846 47.0915 31.4544 46.9904 31.7638 46.4267C32.0733 45.863 34.0216 43.5501 34.8947 40.3641C35.7678 37.1781 35.247 34.4057 34.2698 33.891Z" fill="white" stroke="#263238" stroke-linecap="round" stroke-linejoin="round"/>
<path d="M33.0382 39.0805L33.1913 42.0613L31.5463 41.6998" stroke="#263238" stroke-linecap="round" stroke-linejoin="round"/>
<path d="M29.4938 42.0613C29.4938 42.0613 29.8522 42.5208 31.3319 43.0354" stroke="#263238" stroke-linecap="round" stroke-linejoin="round"/>
<path d="M29.2365 38.7221C29.2365 38.7221 29.647 39.5952 31.1358 39.2858" stroke="#263238" stroke-linecap="round" stroke-linejoin="round"/>
<path d="M33.6019 39.9015C33.7114 40.0779 33.8791 40.2106 34.076 40.2766C34.2728 40.3426 34.4866 40.3378 34.6803 40.263" stroke="#263238" stroke-linecap="round" stroke-linejoin="round"/>
<path d="M29.6592 37.2823C30.0408 37.1198 30.4514 37.0361 30.8662 37.0361C31.281 37.0361 31.6915 37.1198 32.0732 37.2823" stroke="#263238" stroke-linecap="round" stroke-linejoin="round"/>
<path d="M35.0906 38.4648C34.8854 37.898 33.9633 37.6928 33.9633 37.6928" stroke="#263238" stroke-linecap="round" stroke-linejoin="round"/>
<path d="M44.4342 60.7177L39.839 61.7501C39.839 61.7501 34.1379 61.502 33.7121 61.6674C33.2862 61.8328 33.6722 63.5269 33.6722 63.5269C33.0532 63.5719 32.4317 63.5719 31.8127 63.5269C31.1112 63.4442 30.7803 63.5698 30.9458 64.0232C31.1112 64.4766 31.8127 64.8902 32.4775 64.8902C33.1575 64.8431 33.8332 64.7468 34.4994 64.6022C34.4994 64.6022 36.1935 65.2149 36.8153 65.2149C37.4372 65.2149 38.3471 64.6788 38.3471 64.6788C38.3471 64.6788 39.4622 64.7186 40.0412 64.7615C40.6202 64.8044 41.3615 64.0569 41.3615 64.0569L45.8648 63.9344L44.4342 60.7177Z" fill="white" stroke="#263238" stroke-linecap="round" stroke-linejoin="round"/>
<path d="M32.9493 61.3794C32.9493 61.3794 31.874 61.4621 31.874 61.793C31.874 62.1238 32.744 64.6022 32.744 64.6022L34.478 64.7676C34.478 64.7676 34.7261 64.6849 34.5178 64.3541C34.2773 64.0463 34.0006 63.7686 33.6937 63.5269L33.7335 61.6674L32.9493 61.3794Z" fill="white" stroke="#263238" stroke-linecap="round" stroke-linejoin="round"/>
<path d="M34.7201 61.0884C34.7201 61.0884 32.8483 60.926 32.7778 61.1374C32.7074 61.3488 33.0842 64.5072 33.0842 64.5072C33.0842 64.5072 34.9774 64.9147 35.2286 64.8963C35.2934 64.8886 35.3548 64.8629 35.4057 64.8221C35.4567 64.7813 35.4952 64.7271 35.5169 64.6655C35.5386 64.604 35.5426 64.5376 35.5284 64.4739C35.5143 64.4101 35.4826 64.3517 35.4369 64.305C35.1307 64.0685 34.7975 63.869 34.4443 63.7107L34.7201 61.0884Z" fill="white" stroke="#263238" stroke-linecap="round" stroke-linejoin="round"/>
<path d="M35.8014 60.8832C35.8014 60.8832 33.9419 60.5768 33.8592 60.8004C33.7765 61.0241 33.9419 64.1886 33.9419 64.1886C33.9419 64.1886 35.8014 64.7247 36.0465 64.7247C36.1118 64.7208 36.1747 64.6988 36.2281 64.6612C36.2816 64.6236 36.3236 64.5719 36.3493 64.5118C36.3751 64.4517 36.3836 64.3857 36.374 64.321C36.3643 64.2564 36.3368 64.1957 36.2947 64.1457C36.005 63.8897 35.6863 63.6687 35.345 63.4871L35.8014 60.8832Z" fill="white" stroke="#263238" stroke-linecap="round" stroke-linejoin="round"/>
<path d="M40.5926 62.1208C40.5926 62.1208 35.9637 60.3869 35.7187 60.3042C35.4736 60.2214 35.3051 60.347 35.3051 60.5125C35.3051 60.6779 34.5607 63.7199 34.8088 63.9405C35.057 64.1611 36.5427 64.6022 36.5427 64.6022C36.5427 64.6022 36.9563 64.3112 36.9992 64.1886C37.0421 64.0661 36.5427 63.7322 36.5427 63.7322L36.6255 62.8131L37.7007 63.1838" fill="white"/>
<path d="M40.5926 62.1208C40.5926 62.1208 35.9637 60.3869 35.7187 60.3042C35.4736 60.2214 35.3051 60.347 35.3051 60.5125C35.3051 60.6779 34.5607 63.7199 34.8088 63.9405C35.057 64.1611 36.5427 64.6022 36.5427 64.6022C36.5427 64.6022 36.9563 64.3112 36.9992 64.1886C37.0421 64.0661 36.5427 63.7322 36.5427 63.7322L36.6255 62.8131L37.7007 63.1838" stroke="#263238" stroke-linecap="round" stroke-linejoin="round"/>
<path d="M41.0461 61.4193C41.0461 61.4193 42.0816 62.6446 41.5853 63.9405H42.6575C42.6575 63.9405 43.0711 61.8757 42.1214 61.2967L41.0461 61.4193Z" fill="#263238" stroke="#263238" stroke-linecap="round" stroke-linejoin="round"/>
<path d="M42.6575 60.8004C42.6575 60.8004 43.3896 61.7562 43.5765 64.9637C43.6133 65.558 51.324 64.5195 53.4715 64.1059C55.619 63.6923 56.4461 62.8805 56.6115 61.0884C56.7769 59.2963 54.7918 57.495 53.3061 56.8762C51.8203 56.2573 42.6575 60.8004 42.6575 60.8004Z" fill="#919191" stroke="#263238" stroke-linecap="round" stroke-linejoin="round"/>
<path d="M23.0507 35.2352L20.3498 36.5807C20.0545 36.7278 19.9343 37.0864 20.0814 37.3817L23.6261 44.4974C23.7732 44.7927 24.1318 44.9128 24.4271 44.7657L27.1281 43.4203C27.4234 43.2732 27.5435 42.9145 27.3964 42.6192L23.8518 35.5035C23.7047 35.2082 23.346 35.0881 23.0507 35.2352Z" fill="#5B63F6" stroke="#263238" stroke-linecap="round" stroke-linejoin="round"/>
<path d="M20.9129 49.6617L21.6328 46.7361L20.1011 41.905C20.1011 41.905 21.4888 38.3606 21.7461 38.0022C22.0035 37.6438 22.6652 37.2823 22.9256 37.3895C23.186 37.4967 23.1829 37.8521 22.8245 38.0573C22.5714 38.2377 22.3749 38.4863 22.2577 38.7742L21.4888 41.3965L21.8381 41.9694L22.8153 38.9886C22.8153 38.9886 25.6398 38.6302 25.793 38.6302C25.9461 38.6302 26.565 38.6823 26.2556 39.0928C26.0838 39.3321 25.8276 39.4974 25.5387 39.5554H26.7181C26.7181 39.5554 27.1286 39.7606 26.8713 40.07C26.614 40.3794 24.8709 40.839 24.8709 40.839L24.203 42.9466L25.4866 41.4547L26.7702 41.2495C26.7702 41.2495 27.6433 41.4547 27.4901 41.8162C27.337 42.1777 26.5711 41.9694 26.5711 41.9694L25.7991 42.3799L24.6197 44.5243V47.1956C24.6197 47.8635 23.4372 50.2805 23.4372 50.2805L20.9129 49.6617Z" fill="white" stroke="#263238" stroke-linecap="round" stroke-linejoin="round"/>
<path d="M25.5388 39.5431L23.7895 39.9536L22.8674 42.9344" stroke="#263238" stroke-linecap="round" stroke-linejoin="round"/>
<path d="M20.3156 48.709L24.9843 50.2897C24.9843 50.2897 21.2837 66.6241 20.6955 68.119C19.7581 70.533 16.4342 70.0337 15.0679 69.6048C13.7016 69.1759 12.9235 66.5169 13.2727 65.4385C13.622 64.3602 20.3156 48.709 20.3156 48.709Z" fill="#919191" stroke="#263238" stroke-linecap="round" stroke-linejoin="round"/>
</g>
<defs>
<clipPath id="clip0">
<rect width="136.5" height="140" fill="white" transform="translate(0.25)"/>
</clipPath>
</defs>
</svg>
