<svg width="41" height="32" viewBox="0 0 41 32" fill="none" xmlns="http://www.w3.org/2000/svg">
<g clip-path="url(#clip0)">
<path d="M21.2358 20.4067C21.2214 20.3776 21.2067 20.334 21.2067 20.3049C20.9303 20.3485 20.654 20.3631 20.3631 20.3631C20.0722 20.3631 19.7958 20.3485 19.5195 20.3049C19.5195 20.334 19.5049 20.3776 19.4904 20.4067L17.8705 24.7266H22.8558L21.2358 20.4067ZM13.901 16.3614L5.26546 26.4362C5.0595 26.6762 5.03244 27.0228 5.19869 27.2913C5.36494 27.5611 5.68595 27.689 5.99416 27.6152L11.1062 26.3369L12.3845 31.4489C12.4626 31.7586 12.7311 31.9801 13.0492 31.9985C13.0635 32 13.0763 32 13.0904 32C13.3915 32 13.6642 31.8125 13.7708 31.5284L18.1054 19.9695C16.2673 19.3657 14.7653 18.0641 13.901 16.3614ZM35.4607 26.4362L26.8252 16.3614C25.9609 18.0641 24.4587 19.3656 22.6206 19.9695L26.9552 31.5284C27.0617 31.8125 27.3344 32 27.6356 32C27.6499 32 27.6627 32 27.6768 31.9985C27.995 31.9801 28.2634 31.7586 28.3415 31.4489L29.6198 26.3369L34.7319 27.6152C35.0373 27.6891 35.3596 27.5613 35.5273 27.2913C35.6936 27.0228 35.6667 26.6764 35.4607 26.4362ZM20.3631 7.27253C17.1486 7.27253 14.5451 9.87609 14.5451 13.0906C14.5451 13.5996 14.6178 14.0942 14.7341 14.5596C15.3159 16.785 17.1632 18.4868 19.4758 18.8358C19.7667 18.8795 20.0576 18.9086 20.3631 18.9086C20.6685 18.9086 20.9594 18.8795 21.2503 18.8358C23.563 18.4866 25.4248 16.7705 25.992 14.5451C26.1229 14.0796 26.1811 13.5996 26.1811 13.0906C26.1811 9.87609 23.5775 7.27253 20.3631 7.27253ZM23.2721 14.5451H21.8176V15.9996C21.8176 16.8035 21.167 17.4541 20.3631 17.4541C19.5592 17.4541 18.9086 16.8035 18.9086 15.9996V14.5451H17.4541C16.6502 14.5451 15.9996 13.8945 15.9996 13.0906C15.9996 12.2866 16.6502 11.636 17.4541 11.636H18.9086V10.1815C18.9086 9.37763 19.5592 8.72703 20.3631 8.72703C21.167 8.72703 21.8176 9.37763 21.8176 10.1815V11.636H23.2721C24.076 11.636 24.7266 12.2866 24.7266 13.0906C24.7266 13.8945 24.076 14.5451 23.2721 14.5451ZM40.7262 2.90901V1.45451C40.7262 0.6506 40.0756 0 39.2717 0H1.45451C0.6506 0 0 0.6506 0 1.45451V2.90901H40.7262Z" fill="#999999"/>
<path d="M0 4.36353V23.2721C0 24.076 0.6506 24.7266 1.45451 24.7266H4.80903L12.8869 15.316C13.0178 15.1705 13.1633 15.0396 13.3233 14.9232C13.1778 14.3414 13.0906 13.716 13.0906 13.0906C13.0906 9.07612 16.3486 5.81803 20.3631 5.81803C24.3775 5.81803 27.6356 9.07612 27.6356 13.0906C27.6356 13.716 27.5483 14.3414 27.4029 14.9232C27.5629 15.0249 27.7083 15.156 27.8392 15.3013L35.9065 24.7266H39.2717C40.0756 24.7266 40.7262 24.076 40.7262 23.2721V4.36353H0ZM6.54528 13.0906H3.63626C3.23424 13.0906 2.90901 12.7653 2.90901 12.3633C2.90901 11.9613 3.23424 11.6361 3.63626 11.6361H6.54528C6.9473 11.6361 7.27253 11.9613 7.27253 12.3633C7.27253 12.7653 6.9473 13.0906 6.54528 13.0906ZM7.99978 8.72704H3.63626C3.23424 8.72704 2.90901 8.40181 2.90901 7.99979C2.90901 7.59776 3.23424 7.27254 3.63626 7.27254H7.99978C8.40181 7.27254 8.72703 7.59776 8.72703 7.99979C8.72703 8.40181 8.40181 8.72704 7.99978 8.72704ZM37.0899 13.0906H34.1809C33.7789 13.0906 33.4536 12.7653 33.4536 12.3633C33.4536 11.9613 33.7789 11.6361 34.1809 11.6361H37.0899C37.4919 11.6361 37.8172 11.9613 37.8172 12.3633C37.8172 12.7653 37.4919 13.0906 37.0899 13.0906ZM37.0899 8.72704H32.7264C32.3244 8.72704 31.9991 8.40181 31.9991 7.99979C31.9991 7.59776 32.3244 7.27254 32.7264 7.27254H37.0899C37.4919 7.27254 37.8172 7.59776 37.8172 7.99979C37.8172 8.40181 37.4919 8.72704 37.0899 8.72704Z" fill="#999999"/>
</g>
<defs>
<clipPath id="clip0">
<rect width="40.7262" height="32" fill="white"/>
</clipPath>
</defs>
</svg>
