<svg width="47" height="46" viewBox="0 0 47 46" fill="none" xmlns="http://www.w3.org/2000/svg">
<rect x="0.5" width="46" height="46" rx="8" fill="#9B51E0" fill-opacity="0.3"/>
<g clip-path="url(#clip0)">
<path fill-rule="evenodd" clip-rule="evenodd" d="M15.7427 27.4447C15.4579 27.4039 15.1552 27.381 14.8333 27.381C12.4624 27.381 11.1382 28.632 10.6306 29.2554C10.5483 29.3625 10.5043 29.4938 10.5043 29.6293C10.5043 29.6331 10.5043 29.6368 10.5037 29.6399C10.5 29.8689 10.5 30.1722 10.5 30.4762C10.5 30.8179 10.7773 31.0952 11.119 31.0952H15.5589C15.4889 30.8984 15.4524 30.6891 15.4524 30.4762C15.4524 29.7717 15.4524 28.9323 15.4549 28.4364C15.4549 28.0836 15.5558 27.74 15.7427 27.4447ZM29.6905 31.0952H17.3095C17.1455 31.0952 16.9876 31.0302 16.8719 30.9139C16.7555 30.7981 16.6905 30.6402 16.6905 30.4762C16.6905 29.7736 16.6905 28.9379 16.693 28.4401C16.693 28.4389 16.693 28.4377 16.693 28.4364C16.693 28.2941 16.7425 28.1566 16.8322 28.0464C17.6005 27.1692 19.9219 24.9048 23.5 24.9048C27.5498 24.9048 29.5834 27.1649 30.2055 28.0173C30.2742 28.122 30.3095 28.2402 30.3095 28.3609V30.4762C30.3095 30.6402 30.2445 30.7981 30.1281 30.9139C30.0124 31.0302 29.8545 31.0952 29.6905 31.0952ZM31.4411 31.0952H35.881C36.2227 31.0952 36.5 30.8179 36.5 30.4762V29.6287C36.5 29.4919 36.4548 29.3594 36.3719 29.2511C35.8618 28.6321 34.537 27.381 32.1667 27.381C31.8615 27.381 31.5736 27.4014 31.3025 27.4385C31.4628 27.719 31.5476 28.0371 31.5476 28.3621V30.4762C31.5476 30.6891 31.5111 30.8984 31.4411 31.0952ZM14.8333 19.9524C13.1248 19.9524 11.7381 21.339 11.7381 23.0476C11.7381 24.7562 13.1248 26.1429 14.8333 26.1429C16.5419 26.1429 17.9286 24.7562 17.9286 23.0476C17.9286 21.339 16.5419 19.9524 14.8333 19.9524ZM32.1667 19.9524C30.4581 19.9524 29.0714 21.339 29.0714 23.0476C29.0714 24.7562 30.4581 26.1429 32.1667 26.1429C33.8752 26.1429 35.2619 24.7562 35.2619 23.0476C35.2619 21.339 33.8752 19.9524 32.1667 19.9524ZM23.5 15C21.1086 15 19.1667 16.942 19.1667 19.3333C19.1667 21.7247 21.1086 23.6667 23.5 23.6667C25.8914 23.6667 27.8333 21.7247 27.8333 19.3333C27.8333 16.942 25.8914 15 23.5 15Z" fill="#9B51E0"/>
</g>
<defs>
<clipPath id="clip0">
<rect width="26" height="16.0952" fill="white" transform="translate(10.5 15)"/>
</clipPath>
</defs>
</svg>
