<svg width="27" height="27" viewBox="0 0 27 27" fill="none" xmlns="http://www.w3.org/2000/svg">
<path d="M13.5 0.09375C10.8485 0.09375 8.25654 0.880013 6.05189 2.35311C3.84724 3.82621 2.12893 5.91998 1.11424 8.36965C0.0995549 10.8193 -0.165934 13.5149 0.35135 16.1154C0.868633 18.716 2.14545 21.1047 4.02035 22.9796C5.89525 24.8545 8.28401 26.1314 10.8846 26.6487C13.4851 27.1659 16.1807 26.9004 18.6304 25.8858C21.08 24.8711 23.1738 23.1528 24.6469 20.9481C26.12 18.7435 26.9063 16.1515 26.9063 13.5C26.9022 9.94567 25.4885 6.53808 22.9752 4.02479C20.4619 1.5115 17.0543 0.0977712 13.5 0.09375ZM12.4677 4.21913C12.4677 3.94562 12.5764 3.68332 12.7698 3.48992C12.9632 3.29653 13.2255 3.18788 13.499 3.18788C13.7725 3.18788 14.0348 3.29653 14.2282 3.48992C14.4216 3.68332 14.5302 3.94562 14.5302 4.21913V11.9535C14.5302 12.227 14.4216 12.4893 14.2282 12.6827C14.0348 12.8761 13.7725 12.9848 13.499 12.9848C13.2255 12.9848 12.9632 12.8761 12.7698 12.6827C12.5764 12.4893 12.4677 12.227 12.4677 11.9535V4.21913ZM13.5 23.8125C11.288 23.813 9.13458 23.1021 7.35765 21.7848C5.58072 20.4675 4.27455 18.6136 3.63204 16.497C2.98953 14.3805 3.04476 12.1133 3.78956 10.0306C4.53436 7.94777 5.92925 6.15972 7.76821 4.9305C7.88066 4.85474 8.00696 4.8019 8.13986 4.77501C8.27276 4.74812 8.40966 4.7477 8.54272 4.77378C8.67579 4.79986 8.8024 4.85192 8.91532 4.92699C9.02824 5.00206 9.12525 5.09866 9.20078 5.21127C9.27633 5.32387 9.32892 5.45027 9.35555 5.58322C9.38218 5.71618 9.38233 5.85308 9.356 5.98609C9.32966 6.1191 9.27735 6.24562 9.20205 6.35839C9.12676 6.47116 9.02997 6.56797 8.91722 6.64329C7.44537 7.62656 6.32879 9.05714 5.73242 10.7237C5.13604 12.3903 5.09149 14.2045 5.60536 15.8983C6.11922 17.5922 7.16424 19.0758 8.58606 20.1301C10.0079 21.1845 11.7311 21.7535 13.5012 21.7533C15.2712 21.753 16.9943 21.1835 18.4158 20.1288C19.8374 19.0741 20.882 17.5901 21.3954 15.8962C21.9088 14.2022 21.8637 12.388 21.2669 10.7216C20.6701 9.05517 19.5531 7.6249 18.081 6.64204C17.8538 6.48973 17.6964 6.25341 17.6435 5.98508C17.5906 5.71674 17.6464 5.43837 17.7987 5.2112C17.951 4.98402 18.1873 4.82666 18.4557 4.77373C18.724 4.72079 19.0024 4.77662 19.2295 4.92893C21.069 6.1578 22.4645 7.94572 23.2098 10.0286C23.955 12.1115 24.0107 14.3788 23.3684 16.4957C22.7261 18.6126 21.4199 20.4668 19.6429 21.7843C17.8659 23.1019 15.7122 23.813 13.5 23.8125Z" fill="white"/>
</svg>
