<svg width="41" height="45" viewBox="0 0 41 45" fill="none" xmlns="http://www.w3.org/2000/svg">
<path d="M7.67077 7.24157H23.5246C23.7462 7.24157 23.85 7.13772 23.8639 7.09618V4.20234C23.8569 4.17464 23.7462 4.05695 23.5246 4.05695H19.7031C19.1769 4.05695 18.6715 3.85618 18.3392 3.51003C18.0554 3.22618 17.91 2.85234 17.9169 2.47157C17.9239 2.31926 17.8962 2.16695 17.8477 2.01464C17.6331 1.3708 16.9269 0.858491 16.0823 0.726953C15.2446 0.595414 14.4139 0.803106 13.86 1.28772C13.4862 1.60618 13.2785 2.02157 13.2785 2.44388C13.2785 2.85234 13.1192 3.24003 12.8215 3.53772C12.4823 3.87695 12.0254 4.05695 11.52 4.05695H7.67077C7.44924 4.05695 7.34539 4.17464 7.33154 4.20234V7.10311C7.34539 7.1308 7.44924 7.24157 7.67077 7.24157Z" fill="#999999"/>
<path d="M29.0699 6.36926H25.2968V7.10311C25.2968 7.96849 24.5006 8.66772 23.5314 8.66772H7.67757C6.70834 8.66772 5.91219 7.96849 5.91219 7.10311V6.36926H2.13911C0.982955 6.36926 0.0483398 7.30388 0.0483398 8.46003V42.8954C0.0483398 44.0516 0.982955 44.9931 2.13911 44.9931H29.0699C30.226 44.9931 31.1676 44.0516 31.1676 42.8954V8.46003C31.1676 7.30388 30.226 6.36926 29.0699 6.36926ZM2.78988 12.7454C2.78988 12.3508 3.10142 12.0323 3.50296 12.0323H4.79757V10.7377C4.79757 10.3431 5.11603 10.0246 5.51065 10.0246C5.90526 10.0246 6.23065 10.3431 6.23065 10.7377V12.0323H7.52526C7.9268 12.0323 8.23834 12.3508 8.23834 12.7454C8.23834 13.14 7.9268 13.4585 7.52526 13.4585H6.23065V14.7531C6.23065 15.1477 5.91219 15.4662 5.51757 15.4662C5.12296 15.4662 4.80449 15.1477 4.80449 14.7531V13.4585H3.50988C3.10834 13.4585 2.78988 13.1331 2.78988 12.7454ZM26.3283 40.6385H4.88757C4.48603 40.6385 4.17449 40.32 4.17449 39.9254C4.17449 39.5308 4.48603 39.2123 4.88757 39.2123H26.3283C26.723 39.2123 27.0414 39.5308 27.0414 39.9254C27.0414 40.32 26.716 40.6385 26.3283 40.6385ZM26.3283 33.5354H4.88757C4.48603 33.5354 4.17449 33.2239 4.17449 32.8223C4.17449 32.4277 4.48603 32.1093 4.88757 32.1093H26.3283C26.723 32.1093 27.0414 32.4277 27.0414 32.8223C27.0414 33.2239 26.716 33.5354 26.3283 33.5354ZM26.3283 26.4393H4.88757C4.48603 26.4393 4.17449 26.1208 4.17449 25.7262C4.17449 25.3246 4.48603 25.0131 4.88757 25.0131H26.3283C26.723 25.0131 27.0414 25.3246 27.0414 25.7262C27.0414 26.1208 26.716 26.4393 26.3283 26.4393ZM26.3283 19.3362H4.88757C4.48603 19.3362 4.17449 19.0177 4.17449 18.6231C4.17449 18.2285 4.48603 17.91 4.88757 17.91H26.3283C26.723 17.91 27.0414 18.2285 27.0414 18.6231C27.0414 19.0177 26.716 19.3362 26.3283 19.3362ZM39.1014 16.6016C38.9906 16.4908 38.873 16.3939 38.7553 16.297L38.4922 16.0893V10.8277C38.4922 10.3431 38.2983 9.87926 37.9522 9.52619C37.613 9.18696 37.156 9.00003 36.6576 9.00003C35.6468 9.00003 34.823 9.81696 34.823 10.8277V16.1031L34.553 16.3108C33.7014 16.9546 33.2099 17.9516 33.2099 19.0385V39.4754C33.2099 41.3793 34.7606 42.9231 36.6645 42.9231C38.5614 42.9162 40.1122 41.3723 40.1122 39.4754V19.0385C40.1122 18.1177 39.7522 17.2523 39.1014 16.6016Z" fill="#999999"/>
</svg>
