<svg width="40" height="40" viewBox="0 0 40 40" fill="none" xmlns="http://www.w3.org/2000/svg">
<g clip-path="url(#clip0)">
<path d="M21.2956 30.1326L23.2786 32.1821C23.9911 32.9196 25.3026 33.1043 26.1917 32.591L27.8083 31.6577C28.6974 31.1443 29.1932 29.9161 28.9107 28.9304L28.1273 26.1883C28.0595 25.9557 28.0395 25.7118 28.0686 25.4713C28.0976 25.2308 28.1751 24.9987 28.2963 24.7889C28.4175 24.5791 28.5799 24.3961 28.7738 24.2508C28.9677 24.1055 29.189 24.001 29.4243 23.9436L32.1878 23.2534C33.1839 23.0038 34.0019 21.9603 33.9997 20.9335L33.9988 19.0652C33.9965 18.0384 33.1845 16.9941 32.1869 16.7445L29.4216 16.0541C29.1859 15.9968 28.9642 15.8923 28.7701 15.7468C28.5759 15.6013 28.4134 15.4179 28.2922 15.2077C28.1711 14.9975 28.0938 14.7649 28.0652 14.524C28.0367 14.2831 28.0573 14.0388 28.1259 13.8061L28.9074 11.068C29.191 10.0809 28.6942 8.85457 27.8061 8.3392L26.187 7.40522C25.2972 6.89078 23.9862 7.07652 23.2736 7.81342L21.294 9.86159C21.1264 10.0365 20.9251 10.1758 20.7023 10.271C20.4795 10.3662 20.2397 10.4153 19.9974 10.4155C19.7551 10.4157 19.5152 10.3669 19.2923 10.272C19.0693 10.1771 18.8678 10.0381 18.6999 9.86341L16.7205 7.81621C16.0089 7.08032 14.6974 6.89561 13.8083 7.40894L12.1917 8.34227C11.3026 8.85561 10.8068 10.0838 11.0892 11.0696L11.8724 13.8074C11.9398 14.0402 11.9594 14.2842 11.9302 14.5248C11.9009 14.7654 11.8234 14.9976 11.7022 15.2074C11.581 15.4173 11.4187 15.6005 11.2249 15.7461C11.0312 15.8917 10.81 15.9967 10.5748 16.0547L7.81123 16.7449C6.81419 16.9929 5.99713 18.038 5.99845 19.0632L5.99936 20.9315C6.00162 21.9583 6.81363 23.0026 7.81288 23.2512L10.573 23.9403C10.8084 23.9985 11.0296 24.1036 11.2234 24.2493C11.4172 24.395 11.5795 24.5783 11.7008 24.7883C11.822 24.9983 11.8996 25.2305 11.9289 25.4712C11.9582 25.7119 11.9386 25.956 11.8713 26.1889L11.0866 28.9289C10.8055 29.9167 11.3007 31.144 12.1904 31.6584L13.8095 32.5924C14.6977 33.1078 16.0103 32.9211 16.7246 32.1833L18.7041 30.1351C18.8712 29.9598 19.0722 29.8202 19.2948 29.7247C19.5174 29.6293 19.7571 29.5799 19.9993 29.5797C20.2415 29.5795 20.4813 29.6283 20.7041 29.7234C20.9269 29.8184 21.1281 29.9576 21.2956 30.1326ZM18.1333 16.7668C18.9908 16.2717 20.0099 16.1376 20.9663 16.3938C21.9227 16.6501 22.7381 17.2758 23.2332 18.1333C23.7282 18.9908 23.8624 20.0098 23.6061 20.9662C23.3499 21.9226 22.7242 22.7381 21.8667 23.2331C21.0092 23.7282 19.9901 23.8624 19.0337 23.6061C18.0773 23.3498 17.2619 22.7241 16.7668 21.8666C16.2718 21.0091 16.1376 19.9901 16.3939 19.0337C16.6501 18.0773 17.2758 17.2619 18.1333 16.7668Z" fill="white"/>
</g>
<defs>
<clipPath id="clip0">
<rect width="28" height="28" fill="white" transform="translate(0.875645 14.8756) rotate(-30)"/>
</clipPath>
</defs>
</svg>
