<svg width="46" height="46" viewBox="0 0 46 46" fill="none" xmlns="http://www.w3.org/2000/svg">
<rect width="46" height="46" rx="8" fill="#5B63F6"/>
<path d="M27.4144 11.029C27.3861 10.9643 27.3296 10.9503 27.245 10.9874C27.1774 10.9091 27.0988 10.8896 27.009 10.9288C26.8324 11.0061 26.7055 11.1928 26.6281 11.4892C26.5509 11.7855 26.5548 12.0313 26.6401 12.2263C26.6756 12.3073 26.7285 12.3634 26.7994 12.3948C26.8701 12.4261 26.9386 12.4273 27.0046 12.3983C27.185 12.3194 27.316 12.11 27.3979 11.7699C27.5053 12.0534 27.6281 12.1651 27.7664 12.1045C27.8077 12.0865 27.8418 12.0566 27.8686 12.0151C27.8956 11.9735 27.9008 11.9338 27.8845 11.8965C27.8735 11.8714 27.8503 11.8583 27.8147 11.8572C27.7796 11.8568 27.7565 11.8521 27.7453 11.8429C27.7343 11.8335 27.7139 11.8127 27.6842 11.7801C27.6548 11.7474 27.6193 11.6839 27.5781 11.5898C27.5386 11.4992 27.5003 11.3718 27.4634 11.2074C27.4443 11.1195 27.4279 11.06 27.4144 11.029ZM27.1834 11.7594C27.1241 11.969 27.0509 12.0928 26.964 12.1308C26.9388 12.1418 26.9132 12.1171 26.8869 12.0569C26.8367 11.942 26.8351 11.7763 26.8821 11.5598C26.9289 11.3434 26.9895 11.2188 27.0638 11.1863C27.0844 11.1773 27.1076 11.18 27.1339 11.1945C27.1599 11.209 27.181 11.2347 27.1971 11.2715C27.2474 11.387 27.2431 11.5497 27.1834 11.7594ZM29.1283 11.0361C29.0951 11.002 29.0607 10.9612 29.0248 10.9137C28.9891 10.8663 28.9485 10.8012 28.9026 10.7186C28.8044 10.546 28.725 10.4472 28.6647 10.4223C28.6041 10.3975 28.5427 10.3987 28.4801 10.426C28.3895 10.4656 28.3181 10.5463 28.2657 10.6678C28.2133 10.7894 28.1759 10.9913 28.1539 11.2736C28.1319 11.1832 28.1065 11.0598 28.0775 10.9033C28.029 10.6441 27.9912 10.4563 27.964 10.3401C27.9369 10.224 27.9053 10.1248 27.8692 10.0422C27.8458 9.9885 27.8129 9.95278 27.7711 9.93527C27.7292 9.91765 27.6889 9.91741 27.6498 9.93445C27.6219 9.94675 27.6 9.98057 27.5844 10.0359C27.5688 10.0913 27.5785 10.1755 27.6139 10.288C27.7611 10.755 27.8834 11.2024 27.9814 11.6303C28.0071 11.7435 28.0243 11.8101 28.0332 11.83C28.0508 11.8706 28.0785 11.8958 28.1162 11.9055C28.1537 11.9153 28.195 11.9104 28.2399 11.8908C28.267 11.8788 28.285 11.8574 28.2933 11.8267C28.3018 11.7958 28.306 11.7343 28.3059 11.6423C28.3157 11.5162 28.345 11.3409 28.3937 11.1166C28.4424 10.8924 28.4882 10.7709 28.5309 10.7522C28.5626 10.7384 28.5944 10.7499 28.6267 10.7866C28.659 10.8234 28.7147 10.916 28.7937 11.0647C28.8584 11.1863 28.9317 11.2717 29.0135 11.321C29.0956 11.3702 29.1692 11.3804 29.2349 11.3518C29.2679 11.3374 29.2924 11.3135 29.3082 11.2803C29.324 11.2472 29.326 11.2173 29.3145 11.1908C29.3028 11.1642 29.2796 11.1416 29.2451 11.1224C29.2007 11.099 29.1618 11.0703 29.1283 11.0361ZM30.003 10.3446C30.0751 10.1749 30.0833 10.0261 30.0272 9.89813C29.9957 9.82598 29.9435 9.77477 29.8705 9.74437C29.7977 9.71397 29.7201 9.71681 29.6376 9.75277C29.472 9.82527 29.3559 9.98341 29.2889 10.2275C29.2222 10.4716 29.2337 10.6966 29.324 10.9027C29.3851 11.0426 29.4685 11.136 29.5741 11.1831C29.6797 11.2302 29.7947 11.2266 29.9191 11.1722C30.0809 11.1014 30.2031 10.9848 30.2854 10.822C30.3678 10.6594 30.392 10.5397 30.3587 10.4633C30.337 10.414 30.3043 10.3989 30.2599 10.4183C30.2335 10.4299 30.2128 10.4564 30.1978 10.4982C30.1186 10.7141 30.0051 10.8547 29.8573 10.9194C29.805 10.9422 29.7561 10.9444 29.711 10.9261C29.6657 10.9078 29.6353 10.881 29.6198 10.8457C29.6104 10.8244 29.6157 10.8062 29.6355 10.7915C29.8082 10.6633 29.9307 10.5143 30.003 10.3446ZM29.5324 10.5918C29.5111 10.475 29.5188 10.3523 29.5557 10.224C29.5924 10.0957 29.6427 10.0175 29.7067 9.98956C29.7282 9.98022 29.7492 9.98093 29.7701 9.99157C29.791 10.0022 29.8068 10.0196 29.8173 10.0439C29.8444 10.1056 29.83 10.194 29.7746 10.3084C29.7191 10.4229 29.6385 10.5174 29.5324 10.5918ZM31.369 9.1745C31.3417 9.11193 31.2888 9.09774 31.2109 9.1318C31.1298 9.16717 31.0396 9.30626 30.9398 9.54897L30.735 10.0041C30.7214 9.97064 30.6841 9.84053 30.6236 9.61367L30.6224 9.61414L30.5856 9.4579C30.5049 9.10483 30.454 8.90435 30.4331 8.85656C30.4163 8.81836 30.3924 8.78997 30.361 8.77164C30.3298 8.75331 30.2981 8.75118 30.2657 8.76537C30.2317 8.78015 30.2054 8.80594 30.1863 8.84272C30.1675 8.87951 30.1597 8.92091 30.1634 8.96727C30.1668 9.01352 30.1881 9.10507 30.2268 9.24192C30.2657 9.37877 30.3237 9.56754 30.4009 9.80812C30.5028 10.1073 30.5743 10.3517 30.6153 10.5416C30.6361 10.6394 30.6524 10.7016 30.6639 10.7281C30.6749 10.7531 30.6979 10.7726 30.7329 10.7866C30.7681 10.8007 30.8073 10.7982 30.8507 10.7792C30.8926 10.761 30.9214 10.7299 30.9369 10.6862C30.9523 10.6426 30.9495 10.5962 30.9279 10.5469C30.8849 10.4483 30.8561 10.3657 30.8418 10.2991L30.8414 10.2979C30.8434 10.2805 30.8513 10.2527 30.8656 10.215C30.8797 10.1773 30.8894 10.1573 30.8945 10.155C30.9025 10.1515 30.9766 10.1853 31.1165 10.2565C31.2912 10.345 31.4147 10.3969 31.4869 10.4121C31.5593 10.4272 31.6225 10.4232 31.6763 10.3996C31.7675 10.3598 31.8232 10.3116 31.8433 10.2556C31.8634 10.1995 31.8668 10.1563 31.8537 10.1261C31.8444 10.1048 31.8321 10.091 31.8167 10.085C31.8013 10.079 31.7848 10.0798 31.7673 10.0875L31.7192 10.1099C31.6699 10.1314 31.6114 10.1337 31.5439 10.1167C31.4765 10.0998 31.38 10.065 31.2545 10.0126C31.129 9.96011 31.0634 9.92723 31.0576 9.91398C31.0525 9.90215 31.0565 9.8785 31.0699 9.84278C31.0854 9.8002 31.1121 9.74413 31.1503 9.67482C31.1835 9.61462 31.2177 9.55725 31.2525 9.50249C31.2713 9.47327 31.2969 9.43755 31.3291 9.39533L31.3304 9.39213L31.3294 9.39261C31.3898 9.32531 31.4031 9.25245 31.369 9.1745ZM19.7291 23.7853C19.0822 23.7853 18.5533 23.2789 18.5244 22.6322C18.4951 21.9676 19.0119 21.4029 19.6764 21.3736L20.5043 21.3369C20.408 21.2874 20.3179 21.2249 20.2368 21.1499L17.5349 18.6509C17.4392 18.5625 17.3619 18.4616 17.3015 18.3535C16.9077 20.8912 17.1762 22.9605 17.7402 25.4669C17.7494 25.5516 17.7644 25.6366 17.7889 25.7212C17.8038 25.7729 19.2498 30.9544 16.5213 36.7704C16.1745 37.5097 16.4925 38.39 17.2318 38.7368C17.4348 38.8322 17.6483 38.8772 17.8588 38.8772C18.4143 38.8772 18.9467 38.5625 19.1983 38.0263C21.2083 33.742 21.2852 29.7563 21.0473 27.3244C21.1141 27.3369 21.1809 27.3498 21.2477 27.3627L21.1278 27.6578L21.1031 27.6474C21.2594 27.718 24.9092 29.4639 22.9346 37.0331C22.7284 37.8232 23.2019 38.6308 23.992 38.8369C24.1172 38.8695 24.2427 38.8851 24.3663 38.8851C25.0228 38.8851 25.6224 38.4444 25.7959 37.7795C27.8185 30.0261 24.8638 26.6908 23.2148 25.4899C23.0052 24.7979 22.8926 24.1946 22.8588 23.6479L19.7831 23.784C19.7651 23.7849 19.747 23.7853 19.7291 23.7853ZM21.6988 21.2841L22.7549 21.2374L22.589 20.3084L21.9831 21.0362C21.9017 21.134 21.8053 21.2171 21.6988 21.2841ZM18.2897 16.8221C18.1124 16.8343 17.9384 16.8958 17.7899 17.0064C17.7777 17.0149 17.7663 17.0242 17.7547 17.0332L17.7557 17.0336C17.7223 17.061 17.6899 17.09 17.6597 17.1226C17.3049 17.5062 17.3282 18.105 17.7117 18.4598L20.4135 20.9588C20.5889 21.1211 20.8186 21.2104 21.0561 21.2104C21.0766 21.2104 21.0971 21.2098 21.1176 21.2084C21.3766 21.1915 21.6173 21.069 21.7834 20.8696L24.9743 17.0369C25.3087 16.6352 25.2541 16.0386 24.8525 15.7042C24.451 15.37 23.8544 15.4243 23.5199 15.8261L20.9669 18.8927L19.549 17.5812L20.121 17.7559L20.9422 18.5155L21.7271 17.5727C20.7069 17.3188 19.6507 17.0466 18.7265 16.8411C18.5908 16.8098 18.4396 16.8031 18.2897 16.8221Z" fill="white"/>
<path d="M22.9277 15.3974C23.1838 14.9048 23.6851 14.658 24.0474 14.8463C24.1949 14.9229 24.2958 15.0606 24.3472 15.2294C24.5928 15.2499 24.8283 15.3455 25.0187 15.5043C25.0646 15.5425 25.106 15.5843 25.145 15.6279C25.3372 15.2599 25.4465 14.8418 25.4465 14.3979C25.4465 12.928 24.2551 11.7366 22.7852 11.7366C21.3154 11.7366 20.1239 12.928 20.1239 14.3979C20.1239 15.6691 21.0155 16.7315 22.2074 16.9955L22.8228 16.2563C22.7445 16.0094 22.7741 15.693 22.9277 15.3974ZM22.6414 20.2456L22.8374 20.218L23.0634 21.4842L19.688 21.6336C19.1659 21.6567 18.7614 22.0987 18.7844 22.6208C18.8069 23.1287 19.2256 23.5253 19.729 23.5251C19.7431 23.5251 19.7573 23.5249 19.7715 23.5242L24.2266 23.327C24.4991 23.315 24.753 23.1859 24.9236 22.973C25.0939 22.76 25.1643 22.4839 25.1163 22.2154L24.7125 19.9544L24.5249 18.9036C24.4854 18.6823 24.3716 18.4932 24.2142 18.3563L22.6414 20.2456ZM28.0933 18.6054C28.5806 18.0587 27.4752 17.1945 26.6579 17.4087C27.5164 18.2136 27.6347 19.1199 28.0933 18.6054ZM27.6069 16.6349C27.6463 15.9071 26.2501 15.9217 25.7475 16.5957C26.915 16.6885 27.5699 17.3198 27.6069 16.6349ZM26.3764 18.7449C26.9299 18.4288 26.2574 17.4097 25.5239 17.3601C26.009 18.2618 25.8555 19.0423 26.3764 18.7449Z" fill="white"/>
<path d="M24.9735 10.5538L25.1509 10.746L30.7692 6.76882L30.5031 6L24.9735 10.5538Z" fill="white"/>
<path d="M26.3322 13.7267L33.2156 13.6865L33.4381 12.9039L26.297 13.4676L26.3322 13.7267Z" fill="white"/>
<path d="M20.3981 11.6414C20.1219 11.8544 20.0818 12.2017 20.0803 12.2164C20.0733 12.2811 20.12 12.3391 20.1848 12.3463C20.1893 12.3468 20.1937 12.347 20.198 12.347C20.2572 12.347 20.3084 12.3023 20.3154 12.242C20.3158 12.2394 20.3481 11.9774 20.5442 11.8275C20.6698 11.7315 20.8402 11.6989 21.0503 11.7309C21.1151 11.7412 21.1752 11.6962 21.185 11.6316C21.1948 11.5671 21.1504 11.5067 21.0858 11.4969C20.8082 11.4549 20.5769 11.5035 20.3981 11.6414Z" fill="white"/>
<path d="M21.1114 10.9707C20.701 10.8923 20.3545 10.9492 20.0817 11.1402C19.6668 11.4308 19.5829 11.9239 19.5795 11.9448C19.5691 12.0092 19.6127 12.0696 19.6771 12.0803C19.6836 12.0813 19.69 12.0818 19.6963 12.0818C19.7531 12.0818 19.8033 12.0407 19.813 11.9829C19.8137 11.9788 19.8863 11.5645 20.2193 11.3326C20.4371 11.1808 20.7224 11.1371 21.067 11.2031C21.1311 11.2153 21.1931 11.1732 21.2054 11.1091C21.2178 11.045 21.1757 10.983 21.1114 10.9707ZM16.6069 17.107C16.6114 17.1075 16.6158 17.1078 16.62 17.1078C16.6793 17.1078 16.7305 17.063 16.7375 17.0027C16.7378 17.0001 16.7701 16.7381 16.9662 16.5883C17.0918 16.4922 17.2622 16.4598 17.4723 16.4916C17.5373 16.5016 17.5972 16.4571 17.6071 16.3924C17.6169 16.3277 17.5724 16.2675 17.5078 16.2577C17.2302 16.2156 16.999 16.2643 16.8203 16.4022C16.5441 16.6151 16.504 16.9625 16.5024 16.9772C16.4955 17.0419 16.5422 17.0998 16.6069 17.107Z" fill="white"/>
<path d="M17.5335 15.7314C17.1232 15.6531 16.7765 15.71 16.5037 15.9009C16.0888 16.1915 16.005 16.6846 16.0015 16.7056C15.9911 16.7699 16.0348 16.8304 16.0991 16.841C16.1056 16.8421 16.112 16.8425 16.1184 16.8425C16.1752 16.8425 16.2253 16.8014 16.235 16.7437C16.2357 16.7395 16.3084 16.3252 16.6413 16.0934C16.8593 15.9415 17.1446 15.8978 17.489 15.9638C17.5529 15.9757 17.6151 15.9339 17.6274 15.8698C17.6398 15.8057 17.5977 15.7437 17.5335 15.7314ZM25.9201 23.3262C25.9483 23.3262 25.9766 23.3162 25.9991 23.2958C26.2076 23.1081 26.3169 22.8985 26.3239 22.6728C26.3347 22.3242 26.0917 22.0728 26.0813 22.0622C26.0355 22.0156 25.9607 22.0149 25.9141 22.0607C25.8675 22.1065 25.8668 22.1813 25.9125 22.2279C25.9144 22.2298 26.0949 22.4207 26.0875 22.6655C26.0825 22.8242 25.9996 22.977 25.8409 23.1199C25.7922 23.1635 25.7883 23.2383 25.8321 23.2869C25.8555 23.3129 25.8877 23.3262 25.9201 23.3262Z" fill="white"/>
<path d="M26.3139 23.6771C26.3406 23.6771 26.3674 23.6681 26.3894 23.6498C26.7108 23.3823 26.8866 23.0784 26.9121 22.7465C26.9509 22.2415 26.623 21.8636 26.6091 21.8477C26.5658 21.7989 26.4915 21.7941 26.4424 21.8372C26.3935 21.8801 26.3885 21.9549 26.4314 22.004C26.4341 22.0071 26.7082 22.3263 26.676 22.7307C26.655 22.9955 26.5076 23.2435 26.238 23.4679C26.1878 23.5098 26.181 23.5843 26.2228 23.6344C26.2462 23.6626 26.2799 23.6771 26.3139 23.6771Z" fill="white"/>
</svg>
