<svg width="46" height="46" viewBox="0 0 46 46" fill="none" xmlns="http://www.w3.org/2000/svg">
<rect width="46" height="46" rx="8" fill="#EB5757" fill-opacity="0.3"/>
<g clip-path="url(#clip0)">
<path d="M32.1 11H13.9C12.8657 11 11.8737 11.4109 11.1423 12.1423C10.4109 12.8737 10 13.8657 10 14.9V34.4C10.0004 34.6304 10.062 34.8565 10.1785 35.0552C10.295 35.2539 10.4622 35.4181 10.663 35.531C10.8573 35.6411 11.0767 35.6993 11.3 35.7C11.5333 35.6999 11.7623 35.6371 11.963 35.518L17.8 31.982C18.0158 31.8536 18.2641 31.7903 18.515 31.8H32.1C33.1343 31.8 34.1263 31.3891 34.8577 30.6577C35.5891 29.9263 36 28.9343 36 27.9V14.9C36 13.8657 35.5891 12.8737 34.8577 12.1423C34.1263 11.4109 33.1343 11 32.1 11ZM17.8 22.7C17.5429 22.7 17.2915 22.6238 17.0778 22.4809C16.864 22.3381 16.6974 22.135 16.599 21.8975C16.5006 21.6599 16.4748 21.3986 16.525 21.1464C16.5751 20.8942 16.699 20.6626 16.8808 20.4808C17.0626 20.299 17.2942 20.1751 17.5464 20.125C17.7986 20.0748 18.0599 20.1006 18.2975 20.199C18.535 20.2974 18.7381 20.464 18.8809 20.6778C19.0238 20.8915 19.1 21.1429 19.1 21.4C19.1 21.7448 18.963 22.0754 18.7192 22.3192C18.4754 22.563 18.1448 22.7 17.8 22.7ZM23 22.7C22.7429 22.7 22.4915 22.6238 22.2778 22.4809C22.064 22.3381 21.8974 22.135 21.799 21.8975C21.7006 21.6599 21.6748 21.3986 21.725 21.1464C21.7751 20.8942 21.899 20.6626 22.0808 20.4808C22.2626 20.299 22.4942 20.1751 22.7464 20.125C22.9986 20.0748 23.2599 20.1006 23.4975 20.199C23.735 20.2974 23.9381 20.464 24.0809 20.6778C24.2238 20.8915 24.3 21.1429 24.3 21.4C24.3 21.7448 24.163 22.0754 23.9192 22.3192C23.6754 22.563 23.3448 22.7 23 22.7ZM28.2 22.7C27.9429 22.7 27.6915 22.6238 27.4778 22.4809C27.264 22.3381 27.0973 22.135 26.999 21.8975C26.9006 21.6599 26.8748 21.3986 26.925 21.1464C26.9751 20.8942 27.099 20.6626 27.2808 20.4808C27.4626 20.299 27.6942 20.1751 27.9464 20.125C28.1986 20.0748 28.4599 20.1006 28.6975 20.199C28.935 20.2974 29.1381 20.464 29.2809 20.6778C29.4238 20.8915 29.5 21.1429 29.5 21.4C29.5 21.7448 29.363 22.0754 29.1192 22.3192C28.8754 22.563 28.5448 22.7 28.2 22.7Z" fill="#EB5757"/>
</g>
<defs>
<clipPath id="clip0">
<rect width="26" height="24.7" fill="white" transform="translate(10 11)"/>
</clipPath>
</defs>
</svg>
