<svg width="47" height="46" viewBox="0 0 47 46" fill="none" xmlns="http://www.w3.org/2000/svg">
<rect x="0.5" width="46" height="46" rx="8" fill="#219653" fill-opacity="0.3"/>
<g clip-path="url(#clip0)">
<path d="M10.5 33.2143C10.5 34.7929 11.7071 36 13.2857 36H33.7143C35.2929 36 36.5 34.7929 36.5 33.2143V19.2857H10.5V33.2143ZM33.7143 11.8571H32.7857V10.9286C32.7857 10.3714 32.4143 10 31.8571 10C31.3 10 30.9286 10.3714 30.9286 10.9286V11.8571H27.2143V10.9286C27.2143 10.3714 26.8429 10 26.2857 10C25.7286 10 25.3571 10.3714 25.3571 10.9286V11.8571H21.6429V10.9286C21.6429 10.3714 21.2714 10 20.7143 10C20.1571 10 19.7857 10.3714 19.7857 10.9286V11.8571H16.0714V10.9286C16.0714 10.3714 15.7 10 15.1429 10C14.5857 10 14.2143 10.3714 14.2143 10.9286V11.8571H13.2857C11.7071 11.8571 10.5 13.0643 10.5 14.6429V17.4286H36.5V14.6429C36.5 13.0643 35.2929 11.8571 33.7143 11.8571ZM29.0714 15.5714H17.9286C17.3714 15.5714 17 15.2 17 14.6429C17 14.0857 17.3714 13.7143 17.9286 13.7143H29.0714C29.6286 13.7143 30 14.0857 30 14.6429C30 15.2 29.6286 15.5714 29.0714 15.5714Z" fill="#219653"/>
</g>
<defs>
<clipPath id="clip0">
<rect width="26" height="26" fill="white" transform="translate(10.5 10)"/>
</clipPath>
</defs>
</svg>
