<svg width="246" height="184" viewBox="0 0 246 184" fill="none" xmlns="http://www.w3.org/2000/svg">
<path d="M246 161.105H0V161.228H246V161.105Z" fill="#EBEBEB"/>
<path d="M221.351 169.022H205.056V169.145H221.351V169.022Z" fill="#EBEBEB"/>
<path d="M134.424 167.482H128.083V167.605H134.424V167.482Z" fill="#EBEBEB"/>
<path d="M172.037 167.998H158.685V168.121H172.037V167.998Z" fill="#EBEBEB"/>
<path d="M204.564 164.456H176.958V164.579H204.564V164.456Z" fill="#EBEBEB"/>
<path d="M38.8628 170.148H25.8101V170.271H38.8628V170.148Z" fill="#EBEBEB"/>
<path d="M54.5582 170.148H43.2422V170.271H54.5582V170.148Z" fill="#EBEBEB"/>
<path d="M94.3707 167.418H64.4521V167.541H94.3707V167.418Z" fill="#EBEBEB"/>
<path d="M116.604 139.162H21.6037C20.8595 139.161 20.1462 138.864 19.6204 138.338C19.0946 137.811 18.7993 137.097 18.7993 136.353V2.80932C18.8058 2.06936 19.104 1.36184 19.629 0.840441C20.1541 0.319039 20.8637 0.0258648 21.6037 0.0245972H116.604C117.349 0.0245972 118.064 0.320578 118.59 0.847428C119.117 1.37428 119.413 2.08884 119.413 2.83392V136.353C119.413 137.098 119.117 137.813 118.59 138.339C118.064 138.866 117.349 139.162 116.604 139.162ZM21.6037 0.122998C20.8921 0.124301 20.2101 0.407897 19.7074 0.911539C19.2047 1.41518 18.9223 2.09771 18.9223 2.80932V136.353C18.9223 137.064 19.2047 137.747 19.7074 138.251C20.2101 138.754 20.8921 139.038 21.6037 139.039H116.604C117.316 139.038 117.999 138.754 118.502 138.251C119.006 137.747 119.289 137.065 119.29 136.353V2.80932C119.289 2.09726 119.006 1.41474 118.502 0.911238C117.999 0.407737 117.316 0.124298 116.604 0.122998H21.6037Z" fill="#EBEBEB"/>
<path d="M223.028 139.162H128.023C127.279 139.161 126.565 138.865 126.038 138.338C125.512 137.811 125.215 137.098 125.214 136.353V2.80932C125.222 2.06891 125.521 1.3614 126.047 0.840133C126.573 0.318867 127.283 0.0258509 128.023 0.0245972H223.028C223.768 0.0271578 224.476 0.320904 225 0.842167C225.524 1.36343 225.821 2.07021 225.828 2.80932V136.353C225.828 137.096 225.533 137.809 225.009 138.336C224.484 138.862 223.772 139.16 223.028 139.162ZM128.023 0.122998C127.311 0.124298 126.629 0.407737 126.125 0.911238C125.622 1.41474 125.338 2.09726 125.337 2.80932V136.353C125.338 137.065 125.622 137.747 126.125 138.251C126.629 138.754 127.311 139.038 128.023 139.039H223.028C223.74 139.038 224.423 138.754 224.926 138.251C225.43 137.747 225.713 137.065 225.715 136.353V2.80932C225.713 2.09726 225.43 1.41474 224.926 0.911238C224.423 0.407737 223.74 0.124298 223.028 0.122998H128.023Z" fill="#EBEBEB"/>
<path d="M130.331 118.788C129.347 115.959 121.578 119.807 118.425 124.496C116.324 127.615 115.04 130.951 114.444 135.428C114.513 130.321 114.597 124.83 114.676 119.649C115.315 118.36 116.772 115.384 117.815 113.022C121.313 105.15 129.623 102.198 132.491 97.2487C136.255 90.7346 136.23 80.9684 133.032 77.4408C130.247 74.3806 121.032 95.0938 119.994 97.4062C117.162 103.599 115.378 110.22 114.715 116.998C114.794 112.132 114.868 107.65 114.927 104.206C115.123 92.9634 115.364 89.3472 115.478 88.2353C115.861 87.6941 116.314 87.0594 116.58 86.7199C118.808 83.8516 123.758 80.4322 126.228 76.26C129.839 70.1641 129.259 62.8727 126.72 60.1568C124.073 57.318 119.389 64.0289 116.904 70.6758C114.42 77.3227 115.483 83.6892 114.784 89.2144C114.641 90.2968 114.489 94.4099 114.351 100.117C113.593 93.9769 112.093 89.8638 109.308 86.0311C105.864 81.3178 102.912 75.5761 100.112 76.319C97.313 77.062 98.8087 84.6535 101.042 89.9868C103.01 94.7395 112.85 99.4726 114.277 103.295C114.105 111.03 113.952 120.83 113.844 129.952C113.072 125.239 113.603 124.845 110.435 117.627C108.555 113.337 100.836 108.048 99.9157 110.995C98.9956 113.942 100.408 119.512 103.306 123.413C105.657 126.562 110.873 126.557 112.078 128.51C112.363 128.968 113.293 130.715 113.825 131.718C113.697 142.857 113.642 152.692 113.706 156.043L114.198 156.077C114.198 155.211 114.238 149.543 114.336 142.045C115.606 138.055 124.132 135.728 126.764 131.576C129.534 127.251 131.517 122.183 130.331 118.788Z" fill="#E6E6E6"/>
<path d="M122.316 161.105H105.952C105.518 161.106 105.097 160.957 104.761 160.682C104.425 160.408 104.194 160.025 104.107 159.6L102.946 153.873H125.322L124.156 159.6C124.071 160.025 123.841 160.407 123.506 160.682C123.17 160.956 122.75 161.106 122.316 161.105Z" fill="#F0F0F0"/>
<path d="M125.79 156.092H102.479C102.207 156.092 101.945 155.992 101.743 155.81C101.542 155.628 101.415 155.378 101.387 155.108L100.895 150.872C100.878 150.718 100.894 150.563 100.941 150.416C100.988 150.269 101.066 150.134 101.169 150.019C101.272 149.904 101.398 149.812 101.539 149.748C101.68 149.685 101.832 149.652 101.987 149.652H126.252C126.406 149.652 126.559 149.685 126.699 149.748C126.84 149.812 126.966 149.904 127.068 150.019C127.171 150.134 127.248 150.269 127.295 150.416C127.342 150.563 127.357 150.719 127.34 150.872L126.848 155.108C126.821 155.373 126.699 155.619 126.505 155.8C126.31 155.981 126.056 156.085 125.79 156.092Z" fill="#F0F0F0"/>
<path d="M197.179 159.054H212.849V92.1861H197.179V159.054Z" fill="#F0F0F0"/>
<path d="M130.602 161.105H211.792V159.054H130.602V161.105Z" fill="#F0F0F0"/>
<path d="M197.174 92.186H129.548V159.054H197.174V92.186Z" fill="#F5F5F5"/>
<path d="M191.014 118.542H135.708V132.702H191.014V118.542Z" fill="#F0F0F0"/>
<path d="M191.014 136.766H135.708V150.926H191.014V136.766Z" fill="#F0F0F0"/>
<path d="M157.154 120.983H169.568C170.413 120.983 171.098 120.299 171.098 119.455C171.098 118.611 170.413 117.927 169.568 117.927H157.154C156.309 117.927 155.624 118.611 155.624 119.455C155.624 120.299 156.309 120.983 157.154 120.983Z" fill="#F5F5F5"/>
<path d="M191.014 100.319H135.708V114.479H191.014V100.319Z" fill="#F0F0F0"/>
<path d="M157.155 102.759H169.568C169.972 102.758 170.36 102.597 170.647 102.311C170.933 102.026 171.095 101.638 171.098 101.234C171.097 100.828 170.935 100.44 170.648 100.153C170.362 99.8667 169.973 99.7051 169.568 99.7038H157.155C156.749 99.7051 156.361 99.8667 156.074 100.153C155.787 100.44 155.626 100.828 155.625 101.234C155.627 101.638 155.789 102.026 156.076 102.311C156.362 102.597 156.75 102.758 157.155 102.759Z" fill="#F5F5F5"/>
<path d="M157.155 139.206H169.568C169.973 139.206 170.361 139.046 170.648 138.76C170.935 138.474 171.097 138.086 171.098 137.681C171.097 137.276 170.935 136.887 170.648 136.601C170.362 136.314 169.973 136.152 169.568 136.151H157.155C156.749 136.152 156.361 136.314 156.074 136.601C155.787 136.887 155.626 137.276 155.625 137.681C155.626 138.086 155.788 138.474 156.074 138.76C156.361 139.046 156.75 139.206 157.155 139.206Z" fill="#F5F5F5"/>
<path d="M128.156 92.186L197.174 92.186V90.2771L128.156 90.2771V92.186Z" fill="#F0F0F0"/>
<path d="M214.335 90.2771H197.174V92.186H214.335V90.2771Z" fill="#E6E6E6"/>
<path d="M72.5255 161.105H88.0088L88.0088 60.9687H72.5255L72.5255 161.105Z" fill="#E0E0E0"/>
<path d="M33.0674 161.105H84.9094L90.3559 37.8495H38.5138L33.0674 161.105Z" fill="#E6E6E6"/>
<path d="M25.5054 161.105H82.8529L88.2944 37.8495H30.9518L25.5054 161.105Z" fill="#F0F0F0"/>
<path d="M77.2391 155.064L81.8245 43.8913H36.5655L31.9751 155.064H77.2391Z" fill="white"/>
<path d="M57.7904 155.064L73.1752 43.8913H68.3487L52.9639 155.064H57.7904Z" fill="#FAFAFA"/>
<path d="M50.9172 155.064L66.302 43.8913H58.0709L42.686 155.064H50.9172Z" fill="#FAFAFA"/>
<path d="M144.387 71.4236L207.132 71.4236V12.728L144.387 12.728V71.4236Z" fill="#E6E6E6"/>
<path d="M142.434 71.4236L206.217 71.4236V12.728L142.434 12.728V71.4236Z" fill="#F5F5F5"/>
<path d="M144.387 73.8197L207.132 73.8197V71.4187L144.387 71.4187V73.8197Z" fill="#E6E6E6"/>
<path d="M140.692 73.8197L200.214 73.8197V71.4187H140.692V73.8197Z" fill="#F5F5F5"/>
<path d="M203.491 67.7828V16.3639L145.16 16.3639V67.7828H203.491Z" fill="#FAFAFA"/>
<path d="M145.553 67.7828V16.3639H145.165V67.7828H145.553Z" fill="#E6E6E6"/>
<path d="M193.818 67.7828L183.732 16.3639H170.512L180.598 67.7828H193.818Z" fill="white"/>
<path d="M178.458 67.7828L168.372 16.3639H162.404L172.49 67.7828H178.458Z" fill="white"/>
<path d="M201.543 64.9981V10.7108C201.543 10.5451 201.409 10.4107 201.243 10.4107H201.218C201.052 10.4107 200.918 10.5451 200.918 10.7108V64.9981C200.918 65.1639 201.052 65.2983 201.218 65.2983H201.243C201.409 65.2983 201.543 65.1639 201.543 64.9981Z" fill="#EBEBEB"/>
<path opacity="0.5" d="M141.007 19.3897L208.19 19.3897V10.4058L141.007 10.4058V19.3897Z" fill="#E6E6E6"/>
<path d="M141.007 11.5226L208.19 11.5226V10.4058L141.007 10.4058V11.5226Z" fill="#E0E0E0"/>
<path d="M141.12 10.8978L208.081 10.8978C208.318 10.8978 208.509 10.7062 208.509 10.4698V10.3468C208.509 10.1104 208.318 9.91872 208.081 9.91872L141.12 9.91872C140.884 9.91872 140.692 10.1104 140.692 10.3468V10.4698C140.692 10.7062 140.884 10.8978 141.12 10.8978Z" fill="#EBEBEB"/>
<path d="M140.924 19.6259H208.274C208.304 19.6259 208.335 19.6197 208.363 19.6078C208.392 19.5959 208.417 19.5784 208.439 19.5564C208.46 19.5344 208.477 19.5083 208.489 19.4797C208.5 19.4511 208.505 19.4205 208.505 19.3897C208.505 19.3284 208.48 19.2696 208.437 19.2262C208.394 19.1828 208.335 19.1585 208.274 19.1585H140.924C140.862 19.1585 140.803 19.1827 140.758 19.2259C140.714 19.2691 140.689 19.3279 140.688 19.3897C140.688 19.4524 140.712 19.5124 140.757 19.5567C140.801 19.601 140.861 19.6259 140.924 19.6259Z" fill="white"/>
<path d="M123 183.324C175.684 183.324 218.394 180.831 218.394 177.755C218.394 174.679 175.684 172.185 123 172.185C70.3153 172.185 27.606 174.679 27.606 177.755C27.606 180.831 70.3153 183.324 123 183.324Z" fill="#F5F5F5"/>
<path d="M31.9008 106.829L31.4023 106.887L32.2881 114.461L32.7866 114.403L31.9008 106.829Z" fill="#5B63F6"/>
<path d="M33.1171 117.215L32.6187 117.274L33.0655 121.095L33.564 121.037L33.1171 117.215Z" fill="#5B63F6"/>
<path d="M66.2186 91.3841L65.6282 89.726C65.2221 88.5864 64.4412 87.6184 63.4134 86.9803C62.3856 86.3421 61.1717 86.0717 59.9702 86.2132L36.4575 88.9634C35.0489 89.1287 33.7637 89.8466 32.8844 90.9593C32.0051 92.072 31.6038 93.4884 31.7687 94.897L38.4599 152.117C38.5155 152.595 38.6648 153.058 38.8995 153.479C39.1341 153.9 39.4494 154.27 39.8273 154.569C40.2052 154.868 40.6383 155.089 41.1018 155.221C41.5654 155.352 42.0503 155.391 42.5288 155.334L126.661 145.494C127.14 145.44 127.604 145.291 128.026 145.057C128.448 144.823 128.82 144.508 129.119 144.13C129.419 143.752 129.642 143.319 129.774 142.854C129.905 142.39 129.944 141.905 129.888 141.425L124.083 91.9597C123.97 90.9941 123.479 90.1127 122.717 89.5093C121.955 88.9058 120.984 88.6299 120.019 88.742L71.1632 94.4591C70.1128 94.5807 69.0522 94.3429 68.1543 93.7845C67.2563 93.226 66.574 92.3799 66.2186 91.3841Z" fill="#5B63F6"/>
<path d="M68.5665 66.5013L41.9849 71.7984L49.2829 108.421L75.8645 103.124L68.5665 66.5013Z" fill="#5B63F6"/>
<path opacity="0.7" d="M68.5665 66.5013L41.9849 71.7984L49.2829 108.421L75.8645 103.124L68.5665 66.5013Z" fill="white"/>
<g opacity="0.4">
<path opacity="0.4" d="M65.0179 75.3006L48.6441 78.5675C48.2627 78.6415 47.8674 78.5622 47.5441 78.3466C47.2208 78.1311 46.9955 77.7968 46.9172 77.4162C46.8431 77.0348 46.9225 76.6395 47.138 76.3162C47.3536 75.9929 47.6879 75.7677 48.0685 75.6893L64.4521 72.4372C64.8335 72.3631 65.2288 72.4425 65.5521 72.658C65.8754 72.8736 66.1006 73.2079 66.179 73.5885C66.2485 73.9691 66.1657 74.3618 65.9486 74.682C65.7314 75.0022 65.3972 75.2244 65.0179 75.3006Z" fill="#5B63F6"/>
<path opacity="0.4" d="M66.223 81.367L49.8492 84.6486C49.4685 84.7212 49.0745 84.6412 48.7523 84.4258C48.4302 84.2104 48.2056 83.8769 48.1272 83.4973C48.0546 83.1166 48.1346 82.7226 48.3501 82.4005C48.5655 82.0783 48.8989 81.8537 49.2785 81.7753L65.6523 78.5134C66.033 78.4408 66.4269 78.5208 66.7491 78.7362C67.0713 78.9516 67.2959 79.2851 67.3743 79.6646C67.4412 80.0424 67.3584 80.4313 67.1435 80.7491C66.9286 81.0668 66.5985 81.2885 66.223 81.367Z" fill="#5B63F6"/>
<path opacity="0.4" d="M67.4285 87.4235L51.0548 90.6855C50.6741 90.7581 50.2801 90.678 49.9579 90.4626C49.6357 90.2472 49.4112 89.9137 49.3328 89.5342C49.2602 89.1535 49.3402 88.7595 49.5556 88.4373C49.771 88.1151 50.1045 87.8906 50.4841 87.8122L66.8578 84.5453C67.2385 84.4727 67.6325 84.5527 67.9547 84.7681C68.2769 84.9835 68.5014 85.317 68.5798 85.6966C68.6539 86.078 68.5745 86.4733 68.359 86.7966C68.1434 87.1199 67.8091 87.3451 67.4285 87.4235Z" fill="#5B63F6"/>
<path opacity="0.4" d="M68.6385 93.5046L52.2647 96.7666C51.8833 96.8406 51.488 96.7613 51.1647 96.5457C50.8414 96.3302 50.6162 95.9959 50.5378 95.6153C50.4638 95.2339 50.5431 94.8386 50.7586 94.5153C50.9742 94.192 51.3085 93.9667 51.6891 93.8884L68.0628 90.6264C68.4443 90.5524 68.8395 90.6317 69.1628 90.8473C69.4861 91.0628 69.7114 91.3971 69.7898 91.7777C69.8638 92.1591 69.7844 92.5544 69.5689 92.8777C69.3534 93.201 69.019 93.4263 68.6385 93.5046Z" fill="#5B63F6"/>
<path opacity="0.4" d="M65.3668 100.427L53.4702 102.799C53.0895 102.871 52.6956 102.791 52.3734 102.576C52.0512 102.36 51.8266 102.027 51.7482 101.647C51.6742 101.266 51.7536 100.871 51.9691 100.547C52.1846 100.224 52.5189 99.9987 52.8995 99.9203L64.7961 97.5489C65.1768 97.4763 65.5708 97.5563 65.893 97.7717C66.2151 97.9871 66.4397 98.3206 66.5181 98.7001C66.5921 99.0816 66.5128 99.4768 66.2972 99.8001C66.0817 100.123 65.7474 100.349 65.3668 100.427Z" fill="#5B63F6"/>
</g>
<path d="M106.442 59.4436L79.5879 63.1173L84.6494 100.116L111.504 96.4417L106.442 59.4436Z" fill="#5B63F6"/>
<path opacity="0.7" d="M106.442 59.4436L79.5879 63.1173L84.6494 100.116L111.504 96.4417L106.442 59.4436Z" fill="white"/>
<g opacity="0.4">
<path opacity="0.4" d="M102.366 68.019L85.8248 70.2822C85.4396 70.3327 85.05 70.2294 84.7406 69.9945C84.4311 69.7596 84.2267 69.4122 84.1717 69.0276C84.1212 68.6424 84.2246 68.2528 84.4594 67.9433C84.6943 67.6339 85.0417 67.4295 85.4263 67.3745L101.967 65.1113C102.353 65.0608 102.742 65.1641 103.052 65.399C103.361 65.6339 103.566 65.9813 103.62 66.3659C103.671 66.7511 103.568 67.1407 103.333 67.4502C103.098 67.7596 102.75 67.964 102.366 68.019Z" fill="#5B63F6"/>
<path opacity="0.4" d="M103.202 74.1346L86.6611 76.3978C86.2759 76.4483 85.8863 76.3449 85.5769 76.11C85.2674 75.8752 85.063 75.5278 85.008 75.1432C84.9589 74.7587 85.0629 74.3704 85.2976 74.062C85.5324 73.7537 85.879 73.55 86.2626 73.495L102.804 71.2318C103.188 71.1811 103.577 71.2839 103.886 71.5177C104.196 71.7516 104.401 72.0978 104.457 72.4815C104.507 72.8667 104.404 73.2563 104.169 73.5657C103.934 73.8752 103.587 74.0796 103.202 74.1346Z" fill="#5B63F6"/>
<path opacity="0.4" d="M92.0536 81.8934L87.4977 82.5182C87.1125 82.5688 86.7229 82.4654 86.4134 82.2305C86.1039 81.9957 85.8995 81.6482 85.8446 81.2636C85.794 80.8784 85.8974 80.4888 86.1323 80.1794C86.3672 79.8699 86.7146 79.6655 87.0992 79.6105L91.66 78.9857C92.0444 78.9365 92.4328 79.0406 92.7411 79.2753C93.0495 79.51 93.2532 79.8567 93.3082 80.2403C93.3587 80.6255 93.2554 81.0151 93.0205 81.3246C92.7856 81.634 92.4382 81.8384 92.0536 81.8934Z" fill="#5B63F6"/>
<path opacity="0.4" d="M100.895 80.6831L96.3341 81.3079C95.9497 81.3571 95.5613 81.253 95.2529 81.0183C94.9446 80.7836 94.7409 80.4369 94.6859 80.0533C94.6354 79.6681 94.7387 79.2785 94.9736 78.969C95.2085 78.6596 95.5559 78.4552 95.9405 78.4002L100.496 77.7803C100.881 77.7297 101.27 77.8324 101.579 78.0662C101.888 78.3001 102.093 78.6463 102.15 79.03C102.2 79.4152 102.097 79.8048 101.862 80.1142C101.627 80.4237 101.28 80.6281 100.895 80.6831Z" fill="#5B63F6"/>
<path opacity="0.4" d="M104.875 86.3706L88.334 88.6338C87.9488 88.6843 87.5592 88.5809 87.2497 88.3461C86.9402 88.1112 86.7358 87.7638 86.6809 87.3792C86.6317 86.9948 86.7358 86.6064 86.9705 86.2981C87.2052 85.9897 87.5518 85.786 87.9355 85.731L104.477 83.4629C104.862 83.4123 105.251 83.5157 105.561 83.7506C105.87 83.9855 106.075 84.3329 106.13 84.7175C106.18 85.1027 106.077 85.4923 105.842 85.8018C105.607 86.1112 105.26 86.3156 104.875 86.3706Z" fill="#5B63F6"/>
<path opacity="0.4" d="M101.195 93.1061L89.1706 94.7494C88.7869 94.7986 88.3992 94.6952 88.091 94.4615C87.7827 94.2278 87.5786 93.8824 87.5224 93.4997C87.4718 93.1152 87.5745 92.7263 87.8083 92.4169C88.0422 92.1076 88.3884 91.9027 88.7721 91.8466L100.797 90.2033C101.18 90.154 101.568 90.2574 101.876 90.4911C102.184 90.7248 102.389 91.0702 102.445 91.453C102.495 91.8374 102.393 92.2264 102.159 92.5357C101.925 92.8451 101.579 93.0499 101.195 93.1061Z" fill="#5B63F6"/>
</g>
<path d="M81.1021 64.8417L54.1001 67.1945L57.3418 104.396L84.3437 102.044L81.1021 64.8417Z" fill="#5B63F6"/>
<path opacity="0.8" d="M81.1021 64.8417L54.1001 67.1945L57.3418 104.396L84.3437 102.044L81.1021 64.8417Z" fill="white"/>
<g opacity="0.4">
<path opacity="0.4" d="M76.6095 73.2145L59.975 74.661C59.588 74.6925 59.2041 74.5702 58.9067 74.3206C58.6092 74.071 58.4221 73.7143 58.3858 73.3277C58.3557 72.9415 58.4786 72.5589 58.7281 72.2626C58.9775 71.9662 59.3335 71.7797 59.7191 71.7435L76.3537 70.2675C76.7407 70.236 77.1245 70.3583 77.422 70.6079C77.7194 70.8574 77.9066 71.2142 77.9428 71.6008C77.9618 71.7944 77.9423 71.9898 77.8855 72.1759C77.8287 72.362 77.7356 72.5349 77.6117 72.6849C77.4878 72.8349 77.3355 72.9589 77.1635 73.0498C76.9915 73.1407 76.8032 73.1967 76.6095 73.2145Z" fill="#5B63F6"/>
<path opacity="0.4" d="M77.146 79.3645L60.5115 80.8405C60.1245 80.872 59.7407 80.7497 59.4432 80.5001C59.1457 80.2506 58.9586 79.8938 58.9223 79.5072C58.8909 79.1202 59.0132 78.7364 59.2628 78.4389C59.5123 78.1415 59.8691 77.9543 60.2557 77.9181L76.8902 76.4421C77.2772 76.4106 77.661 76.5329 77.9585 76.7825C78.2559 77.0321 78.4431 77.3888 78.4793 77.7754C78.5108 78.1624 78.3885 78.5462 78.1389 78.8437C77.8893 79.1412 77.5326 79.3283 77.146 79.3645Z" fill="#5B63F6"/>
<path opacity="0.4" d="M77.6822 85.5145L61.0476 86.9905C60.6606 87.022 60.2768 86.8997 59.9793 86.6501C59.6819 86.4005 59.4947 86.0438 59.4585 85.6572C59.427 85.2702 59.5493 84.8864 59.7989 84.5889C60.0485 84.2915 60.4052 84.1043 60.7918 84.0681L77.4263 82.5921C77.8133 82.5606 78.1972 82.6829 78.4946 82.9325C78.7921 83.182 78.9792 83.5388 79.0155 83.9254C79.0469 84.3124 78.9246 84.6962 78.6751 84.9937C78.4255 85.2911 78.0687 85.4783 77.6822 85.5145Z" fill="#5B63F6"/>
<path opacity="0.4" d="M78.228 91.6645L61.5935 93.1405C61.2065 93.172 60.8227 93.0497 60.5252 92.8001C60.2278 92.5506 60.0406 92.1938 60.0044 91.8072C59.9729 91.4202 60.0952 91.0364 60.3448 90.7389C60.5944 90.4415 60.9511 90.2543 61.3377 90.2181L77.9722 88.7716C78.3592 88.7401 78.7431 88.8624 79.0405 89.112C79.338 89.3616 79.5251 89.7183 79.5614 90.1049C79.5848 90.487 79.4588 90.8633 79.21 91.1543C78.9613 91.4453 78.6092 91.6282 78.228 91.6645Z" fill="#5B63F6"/>
<path opacity="0.4" d="M74.2085 98.2131L62.12 99.2659C61.7306 99.3015 61.3429 99.1811 61.0422 98.9311C60.7415 98.6811 60.5523 98.322 60.5161 97.9326C60.4846 97.5456 60.6069 97.1618 60.8565 96.8643C61.1061 96.5668 61.4628 96.3797 61.8494 96.3435L73.9378 95.2906C74.3249 95.2591 74.7087 95.3814 75.0062 95.631C75.3036 95.8806 75.4907 96.2373 75.527 96.6239C75.5587 97.0086 75.4384 97.3904 75.1919 97.6874C74.9454 97.9845 74.5924 98.1732 74.2085 98.2131Z" fill="#5B63F6"/>
</g>
<path d="M114.004 63.0342L86.9316 64.3393L88.7298 101.639L115.803 100.334L114.004 63.0342Z" fill="#5B63F6"/>
<path opacity="0.8" d="M114.004 63.0342L86.9316 64.3393L88.7298 101.639L115.803 100.334L114.004 63.0342Z" fill="white"/>
<g opacity="0.4">
<path opacity="0.4" d="M109.195 71.217L92.5207 72.0239C92.1332 72.04 91.755 71.903 91.4677 71.6424C91.1805 71.3819 91.0073 71.0187 90.9857 70.6315C90.9695 70.244 91.1066 69.8658 91.3671 69.5785C91.6277 69.2913 91.9908 69.1181 92.378 69.0965L109.057 68.2896C109.444 68.2735 109.823 68.4105 110.11 68.6711C110.397 68.9316 110.57 69.2948 110.592 69.682C110.608 70.0703 110.47 70.4492 110.209 70.7366C109.947 71.024 109.583 71.1966 109.195 71.217Z" fill="#5B63F6"/>
<path opacity="0.4" d="M109.494 77.3867L92.8156 78.1886C92.4281 78.2048 92.0499 78.0677 91.7626 77.8072C91.4754 77.5466 91.3022 77.1835 91.2806 76.7963C91.2645 76.408 91.4022 76.029 91.6638 75.7416C91.9254 75.4543 92.2898 75.2816 92.6778 75.2612L109.352 74.4544C109.74 74.4383 110.119 74.576 110.406 74.8376C110.694 75.0992 110.866 75.4636 110.887 75.8516C110.903 76.2391 110.766 76.6174 110.505 76.9046C110.245 77.1919 109.882 77.365 109.494 77.3867Z" fill="#5B63F6"/>
<path opacity="0.4" d="M97.7112 84.1566L93.1159 84.378C92.7284 84.3941 92.3502 84.2571 92.0629 83.9965C91.7757 83.736 91.6025 83.3728 91.5809 82.9856C91.5647 82.5982 91.7018 82.2199 91.9623 81.9327C92.2229 81.6454 92.586 81.4722 92.9732 81.4506L97.5685 81.2243C97.9568 81.2082 98.3358 81.3459 98.6231 81.6075C98.9105 81.8691 99.0831 82.2335 99.1035 82.6216C99.1197 83.009 98.9826 83.3873 98.7221 83.6745C98.4615 83.9618 98.0984 84.135 97.7112 84.1566Z" fill="#5B63F6"/>
<path opacity="0.4" d="M106.621 83.704L102.026 83.9254C101.639 83.9415 101.26 83.8044 100.973 83.5439C100.686 83.2833 100.513 82.9202 100.491 82.533C100.475 82.1455 100.612 81.7673 100.872 81.48C101.133 81.1928 101.496 81.0196 101.883 80.998L106.479 80.7766C106.866 80.7604 107.244 80.8975 107.532 81.158C107.819 81.4186 107.992 81.7817 108.014 82.1689C108.03 82.5564 107.893 82.9346 107.632 83.2219C107.372 83.5091 107.009 83.6823 106.621 83.704Z" fill="#5B63F6"/>
<path opacity="0.4" d="M110.09 89.7211L93.4108 90.5231C93.0233 90.5392 92.6451 90.4022 92.3578 90.1416C92.0706 89.8811 91.8974 89.5179 91.8758 89.1307C91.8597 88.7424 91.9974 88.3635 92.259 88.0761C92.5206 87.7887 92.885 87.6161 93.2731 87.5957L109.947 86.7888C110.335 86.7727 110.714 86.9104 111.002 87.172C111.289 87.4336 111.462 87.798 111.482 88.1861C111.498 88.5736 111.361 88.9518 111.101 89.2391C110.84 89.5263 110.477 89.6995 110.09 89.7211Z" fill="#5B63F6"/>
<path opacity="0.4" d="M105.829 96.1073L93.7111 96.6928C93.3236 96.7089 92.9454 96.5718 92.6581 96.3113C92.3709 96.0507 92.1977 95.6876 92.1761 95.3004C92.16 94.9129 92.297 94.5347 92.5575 94.2474C92.8181 93.9602 93.1812 93.787 93.5684 93.7654L105.686 93.1799C106.074 93.1638 106.452 93.3008 106.739 93.5614C107.027 93.8219 107.2 94.185 107.221 94.5722C107.238 94.9597 107.101 95.338 106.84 95.6252C106.579 95.9125 106.216 96.0856 105.829 96.1073Z" fill="#5B63F6"/>
</g>
<path d="M73.7263 92.4419L73.2934 90.8232C72.9901 89.703 72.2857 88.7332 71.3143 88.0982C70.3428 87.4633 69.1718 87.2074 68.024 87.3792L44.5114 90.1295C43.0849 90.3043 41.7712 90.9935 40.8165 92.0677C39.8618 93.1419 39.3318 94.5275 39.3257 95.9646L40.659 151.979C40.667 152.44 40.7736 152.894 40.9718 153.311C41.1699 153.728 41.455 154.097 41.8078 154.395C42.1607 154.692 42.5731 154.91 43.0173 155.035C43.4616 155.16 43.9274 155.188 44.3834 155.118L128.515 145.278C129.492 145.159 130.392 144.689 131.047 143.954C131.702 143.22 132.067 142.272 132.073 141.288L130.921 92.865C130.913 92.4034 130.805 91.949 130.607 91.5323C130.408 91.1156 130.122 90.7462 129.769 90.4489C129.416 90.1516 129.003 89.9333 128.559 89.8086C128.114 89.684 127.648 89.6558 127.192 89.7261L78.3413 95.4382C77.3385 95.5913 76.3144 95.3707 75.4636 94.8183C74.6128 94.2659 73.9945 93.4202 73.7263 92.4419Z" fill="#5B63F6"/>
<path opacity="0.3" d="M73.7263 92.4419L73.2934 90.8232C72.9901 89.703 72.2857 88.7332 71.3143 88.0982C70.3428 87.4633 69.1718 87.2074 68.024 87.3792L44.5114 90.1295C43.0849 90.3043 41.7712 90.9935 40.8165 92.0677C39.8618 93.1419 39.3318 94.5275 39.3257 95.9646L40.659 151.979C40.667 152.44 40.7736 152.894 40.9718 153.311C41.1699 153.728 41.455 154.097 41.8078 154.395C42.1607 154.692 42.5731 154.91 43.0173 155.035C43.4616 155.16 43.9274 155.188 44.3834 155.118L128.515 145.278C129.492 145.159 130.392 144.689 131.047 143.954C131.702 143.22 132.067 142.272 132.073 141.288L130.921 92.865C130.913 92.4034 130.805 91.949 130.607 91.5323C130.408 91.1156 130.122 90.7462 129.769 90.4489C129.416 90.1516 129.003 89.9333 128.559 89.8086C128.114 89.684 127.648 89.6558 127.192 89.7261L78.3413 95.4382C77.3385 95.5913 76.3144 95.3707 75.4636 94.8183C74.6128 94.2659 73.9945 93.4202 73.7263 92.4419Z" fill="black"/>
<path d="M155.964 65.5147C155.6 67.34 155.211 69.1408 154.773 70.9267C154.335 72.7127 153.907 74.5183 153.43 76.3043L152.702 78.9758L152.608 79.3202C152.564 79.4678 152.515 79.6154 152.456 79.768C152.33 80.1029 152.165 80.4216 151.964 80.7175C151.72 81.0852 151.407 81.4025 151.044 81.6523C150.643 81.924 150.182 82.0929 149.701 82.1443C148.972 82.1973 148.243 82.042 147.6 81.6966C147.111 81.4305 146.652 81.1121 146.232 80.7471C145.471 80.0822 144.799 79.3234 144.229 78.4888L145.632 77.2686C146.301 77.7893 147.008 78.2596 147.747 78.6757C148.068 78.8577 148.408 79.0046 148.761 79.1136C149.061 79.212 149.327 79.1973 149.327 79.1481C149.327 79.0989 149.277 79.1481 149.253 79.1481C149.228 79.1481 149.253 79.148 149.253 79.0644C149.253 78.9808 149.312 78.8922 149.346 78.7643L149.459 78.2182L150.03 75.5318L151.186 70.1592C151.56 68.3683 151.964 66.5725 152.352 64.8013L155.964 65.5147Z" fill="#FFC3BD"/>
<path d="M154.33 59.8911C150.133 63.1039 150.306 69.1604 150.306 69.1604L157.809 70.9562C157.809 70.9562 160.116 64.8653 159.181 62.6365C158.207 60.3143 156.697 58.0806 154.33 59.8911Z" fill="#263238"/>
<path d="M146.006 77.3424L143.246 74.5823L141.77 78.902C141.77 78.902 144.102 80.1566 146.33 78.9709L146.006 77.3424Z" fill="#FFC3BD"/>
<path d="M139.423 74.1542L138.916 77.5687L141.755 78.8971L143.246 74.5823L139.423 74.1542Z" fill="#FFC3BD"/>
<path d="M178.655 174.124L174.434 174.532L170.04 164.485L174.261 164.072L178.655 174.124Z" fill="#FFC3BD"/>
<path d="M205.853 159.265L202.679 162.242L195.835 154.719L199.009 151.743L205.853 159.265Z" fill="#FFC3BD"/>
<path d="M201.228 160.815L203.609 156.525C203.649 156.45 203.715 156.392 203.795 156.362C203.875 156.332 203.963 156.332 204.042 156.363L207.708 157.76C207.798 157.798 207.88 157.855 207.947 157.926C208.014 157.998 208.065 158.083 208.097 158.176C208.129 158.269 208.141 158.367 208.133 158.465C208.124 158.563 208.095 158.658 208.047 158.744C207.191 160.22 206.704 160.899 205.656 162.788C205.011 163.949 203.757 166.611 202.866 168.2C201.976 169.789 200.342 169.012 200.569 168.264C201.587 164.909 201.395 163.044 201.11 161.568C201.061 161.311 201.103 161.045 201.228 160.815Z" fill="#263238"/>
<path d="M173.873 173.233H179.058C179.152 173.233 179.242 173.264 179.316 173.321C179.39 173.378 179.443 173.458 179.467 173.548L180.593 177.646C180.621 177.743 180.626 177.845 180.607 177.944C180.588 178.043 180.546 178.136 180.485 178.216C180.424 178.296 180.345 178.36 180.254 178.404C180.164 178.448 180.064 178.47 179.964 178.468C178.133 178.468 177.267 178.468 174.989 178.468H168.023C166.124 178.468 165.73 176.554 166.512 176.377C170.03 175.6 172.052 174.527 173.14 173.504C173.341 173.325 173.603 173.228 173.873 173.233Z" fill="#263238"/>
<path opacity="0.2" d="M170.045 164.49L172.308 169.666H176.712L174.266 164.077L170.045 164.49Z" fill="black"/>
<path opacity="0.2" d="M199.009 151.743L195.835 154.724L199.368 158.601L202.541 155.62L199.009 151.743Z" fill="black"/>
<path d="M155.6 59.2712C155.6 59.2712 153.701 60.1027 160.067 85.2931L177.749 83.763C176.834 76.5946 176.441 72.1567 178.601 57.0868C176.082 56.7888 173.544 56.6753 171.009 56.7473C168.32 56.7875 165.636 57.0194 162.98 57.441C160.49 57.9257 158.027 58.5366 155.6 59.2712Z" fill="#263238"/>
<path d="M171.009 56.6046C171.009 56.6046 171.993 56.6046 173.194 56.6046C173.907 57.7018 171.595 62.5086 167.782 65.6525C167.201 63.9047 166.134 62.3585 164.707 61.195L171.009 56.6046Z" fill="white"/>
<path d="M162.98 57.377C162.98 57.377 162.532 57.441 161.465 57.687C160.751 58.7842 159.546 63.4729 161.647 65.864C162.176 64.0508 163.236 62.438 164.692 61.2343L162.98 57.377Z" fill="white"/>
<path d="M169.43 47.7732C169.149 50.4005 169.051 55.1532 171.009 56.7473C171.009 56.7473 168.918 58.8826 164.692 61.2343C161.617 59.1089 162.98 57.441 162.98 57.441C165.799 56.5062 165.538 54.3758 164.864 52.4078L169.43 47.7732Z" fill="#FFC3BD"/>
<path d="M164.618 61.2491C164.618 61.2491 167.211 58.425 168.554 58.9662C169.897 59.5074 168.859 60.4766 168.741 61.3868C168.623 62.297 169.263 64.7177 167.467 64.0879C165.671 63.4582 164.618 61.2491 164.618 61.2491Z" fill="#5B63F6"/>
<path d="M164.514 61.19C164.514 61.19 163.289 59.0252 161.966 59.3155C160.642 59.6058 161.43 60.3635 161.548 61.1802C161.7 62.2232 160.598 64.2306 162.192 63.6402C163.786 63.0498 164.514 61.19 164.514 61.19Z" fill="#5B63F6"/>
<g opacity="0.2">
<path opacity="0.2" d="M163.836 60.7226C163.818 61.1591 163.902 61.5938 164.082 61.992C164.245 61.7377 164.388 61.4712 164.51 61.195C164.328 60.8865 164.119 60.595 163.885 60.3241C163.844 60.4528 163.828 60.5879 163.836 60.7226Z" fill="black"/>
<path opacity="0.2" d="M165.563 60.334C165.007 60.826 164.623 61.2491 164.623 61.2491C164.766 61.5444 164.93 61.8289 165.115 62.1002C165.412 61.8021 165.588 61.4039 165.607 60.9834C165.654 60.7671 165.639 60.5418 165.563 60.334Z" fill="black"/>
</g>
<path d="M164.589 62.1347C164.22 62.1347 163.993 61.7362 163.969 60.7866C163.944 59.837 164.672 60.3635 164.672 60.3635C164.672 60.3635 165.656 59.8715 165.479 61.008C165.351 61.9084 164.968 62.1347 164.589 62.1347Z" fill="#5B63F6"/>
<path opacity="0.2" d="M167.57 49.6674L164.869 52.4078C165.031 52.8641 165.154 53.3332 165.238 53.81C166.325 53.5591 167.9 52.4275 167.915 51.2664C167.897 50.717 167.78 50.1753 167.57 49.6674Z" fill="black"/>
<path d="M165.253 38.8926C165.253 38.8926 162.301 42.9811 161.809 44.7966C159.801 45.9676 159.398 40.2062 160.46 36.654C163.777 38.7352 165.253 38.8926 165.253 38.8926Z" fill="#263238"/>
<path d="M171.742 43.6699C170.645 47.8667 170.266 49.6674 167.698 51.4238C163.826 54.0708 158.911 51.8076 158.729 47.3648C158.566 43.3698 160.387 37.1755 164.879 36.3047C165.869 36.1037 166.893 36.1601 167.855 36.4684C168.817 36.7767 169.684 37.3267 170.373 38.0657C171.061 38.8046 171.549 39.7079 171.788 40.6891C172.028 41.6703 172.012 42.6966 171.742 43.6699Z" fill="#FFC3BD"/>
<path d="M174.025 41.9922C174.025 41.9922 171.914 45.4116 171.629 46.9122C170.099 47.9503 169.454 43.3944 170.099 40.5162C170.803 37.9529 174.025 41.9922 174.025 41.9922Z" fill="#263238"/>
<path d="M173.184 39.6158C172.574 40.0783 171.929 38.3711 172.535 37.0624C171.368 37.1362 169.966 36.4424 170.266 35.3158C167.969 36.0882 167.118 33.7512 167.383 32.1325C167.703 30.1645 169.415 29.7463 170.424 30.2629C170.424 29.3822 172.648 27.5471 173.494 28.9837C175.063 28.4278 177.592 28.6 177.538 30.5286C178.576 30.5581 181.641 31.734 180.49 34.4646C181.843 34.5433 182.576 36.2604 181.823 37.5593C182.12 37.7163 182.374 37.9425 182.565 38.2186C182.756 38.4946 182.877 38.8126 182.919 39.1455C182.961 39.4784 182.923 39.8166 182.806 40.1313C182.69 40.4461 182.5 40.7283 182.252 40.9541C182.876 42.253 180.982 44.1865 179.974 43.9553C179.206 45.1312 178.03 46.0168 177.263 45.0131C175.787 46.1004 174.089 44.7179 174.468 43.6552C172.795 43.3993 171.088 40.6097 173.184 39.6158Z" fill="#263238"/>
<path d="M175.683 35.483C176.785 37.3231 176.692 39.419 175.481 40.1324C174.271 40.8458 172.387 39.9602 171.285 38.1202C170.183 36.2801 170.271 34.1842 171.486 33.4708C172.702 32.7574 174.581 33.6479 175.683 35.483Z" fill="#5B63F6"/>
<path d="M165.45 38.4006C165.386 38.927 163.934 38.7893 163.516 37.8594C162.916 38.4892 161.504 38.8139 161.022 38.13C160.205 39.665 158.562 39.2616 158.139 38.5285C157.716 37.7954 157.435 36.4326 158.286 36.162C157.794 35.7389 157.942 33.7463 159.231 33.9972C159.772 32.9345 161.253 31.7291 162.335 32.6688C162.926 32.1768 165.287 31.1534 166.242 33.028C166.451 32.8849 166.69 32.7912 166.941 32.7538C167.192 32.7164 167.448 32.7363 167.69 32.8121C167.932 32.8878 168.153 33.0174 168.338 33.1912C168.523 33.3649 168.666 33.5783 168.756 33.8152C170.286 33.4166 170.95 34.5778 170.945 35.2075C172.033 35.5027 172.107 37.3822 171.437 37.7856C171.698 38.7352 171.56 39.7536 170.562 39.665C170.37 40.9442 168.658 41.141 168.254 40.4473C167.142 41.1607 164.874 39.9209 165.45 38.4006Z" fill="#263238"/>
<path d="M162.852 34.7696C164.097 33.0476 168.638 32.3096 172.569 34.9123C176.111 37.2395 175.88 42.6466 173.061 42.3563C170.242 42.066 167.457 38.7647 167.457 38.7647L162.852 34.7696Z" fill="#263238"/>
<path d="M172.087 47.4583C171.695 48.1982 171.026 48.7533 170.227 49.0032C169.159 49.323 168.608 48.3784 168.884 47.3599C169.135 46.4448 169.986 45.1754 171.063 45.3034C171.298 45.3346 171.522 45.4241 171.713 45.5638C171.905 45.7034 172.059 45.8887 172.16 46.1029C172.262 46.317 172.309 46.5532 172.296 46.79C172.283 47.0267 172.211 47.2564 172.087 47.4583Z" fill="#FFC3BD"/>
<path d="M160.067 85.2931C160.067 85.2931 154.084 111.763 158.099 130.424C160.776 142.921 170.399 168.166 170.399 168.166L177.946 167.974C177.946 167.974 170.64 141.48 169.13 131.074C166.547 113.253 173.017 84.191 173.017 84.191L160.067 85.2931Z" fill="#5B63F6"/>
<path opacity="0.2" d="M166.965 90.6412L170.724 96.5894C169.588 103.642 168.866 110.756 168.564 117.893C163.275 108.397 165.804 95.6645 166.965 90.6412Z" fill="black"/>
<path d="M169.336 168.559L178.655 168.318L178.118 165.455L168.608 165.907L169.336 168.559Z" fill="#263238"/>
<path d="M163.934 85.0127C163.934 85.0127 167.442 113.081 175.053 128.407C181.198 140.786 197.597 158.419 197.597 158.419L201.789 154.099C201.789 154.099 190.714 134.951 186.148 126.729C174.945 106.557 184.101 91.1824 177.749 83.7778L163.934 85.0127Z" fill="#5B63F6"/>
<path d="M197.174 158.98L202.586 153.706L200.79 151.265L195.048 156.992L197.174 158.98Z" fill="#263238"/>
<path d="M177.926 82.7052L178.861 84.2206C178.935 84.3337 178.797 84.4715 178.596 84.4912L160.047 86.0951C159.89 86.0951 159.752 86.041 159.732 85.9426L159.437 84.3731C159.412 84.2648 159.545 84.1615 159.717 84.1468L177.626 82.597C177.681 82.5866 177.738 82.5912 177.791 82.6103C177.844 82.6293 177.891 82.6621 177.926 82.7052Z" fill="#5B63F6"/>
<path opacity="0.5" d="M177.926 82.7052L178.861 84.2206C178.935 84.3337 178.797 84.4715 178.596 84.4912L160.047 86.0951C159.89 86.0951 159.752 86.041 159.732 85.9426L159.437 84.3731C159.412 84.2648 159.545 84.1615 159.717 84.1468L177.626 82.597C177.681 82.5866 177.738 82.5912 177.791 82.6103C177.844 82.6293 177.891 82.6621 177.926 82.7052Z" fill="white"/>
<path d="M175.693 84.9143L176.185 84.8749C176.279 84.8749 176.347 84.811 176.338 84.7519L175.934 82.715C175.934 82.6511 175.836 82.6117 175.737 82.6216L175.245 82.6609C175.147 82.6609 175.078 82.7249 175.093 82.7839L175.496 84.8208C175.511 84.8798 175.6 84.9241 175.693 84.9143Z" fill="#5B63F6"/>
<path d="M161.41 86.1492L161.902 86.1098C161.996 86.1098 162.065 86.0459 162.055 85.9868L161.651 83.95C161.634 83.9147 161.605 83.8863 161.569 83.8694C161.533 83.8524 161.493 83.8479 161.455 83.8565L160.963 83.8958C160.864 83.8958 160.795 83.9598 160.81 84.0188L161.214 86.0557C161.228 86.1246 161.317 86.159 161.41 86.1492Z" fill="#5B63F6"/>
<path d="M168.554 85.5342L169.046 85.4899C169.145 85.4899 169.214 85.426 169.199 85.3669L168.795 83.3301C168.795 83.271 168.697 83.2267 168.603 83.2366L168.111 83.2809C168.018 83.2809 167.949 83.3448 167.959 83.4039L168.362 85.4407C168.372 85.4998 168.456 85.5391 168.554 85.5342Z" fill="#5B63F6"/>
<path d="M164.638 43.5272C164.569 43.8716 164.333 44.1176 164.107 44.0734C163.88 44.0291 163.752 43.7093 163.816 43.3649C163.88 43.0205 164.126 42.7745 164.353 42.8188C164.579 42.863 164.707 43.1779 164.638 43.5272Z" fill="#263238"/>
<path d="M160.721 42.7492C160.789 42.4026 160.661 42.0855 160.434 42.0409C160.207 41.9964 159.968 42.2413 159.9 42.5879C159.832 42.9345 159.961 43.2516 160.187 43.2961C160.414 43.3407 160.653 43.0958 160.721 42.7492Z" fill="#263238"/>
<path d="M160.539 42.0906L159.752 41.6872C159.752 41.6872 160.052 42.4202 160.539 42.0906Z" fill="#263238"/>
<path d="M162.07 43.6207C161.609 44.3503 161.049 45.0126 160.407 45.5887C160.556 45.7531 160.74 45.8824 160.945 45.9674C161.15 46.0525 161.371 46.0912 161.592 46.0807L162.07 43.6207Z" fill="#ED847E"/>
<path d="M163.191 47.7043C163.918 47.712 164.621 47.4449 165.159 46.9565C165.17 46.9487 165.178 46.9387 165.184 46.9273C165.19 46.9158 165.194 46.9031 165.195 46.8901C165.195 46.8771 165.193 46.8641 165.188 46.8521C165.183 46.84 165.176 46.8292 165.166 46.8204C165.157 46.8115 165.145 46.8049 165.133 46.801C165.121 46.7971 165.107 46.7959 165.095 46.7977C165.082 46.7994 165.069 46.8039 165.058 46.811C165.047 46.818 165.038 46.8274 165.031 46.8384C164.7 47.1303 164.305 47.34 163.877 47.4503C163.45 47.5606 163.002 47.5684 162.571 47.4731C162.56 47.471 162.549 47.4711 162.538 47.4734C162.527 47.4757 162.517 47.4803 162.507 47.4867C162.498 47.4931 162.49 47.5013 162.485 47.5108C162.479 47.5203 162.475 47.5309 162.473 47.542C162.47 47.553 162.469 47.5646 162.471 47.5758C162.473 47.5871 162.478 47.5978 162.484 47.6071C162.491 47.6165 162.5 47.6243 162.509 47.63C162.519 47.6358 162.53 47.6393 162.542 47.6404C162.755 47.6851 162.973 47.7066 163.191 47.7043Z" fill="#263238"/>
<path d="M166.985 42.1841C167.016 42.1836 167.046 42.1751 167.073 42.1595C167.112 42.136 167.141 42.0979 167.152 42.0536C167.163 42.0093 167.156 41.9625 167.132 41.9233C166.97 41.6469 166.743 41.4133 166.472 41.2421C166.201 41.071 165.892 40.9671 165.573 40.9393C165.55 40.9387 165.528 40.9425 165.506 40.9505C165.485 40.9586 165.466 40.9707 165.449 40.9862C165.433 41.0018 165.42 41.0204 165.411 41.0411C165.401 41.0617 165.396 41.084 165.396 41.1066C165.395 41.1292 165.399 41.1517 165.407 41.1729C165.415 41.194 165.427 41.2134 165.443 41.2298C165.458 41.2463 165.477 41.2595 165.497 41.2687C165.518 41.278 165.54 41.2831 165.563 41.2837C165.827 41.3127 166.08 41.4042 166.302 41.5505C166.523 41.6968 166.707 41.8937 166.837 42.125C166.855 42.146 166.878 42.1623 166.904 42.1726C166.929 42.1829 166.957 42.1868 166.985 42.1841Z" fill="#263238"/>
<path d="M159.644 40.7966C159.671 40.803 159.7 40.803 159.728 40.7966C159.956 40.6614 160.213 40.582 160.478 40.5649C160.743 40.5478 161.009 40.5935 161.253 40.6982C161.293 40.7149 161.337 40.716 161.378 40.7011C161.419 40.6863 161.452 40.6568 161.472 40.6183C161.492 40.5799 161.497 40.5354 161.485 40.4937C161.474 40.452 161.447 40.4161 161.41 40.3932C161.116 40.2597 160.793 40.1994 160.47 40.2174C160.147 40.2354 159.833 40.3311 159.555 40.4965C159.517 40.5192 159.488 40.556 159.476 40.5992C159.465 40.6423 159.47 40.6885 159.491 40.7278C159.508 40.752 159.531 40.7712 159.558 40.7834C159.585 40.7955 159.615 40.8001 159.644 40.7966Z" fill="#263238"/>
<path d="M179.353 61.1113C179.688 61.436 179.919 61.6919 180.18 61.9822C180.441 62.2724 180.672 62.5578 180.908 62.8481C181.376 63.4336 181.823 64.0338 182.241 64.6488C183.073 65.8887 183.81 67.1897 184.446 68.5405C185.08 69.8978 185.592 71.3088 185.976 72.757C186.168 73.4802 186.34 74.233 186.468 74.9562C186.712 76.0011 186.592 77.098 186.128 78.0656C185.858 78.5739 185.484 79.0198 185.031 79.3744C184.638 79.6767 184.206 79.9249 183.747 80.1124C182.957 80.4169 182.13 80.6123 181.287 80.6929C179.792 80.8365 178.286 80.8167 176.795 80.6339C173.941 80.302 171.124 79.7041 168.382 78.8479L168.834 77.062C170.173 77.2834 171.55 77.49 172.908 77.6327C174.266 77.7754 175.634 77.9033 176.977 77.9328C178.278 77.9797 179.581 77.9072 180.869 77.7163C181.423 77.6261 181.963 77.4606 182.473 77.2243C182.785 77.1061 183.043 76.8766 183.196 76.5798C183.237 76.4664 183.257 76.3463 183.255 76.2256C183.262 76.1371 183.262 76.0483 183.255 75.9599C183.255 75.8615 183.221 75.7729 183.176 75.5909C183.039 74.9562 182.856 74.3314 182.66 73.7114C182.259 72.4754 181.766 71.2715 181.184 70.11C180.599 68.9417 179.928 67.8185 179.176 66.7496C178.807 66.2084 178.419 65.682 178.015 65.1752C177.813 64.9194 177.602 64.6832 177.395 64.4323C177.189 64.1814 176.952 63.9403 176.79 63.7632L179.353 61.1113Z" fill="#FFC3BD"/>
<path d="M169.961 77.3326L166.517 75.5072L166.36 80.0681C166.36 80.0681 168.82 80.2255 170.227 79.0841L169.961 77.3326Z" fill="#FFC3BD"/>
<path d="M163.919 101.869L166.763 70.9661L160.687 66.3118L142.139 64.6045L138.916 99.566L163.919 101.869Z" fill="#5B63F6"/>
<path opacity="0.8" d="M163.919 101.869L166.763 70.9661L160.687 66.3118L142.139 64.6045L138.916 99.566L163.919 101.869Z" fill="white"/>
<path d="M166.763 70.9661L160.687 66.3118L162.281 71.8812L166.763 70.9661Z" fill="#5B63F6"/>
<path d="M141.09 104.968C145.275 104.968 148.667 101.576 148.667 97.3914C148.667 93.2069 145.275 89.8146 141.09 89.8146C136.906 89.8146 133.514 93.2069 133.514 97.3914C133.514 101.576 136.906 104.968 141.09 104.968Z" fill="#5B63F6"/>
<path d="M144.834 102.127C147.452 100.058 147.898 96.259 145.829 93.6407C143.761 91.0225 139.962 90.5768 137.343 92.6453C134.725 94.7139 134.279 98.5132 136.348 101.132C138.416 103.75 142.216 104.195 144.834 102.127Z" fill="white"/>
<path d="M144.825 96.86L142.158 96.5452L142.468 93.8834L140.559 93.6571L140.249 96.3238L137.583 96.0089L137.356 97.9228L140.023 98.2327L139.708 100.899L141.622 101.126L141.932 98.459L144.599 98.769L144.825 96.86Z" fill="#5B63F6"/>
<path opacity="0.4" d="M162.227 77.3719C162.202 77.6424 162.124 77.9053 161.998 78.1457C161.871 78.3861 161.699 78.5992 161.49 78.7728C161.281 78.9465 161.04 79.0772 160.781 79.1577C160.521 79.2381 160.249 79.2666 159.978 79.2415L146.448 77.9968C145.903 77.9456 145.399 77.6802 145.049 77.2588C144.699 76.8374 144.529 76.2942 144.579 75.7483C144.603 75.4779 144.681 75.2149 144.808 74.9746C144.934 74.7342 145.107 74.5211 145.315 74.3474C145.524 74.1738 145.765 74.043 146.025 73.9626C146.284 73.8822 146.557 73.8537 146.827 73.8787L160.357 75.1235C160.628 75.1482 160.891 75.226 161.131 75.3524C161.371 75.4788 161.584 75.6513 161.758 75.8602C161.932 76.069 162.062 76.31 162.143 76.5694C162.223 76.8288 162.252 77.1015 162.227 77.3719Z" fill="#5B63F6"/>
<path opacity="0.4" d="M157.617 82.9561C157.592 83.2266 157.514 83.4895 157.388 83.7299C157.261 83.9703 157.089 84.1834 156.88 84.357C156.671 84.5306 156.43 84.6614 156.171 84.7418C155.911 84.8223 155.639 84.8508 155.368 84.8257L145.912 83.9549C145.642 83.9302 145.379 83.8524 145.138 83.726C144.898 83.5996 144.685 83.427 144.511 83.2182C144.338 83.0094 144.207 82.7684 144.126 82.509C144.046 82.2496 144.017 81.9769 144.042 81.7064C144.067 81.436 144.145 81.173 144.271 80.9327C144.398 80.6923 144.57 80.4792 144.779 80.3056C144.988 80.1319 145.229 80.0011 145.488 79.9207C145.748 79.8403 146.021 79.8118 146.291 79.8368L155.747 80.7126C156.292 80.7638 156.794 81.0285 157.145 81.4488C157.495 81.8692 157.665 82.411 157.617 82.9561Z" fill="#5B63F6"/>
<path d="M164.412 75.7778L164.928 79.1874L166.355 80.0681L166.512 75.5072L164.412 75.7778Z" fill="#FFC3BD"/>
<path d="M178.596 57.0966C180.765 57.4804 183.806 63.6992 183.806 63.6992L178.34 68.6192C178.34 68.6192 173.991 63.8764 174.222 61.0523C174.424 58.6661 175.84 56.6046 178.596 57.0966Z" fill="#263238"/>
<path d="M200.382 163.123C200.438 163.122 200.495 163.113 200.549 163.098C201.071 162.921 201.41 161.961 201.568 161.406C201.571 161.389 201.57 161.373 201.565 161.357C201.559 161.342 201.55 161.328 201.538 161.317C201.525 161.306 201.508 161.3 201.491 161.3C201.474 161.3 201.458 161.306 201.445 161.317C201.287 161.396 199.9 162.139 199.855 162.685C199.849 162.744 199.859 162.804 199.885 162.858C199.912 162.912 199.952 162.958 200.003 162.99C200.11 163.076 200.244 163.123 200.382 163.123ZM201.366 161.558C201.125 162.326 200.815 162.832 200.52 162.931C200.453 162.951 200.382 162.954 200.313 162.939C200.245 162.923 200.182 162.89 200.131 162.842C200.104 162.827 200.083 162.805 200.069 162.778C200.055 162.75 200.049 162.72 200.052 162.69C200.052 162.355 200.864 161.829 201.341 161.558H201.366Z" fill="#5B63F6"/>
<path d="M200.165 161.775C200.638 161.772 201.104 161.663 201.528 161.455C201.54 161.447 201.55 161.436 201.557 161.423C201.564 161.41 201.567 161.396 201.567 161.381C201.568 161.366 201.564 161.351 201.556 161.337C201.548 161.324 201.537 161.314 201.523 161.307C201.479 161.283 200.382 160.677 199.791 160.889C199.717 160.911 199.649 160.95 199.592 161.003C199.536 161.056 199.493 161.121 199.466 161.194C199.43 161.263 199.417 161.342 199.432 161.419C199.446 161.496 199.486 161.566 199.545 161.617C199.729 161.737 199.947 161.793 200.165 161.775ZM201.292 161.381C200.824 161.583 199.914 161.706 199.658 161.489C199.614 161.45 199.57 161.391 199.629 161.258C199.646 161.209 199.675 161.165 199.713 161.129C199.75 161.093 199.796 161.067 199.845 161.051C200.244 160.909 200.982 161.228 201.292 161.401V161.381Z" fill="#5B63F6"/>
<path d="M171.575 174.07C172.051 174.058 172.524 173.997 172.987 173.888C173.003 173.882 173.017 173.871 173.027 173.857C173.037 173.843 173.042 173.826 173.042 173.809C173.042 173.792 173.037 173.775 173.027 173.761C173.017 173.747 173.003 173.736 172.987 173.73C172.775 173.627 170.891 172.746 170.419 173.081C170.375 173.109 170.341 173.149 170.319 173.196C170.297 173.243 170.289 173.295 170.296 173.346C170.297 173.443 170.321 173.537 170.365 173.623C170.409 173.708 170.473 173.782 170.551 173.838C170.859 174.023 171.218 174.104 171.575 174.07ZM172.692 173.774C172.136 173.878 171.103 174.015 170.674 173.696C170.62 173.652 170.575 173.598 170.542 173.536C170.51 173.474 170.491 173.406 170.488 173.337C170.483 173.315 170.486 173.292 170.494 173.272C170.503 173.252 170.518 173.235 170.537 173.223C170.797 173.041 171.909 173.43 172.692 173.774Z" fill="#5B63F6"/>
<path d="M172.967 173.892C172.986 173.898 173.007 173.898 173.026 173.892C173.039 173.882 173.047 173.868 173.052 173.852C173.056 173.836 173.056 173.819 173.051 173.804C173.051 173.725 172.608 171.87 171.575 171.988C171.319 172.023 171.245 172.146 171.235 172.249C171.171 172.741 172.357 173.671 172.923 173.907L172.967 173.892ZM171.678 172.136C172.333 172.136 172.711 173.218 172.839 173.651C172.224 173.327 171.363 172.554 171.417 172.254C171.417 172.23 171.417 172.161 171.609 172.141L171.678 172.136Z" fill="#5B63F6"/>
<path d="M164.446 42.8581L163.664 42.4547C163.664 42.4547 163.964 43.1878 164.446 42.8581Z" fill="#263238"/>
</svg>
