<svg width="302" height="311" viewBox="0 0 302 311" fill="none" xmlns="http://www.w3.org/2000/svg">
<g clip-path="url(#clip0)">
<g opacity="0.66">
<g opacity="0.66">
<g opacity="0.66">
<path opacity="0.66" d="M253.52 136.603H247.049C244.312 136.603 242.155 134.363 242.155 131.709V124.408C242.155 123.081 241.325 121.837 239.998 121.339C239.251 121.09 238.505 120.758 237.758 120.426C236.514 119.846 235.02 120.094 234.025 121.09L228.881 126.233C227.969 127.146 226.724 127.644 225.397 127.644C224.07 127.644 222.825 127.146 221.913 126.233L217.35 121.671C215.442 119.763 215.442 116.61 217.35 114.702L222.494 109.559C223.489 108.563 223.738 107.07 223.157 105.826C222.825 105.079 222.494 104.332 222.245 103.586C221.747 102.341 220.503 101.429 219.175 101.429H211.875C209.137 101.429 206.98 99.189 206.98 96.5343V90.0636C206.98 87.326 209.22 85.1691 211.875 85.1691H219.175C220.503 85.1691 221.747 84.3395 222.245 83.0122C222.494 82.2656 222.825 81.5189 223.157 80.7723C223.738 79.5279 223.489 78.0347 222.494 77.0392L217.35 71.8958C215.442 69.9878 215.442 66.8354 217.35 64.9273L221.913 60.3646C223.821 58.4566 226.973 58.4566 228.881 60.3646L234.025 65.508C235.02 66.5035 236.514 66.7524 237.758 66.1717C238.505 65.8399 239.251 65.508 239.998 65.2592C241.242 64.7614 242.155 63.517 242.155 62.1897V54.8894C242.155 52.1518 244.395 49.9949 247.049 49.9949H253.52C256.258 49.9949 258.414 52.2347 258.414 54.8894V62.1897C258.414 63.517 259.244 64.7614 260.571 65.2592C261.318 65.508 262.065 65.8399 262.811 66.1717C264.056 66.7524 265.549 66.5035 266.544 65.508L271.688 60.3646C273.596 58.4566 276.748 58.4566 278.656 60.3646L283.219 64.9273C285.127 66.8354 285.127 69.9878 283.219 71.8958L278.076 77.0392C277.08 78.0347 276.831 79.5279 277.412 80.7723C277.744 81.5189 278.075 82.2656 278.324 83.0122C278.822 84.2565 280.066 85.1691 281.394 85.1691H288.694C291.432 85.1691 293.589 87.409 293.589 90.0636V96.5343C293.589 99.272 291.349 101.429 288.694 101.429H281.394C280.066 101.429 278.822 102.258 278.324 103.586C278.075 104.332 277.744 105.079 277.412 105.826C276.831 107.07 277.08 108.563 278.076 109.559L283.219 114.702C285.127 116.61 285.127 119.763 283.219 121.671L278.656 126.233C277.744 127.146 276.499 127.644 275.172 127.644C273.845 127.644 272.6 127.146 271.688 126.233L266.544 121.09C265.549 120.094 264.056 119.846 262.811 120.426C262.065 120.758 261.318 121.09 260.571 121.339C259.327 121.837 258.414 123.081 258.414 124.408V131.709C258.414 134.363 256.175 136.603 253.52 136.603ZM236.265 118.435C237.011 118.435 237.675 118.601 238.339 118.933C239.002 119.265 239.749 119.514 240.496 119.846C242.404 120.592 243.731 122.417 243.731 124.491V131.792C243.731 133.617 245.224 135.027 246.966 135.027H253.437C255.262 135.027 256.672 133.534 256.672 131.792V124.491C256.672 122.417 258 120.592 259.908 119.846C260.654 119.597 261.318 119.265 262.065 118.933C263.973 118.02 266.212 118.435 267.623 119.929L272.766 125.072C274.011 126.316 276.084 126.316 277.412 125.072L281.975 120.509C283.219 119.265 283.219 117.191 281.975 115.864L276.831 110.72C275.338 109.227 275.006 106.987 275.836 105.162C276.167 104.498 276.499 103.752 276.748 103.005C277.495 101.097 279.32 99.7697 281.394 99.7697H288.694C290.519 99.7697 291.929 98.2765 291.929 96.5343V90.0636C291.929 88.2385 290.436 86.8282 288.694 86.8282H281.394C279.32 86.8282 277.495 85.5009 276.748 83.5929C276.499 82.8463 276.167 82.1826 275.836 81.436C274.923 79.5279 275.338 77.2881 276.831 75.8778L282.057 70.5685C283.302 69.3241 283.302 67.2501 282.057 65.9228L277.495 61.3601C276.25 60.1158 274.176 60.1158 272.849 61.3601L267.706 66.5035C266.213 67.9968 263.973 68.3286 262.148 67.499C261.484 67.1672 260.737 66.8354 259.991 66.5865C258.083 65.8399 256.755 64.0148 256.755 61.9408V54.6405C256.755 52.8154 255.262 51.4052 253.52 51.4052H247.049C245.224 51.4052 243.814 52.8984 243.814 54.6405V61.9408C243.814 64.0148 242.487 65.8399 240.578 66.5865C239.832 66.8354 239.168 67.1672 238.422 67.499C236.514 68.4116 234.274 67.9968 232.863 66.5035L227.72 61.3601C226.476 60.1158 224.402 60.1158 223.074 61.3601L218.512 65.9228C217.267 67.1672 217.267 69.2411 218.512 70.5685L223.655 75.7119C225.148 77.2051 225.48 79.445 224.651 81.2701C224.319 81.9337 224.07 82.6803 223.738 83.427C222.991 85.335 221.166 86.6623 219.092 86.6623H211.792C209.967 86.6623 208.557 88.1556 208.557 89.8977V96.3684C208.557 98.1935 210.05 99.6038 211.792 99.6038H219.092C221.166 99.6038 222.991 100.931 223.738 102.839C223.987 103.586 224.319 104.249 224.651 104.996C225.563 106.904 225.148 109.144 223.655 110.554L218.512 115.698C217.267 116.942 217.267 119.016 218.512 120.343L223.074 124.906C224.319 126.15 226.393 126.15 227.72 124.906L232.863 119.763C233.693 118.933 235.02 118.435 236.265 118.435ZM250.285 115.947C237.758 115.947 227.471 105.743 227.471 93.216C227.471 80.6894 237.675 70.4026 250.285 70.4026C262.811 70.4026 273.098 80.6064 273.098 93.216C273.015 105.743 262.811 115.947 250.285 115.947ZM250.285 72.0617C238.67 72.0617 229.13 81.5189 229.13 93.216C229.13 104.913 238.587 114.287 250.285 114.287C261.982 114.287 271.439 104.83 271.439 93.216C271.439 81.6019 261.899 72.0617 250.285 72.0617Z" fill="white"/>
</g>
<g opacity="0.84">
<path opacity="0.84" d="M241.41 254.984H233.363C231.455 254.984 229.712 253.823 229.132 251.998C228.8 251.168 228.468 250.339 228.136 249.592C227.307 247.85 227.639 245.776 229.049 244.449L234.773 238.724C236.515 236.982 236.515 234.079 234.773 232.254L229.712 227.193C227.97 225.451 225.067 225.451 223.242 227.193L217.518 232.917C216.19 234.245 214.116 234.576 212.374 233.83C211.545 233.498 210.798 233.083 209.968 232.834C208.143 232.171 206.982 230.512 206.982 228.604V220.557C206.982 218.068 204.908 215.994 202.419 215.994H195.202C192.713 215.994 190.639 218.068 190.639 220.557V228.604C190.639 230.512 189.478 232.254 187.653 232.834C186.823 233.166 185.994 233.498 185.247 233.83C183.505 234.659 181.431 234.328 180.104 232.917L174.379 227.193C172.637 225.451 169.734 225.451 167.909 227.193L162.848 232.254C161.106 233.996 161.106 236.899 162.848 238.724L168.572 244.449C169.9 245.776 170.232 247.85 169.485 249.592C169.153 250.421 168.738 251.168 168.489 251.998C167.826 253.823 166.167 254.984 164.259 254.984H156.212C153.723 254.984 151.649 257.058 151.649 259.547V266.764C151.649 269.253 153.723 271.327 156.212 271.327H164.259C166.167 271.327 167.909 272.488 168.489 274.313C168.821 275.143 169.153 275.973 169.485 276.719C170.314 278.461 169.983 280.535 168.572 281.863L162.848 287.587C161.106 289.329 161.106 292.232 162.848 294.057L167.909 299.118C169.651 300.86 172.554 300.86 174.379 299.118L180.104 293.394C181.431 292.066 183.505 291.735 185.247 292.481C186.077 292.813 186.823 293.228 187.653 293.477C189.478 294.14 190.639 295.8 190.639 297.708V305.755C190.639 308.243 192.713 310.317 195.202 310.317H202.419C204.908 310.317 206.982 308.243 206.982 305.755V297.708C206.982 295.8 208.143 294.057 209.968 293.477C210.798 293.145 211.628 292.813 212.374 292.481C214.116 291.652 216.19 291.983 217.518 293.394L223.242 299.118C224.984 300.86 227.887 300.86 229.712 299.118L234.773 294.057C236.515 292.315 236.515 289.412 234.773 287.587L229.049 281.863C227.721 280.535 227.39 278.461 228.136 276.719C228.468 275.89 228.883 275.143 229.132 274.313C229.795 272.488 231.455 271.327 233.363 271.327H241.41C243.898 271.327 245.972 269.253 245.972 266.764V259.547C245.972 257.058 243.981 254.984 241.41 254.984ZM198.769 287.421C185.33 287.421 174.462 276.553 174.462 263.114C174.462 249.675 185.33 238.807 198.769 238.807C212.208 238.807 223.076 249.675 223.076 263.114C223.076 276.553 212.208 287.421 198.769 287.421Z" fill="white"/>
</g>
<g opacity="0.66">
<path opacity="0.66" d="M115.065 303.349H109.589C107.267 303.349 105.276 301.441 105.276 299.035V292.896C105.276 291.817 104.612 290.822 103.534 290.407C102.87 290.158 102.289 289.909 101.625 289.578C100.63 289.08 99.3856 289.329 98.639 290.075L94.3252 294.389C93.4956 295.219 92.4171 295.633 91.3387 295.633C90.1773 295.633 89.0988 295.219 88.3522 294.389L84.5361 290.573C83.7066 289.743 83.2918 288.665 83.2918 287.587C83.2918 286.425 83.7066 285.347 84.5361 284.6L88.8499 280.286C89.5966 279.54 89.8454 278.295 89.3477 277.3C89.0988 276.636 88.767 276.055 88.5181 275.392C88.1033 274.396 87.1908 273.65 86.0294 273.65H79.8905C77.5677 273.65 75.5767 271.742 75.5767 269.336V263.861C75.5767 261.538 77.4847 259.547 79.8905 259.547H86.0294C87.1078 259.547 88.1033 258.883 88.5181 257.805C88.767 257.141 89.0159 256.477 89.3477 255.897C89.8454 254.901 89.5966 253.657 88.8499 252.91L84.5361 248.596C83.7066 247.767 83.2918 246.688 83.2918 245.61C83.2918 244.531 83.7066 243.37 84.5361 242.623L88.3522 238.807C90.0114 237.148 92.749 237.148 94.4081 238.807L98.722 243.121C99.4686 243.868 100.713 244.117 101.708 243.619C102.289 243.37 102.953 243.038 103.616 242.789C104.612 242.374 105.359 241.462 105.359 240.3V234.162C105.359 231.839 107.267 229.848 109.672 229.848H115.148C117.47 229.848 119.461 231.756 119.461 234.162V240.3C119.461 241.379 120.125 242.374 121.204 242.789C121.867 243.038 122.531 243.287 123.112 243.619C124.107 244.117 125.351 243.868 126.098 243.121L130.412 238.807C132.071 237.148 134.809 237.148 136.468 238.807L140.284 242.623C141.114 243.453 141.528 244.531 141.528 245.61C141.528 246.688 141.114 247.85 140.284 248.596L135.97 252.91C135.223 253.657 134.975 254.901 135.472 255.897C135.721 256.477 136.053 257.141 136.302 257.805C136.717 258.8 137.629 259.547 138.791 259.547H144.93C147.252 259.547 149.243 261.455 149.243 263.861V269.336C149.243 271.659 147.335 273.65 144.93 273.65H138.791C137.712 273.65 136.717 274.313 136.302 275.392C136.053 276.055 135.804 276.719 135.472 277.3C134.975 278.295 135.223 279.54 135.97 280.286L140.284 284.6C141.114 285.43 141.528 286.508 141.528 287.587C141.528 288.748 141.114 289.826 140.284 290.573L136.468 294.389C135.638 295.219 134.56 295.633 133.481 295.633C132.32 295.633 131.242 295.219 130.495 294.389L126.181 290.075C125.434 289.329 124.19 289.08 123.195 289.578C122.531 289.909 121.95 290.158 121.287 290.407C120.291 290.822 119.544 291.734 119.544 292.896V299.035C119.379 301.441 117.47 303.349 115.065 303.349ZM100.63 287.835C101.211 287.835 101.874 288.001 102.455 288.25C103.036 288.499 103.616 288.748 104.28 288.997C105.939 289.578 107.101 291.237 107.101 292.979V299.118C107.101 300.528 108.262 301.772 109.755 301.772H115.231C116.641 301.772 117.885 300.611 117.885 299.118V292.979C117.885 291.154 119.047 289.578 120.706 288.997C121.287 288.748 121.867 288.499 122.531 288.25C124.19 287.504 126.098 287.835 127.342 289.08L131.656 293.394C132.652 294.389 134.394 294.389 135.389 293.394L139.205 289.578C139.703 289.08 139.952 288.416 139.952 287.752C139.952 287.089 139.703 286.425 139.205 285.927L134.892 281.614C133.647 280.369 133.315 278.378 134.062 276.802C134.311 276.221 134.56 275.641 134.809 274.977C135.389 273.318 137.049 272.156 138.791 272.156H144.93C146.34 272.156 147.584 270.995 147.584 269.502V264.026C147.584 262.616 146.423 261.372 144.93 261.372H138.791C136.966 261.372 135.389 260.21 134.809 258.551C134.56 257.971 134.311 257.307 134.062 256.726C133.315 255.067 133.647 253.159 134.892 251.915L139.205 247.601C139.703 247.103 139.952 246.439 139.952 245.776C139.952 245.112 139.703 244.448 139.205 243.951L135.389 240.135C134.394 239.139 132.735 239.139 131.656 240.135L127.342 244.448C126.098 245.693 124.107 246.025 122.531 245.278C121.95 245.029 121.37 244.78 120.706 244.531C119.047 243.951 117.885 242.291 117.885 240.549V234.41C117.885 233 116.724 231.756 115.231 231.756H109.755C108.345 231.756 107.101 232.917 107.101 234.41V240.549C107.101 242.374 105.939 243.951 104.28 244.531C103.699 244.78 103.036 245.029 102.455 245.278C100.796 246.025 98.8879 245.693 97.6435 244.448L93.3297 240.135C92.3342 239.139 90.675 239.139 89.5966 240.135L85.7805 243.951C85.2828 244.448 85.0339 245.112 85.0339 245.776C85.0339 246.439 85.2828 247.103 85.7805 247.601L90.0943 251.915C91.3387 253.159 91.6705 255.15 90.9239 256.726C90.675 257.307 90.4262 257.888 90.1773 258.551C89.5966 260.21 87.9374 261.372 86.1953 261.372H80.0564C78.6461 261.372 77.4017 262.533 77.4017 264.026V269.502C77.4017 270.912 78.5632 272.156 80.0564 272.156H86.1953C88.0204 272.156 89.5966 273.318 90.1773 274.977C90.4262 275.558 90.675 276.221 90.9239 276.802C91.6705 278.461 91.3387 280.369 90.0943 281.614L85.7805 285.927C85.2828 286.425 85.0339 287.089 85.0339 287.752C85.0339 288.416 85.2828 289.08 85.7805 289.578L89.5966 293.394C90.5921 294.389 92.3342 294.389 93.3297 293.394L97.6435 289.08C98.3901 288.25 99.4686 287.835 100.63 287.835ZM112.41 286.01C101.791 286.01 93.1638 277.383 93.1638 266.764C93.1638 256.145 101.791 247.518 112.41 247.518C123.029 247.518 131.656 256.145 131.656 266.764C131.656 277.383 123.029 286.01 112.41 286.01ZM112.41 249.094C102.704 249.094 94.8229 256.975 94.8229 266.681C94.8229 276.387 102.704 284.268 112.41 284.268C122.116 284.268 129.997 276.387 129.997 266.681C129.997 256.975 122.116 249.094 112.41 249.094Z" fill="white"/>
</g>
</g>
</g>
<g opacity="0.81">
<path opacity="0.81" d="M291.1 213.339H280.316C279.818 213.339 279.486 213.007 279.486 212.51C279.486 212.012 279.818 211.68 280.316 211.68H291.1C291.598 211.68 291.93 212.012 291.93 212.51C291.93 213.007 291.515 213.339 291.1 213.339Z" fill="white"/>
<path opacity="0.81" d="M291.1 231.175H280.316C279.818 231.175 279.486 230.843 279.486 230.346C279.486 229.848 279.818 229.516 280.316 229.516H291.1C291.598 229.516 291.93 229.848 291.93 230.346C291.93 230.843 291.515 231.175 291.1 231.175Z" fill="white"/>
<g opacity="0.81">
<g opacity="0.81">
<g opacity="0.81">
<path opacity="0.81" d="M298.732 249.177H232.946C231.702 249.177 230.706 248.181 230.706 246.937V191.936C230.706 190.692 231.702 189.696 232.946 189.696H298.732C299.976 189.696 300.971 190.692 300.971 191.936V246.937C300.971 248.181 299.976 249.177 298.732 249.177ZM232.946 191.355C232.614 191.355 232.365 191.604 232.365 191.936V246.937C232.365 247.269 232.614 247.518 232.946 247.518H298.732C299.063 247.518 299.312 247.269 299.312 246.937V191.936C299.312 191.604 299.063 191.355 298.732 191.355H232.946V191.355Z" fill="white"/>
<path opacity="0.66" d="M298.732 249.177H232.946C231.702 249.177 230.706 248.181 230.706 246.937V191.936C230.706 190.692 231.702 189.696 232.946 189.696H298.732C299.976 189.696 300.971 190.692 300.971 191.936V246.937C300.971 248.181 299.976 249.177 298.732 249.177ZM232.946 191.355C232.614 191.355 232.365 191.604 232.365 191.936V246.937C232.365 247.269 232.614 247.518 232.946 247.518H298.732C299.063 247.518 299.312 247.269 299.312 246.937V191.936C299.312 191.604 299.063 191.355 298.732 191.355H232.946V191.355Z" fill="white"/>
</g>
</g>
<path opacity="0.81" d="M291.1 204.711H239.583C239.085 204.711 238.753 204.379 238.753 203.882C238.753 203.384 239.085 203.052 239.583 203.052H291.1C291.598 203.052 291.93 203.384 291.93 203.882C291.93 204.379 291.515 204.711 291.1 204.711Z" fill="white"/>
<path opacity="0.81" d="M291.1 222.05H239.583C239.085 222.05 238.753 221.718 238.753 221.22C238.753 220.723 239.085 220.391 239.583 220.391H291.1C291.598 220.391 291.93 220.723 291.93 221.22C291.93 221.635 291.515 222.05 291.1 222.05Z" fill="white"/>
<path opacity="0.81" d="M267.292 213.339H239.501C239.003 213.339 238.671 213.007 238.671 212.51C238.671 212.012 239.003 211.68 239.501 211.68H267.292C267.79 211.68 268.122 212.012 268.122 212.51C268.122 213.007 267.79 213.339 267.292 213.339Z" fill="white"/>
<path opacity="0.81" d="M267.292 231.175H239.501C239.003 231.175 238.671 230.843 238.671 230.346C238.671 229.848 239.003 229.516 239.501 229.516H267.292C267.79 229.516 268.122 229.848 268.122 230.346C268.122 230.843 267.79 231.175 267.292 231.175Z" fill="white"/>
<path opacity="0.81" d="M258.249 239.471H239.501C239.003 239.471 238.671 239.139 238.671 238.641C238.671 238.143 239.003 237.812 239.501 237.812H258.249C258.747 237.812 259.079 238.143 259.079 238.641C259.079 239.056 258.747 239.471 258.249 239.471Z" fill="white"/>
</g>
</g>
<g opacity="0.81">
<path opacity="0.81" d="M80.6357 122.666H68.4409C67.9432 122.666 67.6113 122.334 67.6113 121.836C67.6113 121.339 67.9432 121.007 68.4409 121.007H80.7187C81.2165 121.007 81.5483 121.339 81.5483 121.836C81.4653 122.251 81.1335 122.666 80.6357 122.666Z" fill="white"/>
<path opacity="0.81" d="M80.6357 142.908H68.4409C67.9432 142.908 67.6113 142.576 67.6113 142.078C67.6113 141.58 67.9432 141.249 68.4409 141.249H80.7187C81.2165 141.249 81.5483 141.58 81.5483 142.078C81.4653 142.493 81.1335 142.908 80.6357 142.908Z" fill="white"/>
<g opacity="0.81">
<g opacity="0.81">
<g opacity="0.81">
<path opacity="0.81" d="M89.5123 163.316H14.5182C13.2738 163.316 12.2783 162.32 12.2783 161.076V98.3594C12.2783 97.115 13.2738 96.1195 14.5182 96.1195H89.5123C90.7566 96.1195 91.7521 97.115 91.7521 98.3594V161.076C91.7521 162.32 90.7566 163.316 89.5123 163.316ZM14.5182 97.6957C14.1864 97.6957 13.9375 97.9446 13.9375 98.2764V160.993C13.9375 161.325 14.1864 161.573 14.5182 161.573H89.5123C89.8441 161.573 90.093 161.325 90.093 160.993V98.2764C90.093 97.9446 89.8441 97.6957 89.5123 97.6957H14.5182Z" fill="white"/>
<path opacity="0.66" d="M89.5123 163.316H14.5182C13.2738 163.316 12.2783 162.32 12.2783 161.076V98.3594C12.2783 97.115 13.2738 96.1195 14.5182 96.1195H89.5123C90.7566 96.1195 91.7521 97.115 91.7521 98.3594V161.076C91.7521 162.32 90.7566 163.316 89.5123 163.316ZM14.5182 97.6957C14.1864 97.6957 13.9375 97.9446 13.9375 98.2764V160.993C13.9375 161.325 14.1864 161.573 14.5182 161.573H89.5123C89.8441 161.573 90.093 161.325 90.093 160.993V98.2764C90.093 97.9446 89.8441 97.6957 89.5123 97.6957H14.5182Z" fill="white"/>
</g>
</g>
<path opacity="0.81" d="M80.6353 112.877H22.2329C21.7352 112.877 21.4033 112.545 21.4033 112.047C21.4033 111.55 21.7352 111.218 22.2329 111.218H80.7183C81.2161 111.218 81.5479 111.55 81.5479 112.047C81.4649 112.462 81.1331 112.877 80.6353 112.877Z" fill="white"/>
<path opacity="0.81" d="M80.6353 132.455H22.2329C21.7352 132.455 21.4033 132.123 21.4033 131.625C21.4033 131.128 21.7352 130.796 22.2329 130.796H80.7183C81.2161 130.796 81.5479 131.128 81.5479 131.625C81.4649 132.123 81.1331 132.455 80.6353 132.455Z" fill="white"/>
<path opacity="0.81" d="M53.7569 122.666H22.2329C21.7352 122.666 21.4033 122.334 21.4033 121.836C21.4033 121.339 21.7352 121.007 22.2329 121.007H53.7569C54.2547 121.007 54.5865 121.339 54.5865 121.836C54.5865 122.251 54.1717 122.666 53.7569 122.666Z" fill="white"/>
<path opacity="0.81" d="M53.7569 142.908H22.2329C21.7352 142.908 21.4033 142.576 21.4033 142.078C21.4033 141.58 21.7352 141.249 22.2329 141.249H53.7569C54.2547 141.249 54.5865 141.58 54.5865 142.078C54.5865 142.493 54.1717 142.908 53.7569 142.908Z" fill="white"/>
<path opacity="0.81" d="M43.4702 152.199H22.2329C21.7352 152.199 21.4033 151.867 21.4033 151.37C21.4033 150.872 21.7352 150.54 22.2329 150.54H43.4702C43.9679 150.54 44.2997 150.872 44.2997 151.37C44.2997 151.867 43.885 152.199 43.4702 152.199Z" fill="white"/>
</g>
</g>
<path d="M296.66 94.7922H290.107H263.809H259.329C257.67 94.7922 256.177 96.0366 255.596 97.8617L254.352 101.927C253.771 103.752 252.361 104.996 250.619 104.996H197.276C195.12 104.996 193.377 106.987 193.377 109.476V169.952C193.377 172.441 195.12 174.432 197.276 174.432H197.525H290.024H296.577C298.9 174.432 300.725 172.441 300.725 169.952V114.287V104.996V99.3549C300.891 96.8662 298.983 94.7922 296.66 94.7922Z" fill="#424EF5"/>
<path d="M258.583 105.66L259.91 101.595C260.491 99.7699 262.067 98.5255 263.892 98.5255H296.743C299.066 98.5255 300.891 100.517 300.891 103.005V108.646V117.938V173.603C300.891 176.091 298.983 178.082 296.743 178.082H197.691C195.369 178.082 193.543 176.091 193.543 173.603V113.126C193.543 110.637 195.451 108.646 197.691 108.646H254.684C256.426 108.646 258.002 107.485 258.583 105.66Z" fill="#5B63F6"/>
<path opacity="0.12" d="M260.987 109.808L262.231 105.909C262.812 104.167 264.305 103.088 265.965 103.088H296.908C299.065 103.088 300.89 104.996 300.89 107.319V112.628V121.422V173.851C300.89 176.174 299.148 178.082 296.908 178.082H203.58C201.423 178.082 199.598 176.174 199.598 173.851V116.859C199.598 114.536 201.34 112.628 203.58 112.628H257.337C258.996 112.628 260.489 111.55 260.987 109.808Z" fill="white"/>
<path d="M289.525 173.022H265.052C264.554 173.022 264.223 172.69 264.223 172.192C264.223 171.694 264.554 171.362 265.052 171.362H289.525C291.101 171.362 292.428 170.035 292.428 168.459V149.047C292.428 148.549 292.76 148.217 293.258 148.217C293.756 148.217 294.088 148.549 294.088 149.047V168.459C294.088 171.031 292.014 173.022 289.525 173.022Z" fill="white"/>
<path d="M4.23232 163.564H10.786H37.2496H41.7294C43.3885 163.564 44.8818 164.975 45.4625 166.966L46.7068 171.611C47.2875 173.685 48.7808 175.013 50.4399 175.013H104.197C106.354 175.013 108.179 177.253 108.179 180.073V248.099C108.179 250.919 106.437 253.159 104.197 253.159H103.948H10.786H4.23232C1.9095 253.159 0.00146484 250.919 0.00146484 248.099V185.548V175.096V168.708C0.00146484 165.804 1.9095 163.564 4.23232 163.564Z" fill="#5B63F6" fill-opacity="0.4"/>
<path opacity="0.12" d="M42.5589 175.676L41.2316 171.031C40.6509 168.957 39.0747 167.629 37.2496 167.629H4.23232C1.9095 167.629 0.00146484 169.869 0.00146484 172.69V179.077V189.53V252.081C0.00146484 254.901 1.9095 257.141 4.23232 257.141H103.948C106.271 257.141 108.179 254.901 108.179 252.081V184.055C108.179 181.234 106.271 178.995 103.948 178.995H46.5409C44.7158 179.16 43.1396 177.75 42.5589 175.676Z" fill="white"/>
<path opacity="0.12" d="M40.0702 180.405L38.8258 176.091C38.2451 174.183 36.7519 172.856 35.0927 172.856H3.98345C1.82654 172.856 0.00146484 175.013 0.00146484 177.667V183.64V193.512V252.495C0.00146484 255.15 1.74358 257.307 3.98345 257.307H97.8919C100.049 257.307 101.874 255.15 101.874 252.495V188.452C101.874 185.797 100.132 183.64 97.8919 183.64H43.8863C42.1441 183.64 40.6509 182.313 40.0702 180.405Z" fill="white"/>
<path d="M7.63383 192.766C7.21904 192.766 6.88721 192.434 6.88721 191.936V180.405C6.88721 178.829 8.04862 177.585 9.45891 177.585H24.8891C25.3039 177.585 25.6357 177.916 25.6357 178.414C25.6357 178.912 25.3039 179.244 24.8891 179.244H9.45891C8.8782 179.244 8.38045 179.742 8.38045 180.405V191.936C8.38045 192.351 8.04862 192.766 7.63383 192.766Z" fill="white"/>
<path d="M208.558 127.893H101.957C84.2873 127.893 69.9355 113.541 69.9355 95.871C69.9355 78.201 84.2873 63.8492 101.957 63.8492H208.558C226.228 63.8492 240.58 78.201 240.58 95.871C240.663 113.541 226.311 127.893 208.558 127.893Z" fill="#C5D9FF"/>
<path d="M155.3 113.707C180.178 113.707 200.346 93.539 200.346 68.6607C200.346 43.7824 180.178 23.6145 155.3 23.6145C130.421 23.6145 110.253 43.7824 110.253 68.6607C110.253 93.539 130.421 113.707 155.3 113.707Z" fill="#5B63F6"/>
<path d="M208.558 118.435H101.957C84.2873 118.435 69.9355 104.084 69.9355 86.4136C69.9355 68.7436 84.2873 54.3918 101.957 54.3918H208.558C226.228 54.3918 240.58 68.7436 240.58 86.4136C240.663 104.084 226.311 118.435 208.558 118.435Z" fill="#5B63F6"/>
<path d="M173.11 100.566C195.959 90.7215 206.5 64.2189 196.656 41.3706C186.812 18.5224 160.309 7.98063 137.461 17.825C114.613 27.6693 104.071 54.172 113.915 77.0202C123.759 99.8685 150.262 110.41 173.11 100.566Z" fill="#5B63F6"/>
<g opacity="0.35">
<g opacity="0.35">
<path opacity="0.35" d="M208.558 118.435H101.957C84.2873 118.435 69.9355 104.084 69.9355 86.4136C69.9355 68.7436 84.2873 54.3918 101.957 54.3918H208.558C226.228 54.3918 240.58 68.7436 240.58 86.4136C240.663 104.084 226.311 118.435 208.558 118.435Z" fill="#ECF1F7"/>
<path opacity="0.35" d="M173.11 100.566C195.959 90.7215 206.5 64.2189 196.656 41.3706C186.812 18.5224 160.309 7.98063 137.461 17.825C114.613 27.6693 104.071 54.172 113.915 77.0202C123.759 99.8685 150.262 110.41 173.11 100.566Z" fill="#ECF1F7"/>
</g>
</g>
<path d="M144.765 65.9232C144.268 65.9232 143.687 65.7572 143.272 65.3425C142.443 64.5129 142.443 63.1855 143.272 62.4389L155.384 50.5759L167.33 62.5219C168.16 63.3515 168.16 64.6788 167.33 65.4254C166.5 66.255 165.173 66.255 164.426 65.4254L155.467 56.4659L146.342 65.5084C145.761 65.7572 145.263 65.9232 144.765 65.9232Z" fill="white"/>
<path d="M155.3 82.432C154.138 82.432 153.226 81.5195 153.226 80.3581V53.3967C153.226 52.2353 154.138 51.3228 155.3 51.3228C156.461 51.3228 157.373 52.2353 157.373 53.3967V80.3581C157.373 81.5195 156.461 82.432 155.3 82.432Z" fill="white"/>
<path d="M174.878 95.2074H135.39C132.57 95.2074 130.247 92.8846 130.247 90.064V75.7123C130.247 74.5508 131.16 73.6383 132.321 73.6383C133.482 73.6383 134.395 74.5508 134.395 75.7123V90.064C134.395 90.6447 134.81 91.0595 135.39 91.0595H174.878C175.625 91.0595 176.206 90.4788 176.206 89.7322V75.7123C176.206 74.5508 177.118 73.6383 178.28 73.6383C179.441 73.6383 180.354 74.5508 180.354 75.7123V89.7322C180.354 92.8016 177.865 95.2074 174.878 95.2074Z" fill="white"/>
<path opacity="0.36" d="M218.015 232.502L104.943 269.833C102.205 270.746 99.2188 269.253 98.3063 266.515L60.9752 153.443C60.0626 150.706 61.5559 147.719 64.2935 146.807L177.365 109.476C180.103 108.563 183.089 110.056 184.002 112.794L221.333 225.866C222.246 228.603 220.752 231.59 218.015 232.502Z" fill="#4C65BA"/>
<path d="M209.636 228.272L96.5645 265.603C93.8269 266.515 90.8404 265.022 89.9279 262.285L52.5967 149.213C51.6842 146.475 53.1774 143.489 55.9151 142.576L168.987 105.245C171.724 104.332 174.711 105.826 175.624 108.563L212.955 221.635C213.95 224.373 212.457 227.359 209.636 228.272Z" fill="white"/>
<path d="M166.97 117.449L64.8066 151.202L98.5597 253.365L200.723 219.612L166.97 117.449Z" fill="#C5D9FF"/>
<path opacity="0.47" d="M97.6434 254.237L90.0112 231.092L101.211 204.131C102.787 200.398 106.852 198.489 110.668 199.651L131.324 206.039C132.569 206.453 133.896 205.956 134.56 204.794L151.815 176.091C155.465 170.035 163.18 167.546 169.651 170.367L188.648 178.497L188.814 178.994L202.17 219.478L201.009 219.893L97.6434 254.237ZM92.6659 231.258L99.2196 251.168L199.018 218.233L186.574 180.653L168.655 172.938C163.263 170.616 156.958 172.69 153.889 177.667L136.634 206.37C135.389 208.444 132.901 209.44 130.578 208.693L109.921 202.306C107.266 201.476 104.529 202.803 103.45 205.292L92.6659 231.258Z" fill="white"/>
<path opacity="0.47" d="M131.737 174.598C126.179 174.598 120.952 171.03 119.127 165.472C116.805 158.504 120.621 151.038 127.506 148.715C134.475 146.392 141.941 150.208 144.264 157.093C146.586 164.062 142.77 171.528 135.885 173.851C134.558 174.349 133.147 174.598 131.737 174.598ZM131.737 150.623C130.659 150.623 129.497 150.789 128.336 151.203C122.695 153.028 119.625 159.167 121.533 164.809C123.358 170.45 129.497 173.519 135.138 171.611C140.779 169.786 143.849 163.647 141.941 158.006C140.448 153.443 136.217 150.623 131.737 150.623Z" fill="white"/>
<path opacity="0.36" d="M252.027 252.827H163.76C160.856 252.827 158.451 250.505 158.451 247.518V159.251C158.451 156.347 160.774 153.941 163.76 153.941H252.027C254.931 153.941 257.337 156.264 257.337 159.251V247.518C257.337 250.505 254.931 252.827 252.027 252.827Z" fill="#4C65BA"/>
<path d="M247.05 247.85H158.699C155.796 247.85 153.39 245.527 153.39 242.541V154.273C153.39 151.37 155.713 148.964 158.699 148.964H246.967C249.87 148.964 252.276 151.287 252.276 154.273V242.541C252.276 245.444 249.953 247.85 247.05 247.85Z" fill="white"/>
<path opacity="0.39" d="M243.815 157.426H161.853V239.388H243.815V157.426Z" fill="#5B63F6" fill-opacity="0.6"/>
<path opacity="0.47" d="M245.142 240.135H160.69V221.137L175.291 204.214C177.365 201.808 181.015 201.31 183.587 203.219L197.026 212.842C197.69 213.339 198.602 213.256 199.266 212.759L218.595 196.167C222.826 192.517 229.131 192.6 233.279 196.25L245.142 206.786V240.135V240.135ZM163.179 237.646H242.653V207.864L231.62 198.075C228.384 195.172 223.49 195.172 220.171 197.992L200.842 214.584C199.349 215.911 197.192 215.994 195.533 214.833L182.094 205.21C180.517 204.048 178.36 204.38 177.116 205.79L163.096 221.967V237.646H163.179Z" fill="white"/>
<path opacity="0.47" d="M207.893 191.107C202.169 191.107 197.523 186.461 197.523 180.737C197.523 175.013 202.169 170.367 207.893 170.367C213.617 170.367 218.262 175.013 218.262 180.737C218.262 186.461 213.617 191.107 207.893 191.107ZM207.893 172.856C203.496 172.856 200.012 176.423 200.012 180.737C200.012 185.051 203.579 188.618 207.893 188.618C212.207 188.618 215.774 185.051 215.774 180.737C215.774 176.423 212.207 172.856 207.893 172.856Z" fill="white"/>
<path opacity="0.36" d="M188.979 261.289L139.038 279.954C136.3 280.95 133.231 279.623 132.235 276.885L113.57 226.944C112.574 224.207 113.902 221.137 116.639 220.142L166.58 201.476C169.318 200.481 172.387 201.808 173.383 204.546L192.048 254.486C193.127 257.224 191.716 260.293 188.979 261.289Z" fill="#4C65BA"/>
<path d="M184.832 259.381L134.891 278.047C132.153 279.042 129.084 277.715 128.088 274.977L109.423 225.037C108.427 222.299 109.755 219.23 112.492 218.234L162.433 199.568C165.171 198.573 168.24 199.9 169.236 202.638L187.901 252.579C188.98 255.316 187.569 258.386 184.832 259.381Z" fill="white"/>
<path d="M164.214 204.699L114.575 223.3L133.176 272.939L182.815 254.337L164.214 204.699Z" fill="#5B63F6"/>
<path opacity="0.47" d="M132.319 274.231L127.839 262.202L132.899 248.514C133.729 246.357 135.969 245.196 138.209 245.776L148.495 248.514C148.827 248.597 149.159 248.431 149.325 248.182L157.206 233.747C159.031 230.429 163.096 228.936 166.663 230.263L176.452 233.996L184.25 254.819L132.319 274.231ZM130.494 262.202L133.812 271.079L181.098 253.326L174.544 235.904L165.834 232.586C163.428 231.673 160.69 232.669 159.446 234.909L151.565 249.344C150.818 250.671 149.325 251.252 147.915 250.92L137.628 248.182C136.632 247.933 135.637 248.431 135.305 249.427L130.494 262.202Z" fill="white"/>
<path opacity="0.47" d="M147.665 234.162C144.761 234.162 142.024 232.42 140.945 229.516C139.535 225.783 141.443 221.718 145.093 220.308C148.743 218.898 152.891 220.806 154.302 224.456C155.712 228.189 153.804 232.254 150.154 233.664C149.407 234.079 148.578 234.162 147.665 234.162ZM147.665 222.382C147.084 222.382 146.587 222.465 146.006 222.714C143.6 223.626 142.356 226.281 143.268 228.687C144.181 231.093 146.835 232.337 149.241 231.424C151.647 230.512 152.891 227.857 151.979 225.451C151.398 223.543 149.573 222.382 147.665 222.382Z" fill="white"/>
</g>
<defs>
<clipPath id="clip0">
<rect width="301.138" height="310.317" fill="white"/>
</clipPath>
</defs>
</svg>
