<svg width="592" height="583" viewBox="0 0 592 583" fill="none" xmlns="http://www.w3.org/2000/svg">
<path d="M297.25 20.2314L237.308 518.453C236.41 525.923 241.558 532.62 248.77 533.337L498.439 560.745C513.732 561.698 522.103 553.889 523.052 545.94L585.991 16.2462C586.929 8.34643 579.425 1.19199 564.066 1.19199L312.125 6.49976C304.825 6.6214 298.144 12.8005 297.25 20.2314Z" fill="url(#paint0_linear)"/>
<path d="M286.013 19.3736L225.741 520.096C224.839 527.616 230.005 534.337 237.242 535.058L496.079 560.827C504.194 561.634 511.631 555.765 512.58 547.779L575.866 15.3397C576.811 7.40015 570.85 1.01754 562.645 1.15687L300.941 5.58002C293.621 5.69502 286.913 11.9051 286.013 19.3736Z" fill="url(#paint1_linear)"/>
<path d="M290.925 46.9939L235.061 511.263C234.216 518.278 239.055 524.555 245.831 525.214L489.257 548.878C496.8 549.612 503.714 544.131 504.598 536.701L563.083 44.8465C563.968 37.4532 558.439 31.4709 550.809 31.5527L304.882 34.1712C298.044 34.2442 291.766 40.0142 290.925 46.9939Z" fill="url(#paint2_linear)"/>
<path d="M421.463 19.0306C421.145 21.6956 423.058 23.8298 425.738 23.7944C428.419 23.759 430.86 21.5695 431.181 18.8979C431.502 16.2263 429.58 14.0943 426.895 14.1319C424.21 14.1695 421.782 16.3634 421.463 19.0306Z" fill="url(#paint3_linear)"/>
<g style="mix-blend-mode:soft-light">
<g style="mix-blend-mode:soft-light">
<path d="M333.011 358.639C382.847 266.503 457.301 238.923 479.705 143.967C491.82 92.6382 483.566 43.5082 469.662 2.72463L562.645 1.16548C570.85 1.02615 576.799 7.40874 575.866 15.3483L512.58 547.779C511.631 555.763 504.193 561.633 496.079 560.828L292.615 540.57C291.104 458.01 310.796 399.71 333.011 358.639Z" fill="white"/>
</g>
</g>
<path d="M516.586 76.8698L517.802 83.436L492.758 83.4957L275.446 84.011C269.858 84.0243 264.714 88.6442 263.946 94.3324L212.074 441.047C211.3 446.798 220.232 455.546 225.786 455.976L322.197 463.384V463.267L466.41 474.325L466.759 474.471C472.918 474.946 478.567 470.477 479.365 464.417C479.365 464.417 479.365 464.441 479.365 464.439L527.96 94.2727C528.747 88.2616 522.778 76.8543 516.586 76.8698Z" fill="url(#paint4_linear)"/>
<path d="M474.462 457.193C473.666 463.257 468.017 467.788 461.856 467.315L220.639 448.789C215.086 448.364 211.22 443.366 211.992 437.627L259.143 87.2424C259.908 81.5564 265.048 76.9342 270.643 76.9187L513.231 76.2553C519.423 76.2398 523.811 81.092 523.024 87.092L474.462 457.193Z" fill="white"/>
<g style="mix-blend-mode:soft-light" opacity="0.4">
<path d="M523.016 87.0919L474.461 457.192C473.665 463.254 467.658 467.759 461.504 467.288L316.621 456.166C309.438 448.805 303.799 440.083 300.035 430.512C298.01 425.35 296.532 419.99 295.627 414.52C292.938 398.893 293.979 381.125 297.903 363.691C300.905 350.298 305.54 337.324 311.703 325.059C316.544 315.499 322.239 306.759 328.597 299.405C333.177 294.117 338.129 288.98 343.353 283.942C349.651 277.864 356.346 271.929 363.257 266.048C379.346 252.336 396.578 238.934 412.53 224.78C449.34 192.126 479.203 155.64 472.022 103.586C471.801 101.947 469.547 89.3898 466.683 76.3724L512.885 76.2464C519.051 76.2353 523.803 81.0897 523.016 87.0919Z" fill="white"/>
</g>
<path d="M435.202 568.433L435.398 568.466C446.072 570.169 459.447 568.979 468.09 561.876C472.644 558.134 475.729 553.198 476.675 547.35C477.237 543.885 477.542 540.225 477 536.735C476.432 533.084 475.021 529.556 473.203 526.352C472.176 524.562 471.039 522.837 469.8 521.188C466.281 516.466 457.963 509.829 461.82 503.135C464.151 499.088 469.525 496.595 473.075 493.758C480.661 487.689 486.11 478.94 486.185 468.955C486.247 461.108 481.32 453.339 475.775 448.065C453.188 426.595 469.828 389.679 437.838 392.572C405.847 395.465 398.914 427.4 410.888 457.207C414.899 467.188 419.78 477.388 422.505 487.817C424.65 496.029 421.62 501.706 414.933 506.558C411.334 509.17 406.086 510.948 402.952 514.024C395.97 520.894 390.38 530.523 392.045 540.601C393.699 550.599 402.218 557.942 411.202 561.741C418.969 565.036 426.895 567.106 435.202 568.433Z" fill="url(#paint5_linear)"/>
<g style="mix-blend-mode:soft-light" opacity="0.8">
<g style="mix-blend-mode:soft-light" opacity="0.8">
<path d="M438.967 559.866C439.043 559.866 439.118 559.852 439.189 559.826C439.352 559.765 439.484 559.642 439.557 559.484C439.631 559.326 439.639 559.146 439.58 558.982C439.445 558.612 426.189 521.606 437.795 491.942C449.591 461.796 436.398 429.525 436.263 429.202C436.182 429.063 436.053 428.958 435.901 428.907C435.748 428.855 435.582 428.861 435.434 428.923C435.285 428.985 435.164 429.099 435.093 429.244C435.023 429.388 435.007 429.553 435.049 429.709C435.181 430.027 448.169 461.823 436.57 491.462C424.783 521.591 438.209 559.059 438.339 559.435C438.387 559.563 438.473 559.673 438.585 559.75C438.698 559.827 438.831 559.868 438.967 559.866Z" fill="white"/>
</g>
</g>
<path d="M428.454 512.853C431.112 508.674 434.103 504.716 437.398 501.019C448.206 488.831 455.794 475.893 460.65 460.281C464.474 447.985 464.392 433.926 466.765 421.232C468.484 412.032 471.6 403.128 474.835 394.368C481.729 375.718 492.085 354.08 509.437 342.88C517.476 337.694 529.399 337.183 538.265 340.89C549.752 345.702 559.908 355.079 560.646 368.116C561.659 386.046 545.999 406.144 558.95 422.632C578.781 447.877 569.51 475.93 542.246 489.642C533.362 494.116 522.95 498.267 515.526 505.134C508.102 512.001 512.518 523.782 513.345 532.511C514.122 540.694 514.977 550.217 509.758 557.221C500.952 569.035 479.681 574.184 465.863 575.356C452.49 576.486 437.292 575.009 427.923 564.298C413.807 548.171 418.414 528.745 428.454 512.853Z" fill="url(#paint6_linear)"/>
<g style="mix-blend-mode:soft-light" opacity="0.8">
<g style="mix-blend-mode:soft-light" opacity="0.8">
<path d="M450.223 564.249C450.356 564.249 450.486 564.208 450.595 564.132C450.705 564.056 450.789 563.949 450.837 563.825C451.28 562.677 494.52 448.54 519.199 402.544C519.255 402.467 519.293 402.38 519.312 402.287C519.331 402.194 519.33 402.098 519.309 402.006C519.287 401.914 519.247 401.827 519.189 401.752C519.132 401.677 519.059 401.615 518.976 401.57C518.892 401.525 518.8 401.499 518.706 401.493C518.611 401.487 518.517 401.501 518.428 401.534C518.339 401.567 518.259 401.619 518.192 401.686C518.125 401.753 518.074 401.834 518.041 401.922C493.322 447.994 450.041 562.21 449.608 563.367C449.573 563.466 449.562 563.572 449.576 563.677C449.59 563.781 449.628 563.881 449.688 563.967C449.749 564.053 449.828 564.124 449.921 564.174C450.014 564.223 450.117 564.25 450.223 564.252V564.249Z" fill="white"/>
</g>
</g>
<path d="M468.917 580.394C466.042 579.987 463.167 579.51 460.312 579.067C452.326 577.785 442.433 575.308 439.921 566.386C439.207 563.849 440.439 559.309 440.735 556.682C441.009 553.989 441.447 551.316 442.044 548.676C442.92 545.065 444.28 541.59 446.087 538.343C449.196 532.671 452.753 528.402 459.372 527.117C464.197 526.182 469.545 525.963 474.448 526.124C501.188 527.009 504.474 517.358 519.159 496.755C533.844 476.152 630.5 509.467 572.201 546.073C572.201 546.073 563.435 551.772 531.436 548.046C525.582 547.364 518.179 546.911 513.217 550.699C504.466 557.376 513.265 571.526 504.428 577.079C499.275 580.315 490.995 581.268 485.075 581.502C479.665 581.686 474.276 581.153 468.917 580.394Z" fill="url(#paint7_linear)"/>
<g style="mix-blend-mode:soft-light" opacity="0.8">
<g style="mix-blend-mode:soft-light" opacity="0.8">
<path d="M451.07 569.363C451.173 569.363 451.276 569.339 451.368 569.292C451.461 569.245 451.541 569.177 451.603 569.093C451.771 568.861 468.698 545.848 492.711 540.416C502.106 538.291 510.225 533.538 518.078 528.938C531.317 521.197 543.823 513.861 562.281 517.625C562.441 517.636 562.6 517.589 562.728 517.491C562.856 517.394 562.944 517.253 562.976 517.095C563.008 516.937 562.982 516.774 562.902 516.634C562.822 516.494 562.694 516.388 562.542 516.336C543.593 512.472 530.284 520.266 517.412 527.803C509.648 532.352 501.617 537.054 492.422 539.133C467.915 544.678 450.709 568.085 450.537 568.326C450.468 568.425 450.428 568.54 450.42 568.66C450.412 568.78 450.436 568.9 450.491 569.007C450.546 569.113 450.629 569.204 450.73 569.267C450.832 569.331 450.95 569.366 451.07 569.368V569.363Z" fill="white"/>
</g>
</g>
<path d="M181.517 80.2889C181.517 119.85 149.637 154.054 110.191 156.69C70.604 159.344 38.4256 129.218 38.4256 89.4095C38.4256 49.6012 70.6107 15.3815 110.191 12.9819C149.648 10.589 181.517 40.7261 181.517 80.2889Z" fill="url(#paint8_linear)"/>
<path d="M189.982 82.8234C189.982 122.384 158.105 156.588 118.659 159.224C79.0719 161.878 46.8913 131.752 46.8913 91.9439C46.8913 52.1356 79.0785 17.9159 118.659 15.5142C158.105 13.1235 189.982 43.2606 189.982 82.8234Z" fill="url(#paint9_linear)"/>
<path d="M116.138 126.252C114.644 126.368 113.147 126.073 111.808 125.4C110.47 124.727 109.341 123.701 108.543 122.432L81.5732 79.1233C79.0453 75.0651 80.4077 69.5074 84.6141 66.7098C88.8205 63.9121 94.2698 64.9405 96.7954 68.9899L115.499 99.0539L140.18 48.7895C142.391 44.2779 147.715 42.21 152.063 44.1651C156.411 46.1201 158.136 51.3615 155.924 55.8687L124.031 120.878C123.321 122.336 122.254 123.592 120.928 124.527C119.603 125.462 118.062 126.046 116.45 126.225L116.138 126.252Z" fill="white"/>
<path d="M467.293 147.129C469.268 147.162 471.203 145.663 471.438 143.779L477.228 97.298C477.464 95.4049 476.044 93.8723 474.061 93.8723H435.051C433.116 93.8723 431.364 95.3828 431.137 97.2493C430.909 99.1159 432.145 100.631 434.078 100.635L469.339 100.708L464.005 143.67C463.77 145.541 465.323 147.089 467.293 147.129Z" fill="url(#paint10_linear)"/>
<path d="M412.022 282.104L450.373 284.356C452.322 284.468 454.091 283.057 454.323 281.202L460.029 235.387C460.25 233.52 458.715 231.941 456.758 231.848C454.801 231.755 452.886 233.208 452.653 235.068L447.394 277.433L412.69 275.458C411.783 275.406 410.89 275.699 410.19 276.278C409.49 276.856 409.034 277.678 408.915 278.579C408.692 280.419 410.122 281.994 412.022 282.104Z" fill="url(#paint11_linear)"/>
<path d="M290.26 144.232C292.029 144.261 293.469 142.841 293.674 141.061L298.367 100.341L331.004 100.41C332.817 100.41 334.542 98.9501 334.75 97.141C334.958 95.3319 333.737 93.8634 331.924 93.8634H296.211C295.327 93.8873 294.481 94.2262 293.824 94.8191C293.168 95.4119 292.746 96.2197 292.633 97.0968L287.592 140.963C287.387 142.739 288.495 144.203 290.26 144.232Z" fill="url(#paint12_linear)"/>
<path d="M275.469 274.092L310.604 276.153C311.476 276.194 312.332 275.906 313.001 275.346C313.67 274.785 314.104 273.993 314.216 273.127C314.423 271.358 312.99 269.828 311.203 269.728L279.056 267.919L283.687 227.737C283.89 225.967 282.787 224.479 281.033 224.406C279.279 224.333 277.853 225.698 277.651 227.458L272.677 270.732C272.623 271.139 272.654 271.552 272.767 271.947C272.881 272.341 273.075 272.708 273.337 273.023C273.599 273.339 273.924 273.597 274.291 273.781C274.658 273.965 275.059 274.07 275.469 274.092Z" fill="url(#paint13_linear)"/>
<path d="M420.294 314.519C420.057 316.323 418.37 317.67 416.534 317.604L288.895 312.944C288.503 312.939 288.116 312.849 287.762 312.681C287.408 312.512 287.095 312.268 286.844 311.967C286.593 311.665 286.411 311.313 286.309 310.934C286.208 310.555 286.19 310.159 286.256 309.773L288.767 291.171C288.89 290.355 289.311 289.612 289.949 289.088C290.587 288.563 291.396 288.293 292.221 288.329L419.973 291.868C421.816 291.919 423.123 293.221 422.886 295.026L420.294 314.519Z" fill="#F4F7FA"/>
<path d="M415.35 352.313C415.112 354.12 413.424 355.664 411.591 355.573L284.043 349.268C282.357 349.184 281.188 347.573 281.418 345.846L283.948 326.888C284.169 325.163 285.732 323.684 287.415 323.752L415.036 328.903C415.467 328.925 415.888 329.037 416.273 329.231C416.658 329.425 416.998 329.697 417.271 330.03C417.545 330.363 417.746 330.75 417.861 331.165C417.977 331.58 418.005 332.015 417.942 332.442L415.35 352.313Z" fill="#F4F7FA"/>
<path d="M422.89 294.96C422.574 294.861 422.245 294.806 421.914 294.799L294.163 291.26C293.338 291.223 292.529 291.493 291.891 292.017C291.253 292.541 290.832 293.283 290.708 294.1L288.196 312.701C288.196 312.75 288.196 312.794 288.181 312.84C286.887 312.475 286.053 311.248 286.248 309.777L288.76 291.178C288.883 290.362 289.304 289.619 289.942 289.095C290.58 288.571 291.39 288.301 292.215 288.339L419.966 291.877C421.779 291.93 423.08 293.193 422.89 294.96Z" fill="#AABBCC"/>
<path d="M417.971 332.035C417.655 331.91 417.321 331.839 416.982 331.824L289.375 326.676C287.69 326.61 286.135 328.089 285.907 329.814L283.373 348.774C283.358 348.894 283.35 349.014 283.348 349.134C282.052 348.716 281.23 347.323 281.424 345.852L283.959 326.89C284.18 325.168 285.741 323.686 287.426 323.754L415.034 328.903C415.833 328.944 416.586 329.293 417.133 329.877C417.681 330.461 417.981 331.234 417.971 332.035Z" fill="#AABBCC"/>
<path d="M381.421 382.943C381.799 380.09 379.782 377.462 376.913 377.297L310.889 373.506C308.156 373.349 305.63 375.651 305.259 378.429L302.534 398.966C302.163 401.748 304.058 404.411 306.791 404.599L372.796 409.113C375.671 409.309 378.302 406.888 378.678 404.026L381.421 382.943Z" fill="url(#paint14_linear)"/>
<path d="M104.939 229.491L184.292 258.506L164.184 286.452L108.935 246.396L104.939 229.491Z" fill="white"/>
<path d="M163.138 285.455L169.185 262.919C169.303 262.476 169.531 262.071 169.848 261.739C170.164 261.408 170.559 261.162 170.996 261.023L181.558 257.668L181.598 257.655L181.68 257.631C181.71 257.622 181.742 257.617 181.773 257.615C181.796 257.61 181.818 257.605 181.842 257.602C181.866 257.602 181.888 257.602 181.91 257.602C182.351 257.524 182.805 257.568 183.224 257.729C183.642 257.89 184.008 258.162 184.283 258.515C184.064 258.696 183.799 258.813 183.517 258.852C183.236 258.891 182.949 258.851 182.689 258.737L175.136 283.051L164.184 286.459C164.044 286.502 163.895 286.507 163.752 286.473C163.609 286.439 163.478 286.368 163.372 286.266C163.266 286.164 163.19 286.036 163.15 285.894C163.11 285.753 163.11 285.604 163.147 285.462L163.138 285.455Z" fill="url(#paint15_linear)"/>
<path d="M164.952 285.45L170.903 263.629C171.022 263.191 171.249 262.791 171.561 262.462C171.874 262.134 172.263 261.889 172.694 261.749L183.531 258.23C183.649 258.188 183.777 258.179 183.899 258.206C184.021 258.233 184.134 258.294 184.223 258.383C184.312 258.471 184.374 258.582 184.402 258.705C184.431 258.827 184.424 258.954 184.383 259.073L177.237 282.118C177.148 282.402 176.992 282.661 176.781 282.872C176.57 283.083 176.312 283.24 176.027 283.33L165.987 286.459C165.846 286.503 165.697 286.508 165.554 286.474C165.41 286.44 165.279 286.368 165.173 286.266C165.068 286.163 164.991 286.035 164.952 285.893C164.913 285.751 164.913 285.601 164.952 285.459V285.45Z" fill="url(#paint16_linear)"/>
<path d="M194.542 277.152C199.021 281.098 190.827 310.656 167.561 319.467C149.225 326.413 127.337 318.71 116.839 303.461C110.786 294.668 105.303 278.968 112.027 271.334C112.332 270.986 116.129 266.807 121.547 267.103C134.087 267.793 134.896 291.371 148.345 294.255C151.505 294.931 152.642 293.883 179.044 282.369C191.778 276.816 193.463 276.21 194.542 277.152Z" fill="url(#paint17_linear)"/>
<path d="M160.294 288.913C160.294 288.913 159.171 284.537 161.864 282.518C164.558 280.498 165.679 275.219 166.128 277.13C166.577 279.041 166.128 281.283 166.128 281.283C166.128 281.283 175.78 272.866 175.669 275.783C175.559 278.7 168.592 288.464 164.109 290.38C159.626 292.295 160.363 292.574 160.294 288.913Z" fill="url(#paint18_linear)"/>
<path d="M193.324 277.466C193.324 277.466 193.474 271.256 196.692 269.836C199.91 268.417 203.575 261.231 203.351 264.898C203.128 268.565 199.835 270.285 199.835 270.285C199.835 270.285 205.143 272.198 202.827 275.168C200.512 278.139 197.889 278.738 195.195 280.085C195.195 280.085 194.465 282.349 192.614 282.011C190.763 281.673 192.353 278.477 193.324 277.466Z" fill="url(#paint19_linear)"/>
<path d="M80.472 354.575C62.5582 363.154 45.56 360.595 33.6639 358.806C20.2198 356.785 7.27318 354.825 2.19319 344.791C-2.83594 334.839 1.65798 320.561 9.59755 312.79C18.926 303.663 28.2323 308.207 34.7211 299.299C41.3691 290.176 33.5202 282.774 39.4804 272.588C46.9843 259.76 63.1022 265.208 70.9511 252.226C77.3912 241.575 69.5003 232.874 75.9758 226.045C84.9593 216.57 111.16 221.637 115.355 232.797C116.994 237.156 114.508 240.411 112.673 246.54C106.83 266.037 118.779 277.101 119.876 294.803C121.357 318.715 102.541 343.995 80.472 354.575Z" fill="url(#paint20_linear)"/>
<path d="M68.3303 558.04C68.3303 558.04 86.255 560.311 86.9406 564.385C87.7346 569.113 67.0078 564.96 67.0078 564.96C67.0078 564.96 63.8386 563.913 68.3303 558.04Z" fill="url(#paint21_linear)"/>
<path d="M69.4714 548.344L69.0291 558.352C69.0291 558.352 71.2186 561.13 73.7287 559.119L75.7191 548.344H69.4714Z" fill="url(#paint22_linear)"/>
<path d="M97.5317 562.881C97.5317 562.881 115.457 565.152 116.142 569.226C116.936 573.954 96.2091 569.801 96.2091 569.801C96.2091 569.801 93.0311 568.759 97.5317 562.881Z" fill="url(#paint23_linear)"/>
<path d="M98.6731 553.19L98.2308 563.197C98.2308 563.197 100.42 565.974 102.93 563.964L104.932 553.19H98.6731Z" fill="url(#paint24_linear)"/>
<path d="M122.848 388.255C121.528 408.458 118.344 428.495 113.338 448.111C111.087 456.942 108.822 464.302 103.726 479.6C97.6424 497.867 89.0638 522.818 77.8798 552.953L68.1489 554.442C61.4368 529.975 63.3653 510.734 70.2588 495.439C74.3413 486.372 76.7431 486.296 80.9451 476.181C85.4102 465.432 87.2348 454.602 86.1069 418.041C85.7862 407.688 85.1891 393.935 83.9816 377.646L122.848 388.255Z" fill="url(#paint25_linear)"/>
<path style="mix-blend-mode:multiply" opacity="0.3" d="M122.848 388.255C121.528 408.457 118.345 428.495 113.338 448.111C111.087 456.942 108.822 464.302 103.727 479.6C97.6428 497.867 89.0641 522.818 77.8801 552.953L68.1491 554.441C62.4145 531.605 66.6143 519.611 71.8314 512.84C75.0537 508.655 79.1009 505.895 82.0578 498.686C85.5344 490.213 83.0707 486.378 84.8776 476.459C87.3103 463.088 93.0914 462.889 95.1327 452.433C97.5411 440.101 90.7095 434.163 86.1072 418.032C83.544 409.057 81.2904 395.604 83.9819 377.637L122.848 388.255Z" fill="url(#paint26_linear)"/>
<path d="M100.385 385.962C108.541 396.234 131.457 427.847 132.121 473.859C132.74 516.763 113.643 547.341 105.987 558.341L96.4195 557.467C95.2581 544.488 95.7911 531.412 98.0052 518.57C102.178 494.491 108.784 491.89 107.791 478.158C106.544 460.934 95.6565 458.172 78.7005 426.885C69.5623 410.026 58.6483 389.889 65.7429 382.432C67.0854 381.012 73.6692 375.227 100.385 385.962Z" fill="url(#paint27_linear)"/>
<path d="M108.68 259.92C120.167 262.012 127.05 269.887 128.947 272.123C131.305 274.903 138.278 283.966 138.413 307.154C138.541 329.385 132.194 331.957 130.27 353.047C127.432 384.155 139.397 398.753 131.055 405.766C123.954 411.737 115.317 401.122 91.3926 402.278C71.6433 403.227 67.8417 410.915 50.8656 408.993C48.2715 408.699 25.6051 405.897 22.1153 394.038C19.6825 385.8 28.6305 380.395 40.8915 360.453C52.6305 341.361 58.4049 323.591 61.2733 314.762C69.9249 288.13 66.3334 280.85 76.1129 271.115C77.3293 269.905 91.0034 256.708 108.68 259.92Z" fill="url(#paint28_linear)"/>
<path d="M97.074 238.799C97.074 238.799 99.4139 255.05 90.4969 263.775C90.3548 263.914 90.2528 264.088 90.2017 264.28C90.1505 264.473 90.152 264.675 90.2061 264.866C90.2602 265.057 90.3649 265.23 90.509 265.367C90.6532 265.504 90.8316 265.6 91.0254 265.644C95.1677 266.515 104.803 267.917 114.147 264.779C114.329 264.712 114.491 264.598 114.615 264.449C114.739 264.3 114.822 264.121 114.855 263.93C114.888 263.739 114.871 263.542 114.804 263.36C114.737 263.178 114.623 263.017 114.475 262.892C112.52 261.324 109.231 258.328 107.479 254.727C104.883 249.393 104.419 240.29 104.419 240.29L97.074 238.799Z" fill="url(#paint29_linear)"/>
<g style="mix-blend-mode:multiply" opacity="0.3">
<path style="mix-blend-mode:multiply" opacity="0.3" d="M40.8824 360.458C52.6215 341.365 58.3959 323.595 61.2643 314.767C69.916 288.135 66.3244 280.854 76.1039 271.119C79.2554 268.115 82.8278 265.587 86.7084 263.613C85.1028 268.839 84.143 274.989 85.0475 281.648C88.1437 304.348 110.038 312.241 107.261 326.342C104.715 339.231 85.2068 338.696 82.4025 352.523C79.5164 366.754 98.4032 376.1 94.5661 386.11C90.8618 395.77 71.8754 390.694 53.0461 402.241C50.2701 403.945 47.6594 405.905 45.2481 408.095C37.543 406.558 24.6805 402.736 22.1062 394.038C19.6757 385.804 28.6215 380.399 40.8824 360.458Z" fill="url(#paint30_linear)"/>
</g>
<path d="M96.7914 244.604C96.7914 244.604 100.821 250.133 107.137 247.829C112.792 245.765 109.417 231.158 104.926 229.491C103.431 228.936 100.682 229.181 98.846 230.327C97.5522 231.134 94.1044 235.413 96.0815 240.221C94.6529 239.808 93.3945 240.184 93.0804 240.885C92.6801 241.782 93.8899 243.003 94.1641 243.282C94.88 243.987 95.7989 244.449 96.7914 244.604Z" fill="url(#paint31_linear)"/>
<path d="M166.933 289.212L160.551 286.806C159.297 289.084 150.939 303.751 135.294 305.978C120.543 308.079 106.69 298.071 100.254 288.259C94.1504 278.955 95.3888 270.851 89.6741 269.086C83.9241 267.317 76.7984 273.698 73.4102 278.079C65.3999 288.436 65.6808 303.888 70.6347 314.97C78.687 332.986 100.321 342.208 118.763 340.33C147.332 337.422 160.562 308.656 162.802 303.463C164.756 298.899 166.144 294.113 166.933 289.212Z" fill="url(#paint32_linear)"/>
<path d="M64.6814 220.096C64.2816 220.104 63.8947 219.955 63.6048 219.679C63.3149 219.404 63.1455 219.025 63.1333 218.625V198.254C63.1333 197.858 63.2908 197.477 63.5711 197.196C63.8514 196.916 64.2316 196.758 64.6283 196.757H80.8679C81.0606 196.758 81.2512 196.797 81.4288 196.872C81.6064 196.947 81.7675 197.056 81.9029 197.194C82.0382 197.331 82.1452 197.493 82.2177 197.672C82.2902 197.851 82.3267 198.042 82.3253 198.234C82.333 198.424 82.3027 198.613 82.2362 198.791C82.1697 198.968 82.0684 199.131 81.9381 199.269C81.8079 199.407 81.6514 199.517 81.4778 199.593C81.3043 199.67 81.1172 199.711 80.9276 199.714L66.2383 199.747V218.577C66.2236 218.981 66.0537 219.365 65.7638 219.648C65.474 219.931 65.0864 220.091 64.6814 220.096Z" fill="url(#paint33_linear)"/>
<path d="M80.868 279.824L64.6239 280.828C64.4314 280.842 64.2379 280.816 64.0559 280.752C63.8739 280.688 63.7072 280.586 63.5666 280.454C63.426 280.321 63.3145 280.161 63.2391 279.984C63.1637 279.806 63.1262 279.614 63.1289 279.421V259.053C63.1459 258.646 63.3141 258.261 63.6004 257.971C63.8867 257.682 64.2706 257.51 64.677 257.489C64.8732 257.478 65.0696 257.507 65.2546 257.573C65.4395 257.639 65.6092 257.742 65.7537 257.876C65.8981 258.009 66.0142 258.17 66.0952 258.349C66.1762 258.528 66.2204 258.721 66.2251 258.918V277.747L80.9145 276.862C81.1017 276.85 81.2895 276.877 81.4656 276.942C81.6417 277.007 81.8022 277.109 81.9366 277.24C82.0711 277.37 82.1766 277.528 82.2462 277.702C82.3159 277.877 82.3481 278.064 82.3409 278.251C82.334 278.649 82.1795 279.031 81.9074 279.321C81.6352 279.612 81.2648 279.791 80.868 279.824Z" fill="url(#paint34_linear)"/>
<path d="M138.734 218.826C137.995 218.84 137.46 218.216 137.46 217.433V199.59L123.863 199.619C123.489 199.612 123.132 199.459 122.87 199.192C122.608 198.924 122.462 198.565 122.463 198.19C122.455 198.009 122.484 197.828 122.546 197.657C122.609 197.487 122.705 197.33 122.828 197.197C122.951 197.064 123.1 196.957 123.265 196.881C123.43 196.805 123.609 196.763 123.79 196.757H138.661C139.024 196.77 139.367 196.925 139.616 197.19C139.864 197.455 139.998 197.807 139.988 198.17V217.391C140.003 218.172 139.475 218.815 138.734 218.826Z" fill="url(#paint35_linear)"/>
<path d="M138.67 276.263L123.799 277.181C123.619 277.19 123.439 277.162 123.27 277.097C123.101 277.033 122.948 276.935 122.82 276.808C122.691 276.681 122.59 276.529 122.524 276.362C122.457 276.194 122.426 276.014 122.432 275.834C122.443 275.45 122.594 275.083 122.858 274.804C123.122 274.524 123.48 274.352 123.863 274.319L137.46 273.514V255.671C137.46 254.888 137.995 254.227 138.734 254.194C139.472 254.161 140.003 254.767 140.003 255.547V274.768C140.008 275.139 139.874 275.498 139.627 275.775C139.38 276.052 139.039 276.226 138.67 276.263Z" fill="url(#paint36_linear)"/>
<path d="M364.155 264.301C321.94 264.301 290.903 228.964 294.893 186.33C298.801 144.555 335.022 111.185 375.706 111.185C416.391 111.185 447.583 144.555 445.183 186.33C442.739 228.958 406.37 264.301 364.155 264.301Z" fill="#AABBCC"/>
<path d="M442.238 186.33C439.856 227.341 404.987 261.187 364.391 261.187C323.796 261.187 294.035 227.35 297.841 186.33C301.576 146.114 336.322 114.08 375.489 114.08C414.656 114.08 444.569 146.114 442.238 186.33Z" fill="#EAEDF3"/>
<path d="M366.161 134.021C352.411 133.623 338.737 140.782 332.058 150.779C323.972 162.891 332.872 168.969 326.56 188.862C320.693 207.357 310.415 210.535 310.975 222.785C311.596 236.276 324.616 244.901 329.773 248.302C353.066 263.703 391.477 263.058 412.235 243.215C413.958 241.568 428.143 227.991 425.314 215.571C422.797 204.526 409.085 204.449 407.002 193.035C405.215 183.251 414.743 180.1 414.774 166.023C414.774 163.281 414.805 150.343 404.91 144.391C398.335 140.437 390.734 141.57 387.938 142.122C384.798 139.645 377.135 134.34 366.161 134.021Z" fill="url(#paint37_linear)"/>
<path d="M286.513 236.554C286.513 236.554 361.008 197.016 445.992 236.424C445.992 236.424 432.764 270.792 365.048 273.158C294.975 275.607 286.513 236.554 286.513 236.554Z" fill="url(#paint38_linear)"/>
<path d="M359.174 185.226L355.063 203.903C353.652 210.316 348.572 215.69 341.924 217.776L319.647 224.756C319.647 224.756 359.701 243.939 413.533 224.756L390.232 216.814C383.643 214.381 379.481 208.29 379.689 201.386L380.171 185.463L359.174 185.226Z" fill="url(#paint39_linear)"/>
<path d="M392.315 169.261C391.209 184.885 380.012 201.727 367.589 201.632C355.092 201.534 346.294 184.35 347.577 168.555C348.848 152.879 359.579 144.575 371.891 144.84C384.132 145.106 393.408 153.764 392.315 169.261Z" fill="url(#paint40_linear)"/>
<path d="M380.952 155.031C374.264 155.228 364.049 156.553 356.498 163.367C343.762 174.867 347.873 193.549 342.499 194.608C337.711 195.55 331.545 182.177 332.892 167.682C334.011 155.62 339.569 141.585 351.202 138.294C358.022 136.368 359.714 139.783 381.027 142.24C393.449 143.671 388.166 148.843 390.842 150.865C402.756 159.877 399.18 188.962 392.352 189.262C389.117 189.406 385.209 181.708 380.952 155.031Z" fill="url(#paint41_linear)"/>
<defs>
<linearGradient id="paint0_linear" x1="414.736" y1="268.129" x2="513.129" y2="278.862" gradientUnits="userSpaceOnUse">
<stop stop-color="#444B8C"/>
<stop offset="1" stop-color="#26264F"/>
</linearGradient>
<linearGradient id="paint1_linear" x1="512136" y1="370363" x2="-363721" y2="2.23655e+06" gradientUnits="userSpaceOnUse">
<stop stop-color="#444B8C"/>
<stop offset="1" stop-color="#26264F"/>
</linearGradient>
<linearGradient id="paint2_linear" x1="234.966" y1="290.247" x2="563.176" y2="290.247" gradientUnits="userSpaceOnUse">
<stop stop-color="#AA80F9"/>
<stop offset="1" stop-color="#6165D7"/>
</linearGradient>
<linearGradient id="paint3_linear" x1="419.212" y1="-0.292126" x2="705.158" y2="774.134" gradientUnits="userSpaceOnUse">
<stop stop-color="#FFC444"/>
<stop offset="1" stop-color="#F36F56"/>
</linearGradient>
<linearGradient id="paint4_linear" x1="212.025" y1="275.686" x2="528.031" y2="275.686" gradientUnits="userSpaceOnUse">
<stop stop-color="#311944"/>
<stop offset="1" stop-color="#893976"/>
</linearGradient>
<linearGradient id="paint5_linear" x1="486.187" y1="480.793" x2="391.749" y2="480.793" gradientUnits="userSpaceOnUse">
<stop stop-color="#FF9085"/>
<stop offset="1" stop-color="#FB6FBB"/>
</linearGradient>
<linearGradient id="paint6_linear" x1="-334082" y1="625930" x2="-436561" y2="625930" gradientUnits="userSpaceOnUse">
<stop stop-color="#FFC444"/>
<stop offset="1" stop-color="#F36F56"/>
</linearGradient>
<linearGradient id="paint7_linear" x1="590.721" y1="535.975" x2="439.702" y2="535.975" gradientUnits="userSpaceOnUse">
<stop stop-color="#E38DDD"/>
<stop offset="1" stop-color="#9571F6"/>
</linearGradient>
<linearGradient id="paint8_linear" x1="100931" y1="137449" x2="193512" y2="137449" gradientUnits="userSpaceOnUse">
<stop stop-color="#444B8C"/>
<stop offset="1" stop-color="#26264F"/>
</linearGradient>
<linearGradient id="paint9_linear" x1="106416" y1="139103" x2="198998" y2="139103" gradientUnits="userSpaceOnUse">
<stop stop-color="#AA80F9"/>
<stop offset="1" stop-color="#6165D7"/>
</linearGradient>
<linearGradient id="paint10_linear" x1="-52230.1" y1="61948.1" x2="-45106.8" y2="53577.8" gradientUnits="userSpaceOnUse">
<stop stop-color="#AA80F9"/>
<stop offset="1" stop-color="#6165D7"/>
</linearGradient>
<linearGradient id="paint11_linear" x1="-61141.7" y1="526314" x2="-55428.4" y2="533862" gradientUnits="userSpaceOnUse">
<stop stop-color="#AA80F9"/>
<stop offset="1" stop-color="#6165D7"/>
</linearGradient>
<linearGradient id="paint12_linear" x1="184289" y1="57517.7" x2="179018" y2="50818.2" gradientUnits="userSpaceOnUse">
<stop stop-color="#AA80F9"/>
<stop offset="1" stop-color="#6165D7"/>
</linearGradient>
<linearGradient id="paint13_linear" x1="159890" y1="516190" x2="153477" y2="523178" gradientUnits="userSpaceOnUse">
<stop stop-color="#AA80F9"/>
<stop offset="1" stop-color="#6165D7"/>
</linearGradient>
<linearGradient id="paint14_linear" x1="141738" y1="69503.2" x2="160604" y2="127549" gradientUnits="userSpaceOnUse">
<stop stop-color="#AA80F9"/>
<stop offset="1" stop-color="#6165D7"/>
</linearGradient>
<linearGradient id="paint15_linear" x1="-43790.6" y1="49589.5" x2="-43305.9" y2="50546.3" gradientUnits="userSpaceOnUse">
<stop stop-color="#444B8C"/>
<stop offset="1" stop-color="#26264F"/>
</linearGradient>
<linearGradient id="paint16_linear" x1="-38678.8" y1="51268.9" x2="-40396" y2="51268.9" gradientUnits="userSpaceOnUse">
<stop stop-color="#444B8C"/>
<stop offset="1" stop-color="#26264F"/>
</linearGradient>
<linearGradient id="paint17_linear" x1="-168851" y1="104824" x2="-202898" y2="104824" gradientUnits="userSpaceOnUse">
<stop stop-color="#FFC444"/>
<stop offset="1" stop-color="#F36F56"/>
</linearGradient>
<linearGradient id="paint18_linear" x1="175.669" y1="283.462" x2="160.062" y2="283.462" gradientUnits="userSpaceOnUse">
<stop stop-color="#311944"/>
<stop offset="1" stop-color="#A03976"/>
</linearGradient>
<linearGradient id="paint19_linear" x1="22512.8" y1="33074.7" x2="23126.8" y2="33074.7" gradientUnits="userSpaceOnUse">
<stop stop-color="#311944"/>
<stop offset="1" stop-color="#A03976"/>
</linearGradient>
<linearGradient id="paint20_linear" x1="-287429" y1="254758" x2="-328778" y2="283152" gradientUnits="userSpaceOnUse">
<stop stop-color="#311944"/>
<stop offset="1" stop-color="#893976"/>
</linearGradient>
<linearGradient id="paint21_linear" x1="95.8178" y1="540.091" x2="64.7874" y2="576.763" gradientUnits="userSpaceOnUse">
<stop stop-color="#444B8C"/>
<stop offset="1" stop-color="#3E4177"/>
</linearGradient>
<linearGradient id="paint22_linear" x1="-16322.6" y1="35421.4" x2="-16478.8" y2="36711.3" gradientUnits="userSpaceOnUse">
<stop stop-color="#311944"/>
<stop offset="1" stop-color="#893976"/>
</linearGradient>
<linearGradient id="paint23_linear" x1="48799.5" y1="27131.2" x2="49556.2" y2="29318.2" gradientUnits="userSpaceOnUse">
<stop stop-color="#444B8C"/>
<stop offset="1" stop-color="#3E4177"/>
</linearGradient>
<linearGradient id="paint24_linear" x1="-15488.8" y1="35531.3" x2="-15644.7" y2="36821.2" gradientUnits="userSpaceOnUse">
<stop stop-color="#311944"/>
<stop offset="1" stop-color="#893976"/>
</linearGradient>
<linearGradient id="paint25_linear" x1="134250" y1="473841" x2="149915" y2="473841" gradientUnits="userSpaceOnUse">
<stop stop-color="#444B8C"/>
<stop offset="1" stop-color="#3E4177"/>
</linearGradient>
<linearGradient id="paint26_linear" x1="131052" y1="473864" x2="145979" y2="473864" gradientUnits="userSpaceOnUse">
<stop stop-color="#444B8C"/>
<stop offset="1" stop-color="#3E4177"/>
</linearGradient>
<linearGradient id="paint27_linear" x1="153742" y1="481411" x2="175065" y2="481411" gradientUnits="userSpaceOnUse">
<stop stop-color="#444B8C"/>
<stop offset="1" stop-color="#3E4177"/>
</linearGradient>
<linearGradient id="paint28_linear" x1="-257358" y1="312406" x2="-318942" y2="312406" gradientUnits="userSpaceOnUse">
<stop stop-color="#FFC444"/>
<stop offset="1" stop-color="#F36F56"/>
</linearGradient>
<linearGradient id="paint29_linear" x1="56508.1" y1="49774.2" x2="60018.7" y2="48097.5" gradientUnits="userSpaceOnUse">
<stop stop-color="#311944"/>
<stop offset="1" stop-color="#A03976"/>
</linearGradient>
<linearGradient id="paint30_linear" x1="-189079" y1="302138" x2="-234355" y2="302138" gradientUnits="userSpaceOnUse">
<stop stop-color="#FFC444"/>
<stop offset="1" stop-color="#F36F56"/>
</linearGradient>
<linearGradient id="paint31_linear" x1="42420.5" y1="30609.7" x2="40573" y2="31656.4" gradientUnits="userSpaceOnUse">
<stop stop-color="#311944"/>
<stop offset="1" stop-color="#A03976"/>
</linearGradient>
<linearGradient id="paint32_linear" x1="-207231" y1="140134" x2="-252283" y2="140134" gradientUnits="userSpaceOnUse">
<stop stop-color="#FFC444"/>
<stop offset="1" stop-color="#F36F56"/>
</linearGradient>
<linearGradient id="paint33_linear" x1="77095.1" y1="35929.6" x2="75830.5" y2="34519.4" gradientUnits="userSpaceOnUse">
<stop stop-color="#AA80F9"/>
<stop offset="1" stop-color="#6165D7"/>
</linearGradient>
<linearGradient id="paint34_linear" x1="77158.3" y1="234148" x2="75887.7" y2="235566" gradientUnits="userSpaceOnUse">
<stop stop-color="#AA80F9"/>
<stop offset="1" stop-color="#6165D7"/>
</linearGradient>
<linearGradient id="paint35_linear" x1="-23128.6" y1="33904.2" x2="-22002.3" y2="32690.9" gradientUnits="userSpaceOnUse">
<stop stop-color="#AA80F9"/>
<stop offset="1" stop-color="#6165D7"/>
</linearGradient>
<linearGradient id="paint36_linear" x1="-23205.4" y1="230210" x2="-22034.2" y2="231424" gradientUnits="userSpaceOnUse">
<stop stop-color="#AA80F9"/>
<stop offset="1" stop-color="#6165D7"/>
</linearGradient>
<linearGradient id="paint37_linear" x1="249257" y1="139483" x2="245043" y2="74389.7" gradientUnits="userSpaceOnUse">
<stop stop-color="#311944"/>
<stop offset="1" stop-color="#893976"/>
</linearGradient>
<linearGradient id="paint38_linear" x1="304842" y1="2563.1" x2="314572" y2="166808" gradientUnits="userSpaceOnUse">
<stop stop-color="#FFC444"/>
<stop offset="1" stop-color="#F36F56"/>
</linearGradient>
<linearGradient id="paint39_linear" x1="367.749" y1="242.525" x2="362.052" y2="155.29" gradientUnits="userSpaceOnUse">
<stop stop-color="#893976"/>
<stop offset="1" stop-color="#311944"/>
</linearGradient>
<linearGradient id="paint40_linear" x1="101879" y1="74504.4" x2="79358.2" y2="87188.2" gradientUnits="userSpaceOnUse">
<stop stop-color="#893976"/>
<stop offset="1" stop-color="#311944"/>
</linearGradient>
<linearGradient id="paint41_linear" x1="143488" y1="63565.5" x2="141966" y2="33888.9" gradientUnits="userSpaceOnUse">
<stop stop-color="#311944"/>
<stop offset="1" stop-color="#893976"/>
</linearGradient>
</defs>
</svg>
